<!-- Generated by IcoMoon.io -->
<svg version="1.1" xmlns="http://www.w3.org/2000/svg" width="32" height="32" viewBox="0 0 32 32">
<title>untitled399</title>
<path d="M14.929 20.875l-0.268 6.571-0.036 0.393-7.5-0.518q-0.643-0.054-1.196-0.563t-0.839-1.17q-0.196-0.482-0.259-0.982t0.071-1.161 0.214-0.982 0.384-1.143 0.339-0.946q1.393 0.214 9.089 0.5zM8.018 10.411l3.214 6.768-2.625-1.643q-1.125 1.286-1.991 2.58t-1.295 2.232-0.705 1.688-0.33 1.125l-0.071 0.375-3.393-6.375q-0.304-0.464-0.321-1t0.107-0.839l0.143-0.321q0.625-1.125 2.036-3.357l-2.5-1.536zM30 19.643l-3.357 6.411q-0.214 0.518-0.652 0.83t-0.777 0.366l-0.321 0.071q-1.268 0.125-3.911 0.214l0.143 2.929-4.107-6.554 3.768-6.464 0.125 3.089q3.036 0.286 5.054 0.089t3.036-0.589zM15.982 3.143q-0.839 1.125-4.732 7.768l-5.661-3.339-0.339-0.214 4.018-6.357q0.357-0.554 1.071-0.804t1.429-0.179q0.429 0.036 0.866 0.214t0.75 0.375 0.741 0.589 0.643 0.616 0.643 0.705 0.571 0.625zM27.679 8.625l3.786 6.482q0.321 0.661 0.223 1.357t-0.491 1.321q-0.232 0.357-0.589 0.661t-0.679 0.5-0.866 0.393-0.839 0.286-0.92 0.25-0.821 0.214q-0.607-1.286-4.732-7.786l5.589-3.482zM25.125 4.589l2.536-1.482-3.929 6.661-7.482-0.357 2.696-1.536q-0.607-1.589-1.339-2.964t-1.348-2.205-1.152-1.429-0.839-0.83l-0.304-0.232 7.232 0.018q0.554-0.054 1.036 0.188t0.696 0.509l0.196 0.268q0.696 1.089 2 3.393z"></path>
</svg>
