<!-- Generated by IcoMoon.io -->
<svg version="1.1" xmlns="http://www.w3.org/2000/svg" width="30" height="32" viewBox="0 0 30 32">
<title>untitled489</title>
<path d="M22.857 12.571q0-0.464-0.339-0.804t-0.804-0.339-0.804 0.339l-2.625 2.607v-5.232q0-0.464-0.339-0.804t-0.804-0.339-0.804 0.339-0.339 0.804v5.232l-2.625-2.607q-0.339-0.339-0.804-0.339t-0.804 0.339-0.339 0.804 0.339 0.804l4.571 4.571q0.339 0.339 0.804 0.339t0.804-0.339l4.571-4.571q0.339-0.339 0.339-0.804zM11.429 27.429q0 0.946-0.67 1.616t-1.616 0.67-1.616-0.67-0.67-1.616 0.67-1.616 1.616-0.67 1.616 0.67 0.67 1.616zM27.429 27.429q0 0.946-0.67 1.616t-1.616 0.67-1.616-0.67-0.67-1.616 0.67-1.616 1.616-0.67 1.616 0.67 0.67 1.616zM29.714 8v9.143q0 0.429-0.286 0.759t-0.732 0.384l-18.643 2.179q0.018 0.125 0.080 0.384t0.107 0.473 0.045 0.393q0 0.286-0.429 1.143h16.429q0.464 0 0.804 0.339t0.339 0.804-0.339 0.804-0.804 0.339h-18.286q-0.464 0-0.804-0.339t-0.339-0.804q0-0.25 0.196-0.705t0.527-1.063 0.366-0.679l-3.161-14.696h-3.643q-0.464 0-0.804-0.339t-0.339-0.804 0.339-0.804 0.804-0.339h4.571q0.286 0 0.509 0.116t0.357 0.277 0.232 0.438 0.134 0.473 0.098 0.527 0.080 0.455h21.446q0.464 0 0.804 0.339t0.339 0.804z"></path>
</svg>
