<!-- Generated by IcoMoon.io -->
<svg version="1.1" xmlns="http://www.w3.org/2000/svg" width="32" height="32" viewBox="0 0 32 32">
<title>untitled611</title>
<path d="M15.714 21.429v2.857q0 0.25-0.161 0.411t-0.411 0.161h-2.857q-0.25 0-0.411-0.161t-0.161-0.411v-2.857q0-0.25 0.161-0.411t0.411-0.161h2.857q0.25 0 0.411 0.161t0.161 0.411zM20.286 12.571q0 0.893-0.268 1.607t-0.813 1.232-0.929 0.786-1.063 0.643q-0.571 0.321-0.83 0.5t-0.464 0.429-0.205 0.518v0.571q0 0.25-0.161 0.411t-0.411 0.161h-2.857q-0.25 0-0.411-0.161t-0.161-0.411v-1.214q0-0.625 0.188-1.152t0.429-0.848 0.696-0.634 0.732-0.455 0.795-0.375q0.946-0.446 1.339-0.768t0.393-0.875q0-0.75-0.777-1.277t-1.705-0.527q-1 0-1.696 0.482-0.518 0.357-1.429 1.482-0.161 0.214-0.446 0.214-0.196 0-0.339-0.107l-1.929-1.464q-0.179-0.125-0.214-0.357t0.089-0.411q2.179-3.429 6.232-3.429 2.304 0 4.259 1.598t1.955 3.83zM13.714 4.571q-2.321 0-4.438 0.911t-3.643 2.438-2.438 3.643-0.911 4.438 0.911 4.438 2.438 3.643 3.643 2.438 4.438 0.911 4.437-0.911 3.643-2.438 2.438-3.643 0.911-4.438-0.911-4.438-2.438-3.643-3.643-2.438-4.438-0.911zM27.429 16q0 3.732-1.839 6.884t-4.991 4.991-6.884 1.839-6.884-1.839-4.991-4.991-1.839-6.884 1.839-6.884 4.991-4.991 6.884-1.839 6.884 1.839 4.991 4.991 1.839 6.884z"></path>
</svg>
