<!-- Generated by IcoMoon.io -->
<svg version="1.1" xmlns="http://www.w3.org/2000/svg" width="18" height="32" viewBox="0 0 18 32">
<title>untitled575</title>
<path d="M9.143 19.429q1.179 0 2.286-0.268v11.696q0 0.464-0.339 0.804t-0.804 0.339h-2.286q-0.464 0-0.804-0.339t-0.339-0.804v-11.696q1.089 0.268 2.286 0.268zM9.143 0q3.786 0 6.464 2.679t2.679 6.464-2.679 6.464-6.464 2.679-6.464-2.679-2.679-6.464 2.679-6.464 6.464-2.679zM9.143 4q0.25 0 0.411-0.161t0.161-0.411-0.161-0.411-0.411-0.161q-2.607 0-4.446 1.839t-1.839 4.446q0 0.25 0.161 0.411t0.411 0.161 0.411-0.161 0.161-0.411q0-2.125 1.509-3.634t3.634-1.509z"></path>
</svg>
