<!-- Generated by IcoMoon.io -->
<svg version="1.1" xmlns="http://www.w3.org/2000/svg" width="32" height="32" viewBox="0 0 32 32">
<title>untitled597</title>
<path d="M19.429 21.143v-10.286q0-0.25-0.161-0.411t-0.411-0.161h-10.286q-0.25 0-0.411 0.161t-0.161 0.411v10.286q0 0.25 0.161 0.411t0.411 0.161h10.286q0.25 0 0.411-0.161t0.161-0.411zM27.429 16q0 3.732-1.839 6.884t-4.991 4.991-6.884 1.839-6.884-1.839-4.991-4.991-1.839-6.884 1.839-6.884 4.991-4.991 6.884-1.839 6.884 1.839 4.991 4.991 1.839 6.884z"></path>
</svg>
