<!-- Generated by IcoMoon.io -->
<svg version="1.1" xmlns="http://www.w3.org/2000/svg" width="32" height="32" viewBox="0 0 32 32">
<title>untitled424</title>
<path d="M10.625 27.036q0-1.786-2.946-1.786-2.821 0-2.821 1.857 0 1.804 3.071 1.804 2.696 0 2.696-1.875zM9.571 13.554q0-1.089-0.536-1.821t-1.589-0.732q-2.214 0-2.214 2.589 0 2.411 2.214 2.411 2.125 0 2.125-2.446zM14.375 7.768v3.607q-0.643 0.214-1.411 0.393 0.286 0.768 0.286 1.5 0 2.268-1.304 3.866t-3.518 2.009q-0.714 0.143-1.063 0.482t-0.348 1.036q0 0.554 0.402 0.92t1.036 0.571 1.402 0.393 1.536 0.455 1.402 0.67 1.036 1.143 0.402 1.759q0 5.429-6.482 5.429-1.232 0-2.321-0.223t-2.071-0.732-1.563-1.464-0.58-2.277q0-2.946 3.25-4.018v-0.071q-1.196-0.732-1.196-2.25 0-1.946 1.125-2.446v-0.071q-1.286-0.429-2.134-1.938t-0.848-2.955q0-2.482 1.696-4.134t4.196-1.652q1.714 0 3.179 0.839 1.75 0 3.893-0.839zM20.054 23.5h-3.964q0.071-0.804 0.071-2.393v-10.875q0-1.679-0.071-2.286h3.964q-0.071 0.589-0.071 2.214v10.946q0 1.589 0.071 2.393zM30.786 19.536v3.5q-1.268 0.696-3.107 0.696-1.107 0-1.911-0.357t-1.25-0.893-0.705-1.393-0.33-1.643-0.071-1.839v-6.268h0.036v-0.071q-0.125 0-0.339-0.018t-0.321-0.018q-0.375 0-1.054 0.107v-3.393h1.714v-1.357q0-0.964-0.107-1.589h4.054q-0.107 0.732-0.107 2.946h3.054v3.393q-0.268 0-0.777-0.036t-0.759-0.036h-1.518v6.518q0 2.339 1.554 2.339 1.089 0 1.946-0.589zM20.5 2.625q0 1.036-0.696 1.813t-1.714 0.777q-1.036 0-1.75-0.777t-0.714-1.813q0-1.054 0.705-1.839t1.759-0.786q1.036 0 1.723 0.795t0.688 1.83z"></path>
</svg>
