<!-- Generated by IcoMoon.io -->
<svg version="1.1" xmlns="http://www.w3.org/2000/svg" width="32" height="32" viewBox="0 0 32 32">
<title>untitled584</title>
<path d="M0 2.286h27.429v27.429h-27.429v-27.429zM16.214 8l-0.214 0.589 1.339 1.482-0.554 2.036 0.446 0.446 1.911-1.018 1.911 1.018 0.446-0.446-0.554-2.036 1.339-1.482-0.214-0.589h-1.696l-0.946-1.714h-0.571l-0.946 1.714h-1.696zM11.446 10.911q0.571 0 0.795 0.286t0.205 1.125l3.107-0.375q0-0.982-0.313-1.652t-0.902-1-1.232-0.455-1.518-0.125q-2.375 0-3.554 1.027t-1.179 3.259v1.286h-1.714v2.286h1.357q0.357 0 0.357 0.143v6.821q0 0.25-0.089 0.357t-0.321 0.125l-1.304 0.125v1.571h8v-1.536l-2.661-0.25q-0.107-0.018-0.152-0.027t-0.063-0.045-0.009-0.071 0.018-0.125 0.009-0.179v-6.911h3.411l0.679-2.286h-4.125q-0.107 0-0.036-0.107t0.071-0.161v-1.429q0-0.482 0.027-0.723t0.134-0.5 0.348-0.357 0.652-0.098zM22.286 25.714v-1.536l-0.964-0.161q-0.125-0.018-0.17-0.045t-0.045-0.054 0.018-0.134 0.018-0.214v-9.286h-4.911l-0.411 1.804 1.482 0.393q0.411 0.125 0.411 0.482v6.607q0 0.25-0.107 0.33t-0.357 0.116l-1.25 0.161v1.536h6.286z"></path>
</svg>
