<!-- Generated by IcoMoon.io -->
<svg version="1.1" xmlns="http://www.w3.org/2000/svg" width="32" height="32" viewBox="0 0 32 32">
<title>untitled10</title>
<path d="M9.143 22.286v3.429q0 0.714-0.5 1.214t-1.214 0.5h-5.714q-0.714 0-1.214-0.5t-0.5-1.214v-3.429q0-0.714 0.5-1.214t1.214-0.5h5.714q0.714 0 1.214 0.5t0.5 1.214zM9.143 13.143v3.429q0 0.714-0.5 1.214t-1.214 0.5h-5.714q-0.714 0-1.214-0.5t-0.5-1.214v-3.429q0-0.714 0.5-1.214t1.214-0.5h5.714q0.714 0 1.214 0.5t0.5 1.214zM20.571 22.286v3.429q0 0.714-0.5 1.214t-1.214 0.5h-5.714q-0.714 0-1.214-0.5t-0.5-1.214v-3.429q0-0.714 0.5-1.214t1.214-0.5h5.714q0.714 0 1.214 0.5t0.5 1.214zM9.143 4v3.429q0 0.714-0.5 1.214t-1.214 0.5h-5.714q-0.714 0-1.214-0.5t-0.5-1.214v-3.429q0-0.714 0.5-1.214t1.214-0.5h5.714q0.714 0 1.214 0.5t0.5 1.214zM20.571 13.143v3.429q0 0.714-0.5 1.214t-1.214 0.5h-5.714q-0.714 0-1.214-0.5t-0.5-1.214v-3.429q0-0.714 0.5-1.214t1.214-0.5h5.714q0.714 0 1.214 0.5t0.5 1.214zM32 22.286v3.429q0 0.714-0.5 1.214t-1.214 0.5h-5.714q-0.714 0-1.214-0.5t-0.5-1.214v-3.429q0-0.714 0.5-1.214t1.214-0.5h5.714q0.714 0 1.214 0.5t0.5 1.214zM20.571 4v3.429q0 0.714-0.5 1.214t-1.214 0.5h-5.714q-0.714 0-1.214-0.5t-0.5-1.214v-3.429q0-0.714 0.5-1.214t1.214-0.5h5.714q0.714 0 1.214 0.5t0.5 1.214zM32 13.143v3.429q0 0.714-0.5 1.214t-1.214 0.5h-5.714q-0.714 0-1.214-0.5t-0.5-1.214v-3.429q0-0.714 0.5-1.214t1.214-0.5h5.714q0.714 0 1.214 0.5t0.5 1.214zM32 4v3.429q0 0.714-0.5 1.214t-1.214 0.5h-5.714q-0.714 0-1.214-0.5t-0.5-1.214v-3.429q0-0.714 0.5-1.214t1.214-0.5h5.714q0.714 0 1.214 0.5t0.5 1.214z"></path>
</svg>
