<!-- Generated by IcoMoon.io -->
<svg version="1.1" xmlns="http://www.w3.org/2000/svg" width="32" height="32" viewBox="0 0 32 32">
<title>untitled624</title>
<path d="M18.75 18.589q0-1.393-0.5-2.625-0.732 0.446-1.518 0.607 0.393 0.893 0.393 2.036 0 2.089-1.375 3.545t-3.446 1.455-3.455-1.455-1.384-3.545q0-2.054 1.393-3.563t3.446-1.509q0.946 0 1.75 0.339 0.071-0.768 0.482-1.554-1.071-0.375-2.232-0.375-2.75 0-4.598 1.938t-1.848 4.705 1.848 4.661 4.598 1.893 4.598-1.902 1.848-4.652zM15.571 12.25q0.036 0.429 0.036 1.268 0 1.125-0.089 2.196t-0.366 2.366-0.723 2.321-1.223 1.893-1.795 1.259q0.375 0.054 0.75 0.054h0.179q3.911-2.482 3.911-7.339 0-2.071-0.679-4.018zM15.571 12.25q-0.071-1.429-0.786-3.063t-1.75-2.33q1.643 2.786 2.536 5.393zM21.554 10.375q0-1.821-0.911-3.107-0.732 1.536-2.214 1.946-1.232 0.339-1.946 0.955t-0.714 1.777q0 0.714 0.429 1.375 1.321-0.304 2.509-1.196t1.705-2.054q-0.071 0.929-1.33 1.991t-2.473 1.741q0.929 0.929 1.964 0.929 0.911 0 1.607-0.661t1.071-1.607q0.304-0.768 0.304-2.089zM27.429 7.429v17.143q0 2.125-1.509 3.634t-3.634 1.509h-17.143q-2.125 0-3.634-1.509t-1.509-3.634v-17.143q0-2.125 1.509-3.634t3.634-1.509h17.143q2.125 0 3.634 1.509t1.509 3.634z"></path>
</svg>
