<!-- Generated by IcoMoon.io -->
<svg version="1.1" xmlns="http://www.w3.org/2000/svg" width="32" height="32" viewBox="0 0 32 32">
<title>untitled49</title>
<path d="M31.143 25.143q0.589 0 0.75 0.33t-0.196 0.795l-2.25 2.893q-0.357 0.464-0.875 0.464t-0.875-0.464l-2.25-2.893q-0.357-0.464-0.196-0.795t0.75-0.33h1.429v-18.286h-1.429q-0.589 0-0.75-0.33t0.196-0.795l2.25-2.893q0.357-0.464 0.875-0.464t0.875 0.464l2.25 2.893q0.357 0.464 0.196 0.795t-0.75 0.33h-1.429v18.286h1.429zM1.446 2.304l0.964 0.482q0.214 0.089 3.768 0.089 0.786 0 2.357-0.036t2.357-0.036q0.643 0 1.92 0.009t1.92 0.009h5.232q0.107 0 0.375 0.009t0.366 0 0.286-0.054 0.313-0.161 0.268-0.313l0.75-0.018q0.071 0 0.25 0.009t0.25 0.009q0.036 2 0.036 6 0 1.429-0.089 1.946-0.696 0.25-1.214 0.321-0.446-0.786-0.964-2.286-0.054-0.161-0.196-0.857t-0.259-1.313-0.134-0.634q-0.107-0.143-0.214-0.223t-0.277-0.107-0.232-0.045-0.321-0.009-0.295 0.009q-0.304 0-1.188-0.009t-1.33-0.009-1.143 0.036-1.268 0.107q-0.161 1.446-0.143 2.429 0 1.679 0.036 6.929t0.036 8.125q0 0.286-0.045 1.277t0 1.634 0.223 1.232q0.714 0.375 2.214 0.759t2.143 0.67q0.089 0.714 0.089 0.893 0 0.25-0.054 0.518l-0.607 0.018q-1.357 0.036-3.893-0.143t-3.696-0.179q-0.893 0-2.696 0.161t-2.714 0.161q-0.054-0.911-0.054-0.929v-0.161q0.304-0.482 1.098-0.768t1.759-0.518 1.393-0.482q0.339-0.75 0.339-6.839 0-1.804-0.054-5.411t-0.054-5.411v-2.089q0-0.036 0.009-0.277t0.009-0.446-0.018-0.455-0.054-0.429-0.089-0.25q-0.196-0.214-2.893-0.214-0.589 0-1.661 0.214t-1.429 0.464q-0.339 0.232-0.607 1.295t-0.563 1.982-0.759 0.955q-0.75-0.464-1-0.786v-6.839z"></path>
</svg>
