<!-- Generated by IcoMoon.io -->
<svg version="1.1" xmlns="http://www.w3.org/2000/svg" width="32" height="32" viewBox="0 0 32 32">
<title>untitled616</title>
<path d="M2.286 30.857q0 0.464-0.339 0.804t-0.804 0.339-0.804-0.339-0.339-0.804 0.339-0.804 0.804-0.339 0.804 0.339 0.339 0.804zM5.714 27.429q0 0.464-0.339 0.804t-0.804 0.339-0.804-0.339-0.339-0.804 0.339-0.804 0.804-0.339 0.804 0.339 0.339 0.804zM6.518 20.911l4.571 4.571-1.607 1.607-4.571-4.571zM12.571 20.571q0 0.464-0.339 0.804t-0.804 0.339-0.804-0.339-0.339-0.804 0.339-0.804 0.804-0.339 0.804 0.339 0.339 0.804zM25.196 14.857q0 1.054-0.205 1.938t-0.67 1.67-0.786 1.205-0.946 1.152q-0.554 0.625-0.813 0.964t-0.598 0.893-0.473 1.143-0.134 1.321q0 2.839-2.009 4.848t-4.848 2.009q-0.464 0-0.804-0.339t-0.339-0.804 0.339-0.804 0.804-0.339q1.893 0 3.232-1.339t1.339-3.232q0-1.018 0.205-1.884t0.661-1.625 0.777-1.188 0.929-1.125q0.714-0.821 1.063-1.286t0.67-1.33 0.321-1.848q0-3.304-2.348-5.652t-5.652-2.348-5.652 2.348-2.348 5.652q0 0.464-0.339 0.804t-0.804 0.339-0.804-0.339-0.339-0.804q0-2.089 0.813-3.991t2.196-3.286 3.286-2.196 3.991-0.813 3.991 0.813 3.286 2.196 2.196 3.286 0.813 3.991zM16 17.143q0 0.464-0.339 0.804t-0.804 0.339-0.804-0.339-0.339-0.804 0.339-0.804 0.804-0.339 0.804 0.339 0.339 0.804zM21.143 14.857q0 0.464-0.339 0.804t-0.804 0.339-0.804-0.339-0.339-0.804q0-1.661-1.17-2.83t-2.83-1.17q-1.643 0-2.821 1.17t-1.179 2.83q0 0.464-0.339 0.804t-0.804 0.339-0.804-0.339-0.339-0.804q0-2.607 1.839-4.446t4.446-1.839 4.446 1.839 1.839 4.446zM28.179 9.696q0.179 0.446-0.018 0.875t-0.643 0.607q-0.161 0.071-0.411 0.071-0.339 0-0.634-0.196t-0.42-0.536q-1.214-3.179-4-5.268-0.375-0.286-0.446-0.75t0.214-0.839q0.304-0.375 0.768-0.446t0.839 0.214q3.268 2.446 4.75 6.268zM31.929 8.25q0.161 0.446-0.027 0.875t-0.634 0.607q-0.196 0.071-0.411 0.071-0.786 0-1.071-0.732-1.643-4.25-5.304-7.018-0.393-0.286-0.455-0.75t0.223-0.839q0.286-0.393 0.75-0.455t0.839 0.223q4.196 3.125 6.089 8.018z"></path>
</svg>
