<!-- Generated by IcoMoon.io -->
<svg version="1.1" xmlns="http://www.w3.org/2000/svg" width="34" height="32" viewBox="0 0 34 32">
<title>untitled502</title>
<path d="M27.429 7.429q0-0.25 0.161-0.411t0.411-0.161h5.143q0.464 0 0.804 0.339t0.339 0.804v5.143q0 0.25-0.161 0.411t-0.411 0.161h-1.143q-0.25 0-0.411-0.161t-0.161-0.411v-2.393l-4.536 4.554q1.357 1.696 1.92 3.821t0.17 4.411q-0.554 3.25-2.964 5.571t-5.679 2.786q-3.75 0.518-6.866-1.429t-4.313-5.357q-2.089-0.107-3.946-1.027t-3.17-2.375-2.027-3.438-0.571-4.107q0.161-2.411 1.393-4.5t3.25-3.42 4.429-1.598q2.107-0.25 4.063 0.339t3.545 1.839l4.554-4.536h-2.393q-0.25 0-0.411-0.161t-0.161-0.411v-1.143q0-0.25 0.161-0.411t0.411-0.161h5.143q0.464 0 0.804 0.339t0.339 0.804v5.143q0 0.25-0.161 0.411t-0.411 0.161h-1.143q-0.25 0-0.411-0.161t-0.161-0.411v-2.393l-4.536 4.554q1.054 1.321 1.661 3.018 3.25 0.161 5.857 2.214l4.554-4.536h-2.393q-0.25 0-0.411-0.161t-0.161-0.411v-1.143zM18.286 14.857q0-0.357-0.071-1.036-2.893 0.446-4.839 2.679t-1.946 5.214q0 0.357 0.071 1.036 2.893-0.446 4.839-2.679t1.946-5.214zM2.286 14.857q0 3 1.982 5.25t4.929 2.661q-0.054-0.518-0.054-1.054 0-3.75 2.411-6.598t6.036-3.509q-0.946-2.143-2.92-3.446t-4.384-1.304q-3.304 0-5.652 2.348t-2.348 5.652zM19.429 29.714q3.304 0 5.652-2.348t2.348-5.652q0-3-1.982-5.25t-4.929-2.661q0.054 0.518 0.054 1.054 0 3.75-2.411 6.598t-6.036 3.509q0.946 2.143 2.92 3.446t4.384 1.304z"></path>
</svg>
