<!-- Generated by IcoMoon.io -->
<svg version="1.1" xmlns="http://www.w3.org/2000/svg" width="37" height="32" viewBox="0 0 37 32">
<title>untitled457</title>
<path d="M27.821 15.214q1.089 6.357 5.321 9.929 0 0.929-0.679 1.607t-1.607 0.679h-8q0 1.893-1.339 3.232t-3.232 1.339-3.223-1.33-1.348-3.223zM18.286 30.571q0.286 0 0.286-0.286t-0.286-0.286q-1.054 0-1.813-0.759t-0.759-1.813q0-0.286-0.286-0.286t-0.286 0.286q0 1.304 0.92 2.223t2.223 0.92zM36.179 2q0.143 0.179 0.134 0.42t-0.188 0.402l-33.429 28.964q-0.179 0.143-0.42 0.125t-0.384-0.196l-1.5-1.714q-0.143-0.179-0.134-0.42t0.188-0.384l3.321-2.875q-0.339-0.571-0.339-1.179 0.893-0.75 1.625-1.571t1.518-2.134 1.33-2.83 0.893-3.679 0.348-4.643q0-2.714 2.089-5.045t5.482-2.83q-0.143-0.339-0.143-0.696 0-0.714 0.5-1.214t1.214-0.5 1.214 0.5 0.5 1.214q0 0.357-0.143 0.696 2.214 0.321 3.911 1.473t2.643 2.813l7.464-6.482q0.179-0.143 0.42-0.125t0.384 0.196z"></path>
</svg>
