<!-- Generated by IcoMoon.io -->
<svg version="1.1" xmlns="http://www.w3.org/2000/svg" width="32" height="32" viewBox="0 0 32 32">
<title>untitled606</title>
<path d="M6.857 14.857h2.857v-4h-2.857v4zM21.804 20.786v-1.643q-1.857 0.643-4.339 0.679-2.411 0.018-4.634-0.83t-3.938-2.188l0.018 1.714q1.571 1.429 3.786 2.295t4.857 0.848q2.304 0 4.25-0.875zM11.429 14.857h11.429v-4h-11.429v4zM32 14.286q0 3.339-1.768 6.286 1.589 1.821 1.589 4.089 0 2.804-2.313 4.786t-5.598 1.982q-2.179 0-4.018-0.938t-2.875-2.509q-0.339 0.018-1.018 0.018t-1.018-0.018q-1.036 1.571-2.875 2.509t-4.018 0.938q-3.286 0-5.598-1.982t-2.313-4.786q0-2.268 1.589-4.089-1.768-2.946-1.768-6.286 0-3.732 2.143-6.884t5.83-4.991 8.027-1.839 8.027 1.839 5.83 4.991 2.143 6.884z"></path>
</svg>
