<!-- Generated by IcoMoon.io -->
<svg version="1.1" xmlns="http://www.w3.org/2000/svg" width="32" height="32" viewBox="0 0 32 32">
<title>untitled537</title>
<path d="M29.714 29.143v-19.429q0-0.232-0.17-0.402t-0.402-0.17h-19.429q-0.232 0-0.402 0.17t-0.17 0.402v19.429q0 0.232 0.17 0.402t0.402 0.17h19.429q0.232 0 0.402-0.17t0.17-0.402zM32 9.714v19.429q0 1.179-0.839 2.018t-2.018 0.839h-19.429q-1.179 0-2.018-0.839t-0.839-2.018v-19.429q0-1.179 0.839-2.018t2.018-0.839h19.429q1.179 0 2.018 0.839t0.839 2.018zM25.143 2.857v2.857h-2.286v-2.857q0-0.232-0.17-0.402t-0.402-0.17h-19.429q-0.232 0-0.402 0.17t-0.17 0.402v19.429q0 0.232 0.17 0.402t0.402 0.17h2.857v2.286h-2.857q-1.179 0-2.018-0.839t-0.839-2.018v-19.429q0-1.179 0.839-2.018t2.018-0.839h19.429q1.179 0 2.018 0.839t0.839 2.018z"></path>
</svg>
