<!-- Generated by IcoMoon.io -->
<svg version="1.1" xmlns="http://www.w3.org/2000/svg" width="32" height="32" viewBox="0 0 32 32">
<title>untitled586</title>
<path d="M1.232 14.196h0.018q0.286-2.25 1.045-4.313t2.054-3.875 2.991-3.143 3.991-2.098 4.938-0.768q4.125 0 7.393 1.884t5.25 5.42q1.857 3.339 1.857 7.893v3.357h-20.089q0.018 1.982 0.955 3.438t2.438 2.188 3.384 1.018 3.804 0.054 3.714-0.83 3.098-1.509v6.732q-1.643 0.982-4.098 1.643t-5.58 0.679-5.643-0.946q-3.375-1.304-5.563-4.446t-2.223-6.643q-0.054-4.321 1.982-7.357t5.804-4.786q-0.857 1.071-1.393 2.241t-0.821 2.848h11.339q0.143-1.375-0.143-2.5t-0.839-1.813-1.259-1.188-1.438-0.732-1.339-0.366-1-0.152l-0.393-0.018q-2.411 0.089-4.634 0.795t-3.991 1.866-3.143 2.509-2.464 2.92z"></path>
</svg>
