<!-- Generated by IcoMoon.io -->
<svg version="1.1" xmlns="http://www.w3.org/2000/svg" width="32" height="32" viewBox="0 0 32 32">
<title>untitled561</title>
<path d="M16.946 15.946q0 0.464-0.295 0.804t-0.741 0.339q-0.464 0-0.804-0.295t-0.339-0.741q0-0.464 0.304-0.804t0.75-0.339 0.786 0.295 0.339 0.741zM17.214 16.982l6.25-10.375q-0.161 0.143-1.205 1.116t-2.241 2.080-2.438 2.268-2.089 1.973-0.902 0.92l-6.232 10.357q0.125-0.125 1.196-1.107t2.25-2.080 2.429-2.268 2.089-1.982 0.893-0.902zM28.768 16q0 3.589-1.857 6.625-0.054-0.036-0.304-0.196t-0.473-0.295-0.295-0.134q-0.232 0-0.232 0.232 0 0.179 1.054 0.786-1.321 2-3.295 3.402t-4.313 1.973l-0.286-1.196q-0.018-0.179-0.268-0.179-0.089 0-0.143 0.098t-0.036 0.17l0.286 1.214q-1.286 0.268-2.607 0.268-3.554 0-6.643-1.875 0.018-0.036 0.232-0.366t0.384-0.598 0.17-0.339q0-0.232-0.232-0.232-0.107 0-0.304 0.259t-0.402 0.616-0.241 0.411q-2.018-1.339-3.429-3.348t-1.964-4.366l1.232-0.268q0.179-0.054 0.179-0.268 0-0.089-0.098-0.143t-0.188-0.036l-1.214 0.268q-0.25-1.286-0.25-2.482 0-3.679 1.946-6.768 0.036 0.018 0.33 0.214t0.536 0.339 0.313 0.143q0.232 0 0.232-0.214 0-0.107-0.223-0.277t-0.58-0.384l-0.357-0.214q1.375-2 3.375-3.375t4.357-1.911l0.268 1.196q0.036 0.179 0.268 0.179 0.089 0 0.143-0.098t0.036-0.188l-0.268-1.179q1.268-0.232 2.393-0.232 3.643 0 6.768 1.946-0.696 1-0.696 1.161 0 0.232 0.214 0.232 0.196 0 0.857-1.143 1.982 1.339 3.348 3.321t1.92 4.304l-1 0.214q-0.179 0.036-0.179 0.286 0 0.089 0.098 0.143t0.17 0.036l1.018-0.232q0.25 1.286 0.25 2.5zM30.286 16q0-2.911-1.134-5.554t-3.045-4.554-4.554-3.045-5.554-1.134-5.554 1.134-4.554 3.045-3.045 4.554-1.134 5.554 1.134 5.554 3.045 4.554 4.554 3.045 5.554 1.134 5.554-1.134 4.554-3.045 3.045-4.554 1.134-5.554zM32 16q0 3.25-1.268 6.214t-3.411 5.107-5.107 3.411-6.214 1.268-6.214-1.268-5.107-3.411-3.411-5.107-1.268-6.214 1.268-6.214 3.411-5.107 5.107-3.411 6.214-1.268 6.214 1.268 5.107 3.411 3.411 5.107 1.268 6.214z"></path>
</svg>
