<!-- Generated by IcoMoon.io -->
<svg version="1.1" xmlns="http://www.w3.org/2000/svg" width="37" height="32" viewBox="0 0 37 32">
<title>untitled476</title>
<path d="M14.018 18h3.696q-0.25 2.821-1.759 4.438t-3.83 1.616q-2.893 0-4.545-2.071t-1.652-5.643q0-3.464 1.661-5.563t4.161-2.098q2.643 0 4.143 1.554t1.732 4.411h-3.625q-0.089-1.143-0.634-1.768t-1.455-0.625q-1.018 0-1.58 1.080t-0.563 3.17q0 0.857 0.089 1.5t0.321 1.241 0.714 0.92 1.179 0.321q1.696 0 1.946-2.482zM26.732 18h3.679q-0.25 2.821-1.75 4.438t-3.821 1.616q-2.893 0-4.545-2.071t-1.652-5.643q0-3.464 1.661-5.563t4.161-2.098q2.643 0 4.143 1.554t1.732 4.411h-3.643q-0.071-1.143-0.625-1.768t-1.446-0.625q-1.018 0-1.58 1.080t-0.563 3.17q0 0.857 0.089 1.5t0.321 1.241 0.705 0.92 1.17 0.321q0.875 0 1.366-0.679t0.598-1.804zM33.143 15.875q0-3.696-0.277-5.482t-1.080-2.875q-0.107-0.143-0.241-0.25t-0.384-0.268-0.286-0.196q-1.536-1.125-12.446-1.125-11.161 0-12.679 1.125-0.089 0.071-0.313 0.205t-0.375 0.25-0.259 0.259q-0.804 1.071-1.071 2.848t-0.268 5.509q0 3.714 0.268 5.491t1.071 2.866q0.107 0.143 0.268 0.268t0.366 0.25 0.313 0.214q0.786 0.589 4.277 0.875t8.402 0.286q10.893 0 12.446-1.161 0.089-0.071 0.304-0.196t0.366-0.25 0.241-0.286q0.821-1.071 1.089-2.839t0.268-5.518zM36.571 2.286v27.429h-36.571v-27.429h36.571z"></path>
</svg>
