<!-- Generated by IcoMoon.io -->
<svg version="1.1" xmlns="http://www.w3.org/2000/svg" width="23" height="32" viewBox="0 0 23 32">
<title>untitled557</title>
<path d="M11.429 16.196q-3.357 0-5.732-2.375t-2.375-5.714q0-3.357 2.375-5.732t5.732-2.375 5.732 2.375 2.375 5.732q0 3.339-2.375 5.714t-5.732 2.375zM11.429 4.107q-1.643 0-2.813 1.17t-1.17 2.83q0 1.643 1.17 2.813t2.813 1.17 2.813-1.17 1.17-2.813q0-1.661-1.17-2.83t-2.813-1.17zM20.768 17.179q0.232 0.482 0.268 0.884t-0.080 0.723-0.473 0.688-0.759 0.661-1.098 0.741q-2.054 1.304-5.625 1.679l1.304 1.286 4.768 4.768q0.536 0.554 0.536 1.321t-0.536 1.304l-0.214 0.232q-0.554 0.536-1.321 0.536t-1.321-0.536q-1.196-1.214-4.768-4.786l-4.768 4.786q-0.554 0.536-1.321 0.536t-1.304-0.536l-0.214-0.232q-0.554-0.536-0.554-1.304t0.554-1.321l6.054-6.054q-3.625-0.375-5.661-1.679-0.696-0.446-1.098-0.741t-0.759-0.661-0.473-0.688-0.080-0.723 0.268-0.884q0.179-0.357 0.5-0.625t0.75-0.393 1 0.036 1.161 0.625q0.089 0.071 0.268 0.196t0.768 0.438 1.232 0.545 1.643 0.429 2.018 0.196q1.625 0 3.107-0.455t2.143-0.902l0.679-0.446q0.589-0.464 1.161-0.625t1-0.036 0.75 0.393 0.5 0.625z"></path>
</svg>
