<!-- Generated by IcoMoon.io -->
<svg version="1.1" xmlns="http://www.w3.org/2000/svg" width="32" height="32" viewBox="0 0 32 32">
<title>untitled570</title>
<path d="M27.429 4.571q0.929 0 1.607 0.679t0.679 1.607v22.857q0 0.929-0.679 1.607t-1.607 0.679h-25.143q-0.929 0-1.607-0.679t-0.679-1.607v-22.857q0-0.929 0.679-1.607t1.607-0.679h2.286v-1.714q0-1.179 0.839-2.018t2.018-0.839h1.143q1.179 0 2.018 0.839t0.839 2.018v1.714h6.857v-1.714q0-1.179 0.839-2.018t2.018-0.839h1.143q1.179 0 2.018 0.839t0.839 2.018v1.714h2.286zM20.571 2.857v5.143q0 0.25 0.161 0.411t0.411 0.161h1.143q0.25 0 0.411-0.161t0.161-0.411v-5.143q0-0.25-0.161-0.411t-0.411-0.161h-1.143q-0.25 0-0.411 0.161t-0.161 0.411zM6.857 2.857v5.143q0 0.25 0.161 0.411t0.411 0.161h1.143q0.25 0 0.411-0.161t0.161-0.411v-5.143q0-0.25-0.161-0.411t-0.411-0.161h-1.143q-0.25 0-0.411 0.161t-0.161 0.411zM27.429 29.714v-18.286h-25.143v18.286h25.143zM16 19.429h4q0.25 0 0.411 0.161t0.161 0.411v1.143q0 0.25-0.161 0.411t-0.411 0.161h-4v4q0 0.25-0.161 0.411t-0.411 0.161h-1.143q-0.25 0-0.411-0.161t-0.161-0.411v-4h-4q-0.25 0-0.411-0.161t-0.161-0.411v-1.143q0-0.25 0.161-0.411t0.411-0.161h4v-4q0-0.25 0.161-0.411t0.411-0.161h1.143q0.25 0 0.411 0.161t0.161 0.411v4z"></path>
</svg>
