<!-- Generated by IcoMoon.io -->
<svg version="1.1" xmlns="http://www.w3.org/2000/svg" width="32" height="32" viewBox="0 0 32 32">
<title>untitled485</title>
<path d="M0 0h27.429v24.857l-13.857 6.036-13.571-6.036v-24.857zM25.643 23.696v-16.536h-23.857v16.536l11.804 5.25zM25.643 5.375v-3.589h-23.857v3.589h23.857zM3.232 10.696v2.054h-0.661v-2.054h0.661zM3.232 13.339v2.054h-0.661v-2.054h0.661zM3.232 15.982v2.054h-0.661v-2.054h0.661zM3.232 18.625v2.054h-0.661v-2.054h0.661zM3.232 21.268v2.054h-0.661v-2.054h0.661zM3.696 23.821l0.268-0.607 1.875 0.839-0.268 0.589zM6.125 24.893l0.268-0.607 1.875 0.821-0.268 0.607zM8.536 25.964l0.268-0.607 1.875 0.821-0.268 0.607zM10.964 27.018l0.268-0.589 1.857 0.821-0.268 0.607zM14.232 27.25l1.875-0.821 0.268 0.589-1.875 0.839zM16.643 26.179l1.875-0.821 0.268 0.607-1.875 0.821zM19.071 25.107l1.875-0.821 0.268 0.607-1.875 0.821zM21.482 24.054l1.875-0.839 0.268 0.607-1.875 0.821zM4.625 2.625v0.643h-2.036v-0.643h2.036zM7.518 2.625v0.643h-2.054v-0.643h2.054zM10.411 2.625v0.643h-2.054v-0.643h2.054zM13.286 2.625v0.643h-2.036v-0.643h2.036zM16.179 2.625v0.643h-2.036v-0.643h2.036zM19.071 2.625v0.643h-2.054v-0.643h2.054zM21.964 2.625v0.643h-2.054v-0.643h2.054zM24.839 2.625v0.643h-2.036v-0.643h2.036zM3.232 8.696v1.411h-0.661v-2.054h2.054v0.643h-1.393zM7.518 8.054v0.643h-2.054v-0.643h2.054zM10.411 8.054v0.643h-2.054v-0.643h2.054zM13.286 8.054v0.643h-2.036v-0.643h2.036zM16.179 8.054v0.643h-2.036v-0.643h2.036zM19.071 8.054v0.643h-2.054v-0.643h2.054zM21.964 8.054v0.643h-2.054v-0.643h2.054zM24.196 10.107v-1.411h-1.393v-0.643h2.054v2.054h-0.661zM24.196 12.75v-2.054h0.661v2.054h-0.661zM24.196 15.393v-2.054h0.661v2.054h-0.661zM24.196 18.036v-2.054h0.661v2.054h-0.661zM24.196 20.679v-2.054h0.661v2.054h-0.661zM24.196 23.321v-2.054h0.661v2.054h-0.661zM13.571 22.696q-2.304 0-3.946-1.634t-1.643-3.955q0-2.304 1.643-3.946t3.946-1.643q2.321 0 3.955 1.643t1.634 3.946q0 2.321-1.634 3.955t-3.955 1.634zM10.625 15.893q0 0.643 0.348 1.009t0.884 0.446 1.143 0.125 1.143 0.036 0.884 0.161 0.348 0.545q0 0.875-2 0.875-1.732 0-2.196-0.911h-0.054l-0.554 1.125q1.196 0.75 2.893 0.75 0.518 0 1.009-0.089t0.991-0.286 0.813-0.589 0.313-0.946q0-0.821-0.491-1.241t-1.205-0.482-1.42-0.054-1.196-0.089-0.491-0.455q0-0.375 0.366-0.589t0.723-0.268 0.732-0.054q0.607 0 1.259 0.196t0.92 0.607h0.054l0.536-1.036q-0.054-0.018-0.375-0.152t-0.402-0.161-0.348-0.125-0.393-0.125-0.357-0.080-0.429-0.071-0.411-0.018q-0.518 0-1.009 0.089t-0.964 0.295-0.768 0.607-0.295 0.955z"></path>
</svg>
