<!-- Generated by IcoMoon.io -->
<svg version="1.1" xmlns="http://www.w3.org/2000/svg" width="32" height="32" viewBox="0 0 32 32">
<title>untitled464</title>
<path d="M32 25.143v6.857h-32v-6.857q0.804 0 1.518-0.25t1.054-0.491 0.839-0.67q0.536-0.482 0.92-0.679t1.009-0.196 0.991 0.196 0.938 0.679q0.518 0.446 0.839 0.679t1.036 0.482 1.536 0.25q0.804 0 1.518-0.259t1.036-0.482 0.857-0.67q0.375-0.339 0.58-0.482t0.554-0.268 0.777-0.125q0.625 0 1.009 0.196t0.92 0.679q0.5 0.429 0.839 0.67t1.054 0.491 1.518 0.25 1.518-0.25 1.054-0.491 0.839-0.67q0.536-0.482 0.92-0.679t1.009-0.196q0.607 0 0.991 0.196t0.92 0.679q0.5 0.429 0.839 0.67t1.054 0.491 1.518 0.25zM32 19.429v3.429q-0.625 0-0.991-0.196t-0.938-0.679q-0.518-0.446-0.839-0.679t-1.036-0.482-1.518-0.25q-0.821 0-1.536 0.25t-1.036 0.482-0.839 0.679q-0.393 0.339-0.589 0.482t-0.554 0.268-0.786 0.125q-0.625 0-1.009-0.196t-0.92-0.679q-0.518-0.446-0.839-0.679t-1.036-0.482-1.536-0.25q-0.804 0-1.518 0.259t-1.036 0.482-0.857 0.67q-0.375 0.339-0.58 0.482t-0.554 0.268-0.777 0.125q-0.625 0-1.009-0.196t-0.92-0.679q-0.5-0.429-0.839-0.67t-1.054-0.491-1.518-0.25q-0.821 0-1.536 0.25t-1.036 0.482-0.839 0.679q-0.536 0.482-0.92 0.679t-1.009 0.196v-3.429q0-1.429 1-2.429t2.429-1h1.143v-8h4.571v8h4.571v-8h4.571v8h4.571v-8h4.571v8h1.143q1.429 0 2.429 1t1 2.429zM9.143 4q0 1.375-0.643 2.116t-1.643 0.741q-0.946 0-1.616-0.67t-0.67-1.616q0-0.518 0.17-0.911t0.42-0.607 0.554-0.5 0.554-0.563 0.42-0.795 0.17-1.196q0.679 0 1.482 1.321t0.804 2.679zM18.286 4q0 1.375-0.643 2.116t-1.643 0.741q-0.946 0-1.616-0.67t-0.67-1.616q0-0.518 0.17-0.911t0.42-0.607 0.554-0.5 0.554-0.563 0.42-0.795 0.17-1.196q0.679 0 1.482 1.321t0.804 2.679zM27.429 4q0 1.375-0.643 2.116t-1.643 0.741q-0.946 0-1.616-0.67t-0.67-1.616q0-0.518 0.17-0.911t0.42-0.607 0.554-0.5 0.554-0.563 0.42-0.795 0.17-1.196q0.679 0 1.482 1.321t0.804 2.679z"></path>
</svg>
