<!-- Generated by IcoMoon.io -->
<svg version="1.1" xmlns="http://www.w3.org/2000/svg" width="37" height="32" viewBox="0 0 37 32">
<title>untitled514</title>
<path d="M12.571 16q-2.839 0-4.848-2.009t-2.009-4.848 2.009-4.848 4.848-2.009 4.848 2.009 2.009 4.848-2.009 4.848-4.848 2.009zM31.804 21.714l4.446 4.446q0.161 0.161 0.161 0.411 0 0.232-0.161 0.393l-2.429 2.429q-0.161 0.161-0.393 0.161-0.25 0-0.411-0.161l-4.446-4.446-4.446 4.446q-0.161 0.161-0.411 0.161-0.232 0-0.393-0.161l-2.429-2.429q-0.161-0.161-0.161-0.393 0-0.25 0.161-0.411l4.446-4.446-4.446-4.446q-0.161-0.161-0.161-0.411 0-0.232 0.161-0.393l2.429-2.429q0.161-0.161 0.393-0.161 0.25 0 0.411 0.161l4.446 4.446 4.446-4.446q0.161-0.161 0.411-0.161 0.232 0 0.393 0.161l2.429 2.429q0.161 0.161 0.161 0.393 0 0.25-0.161 0.411zM22.911 21.714l-3.232 3.232q-0.661 0.661-0.661 1.625 0 0.946 0.661 1.607l1.482 1.482q-0.375 0.054-0.786 0.054h-15.607q-2.161 0-3.464-1.232t-1.304-3.393q0-0.946 0.063-1.848t0.25-1.946 0.473-1.938 0.768-1.741 1.107-1.446 1.527-0.955 1.991-0.357q0.339 0 0.696 0.304 2.75 2.179 5.696 2.179t5.696-2.179q0.357-0.304 0.696-0.304 0.5 0 1.018 0.107-0.5 0.482-0.732 0.893t-0.232 1q0 0.964 0.661 1.625z"></path>
</svg>
