<!-- Generated by IcoMoon.io -->
<svg version="1.1" xmlns="http://www.w3.org/2000/svg" width="32" height="32" viewBox="0 0 32 32">
<title>untitled296</title>
<path d="M12.232 23.196l10.964-10.964q0.339-0.339 0.339-0.804t-0.339-0.804l-1.821-1.821q-0.339-0.339-0.804-0.339t-0.804 0.339l-8.339 8.339-3.768-3.768q-0.339-0.339-0.804-0.339t-0.804 0.339l-1.821 1.821q-0.339 0.339-0.339 0.804t0.339 0.804l6.393 6.393q0.339 0.339 0.804 0.339t0.804-0.339zM27.429 7.429v17.143q0 2.125-1.509 3.634t-3.634 1.509h-17.143q-2.125 0-3.634-1.509t-1.509-3.634v-17.143q0-2.125 1.509-3.634t3.634-1.509h17.143q2.125 0 3.634 1.509t1.509 3.634z"></path>
</svg>
