<!-- Generated by IcoMoon.io -->
<svg version="1.1" xmlns="http://www.w3.org/2000/svg" width="30" height="32" viewBox="0 0 30 32">
<title>untitled93</title>
<path d="M28.768 14.857q0 0.946-0.661 1.607l-11.625 11.643q-0.696 0.661-1.625 0.661-0.946 0-1.607-0.661l-11.625-11.643q-0.679-0.643-0.679-1.607 0-0.946 0.679-1.625l1.321-1.339q0.696-0.661 1.625-0.661 0.946 0 1.607 0.661l5.25 5.25v-12.571q0-0.929 0.679-1.607t1.607-0.679h2.286q0.929 0 1.607 0.679t0.679 1.607v12.571l5.25-5.25q0.661-0.661 1.607-0.661 0.929 0 1.625 0.661l1.339 1.339q0.661 0.696 0.661 1.625z"></path>
</svg>
