<!-- Generated by IcoMoon.io -->
<svg version="1.1" xmlns="http://www.w3.org/2000/svg" width="11" height="32" viewBox="0 0 11 32">
<title>untitled266</title>
<path d="M9.143 22.286v4q0 0.464-0.339 0.804t-0.804 0.339h-4.571q-0.464 0-0.804-0.339t-0.339-0.804v-4q0-0.464 0.339-0.804t0.804-0.339h4.571q0.464 0 0.804 0.339t0.339 0.804zM9.679 3.429l-0.5 13.714q-0.018 0.464-0.366 0.804t-0.813 0.339h-4.571q-0.464 0-0.813-0.339t-0.366-0.804l-0.5-13.714q-0.018-0.464 0.313-0.804t0.795-0.339h5.714q0.464 0 0.795 0.339t0.313 0.804z"></path>
</svg>
