<!-- Generated by IcoMoon.io -->
<svg version="1.1" xmlns="http://www.w3.org/2000/svg" width="32" height="32" viewBox="0 0 32 32">
<title>untitled85</title>
<path d="M18.286 24.571v-2.857q0-0.25-0.161-0.411t-0.411-0.161h-1.714v-9.143q0-0.25-0.161-0.411t-0.411-0.161h-5.714q-0.25 0-0.411 0.161t-0.161 0.411v2.857q0 0.25 0.161 0.411t0.411 0.161h1.714v5.714h-1.714q-0.25 0-0.411 0.161t-0.161 0.411v2.857q0 0.25 0.161 0.411t0.411 0.161h8q0.25 0 0.411-0.161t0.161-0.411zM16 8.571v-2.857q0-0.25-0.161-0.411t-0.411-0.161h-3.429q-0.25 0-0.411 0.161t-0.161 0.411v2.857q0 0.25 0.161 0.411t0.411 0.161h3.429q0.25 0 0.411-0.161t0.161-0.411zM27.429 16q0 3.732-1.839 6.884t-4.991 4.991-6.884 1.839-6.884-1.839-4.991-4.991-1.839-6.884 1.839-6.884 4.991-4.991 6.884-1.839 6.884 1.839 4.991 4.991 1.839 6.884z"></path>
</svg>
