<!-- Generated by IcoMoon.io -->
<svg version="1.1" xmlns="http://www.w3.org/2000/svg" width="37" height="32" viewBox="0 0 37 32">
<title>untitled486</title>
<path d="M15.411 18.429q0-2-1.42-3.42t-3.42-1.42-3.411 1.42-1.411 3.42 1.411 3.411 3.411 1.411 3.42-1.411 1.42-3.411zM30.821 18.411q0-2-1.411-3.411t-3.411-1.411-3.42 1.411-1.42 3.411q0 2.018 1.42 3.429t3.42 1.411 3.411-1.42 1.411-3.42zM36.571 3.964v24.071q0 0.786-0.563 1.348t-1.366 0.563h-32.714q-0.804 0-1.366-0.563t-0.563-1.348v-24.071q0-0.786 0.563-1.348t1.366-0.563h7.696q0.786 0 1.357 0.563t0.571 1.348v2.875h13.464v-2.875q0-0.786 0.571-1.348t1.357-0.563h7.696q0.804 0 1.366 0.563t0.563 1.348z"></path>
</svg>
