<!-- Generated by IcoMoon.io -->
<svg version="1.1" xmlns="http://www.w3.org/2000/svg" width="32" height="32" viewBox="0 0 32 32">
<title>untitled558</title>
<path d="M16.554 10.357q0 1.179-0.83 2.009t-2.009 0.83-2.009-0.83-0.83-2.009 0.83-2.009 2.009-0.83 2.009 0.83 0.83 2.009zM20.375 16.839q-0.179-0.357-0.5-0.571t-0.848-0.17-1.080 0.491q-0.179 0.143-0.518 0.357t-1.446 0.571-2.268 0.357-2.214-0.321-1.536-0.643l-0.482-0.321q-0.554-0.446-1.080-0.491t-0.848 0.17-0.5 0.571q-0.393 0.804-0.036 1.33t1.554 1.313q1.482 0.946 4.036 1.196l-0.911 0.929q-2.536 2.536-3.411 3.393-0.393 0.393-0.393 0.938t0.393 0.938l0.161 0.161q0.393 0.393 0.938 0.393t0.938-0.393l3.411-3.411q2.036 2.054 3.411 3.411 0.393 0.393 0.938 0.393t0.938-0.393l0.161-0.161q0.393-0.393 0.393-0.938t-0.393-0.938l-3.411-3.393-0.929-0.929q2.518-0.25 4.018-1.196 1.196-0.786 1.554-1.313t-0.036-1.33zM19.5 10.357q0-2.393-1.696-4.089t-4.089-1.696-4.089 1.696-1.696 4.089 1.696 4.089 4.089 1.696 4.089-1.696 1.696-4.089zM27.429 7.429v17.143q0 2.125-1.509 3.634t-3.634 1.509h-17.143q-2.125 0-3.634-1.509t-1.509-3.634v-17.143q0-2.125 1.509-3.634t3.634-1.509h17.143q2.125 0 3.634 1.509t1.509 3.634z"></path>
</svg>
