<!-- Generated by IcoMoon.io -->
<svg version="1.1" xmlns="http://www.w3.org/2000/svg" width="32" height="32" viewBox="0 0 32 32">
<title>untitled523</title>
<path d="M16 1.143q-3.018 0-5.768 1.179t-4.741 3.17-3.17 4.741-1.179 5.768 1.179 5.768 3.17 4.741 4.741 3.17 5.768 1.179 5.768-1.179 4.741-3.17 3.17-4.741 1.179-5.768-1.179-5.768-3.17-4.741-4.741-3.17-5.768-1.179zM16 0q3.25 0 6.214 1.268t5.107 3.411 3.411 5.107 1.268 6.214-1.268 6.214-3.411 5.107-5.107 3.411-6.214 1.268-6.214-1.268-5.107-3.411-3.411-5.107-1.268-6.214 1.268-6.214 3.411-5.107 5.107-3.411 6.214-1.268zM8.857 14.857q0.286 0 0.286 0.286v8.571q0 0.286-0.286 0.286h-0.571q-0.286 0-0.286-0.286v-8.571q0-0.286 0.286-0.286h0.571zM16 16q0.946 0 1.616 0.67t0.67 1.616q0 0.625-0.313 1.143t-0.83 0.821v2.036q0 0.25-0.161 0.411t-0.411 0.161h-1.143q-0.25 0-0.411-0.161t-0.161-0.411v-2.036q-0.518-0.304-0.83-0.821t-0.313-1.143q0-0.946 0.67-1.616t1.616-0.67zM16 2.286q3.732 0 6.884 1.839t4.991 4.991 1.839 6.884-1.839 6.884-4.991 4.991-6.884 1.839-6.884-1.839-4.991-4.991-1.839-6.884 1.839-6.884 4.991-4.991 6.884-1.839zM9.714 10.857v1.714q0 0.25 0.161 0.411t0.411 0.161h1.143q0.25 0 0.411-0.161t0.161-0.411v-1.714q0-1.661 1.17-2.83t2.83-1.17 2.83 1.17 1.17 2.83v1.714q0 0.25 0.161 0.411t0.411 0.161h1.143q0.25 0 0.411-0.161t0.161-0.411v-1.714q0-2.607-1.839-4.446t-4.446-1.839-4.446 1.839-1.839 4.446zM25.143 24v-9.143q0-0.464-0.339-0.804t-0.804-0.339h-16q-0.464 0-0.804 0.339t-0.339 0.804v9.143q0 0.464 0.339 0.804t0.804 0.339h16q0.464 0 0.804-0.339t0.339-0.804z"></path>
</svg>
