<!-- Generated by IcoMoon.io -->
<svg version="1.1" xmlns="http://www.w3.org/2000/svg" width="37" height="32" viewBox="0 0 37 32">
<title>untitled491</title>
<path d="M32.339 27.768q0.339-0.339 0.804-0.339t0.804 0.339l2.286 2.286-1.607 1.607-1.482-1.482-1.482 1.482q-0.321 0.339-0.804 0.339t-0.804-0.339l-1.482-1.482-1.482 1.482q-0.339 0.339-0.804 0.339t-0.804-0.339l-1.482-1.482-1.482 1.482q-0.339 0.339-0.804 0.339t-0.804-0.339l-1.482-1.482-1.482 1.482q-0.339 0.339-0.804 0.339t-0.804-0.339l-1.482-1.482-1.482 1.482q-0.339 0.339-0.804 0.339t-0.804-0.339l-1.482-1.482-1.482 1.482q-0.339 0.339-0.804 0.339t-0.804-0.339l-1.482-1.482-1.482 1.482q-0.339 0.339-0.804 0.339t-0.804-0.339l-2.286-2.286 1.607-1.607 1.482 1.482 1.482-1.482q0.339-0.339 0.804-0.339t0.804 0.339l1.482 1.482 1.482-1.482q0.339-0.339 0.804-0.339t0.804 0.339l1.482 1.482 1.482-1.482q0.339-0.339 0.804-0.339t0.804 0.339l1.482 1.482 1.482-1.482q0.339-0.339 0.804-0.339t0.804 0.339l1.482 1.482 1.482-1.482q0.339-0.339 0.804-0.339t0.804 0.339l1.482 1.482 1.482-1.482q0.339-0.339 0.804-0.339t0.804 0.339l1.482 1.482zM4.232 27.089q-0.339 0.339-0.804 0.339t-0.804-0.339l-2.286-2.286 1.607-1.607 1.482 1.464 1.482-1.464q0.339-0.339 0.804-0.339t0.804 0.339l1.482 1.464 1.143-1.143v-5.232l-3.75-5.607q-0.304-0.464-0.125-1.009t0.714-0.723l3.161-1.036v-5.339h2.286v-2.286h4.571v-2.286h4.571v2.286h4.571v2.286h2.286v5.339l3.161 1.036q0.536 0.179 0.714 0.723t-0.125 1.009l-3.75 5.607v5.232l0.339-0.321q0.339-0.339 0.804-0.339t0.804 0.339l1.482 1.464 1.482-1.464q0.339-0.339 0.804-0.339t0.804 0.339l2.286 2.286-1.607 1.607-1.482-1.482-1.482 1.482q-0.321 0.339-0.804 0.339t-0.804-0.339l-1.482-1.482-1.482 1.482q-0.339 0.339-0.804 0.339t-0.804-0.339l-1.482-1.482-1.482 1.482q-0.339 0.339-0.804 0.339t-0.804-0.339l-1.482-1.482-1.482 1.482q-0.339 0.339-0.804 0.339t-0.804-0.339l-1.482-1.482-1.482 1.482q-0.339 0.339-0.804 0.339t-0.804-0.339l-1.482-1.482-1.482 1.482q-0.339 0.339-0.804 0.339t-0.804-0.339l-1.482-1.482zM11.429 6.857v2.286l6.857-2.286 6.857 2.286v-2.286h-2.286v-2.286h-9.143v2.286h-2.286z"></path>
</svg>
