<!-- Generated by IcoMoon.io -->
<svg version="1.1" xmlns="http://www.w3.org/2000/svg" width="32" height="32" viewBox="0 0 32 32">
<title>untitled588</title>
<path d="M27.661 12.125q0.982 0 1.527 0.509t0.545 1.491-0.607 1.464-1.625 0.482h-2.429v3.161h-0.446v-7.107h3.036zM30.536 22.661l-0.071 0.196-0.089 0.179q-2.018 4.107-5.902 6.536t-8.473 2.429q-3.25 0-6.214-1.268t-5.107-3.411-3.411-5.107-1.268-6.214 1.268-6.214 3.411-5.107 5.107-3.411 6.214-1.268q4.357 0 8.116 2.214t5.884 6.036l0.179 0.357q-0.536 0.268-2.438 1.223t-2.92 1.509q-0.107 0.054-8.554 4.786 6.857 3.268 14.268 6.536zM16 31.607q4.464 0 8.259-2.366t5.759-6.384l-5.125-2.304q-1.286 2.5-3.679 3.964t-5.214 1.464q-2.696 0-5-1.339t-3.643-3.643-1.339-5 1.339-5 3.643-3.643 5-1.339 5 1.313 3.643 3.652l5-2.554q-2.071-3.714-5.732-5.875t-7.911-2.161q-2.125 0-4.152 0.563t-3.732 1.563-3.152 2.446-2.446 3.152-1.563 3.732-0.563 4.152 0.563 4.152 1.563 3.732 2.446 3.152 3.152 2.446 3.732 1.563 4.152 0.563z"></path>
</svg>
