<!-- Generated by IcoMoon.io -->
<svg version="1.1" xmlns="http://www.w3.org/2000/svg" width="32" height="32" viewBox="0 0 32 32">
<title>untitled499</title>
<path d="M18.286 0.571q0-0.25 0.161-0.411t0.411-0.161h5.143q0.464 0 0.804 0.339t0.339 0.804v5.143q0 0.25-0.161 0.411t-0.411 0.161h-1.143q-0.25 0-0.411-0.161t-0.161-0.411v-2.393l-4.536 4.554q2.25 2.821 2.25 6.411 0 3.946-2.634 6.866t-6.509 3.348v2.357h1.714q0.25 0 0.411 0.161t0.161 0.411v1.143q0 0.25-0.161 0.411t-0.411 0.161h-1.714v1.714q0 0.25-0.161 0.411t-0.411 0.161h-1.143q-0.25 0-0.411-0.161t-0.161-0.411v-1.714h-1.714q-0.25 0-0.411-0.161t-0.161-0.411v-1.143q0-0.25 0.161-0.411t0.411-0.161h1.714v-2.357q-2.661-0.286-4.83-1.839t-3.33-3.991-0.946-5.205q0.286-3.643 2.857-6.313t6.196-3.080q2.107-0.25 4.071 0.339t3.536 1.839l4.554-4.536h-2.393q-0.25 0-0.411-0.161t-0.161-0.411v-1.143zM10.286 22.857q3.304 0 5.652-2.348t2.348-5.652-2.348-5.652-5.652-2.348-5.652 2.348-2.348 5.652 2.348 5.652 5.652 2.348z"></path>
</svg>
