<!-- Generated by IcoMoon.io -->
<svg version="1.1" xmlns="http://www.w3.org/2000/svg" width="37" height="32" viewBox="0 0 37 32">
<title>untitled547</title>
<path d="M20.554 0q1.089 0 2.071 0.5t1.625 1.375l10.214 13.946q2.107 2.839 2.107 6.411v6.339q0 1.429-1 2.429t-2.429 1h-6.857q-1.429 0-2.429-1t-1-2.429v-3.161l-5.107-2.554h-9.75q-1.429 0-2.429-1t-1-2.429v-0.571q0-2.125 1.509-3.634t3.634-1.509h7.5l0.75-2.286h-12.25q-1.786 0-3.098-1.205t-1.455-2.973q-1.161-1.411-1.161-3.25v-0.571q0-1.429 1-2.429t2.429-1h17.125zM34.286 28.571v-6.339q0-2.804-1.661-5.071l-10.232-13.946q-0.696-0.929-1.839-0.929h-17.125q-0.464 0-0.804 0.339t-0.339 0.804q0 0.571 0.027 0.884t0.17 0.723 0.446 0.768q0.179-0.554 0.634-0.893t1.009-0.339h14.857v0.571h-14.857q-0.464 0-0.804 0.339t-0.339 0.804q0 0.786 0.054 1.036 0.143 0.786 0.786 1.304t1.446 0.518h13.054q0.714 0 1.214 0.5t0.5 1.214q0 0.268-0.089 0.536l-1.143 3.429q-0.179 0.518-0.625 0.848t-1 0.33h-7.911q-1.179 0-2.018 0.839t-0.839 2.018v0.571q0 0.464 0.339 0.804t0.804 0.339h10.018q0.286 0 0.518 0.125l5.661 2.821q0.429 0.232 0.688 0.643t0.259 0.893v3.518q0 0.464 0.339 0.804t0.804 0.339h6.857q0.464 0 0.804-0.339t0.339-0.804z"></path>
</svg>
