<!-- Generated by IcoMoon.io -->
<svg version="1.1" xmlns="http://www.w3.org/2000/svg" width="32" height="32" viewBox="0 0 32 32">
<title>untitled50</title>
<path d="M1.446 2.304l0.964 0.482q0.214 0.089 3.768 0.089 0.786 0 2.357-0.036t2.357-0.036q1.25 0 4.402-0.018t5.438-0.009 4.411 0.080q0.589 0.018 1-0.554l0.75-0.018q0.071 0 0.25 0.009t0.25 0.009q0.036 2 0.036 6 0 1.429-0.089 1.946-0.696 0.25-1.214 0.321-0.446-0.786-0.964-2.286-0.054-0.161-0.196-0.848t-0.268-1.313-0.125-0.643q-0.179-0.232-0.482-0.339-0.089-0.036-1.179-0.036-0.536 0-1.661-0.018t-1.839-0.018-1.679 0.036-1.714 0.125q-0.161 1.446-0.143 2.429l0.018 2.714v-0.929q0 0.982 0.018 2.75t0.027 3.214 0.009 2.732q0 0.286-0.045 1.277t0 1.634 0.223 1.232q0.714 0.375 2.214 0.759t2.143 0.67q0.089 0.714 0.089 0.893 0 0.25-0.054 0.518l-0.607 0.018q-1.357 0.036-3.893-0.143t-3.696-0.179q-0.893 0-2.696 0.161t-2.714 0.161q-0.054-0.911-0.054-0.929v-0.161q0.304-0.482 1.098-0.768t1.759-0.518 1.393-0.482q0.125-0.286 0.205-1.321t0.107-2.598 0.027-2.768-0.009-2.741-0.009-1.589q0-0.125-0.045-0.384t-0.045-0.402q0-0.125 0.009-0.786t0.018-1.304 0-1.366-0.054-1.205-0.116-0.571q-0.196-0.214-2.893-0.214-0.732 0-2.911 0.241t-2.464 0.438q-0.339 0.214-0.607 1.277t-0.563 1.991-0.759 0.964q-0.75-0.464-1-0.786v-6.839zM23.393 25.196q0.214 0 0.75 0.348t1.027 0.741 1.063 0.875 0.643 0.536q0.464 0.375 0.464 0.875t-0.464 0.875q-0.071 0.054-0.643 0.536t-1.063 0.875-1.027 0.741-0.75 0.348q-0.232 0-0.366-0.188t-0.179-0.509-0.045-0.598 0.027-0.589 0.027-0.348h-18.286q0 0.036 0.027 0.348t0.027 0.589-0.045 0.598-0.179 0.509-0.366 0.188q-0.214 0-0.75-0.348t-1.027-0.741-1.063-0.875-0.643-0.536q-0.464-0.375-0.464-0.875t0.464-0.875q0.071-0.054 0.643-0.536t1.063-0.875 1.027-0.741 0.75-0.348q0.232 0 0.366 0.188t0.179 0.509 0.045 0.598-0.027 0.589-0.027 0.348h18.286q0-0.036-0.027-0.348t-0.027-0.589 0.045-0.598 0.179-0.509 0.366-0.188z"></path>
</svg>
