<!-- Generated by IcoMoon.io -->
<svg version="1.1" xmlns="http://www.w3.org/2000/svg" width="32" height="32" viewBox="0 0 32 32">
<title>untitled495</title>
<path d="M22.857 18.286h5.446q-0.089 0.107-0.179 0.188t-0.161 0.134l-0.054 0.071-11.125 10.714q-0.321 0.321-0.786 0.321t-0.786-0.321l-11.143-10.75q-0.089-0.036-0.375-0.357h6.589q0.393 0 0.705-0.241t0.402-0.616l1.25-5.018 3.393 11.911q0.107 0.357 0.411 0.589t0.696 0.232q0.375 0 0.679-0.232t0.411-0.589l2.607-8.661 1 2q0.321 0.625 1.018 0.625zM32 10.643q0 2.589-1.839 5.357h-6.589l-1.982-3.946q-0.143-0.304-0.455-0.482t-0.652-0.143q-0.804 0.089-1 0.821l-2.304 7.679-3.5-12.25q-0.107-0.357-0.42-0.589t-0.705-0.232-0.696 0.241-0.393 0.616l-2.071 8.286h-7.554q-1.839-2.768-1.839-5.357 0-3.929 2.268-6.143t6.268-2.214q1.107 0 2.259 0.384t2.143 1.036 1.705 1.223 1.357 1.214q0.643-0.643 1.357-1.214t1.705-1.223 2.143-1.036 2.259-0.384q4 0 6.268 2.214t2.268 6.143z"></path>
</svg>
