<!-- Generated by IcoMoon.io -->
<svg version="1.1" xmlns="http://www.w3.org/2000/svg" width="32" height="32" viewBox="0 0 32 32">
<title>untitled57</title>
<path d="M6.286 14.857q0 0.25-0.161 0.411l-5.143 5.143q-0.161 0.161-0.411 0.161-0.232 0-0.402-0.17t-0.17-0.402v-10.286q0-0.232 0.17-0.402t0.402-0.17q0.25 0 0.411 0.161l5.143 5.143q0.161 0.161 0.161 0.411zM32 23.429v3.429q0 0.232-0.17 0.402t-0.402 0.17h-30.857q-0.232 0-0.402-0.17t-0.17-0.402v-3.429q0-0.232 0.17-0.402t0.402-0.17h30.857q0.232 0 0.402 0.17t0.17 0.402zM32 16.571v3.429q0 0.232-0.17 0.402t-0.402 0.17h-19.429q-0.232 0-0.402-0.17t-0.17-0.402v-3.429q0-0.232 0.17-0.402t0.402-0.17h19.429q0.232 0 0.402 0.17t0.17 0.402zM32 9.714v3.429q0 0.232-0.17 0.402t-0.402 0.17h-19.429q-0.232 0-0.402-0.17t-0.17-0.402v-3.429q0-0.232 0.17-0.402t0.402-0.17h19.429q0.232 0 0.402 0.17t0.17 0.402zM32 2.857v3.429q0 0.232-0.17 0.402t-0.402 0.17h-30.857q-0.232 0-0.402-0.17t-0.17-0.402v-3.429q0-0.232 0.17-0.402t0.402-0.17h30.857q0.232 0 0.402 0.17t0.17 0.402z"></path>
</svg>
