<!-- Generated by IcoMoon.io -->
<svg version="1.1" xmlns="http://www.w3.org/2000/svg" width="37" height="32" viewBox="0 0 37 32">
<title>untitled577</title>
<path d="M36.071 0.196q0.5 0.357 0.5 0.946v25.143q0 0.357-0.196 0.643t-0.518 0.411l-11.429 4.571q-0.429 0.196-0.857 0l-11-4.393-11 4.393q-0.179 0.089-0.429 0.089-0.339 0-0.643-0.196-0.5-0.357-0.5-0.946v-25.143q0-0.357 0.196-0.643t0.518-0.411l11.429-4.571q0.429-0.196 0.857 0l11 4.393 11-4.393q0.571-0.232 1.071 0.107zM13.143 2.607v22.679l10.286 4.107v-22.679zM2.286 6.482v22.679l9.714-3.875v-22.679zM34.286 25.518v-22.679l-9.714 3.875v22.679z"></path>
</svg>
