<!-- Generated by IcoMoon.io -->
<svg version="1.1" xmlns="http://www.w3.org/2000/svg" width="32" height="32" viewBox="0 0 32 32">
<title>untitled492</title>
<path d="M10.286 27.429l1.714-8-1.714-2.286-2.286-1.143zM14.857 27.429l2.286-11.429-2.286 1.143-1.714 2.286zM17.714 9.393q-0.036-0.071-0.071-0.107-0.179-0.143-1.714-0.143-1.25 0-2.982 0.339-0.125 0.036-0.375 0.036t-0.375-0.036q-1.732-0.339-2.982-0.339-1.536 0-1.714 0.143-0.036 0.036-0.071 0.107 0.036 0.321 0.071 0.482 0.036 0.054 0.134 0.116t0.134 0.188q0.036 0.071 0.134 0.366t0.125 0.366 0.134 0.304 0.152 0.304 0.161 0.25 0.214 0.241 0.25 0.17 0.313 0.143 0.366 0.071 0.438 0.036q0.643 0 1.054-0.223t0.58-0.536 0.259-0.616 0.205-0.527 0.313-0.223h0.214q0.196 0 0.313 0.223t0.205 0.527 0.259 0.616 0.58 0.536 1.054 0.223q0.232 0 0.438-0.036t0.366-0.071 0.312-0.143 0.25-0.17 0.214-0.241 0.161-0.25 0.152-0.304 0.134-0.304 0.125-0.366 0.134-0.366q0.036-0.125 0.134-0.188t0.134-0.116q0.036-0.161 0.071-0.482zM25.143 25.089q0 2.161-1.304 3.393t-3.464 1.232h-15.607q-2.161 0-3.464-1.232t-1.304-3.393q0-1.089 0.080-2.107t0.339-2.241 0.67-2.205 1.134-1.848 1.67-1.33l-1.607-3.929h3.821q-0.393-1.143-0.393-2.286 0-0.214 0.036-0.571-3.464-0.714-3.464-1.714 0-1.018 3.75-1.768 0.304-1.107 0.92-2.393t1.259-2.036q0.571-0.661 1.357-0.661 0.536 0 1.5 0.554t1.5 0.554 1.5-0.554 1.5-0.554q0.786 0 1.357 0.661 0.643 0.75 1.259 2.036t0.92 2.393q3.75 0.75 3.75 1.768 0 1-3.464 1.714 0.125 1.446-0.357 2.857h3.821l-1.464 4.018q1.125 0.589 1.92 1.723t1.17 2.563 0.518 2.705 0.143 2.652z"></path>
</svg>
