<!-- Generated by IcoMoon.io -->
<svg version="1.1" xmlns="http://www.w3.org/2000/svg" width="23" height="32" viewBox="0 0 23 32">
<title>untitled505</title>
<path d="M11.429 11.5q3.875 0.429 6.509 3.348t2.634 6.866q0 2.982-1.554 5.464t-4.214 3.786-5.696 0.964q-2.375-0.268-4.384-1.571t-3.25-3.357-1.438-4.446q-0.214-2.768 0.938-5.214t3.321-4 4.848-1.839v-2.357h-2.857q-0.25 0-0.411-0.161t-0.161-0.411v-1.143q0-0.25 0.161-0.411t0.411-0.161h2.857v-2.946l-1.643 1.643q-0.179 0.161-0.411 0.161t-0.393-0.161l-0.821-0.821q-0.161-0.161-0.161-0.393t0.161-0.411l3.607-3.589q0.339-0.339 0.804-0.339t0.804 0.339l3.607 3.589q0.161 0.179 0.161 0.411t-0.161 0.393l-0.821 0.821q-0.161 0.161-0.393 0.161t-0.411-0.161l-1.643-1.643v2.946h2.857q0.25 0 0.411 0.161t0.161 0.411v1.143q0 0.25-0.161 0.411t-0.411 0.161h-2.857v2.357zM10.286 29.714q3.304 0 5.652-2.348t2.348-5.652-2.348-5.652-5.652-2.348-5.652 2.348-2.348 5.652 2.348 5.652 5.652 2.348z"></path>
</svg>
