<!-- Generated by IcoMoon.io -->
<svg version="1.1" xmlns="http://www.w3.org/2000/svg" width="37" height="32" viewBox="0 0 37 32">
<title>untitled503</title>
<path d="M29.714 0.571q0-0.25 0.161-0.411t0.411-0.161h5.143q0.464 0 0.804 0.339t0.339 0.804v5.143q0 0.25-0.161 0.411t-0.411 0.161h-1.143q-0.25 0-0.411-0.161t-0.161-0.411v-2.393l-4.536 4.554q1.357 1.696 1.92 3.821t0.17 4.411q-0.571 3.214-2.938 5.536t-5.598 2.804q-3.982 0.607-7.304-1.607-2.089 1.393-4.571 1.661v2.357h1.714q0.25 0 0.411 0.161t0.161 0.411v1.143q0 0.25-0.161 0.411t-0.411 0.161h-1.714v1.714q0 0.25-0.161 0.411t-0.411 0.161h-1.143q-0.25 0-0.411-0.161t-0.161-0.411v-1.714h-1.714q-0.25 0-0.411-0.161t-0.161-0.411v-1.143q0-0.25 0.161-0.411t0.411-0.161h1.714v-2.357q-2.768-0.304-4.991-1.955t-3.339-4.241-0.705-5.482q0.446-3.339 2.848-5.759t5.723-2.938q4-0.607 7.321 1.607 2.607-1.732 5.714-1.732 3.589 0 6.411 2.25l4.554-4.536h-2.393q-0.25 0-0.411-0.161t-0.161-0.411v-1.143zM16 20.446q2.286-2.339 2.286-5.589t-2.286-5.589q-2.286 2.339-2.286 5.589t2.286 5.589zM2.286 14.857q0 3.304 2.348 5.652t5.652 2.348q2.089 0 3.893-1.018-2.75-2.982-2.75-6.982t2.75-6.982q-1.804-1.018-3.893-1.018-3.304 0-5.652 2.348t-2.348 5.652zM21.714 22.857q3.304 0 5.652-2.348t2.348-5.652-2.348-5.652-5.652-2.348q-2.089 0-3.893 1.018 2.75 2.982 2.75 6.982t-2.75 6.982q1.804 1.018 3.893 1.018z"></path>
</svg>
