<!-- Generated by IcoMoon.io -->
<svg version="1.1" xmlns="http://www.w3.org/2000/svg" width="32" height="32" viewBox="0 0 32 32">
<title>untitled546</title>
<path d="M19.161 29.714h-3.161q-2.911 0-4.036-2.518-0.411-0.875-0.411-1.821v-0.089q-1.107-0.536-1.759-1.58t-0.652-2.277q0-0.679 0.089-0.857h-4.661q-1.893 0-3.232-1.339t-1.339-3.232 1.339-3.232 3.232-1.339h2.018l-0.786-0.304q-1.321-0.5-2.134-1.67t-0.813-2.598q0-1.893 1.339-3.232t3.232-1.339q0.821 0 1.625 0.304l11.214 4.268h7.161q1.893 0 3.232 1.339t1.339 3.232v11.929q0 1.571-0.964 2.813t-2.5 1.616l-6.054 1.518q-1.643 0.411-3.321 0.411zM18.286 17.018l-2.768 1.268-2.911 1.321q-0.536 0.25-0.857 0.741t-0.321 1.080q0 0.821 0.589 1.411t1.411 0.589q0.464 0 0.821-0.179l6.036-2.75q-0.875-0.179-1.438-0.893t-0.563-1.607v-0.982zM24 22.571q0-0.821-0.589-1.411t-1.411-0.589q-0.464 0-0.821 0.179l-5.179 2.357q-0.5 0.232-0.661 0.304t-0.545 0.304-0.527 0.42-0.286 0.518-0.143 0.723q0 0.893 0.563 1.464t1.455 0.571q0.357 0 0.679-0.161l6.286-2.857q0.536-0.25 0.857-0.741t0.321-1.080zM19.857 9.143l-11.607-4.429q-0.429-0.143-0.821-0.143-0.946 0-1.616 0.67t-0.67 1.616q0 0.714 0.402 1.304t1.063 0.839l9.393 3.571v1.143h-11.429q-0.946 0-1.616 0.67t-0.67 1.616 0.67 1.616 1.616 0.67h9.554l4.161-1.893v-3.536q0-1.125 0.821-1.893l1.982-1.821h-1.232zM19.161 27.429q1.464 0 2.768-0.339l6.054-1.518q0.768-0.196 1.25-0.813t0.482-1.402v-11.929q0-0.946-0.67-1.616t-1.616-0.67h-5.5l-2.429 2.25q-0.643 0.589-0.643 1.464v5.286q0 0.821 0.589 1.375t1.411 0.554 1.411-0.625 0.589-1.446v-3.714h0.571v3.714q0 1.25-1.018 2.036 0.929 0.143 1.545 0.866t0.616 1.67q0 0.75-0.411 1.393t-1.089 0.946l-5.536 2.518h1.625z"></path>
</svg>
