<!-- Generated by IcoMoon.io -->
<svg version="1.1" xmlns="http://www.w3.org/2000/svg" width="32" height="32" viewBox="0 0 32 32">
<title>untitled512</title>
<path d="M2.286 25.143h18.286v-2.286h-18.286v2.286zM2.286 16h18.286v-2.286h-18.286v2.286zM30.286 24q0-0.714-0.5-1.214t-1.214-0.5-1.214 0.5-0.5 1.214 0.5 1.214 1.214 0.5 1.214-0.5 0.5-1.214zM2.286 6.857h18.286v-2.286h-18.286v2.286zM30.286 14.857q0-0.714-0.5-1.214t-1.214-0.5-1.214 0.5-0.5 1.214 0.5 1.214 1.214 0.5 1.214-0.5 0.5-1.214zM30.286 5.714q0-0.714-0.5-1.214t-1.214-0.5-1.214 0.5-0.5 1.214 0.5 1.214 1.214 0.5 1.214-0.5 0.5-1.214zM32 20.571v6.857h-32v-6.857h32zM32 11.429v6.857h-32v-6.857h32zM32 2.286v6.857h-32v-6.857h32z"></path>
</svg>
