<!-- Generated by IcoMoon.io -->
<svg version="1.1" xmlns="http://www.w3.org/2000/svg" width="32" height="32" viewBox="0 0 32 32">
<title>untitled427</title>
<path d="M4.821 14.393q-0.143-0.339-0.143-0.929 0-0.357 0.196-0.875t0.429-0.804q-0.018-0.393 0.134-0.946t0.402-0.768q0-2.482 1.652-5.152t3.884-3.741q2.482-1.179 5.786-1.179 2.375 0 4.75 0.982 0.875 0.375 1.607 0.857t1.268 1 0.982 1.214 0.75 1.321 0.58 1.509 0.455 1.598 0.393 1.75l0.018 0.089q0.982 1.482 0.982 2.679 0 0.25-0.161 0.714t-0.161 0.679q0 0.018 0.027 0.063t0.063 0.089 0.036 0.063q1.375 2.036 2.152 3.83t0.777 3.723q0 0.768-0.348 1.786t-0.991 1.018q-0.161 0-0.348-0.134t-0.339-0.313-0.339-0.464-0.286-0.473-0.241-0.464-0.161-0.313q-0.018-0.018-0.054-0.018l-0.089 0.071q-1.054 2.75-2.357 3.982 0.357 0.357 1.098 0.688t1.232 0.741 0.634 1.161q-0.036 0.071-0.071 0.286t-0.125 0.321q-1.143 1.732-5.393 1.732-0.946 0-1.973-0.161t-1.75-0.357-1.866-0.536q-0.268-0.089-0.411-0.125-0.25-0.071-0.821-0.080t-0.714-0.027q-0.732 0.804-2.277 1.161t-3.009 0.357q-0.625 0-1.232-0.027t-1.661-0.161-1.804-0.366-1.33-0.714-0.58-1.143q0-0.714 0.179-1.063t0.732-0.866q0.196-0.036 0.723-0.232t0.884-0.214q0.071 0 0.25-0.036 0.036-0.036 0.036-0.071l-0.036-0.054q-0.857-0.196-1.929-1.884t-1.304-2.795l-0.089-0.054q-0.071 0-0.214 0.357-0.321 0.732-0.973 1.33t-1.384 0.67h-0.018q-0.071 0-0.107-0.080t-0.089-0.098q-0.411-0.964-0.411-1.786 0-4.911 4.5-8.321z"></path>
</svg>
