<!-- Generated by IcoMoon.io -->
<svg version="1.1" xmlns="http://www.w3.org/2000/svg" width="14" height="32" viewBox="0 0 14 32">
<title>untitled118</title>
<path d="M12.571 5.714q0 0.464-0.339 0.804t-0.804 0.339h-2.286v18.286h2.286q0.464 0 0.804 0.339t0.339 0.804-0.339 0.804l-4.571 4.571q-0.339 0.339-0.804 0.339t-0.804-0.339l-4.571-4.571q-0.339-0.339-0.339-0.804t0.339-0.804 0.804-0.339h2.286v-18.286h-2.286q-0.464 0-0.804-0.339t-0.339-0.804 0.339-0.804l4.571-4.571q0.339-0.339 0.804-0.339t0.804 0.339l4.571 4.571q0.339 0.339 0.339 0.804z"></path>
</svg>
