<!-- Generated by IcoMoon.io -->
<svg version="1.1" xmlns="http://www.w3.org/2000/svg" width="32" height="32" viewBox="0 0 32 32">
<title>untitled511</title>
<path d="M17.589 17.393q0.232 0 1.741 0.786t1.598 0.946q0.036 0.089 0.036 0.268 0 0.589-0.304 1.357-0.286 0.696-1.268 1.17t-1.821 0.473q-1.018 0-3.393-1.107-1.75-0.804-3.036-2.107t-2.643-3.304q-1.286-1.911-1.268-3.464v-0.143q0.054-1.625 1.321-2.821 0.429-0.393 0.929-0.393 0.107 0 0.321 0.027t0.339 0.027q0.339 0 0.473 0.116t0.277 0.491q0.143 0.357 0.589 1.571t0.446 1.339q0 0.375-0.616 1.027t-0.616 0.83q0 0.125 0.089 0.268 0.607 1.304 1.821 2.446 1 0.946 2.696 1.804 0.214 0.125 0.393 0.125 0.268 0 0.964-0.866t0.929-0.866zM13.964 26.857q2.268 0 4.348-0.893t3.58-2.393 2.393-3.58 0.893-4.348-0.893-4.348-2.393-3.58-3.58-2.393-4.348-0.893-4.348 0.893-3.58 2.393-2.393 3.58-0.893 4.348q0 3.625 2.143 6.571l-1.411 4.161 4.321-1.375q2.821 1.857 6.161 1.857zM13.964 2.179q2.732 0 5.223 1.071t4.295 2.875 2.875 4.295 1.071 5.223-1.071 5.223-2.875 4.295-4.295 2.875-5.223 1.071q-3.482 0-6.518-1.679l-7.446 2.393 2.429-7.232q-1.929-3.179-1.929-6.946 0-2.732 1.071-5.223t2.875-4.295 4.295-2.875 5.223-1.071z"></path>
</svg>
