<!-- Generated by IcoMoon.io -->
<svg version="1.1" xmlns="http://www.w3.org/2000/svg" width="32" height="32" viewBox="0 0 32 32">
<title>untitled608</title>
<path d="M16 14.571q-1.857-3.5-2.857-4.964-2.482-3.607-6.196-5.679-0.607-0.339-1.25-0.643-1.589-0.714-1.679-0.571t0.607 0.679l0.696 0.554q1.107 0.768 2.009 1.67t1.687 2.080 1.259 2.018 1.259 2.339q0.161 0.304 0.232 0.446 0.786 1.5 1.5 2.732t1.75 2.75 2.063 2.679 2.339 2.205 2.652 1.616q2.732 1.179 2.75 1.071 0.018-0.054-0.875-0.661-0.946-0.643-1.446-1.018-1.375-1.036-3.196-3.768t-3.304-5.536zM9.804 24.268q-1.357-1.071-2.366-2.232t-1.75-2.563-1.268-2.759-1.045-3.321-0.929-3.732-1.080-4.5-1.366-5.161q4.875 0 8.884 0.643t6.768 1.643 4.839 2.58 3.313 3.080 1.964 3.545 1 3.563 0.223 3.545-0.17 3.089-0.357 2.563-0.232 1.911l5.768 5.839h-1.857l-5.018-5.089q-0.393 0.036-1.634 0.25t-2.17 0.339-2.464 0.107-2.866-0.304-2.991-1.054-3.196-1.982z"></path>
</svg>
