<!-- Generated by IcoMoon.io -->
<svg version="1.1" xmlns="http://www.w3.org/2000/svg" width="32" height="32" viewBox="0 0 32 32">
<title>untitled160</title>
<path d="M22.929 15.982q0-0.482-0.321-0.804l-8.089-8.089q-0.321-0.321-0.804-0.321t-0.804 0.321l-8.089 8.089q-0.321 0.321-0.321 0.804t0.321 0.804l1.625 1.625q0.321 0.321 0.804 0.321t0.804-0.321l3.375-3.375v8.964q0 0.464 0.339 0.804t0.804 0.339h2.286q0.464 0 0.804-0.339t0.339-0.804v-8.964l3.375 3.375q0.339 0.339 0.804 0.339t0.804-0.339l1.625-1.625q0.321-0.321 0.321-0.804zM27.429 16q0 3.732-1.839 6.884t-4.991 4.991-6.884 1.839-6.884-1.839-4.991-4.991-1.839-6.884 1.839-6.884 4.991-4.991 6.884-1.839 6.884 1.839 4.991 4.991 1.839 6.884z"></path>
</svg>
