<!-- Generated by IcoMoon.io -->
<svg version="1.1" xmlns="http://www.w3.org/2000/svg" width="32" height="32" viewBox="0 0 32 32">
<title>untitled619</title>
<path d="M15.464 9.196q0 0.482-0.232 1.679-0.196 0.893-0.563 2.679t-0.545 2.679q-0.036 0.196-0.080 0.223t-0.241 0.045q-0.357 0.036-0.554 0.036-1.036 0-1.5-0.884t-0.464-2.027q0-1.571 0.625-3.107t1.839-2.214q0.5-0.25 0.911-0.25 0.5 0 0.652 0.295t0.152 0.848zM24.143 16.768q0-0.25-0.696-1.348t-0.929-1.188q-0.375-0.143-0.607-0.143-1.625 0-4.036 1.375l-0.036-0.036q0.054-0.393 0.491-2.411t0.438-3.179q0-4.161-4.321-4.161-0.429 0-1.214 0.107-1.679 0.304-3.009 1.598t-1.991 2.973-0.661 3.375q0 2.607 1.437 4.018t4.063 1.411q0.446 0 0.446 0.054t-0.018 0.089q-0.071 0.607-0.464 2.089-0.25 0.929-0.92 1.804t-1.473 0.875q-0.75 0-0.75-0.839 0-0.429 0.188-0.848t0.446-0.705 0.527-0.509 0.464-0.357 0.196-0.152q0-0.054-0.125-0.179-0.429-0.393-1.045-0.652t-1.17-0.259q-0.625 0-1.134 0.607t-0.732 1.339-0.223 1.339q0 1.571 0.92 2.536t2.473 0.964q1.464 0 2.768-0.946t2.098-2.25 1.17-2.732q0.107-0.393 0.277-1.188t0.259-1.188q0.054-0.214 0.25-0.321 2.107-1.071 4.054-1.071 0.857 0 2.268 0.321 0.018 0.018 0.071 0.018 0.089 0 0.17-0.080t0.080-0.152zM27.429 7.429v17.143q0 2.125-1.509 3.634t-3.634 1.509h-17.143q-2.125 0-3.634-1.509t-1.509-3.634v-17.143q0-2.125 1.509-3.634t3.634-1.509h17.143q2.125 0 3.634 1.509t1.509 3.634z"></path>
</svg>
