<!-- Generated by IcoMoon.io -->
<svg version="1.1" xmlns="http://www.w3.org/2000/svg" width="32" height="32" viewBox="0 0 32 32">
<title>untitled594</title>
<path d="M26.786 27.661q0 1.589-1.125 2.723t-2.732 1.134-2.741-1.134-1.134-2.723q0-1.607 1.134-2.741t2.741-1.134 2.732 1.134 1.125 2.741zM22.625 22.643q-2.054 0.268-3.438 1.83t-1.384 3.67q0 1.321 0.589 2.464-2.607 1.393-6.768 1.393-1.946 0-3.589-0.375t-2.741-0.973-1.973-1.366-1.357-1.518-0.795-1.482-0.42-1.188-0.107-0.705q0-0.339 0.080-0.759t0.33-1 0.652-1.036 1.143-0.777 1.688-0.321 1.679 0.313 1.125 0.732 0.634 0.946 0.312 0.875 0.071 0.598q0 0.607-0.411 1.446 0.5 0.482 1.464 0.75t1.661 0.304l0.714 0.018q2.054 0 3.393-0.911t1.339-2.375q0-0.464-0.161-0.866t-0.563-0.795-0.884-0.732-1.321-0.786-1.67-0.848-2.134-1.009q-0.5-0.232-0.768-0.357-2.071-0.982-3.339-1.786t-2.188-1.821-1.286-2.241-0.366-2.902q0-1.393 0.366-2.679t1.179-2.455 2.009-2.036 2.973-1.375 3.955-0.509q2.143 0 3.929 0.464t2.938 1.196 1.955 1.679 1.143 1.884 0.339 1.848q0 0.821-0.268 1.473t-0.652 1.036-0.866 0.643-0.875 0.348-0.696 0.089h-0.714t-0.696-0.089-0.786-0.25-0.732-0.5-0.661-0.821-0.429-1.259-0.179-1.741q-0.268-0.286-1.054-0.455t-1.446-0.188l-0.661-0.018q-1.214 0-2.098 0.554t-1.259 1.25-0.375 1.357q0 0.429 0.089 0.768t0.429 0.821 0.946 0.911 1.732 0.955 2.679 1.045q1.357 0.446 2.473 0.955t1.946 0.991 1.482 1.054 1.080 1.063 0.732 1.116 0.473 1.107 0.259 1.134 0.107 1.107 0.018 1.116z"></path>
</svg>
