<!-- Generated by IcoMoon.io -->
<svg version="1.1" xmlns="http://www.w3.org/2000/svg" width="32" height="32" viewBox="0 0 32 32">
<title>untitled473</title>
<path d="M6.857 21.714q0-0.946-0.67-1.616t-1.616-0.67-1.616 0.67-0.67 1.616 0.67 1.616 1.616 0.67 1.616-0.67 0.67-1.616zM25.143 21.714q0-0.946-0.67-1.616t-1.616-0.67-1.616 0.67-0.67 1.616 0.67 1.616 1.616 0.67 1.616-0.67 0.67-1.616zM24.321 14.643l-1.286-6.857q-0.089-0.411-0.402-0.67t-0.723-0.259h-16.393q-0.411 0-0.723 0.259t-0.402 0.67l-1.286 6.857q-0.089 0.536 0.25 0.946t0.875 0.411h18.964q0.536 0 0.875-0.411t0.25-0.946zM20.286 3.714q0-0.357-0.25-0.607t-0.607-0.25h-11.429q-0.357 0-0.607 0.25t-0.25 0.607 0.25 0.607 0.607 0.25h11.429q0.357 0 0.607-0.25t0.25-0.607zM27.429 16.661v10.768h-2.286v2.286q0 0.946-0.67 1.616t-1.616 0.67-1.616-0.67-0.67-1.616v-2.286h-13.714v2.286q0 0.946-0.67 1.616t-1.616 0.67-1.616-0.67-0.67-1.616v-2.286h-2.286v-10.768q0-2 0.446-3.982l1.839-8.107q0.161-1.393 1.741-2.446t4.107-1.589 5.58-0.536 5.58 0.536 4.107 1.589 1.741 2.446l1.875 8.107q0.411 1.821 0.411 3.982z"></path>
</svg>
