<!-- Generated by IcoMoon.io -->
<svg version="1.1" xmlns="http://www.w3.org/2000/svg" width="32" height="32" viewBox="0 0 32 32">
<title>untitled553</title>
<path d="M10.804 22.018q2.732 0 4.589-1.857 0.25-0.321 0.054-0.643l-0.804-1.464q-0.107-0.232-0.429-0.304-0.286-0.036-0.482 0.196l-0.071 0.054q-0.071 0.071-0.205 0.179t-0.313 0.232-0.42 0.259-0.509 0.241-0.598 0.17-0.67 0.063q-1.357 0-2.232-0.893t-0.875-2.268q0-1.357 0.857-2.241t2.179-0.884q0.661 0 1.277 0.25t0.902 0.5l0.286 0.25q0.196 0.196 0.464 0.179 0.286-0.036 0.429-0.25l0.946-1.393q0.232-0.357-0.036-0.696-0.054-0.071-0.196-0.214t-0.536-0.42-0.866-0.5-1.205-0.402-1.536-0.179q-2.643 0-4.393 1.723t-1.75 4.295q0 2.607 1.732 4.313t4.411 1.705zM22.054 22.018q2.732 0 4.589-1.857 0.25-0.321 0.071-0.643l-0.804-1.464q-0.143-0.25-0.446-0.304-0.286-0.036-0.482 0.196l-0.071 0.054q-0.071 0.071-0.205 0.179t-0.313 0.232-0.42 0.259-0.509 0.241-0.598 0.17-0.67 0.063q-1.357 0-2.232-0.893t-0.875-2.268q0-1.357 0.857-2.241t2.179-0.884q0.661 0 1.277 0.25t0.902 0.5l0.286 0.25q0.196 0.196 0.464 0.179 0.286-0.036 0.429-0.25l0.946-1.393q0.232-0.357-0.036-0.696-0.054-0.071-0.196-0.214t-0.536-0.42-0.866-0.5-1.205-0.402-1.536-0.179q-2.625 0-4.384 1.723t-1.759 4.295q0 2.607 1.732 4.313t4.411 1.705zM16 2.857q-2.679 0-5.107 1.045t-4.188 2.804-2.804 4.188-1.045 5.107 1.045 5.107 2.804 4.188 4.188 2.804 5.107 1.045 5.107-1.045 4.188-2.804 2.804-4.188 1.045-5.107-1.045-5.107-2.804-4.188-4.188-2.804-5.107-1.045zM16 0q3.25 0 6.214 1.268t5.107 3.411 3.411 5.107 1.268 6.214-1.268 6.214-3.411 5.107-5.107 3.411-6.214 1.268-6.214-1.268-5.107-3.411-3.411-5.107-1.268-6.214 1.268-6.214 3.411-5.107 5.107-3.411 6.214-1.268z"></path>
</svg>
