<!-- Generated by IcoMoon.io -->
<svg version="1.1" xmlns="http://www.w3.org/2000/svg" width="32" height="32" viewBox="0 0 32 32">
<title>untitled461</title>
<path d="M17.357 13.839q0-1.929-0.955-3.018t-2.634-1.089q-1.125 0-2.214 0.545t-1.964 1.509-1.42 2.446-0.545 3.214q0 2 0.955 3.089t2.688 1.089q1.714 0 3.143-1.188t2.188-2.964 0.759-3.634zM27.429 16q0 1.982-0.661 3.518t-1.759 2.411-2.348 1.33-2.589 0.491q-0.107 0-0.277 0.009t-0.295 0.009q-1.696 0-2.536-0.946-0.5-0.589-0.589-1.482-0.929 1.179-2.348 1.964t-3.098 0.786q-2.875 0-4.455-1.705t-1.58-4.813q0-2.804 1.179-5.179t3.196-3.759 4.393-1.384q1.554 0 2.768 0.634t1.893 1.777l0.036-0.339 0.196-1q0.018-0.107 0.098-0.214t0.17-0.107h2.107q0.089 0 0.232 0.196 0.089 0.089 0.054 0.286l-2.143 10.964q-0.089 0.429-0.089 0.857 0 0.696 0.223 0.929t0.795 0.232q0.5-0.018 1.018-0.098t1.304-0.429 1.375-0.893 1.018-1.598 0.429-2.446q0-5.214-3.107-8.321t-8.321-3.107q-2.321 0-4.438 0.911t-3.643 2.438-2.438 3.643-0.911 4.438 0.911 4.438 2.438 3.643 3.643 2.438 4.438 0.911q4.071 0 7.232-2.571 0.196-0.161 0.429-0.143t0.375 0.214l0.732 0.875q0.143 0.214 0.125 0.429-0.036 0.232-0.214 0.393-1.821 1.482-4.063 2.286t-4.616 0.804q-2.786 0-5.321-1.089t-4.375-2.929-2.929-4.375-1.089-5.321 1.089-5.321 2.929-4.375 4.375-2.929 5.321-1.089q6.143 0 9.929 3.786t3.786 9.929z"></path>
</svg>
