<!-- Generated by IcoMoon.io -->
<svg version="1.1" xmlns="http://www.w3.org/2000/svg" width="32" height="32" viewBox="0 0 32 32">
<title>untitled569</title>
<path d="M27.696 26.357q0.268-0.107 0.464-0.054t0.196 0.313-0.268 0.598q-0.232 0.286-0.786 0.777t-1.705 1.214-2.518 1.321-3.357 1.036-4.098 0.438q-2.125 0-4.25-0.554t-3.732-1.366-3.080-1.857-2.366-1.875-1.5-1.563q-0.143-0.161-0.179-0.295t0.018-0.214 0.143-0.125 0.205-0.036 0.205 0.080q3.429 2.089 5.357 2.964 6.946 3.143 14.268 1.607 3.393-0.714 6.982-2.411zM31.393 24.304q0.196 0.286 0.045 1.241t-0.509 1.83q-0.607 1.482-1.518 2.214-0.304 0.25-0.464 0.161t0-0.429q0.375-0.804 0.795-2.17t0.116-1.759q-0.089-0.125-0.277-0.205t-0.482-0.107-0.527-0.045-0.625 0-0.563 0.036-0.554 0.054-0.402 0.036q-0.107 0.018-0.232 0.027t-0.196 0.018-0.152 0.018-0.125 0.009h-0.179t-0.054-0.009-0.036-0.027l-0.027-0.054q-0.107-0.286 0.839-0.714t1.839-0.536q0.821-0.125 1.929-0.018t1.357 0.429zM24.357 16.393q0 0.554 0.241 1.143t0.571 1.036 0.67 0.821 0.589 0.571l0.232 0.196-4.054 4q-0.714-0.661-1.411-1.348t-1.036-1.045l-0.339-0.357q-0.196-0.196-0.446-0.589-0.679 1.054-1.741 1.83t-2.277 1.134-2.5 0.411-2.455-0.375-2.098-1.17-1.482-2.018-0.554-2.902q0-1.5 0.5-2.75t1.286-2.080 1.902-1.482 2.188-1.018 2.321-0.616 2.134-0.33 1.777-0.116v-2.268q0-1.161-0.375-1.732-0.607-0.946-2.161-0.946-0.107 0-0.295 0.018t-0.723 0.214-1 0.527-1 1.063-0.857 1.714l-5.25-0.482q0-1.071 0.393-2.125t1.196-2.018 1.929-1.696 2.705-1.17 3.402-0.438q1.786 0 3.232 0.446t2.313 1.098 1.446 1.482 0.804 1.536 0.223 1.313v10.518zM12.357 16.768q0 1.536 1.25 2.375 1.179 0.786 2.482 0.393 1.5-0.446 2.036-2.196 0.25-0.804 0.25-1.804v-2.893q-1.054 0.036-1.982 0.214t-1.902 0.598-1.554 1.268-0.58 2.045z"></path>
</svg>
