<!-- Generated by IcoMoon.io -->
<svg version="1.1" xmlns="http://www.w3.org/2000/svg" width="37" height="32" viewBox="0 0 37 32">
<title>untitled418</title>
<path d="M32.143 13.786q1.982 0.821 3.205 2.598t1.223 3.955q0 2.929-2.107 5.009t-5.089 2.080q-0.071 0-0.205-0.009t-0.188-0.009h-21.732q-3.036-0.179-5.143-2.241t-2.107-5.009q0-1.964 0.982-3.625t2.625-2.625q-0.214-0.696-0.214-1.464 0-2.054 1.464-3.5t3.554-1.446q1.696 0 3.071 1.036 1.339-2.75 3.973-4.429t5.83-1.679q2.964 0 5.464 1.438t3.955 3.902 1.455 5.375q0 0.107-0.009 0.321t-0.009 0.321zM8.357 18.536q0 2.179 1.5 3.446t3.714 1.268q2.446 0 4.286-1.768-0.286-0.357-0.848-1.009t-0.777-0.902q-1.196 1.161-2.571 1.161-0.982 0-1.67-0.598t-0.688-1.563q0-0.946 0.688-1.554t1.634-0.607q0.786 0 1.509 0.375t1.304 0.982 1.161 1.339 1.232 1.464 1.375 1.339 1.732 0.982 2.17 0.375q2.161 0 3.652-1.277t1.491-3.402q0-2.161-1.5-3.429t-3.696-1.268q-2.554 0-4.304 1.732 0.25 0.286 0.527 0.607t0.616 0.714 0.518 0.607q1.179-1.143 2.536-1.143 0.929 0 1.643 0.589t0.714 1.5q0 1.018-0.661 1.634t-1.679 0.616q-0.768 0-1.473-0.375t-1.286-0.982-1.17-1.339-1.241-1.464-1.384-1.339-1.723-0.982-2.116-0.375q-2.179 0-3.696 1.259t-1.518 3.384z"></path>
</svg>
