<!-- Generated by IcoMoon.io -->
<svg version="1.1" xmlns="http://www.w3.org/2000/svg" width="37" height="32" viewBox="0 0 37 32">
<title>untitled506</title>
<path d="M33.946 16.339q0.339 0.339 0.339 0.804t-0.339 0.804l-5.25 5.25q-0.161 0.179-0.402 0.179t-0.402-0.179l-0.804-0.804q-0.179-0.161-0.179-0.402t0.179-0.402l3.304-3.304h-5.25v4q0 0.25-0.161 0.411t-0.411 0.161h-1.143q-0.25 0-0.411-0.161t-0.161-0.411v-4h-2.357q-0.429 3.875-3.348 6.509t-6.866 2.634q-2.982 0-5.464-1.554t-3.786-4.214-0.964-5.696q0.268-2.375 1.571-4.384t3.357-3.25 4.446-1.438q2.768-0.214 5.214 0.938t4 3.321 1.839 4.848h2.357v-4q0-0.25 0.161-0.411t0.411-0.161h1.143q0.25 0 0.411 0.161t0.161 0.411v4h5.25l-3.304-3.304q-0.179-0.161-0.179-0.402t0.179-0.402l0.804-0.804q0.161-0.179 0.402-0.179t0.402 0.179zM10.286 25.143q3.304 0 5.652-2.348t2.348-5.652-2.348-5.652-5.652-2.348-5.652 2.348-2.348 5.652 2.348 5.652 5.652 2.348z"></path>
</svg>
