<!-- Generated by IcoMoon.io -->
<svg version="1.1" xmlns="http://www.w3.org/2000/svg" width="32" height="32" viewBox="0 0 32 32">
<title>untitled592</title>
<path d="M20.536 13.607q0 1-0.705 1.696t-1.705 0.696h-4.518v-4.804h4.518q1 0 1.705 0.705t0.705 1.705zM23.732 13.607q0-2.321-1.634-3.964t-3.973-1.643h-7.732v16h3.214v-4.804h4.518q2.321 0 3.964-1.634t1.643-3.955zM32 16q0 3.25-1.268 6.214t-3.411 5.107-5.107 3.411-6.214 1.268-6.214-1.268-5.107-3.411-3.411-5.107-1.268-6.214 1.268-6.214 3.411-5.107 5.107-3.411 6.214-1.268 6.214 1.268 5.107 3.411 3.411 5.107 1.268 6.214z"></path>
</svg>
