<!-- Generated by IcoMoon.io -->
<svg version="1.1" xmlns="http://www.w3.org/2000/svg" width="32" height="32" viewBox="0 0 32 32">
<title>untitled544</title>
<path d="M13.714 6.857q-0.946 0-1.616 0.67t-0.67 1.616v2.286h-0.571v-1.661q0-0.857-0.571-1.455t-1.429-0.598q-0.821 0-1.411 0.589t-0.589 1.411v7.661l-0.571-0.536v-3.071q0-0.857-0.571-1.455t-1.429-0.598q-0.821 0-1.411 0.589t-0.589 1.411v4q0 0.839 0.625 1.464l5.536 5.286q0.696 0.696 0.696 1.821 0 0.464 0.339 0.804t0.804 0.339h11.429q0.464 0 0.804-0.339t0.339-0.804v-0.446q0-0.732 0.179-1.375l1.929-7.786q0.179-0.643 0.179-1.375v-4.393q0-0.857-0.571-1.455t-1.429-0.598q-0.821 0-1.411 0.589t-0.589 1.411v0.571h-0.571v-2.232q0-0.714-0.446-1.295t-1.143-0.723q-0.25-0.036-0.411-0.036-0.821 0-1.411 0.589t-0.589 1.411v2.286h-0.571v-2.179q0-0.911-0.58-1.598t-1.473-0.777q-0.089-0.018-0.232-0.018zM13.714 4.571q1.5 0 2.661 0.893 1.018-0.607 2.196-0.607 1.054 0 1.982 0.482t1.536 1.357q0.482-0.125 1.054-0.125 1.786 0 3.036 1.277t1.25 3.063v4.393q0 0.911-0.232 1.929l-1.946 7.786q-0.107 0.429-0.107 1.268 0 1.429-1 2.429t-2.429 1h-11.429q-1.5 0-2.464-1.045t-0.964-2.545l-5.5-5.286q-1.357-1.304-1.357-3.125v-4q0-1.768 1.259-3.027t3.027-1.259q0.196 0 0.286 0.018 0.107-1.696 1.348-2.857t2.938-1.161q0.929 0 1.75 0.375 1.286-1.232 3.107-1.232z"></path>
</svg>
