<!-- Generated by IcoMoon.io -->
<svg version="1.1" xmlns="http://www.w3.org/2000/svg" width="32" height="32" viewBox="0 0 32 32">
<title>untitled572</title>
<path d="M19.839 24.732l-0.821 0.821q-0.161 0.161-0.393 0.161t-0.411-0.161l-3.357-3.375-3.357 3.375q-0.179 0.161-0.411 0.161t-0.393-0.161l-0.821-0.821q-0.161-0.161-0.161-0.393t0.161-0.411l3.375-3.357-3.375-3.357q-0.161-0.179-0.161-0.411t0.161-0.393l0.821-0.821q0.161-0.161 0.393-0.161t0.411 0.161l3.357 3.357 3.357-3.357q0.179-0.161 0.411-0.161t0.393 0.161l0.821 0.821q0.161 0.161 0.161 0.393t-0.161 0.411l-3.357 3.357 3.357 3.357q0.161 0.179 0.161 0.411t-0.161 0.393zM2.286 29.714h25.143v-18.286h-25.143v18.286zM9.143 8v-5.143q0-0.25-0.161-0.411t-0.411-0.161h-1.143q-0.25 0-0.411 0.161t-0.161 0.411v5.143q0 0.25 0.161 0.411t0.411 0.161h1.143q0.25 0 0.411-0.161t0.161-0.411zM22.857 8v-5.143q0-0.25-0.161-0.411t-0.411-0.161h-1.143q-0.25 0-0.411 0.161t-0.161 0.411v5.143q0 0.25 0.161 0.411t0.411 0.161h1.143q0.25 0 0.411-0.161t0.161-0.411zM29.714 6.857v22.857q0 0.929-0.679 1.607t-1.607 0.679h-25.143q-0.929 0-1.607-0.679t-0.679-1.607v-22.857q0-0.929 0.679-1.607t1.607-0.679h2.286v-1.714q0-1.179 0.839-2.018t2.018-0.839h1.143q1.179 0 2.018 0.839t0.839 2.018v1.714h6.857v-1.714q0-1.179 0.839-2.018t2.018-0.839h1.143q1.179 0 2.018 0.839t0.839 2.018v1.714h2.286q0.929 0 1.607 0.679t0.679 1.607z"></path>
</svg>
