<!-- Generated by IcoMoon.io -->
<svg version="1.1" xmlns="http://www.w3.org/2000/svg" width="32" height="32" viewBox="0 0 32 32">
<title>untitled388</title>
<path d="M5.143 6.857q1.179 0 2.018 0.839t0.839 2.018v19.429q0 1.179-0.839 2.018t-2.018 0.839h-2.286q-1.179 0-2.018-0.839t-0.839-2.018v-19.429q0-1.179 0.839-2.018t2.018-0.839h2.286zM29.714 9.768q1.036 0.607 1.661 1.661t0.625 2.286v13.714q0 1.893-1.339 3.232t-3.232 1.339h-15.429q-1.179 0-2.018-0.839t-0.839-2.018v-27.429q0-0.714 0.5-1.214t1.214-0.5h12q0.714 0 1.571 0.357t1.357 0.857l2.714 2.714q0.5 0.5 0.857 1.357t0.357 1.571v2.911zM16.571 27.429v-2.286q0-0.25-0.161-0.411t-0.411-0.161h-2.286q-0.25 0-0.411 0.161t-0.161 0.411v2.286q0 0.25 0.161 0.411t0.411 0.161h2.286q0.25 0 0.411-0.161t0.161-0.411zM16.571 22.857v-2.286q0-0.25-0.161-0.411t-0.411-0.161h-2.286q-0.25 0-0.411 0.161t-0.161 0.411v2.286q0 0.25 0.161 0.411t0.411 0.161h2.286q0.25 0 0.411-0.161t0.161-0.411zM16.571 18.286v-2.286q0-0.25-0.161-0.411t-0.411-0.161h-2.286q-0.25 0-0.411 0.161t-0.161 0.411v2.286q0 0.25 0.161 0.411t0.411 0.161h2.286q0.25 0 0.411-0.161t0.161-0.411zM21.143 27.429v-2.286q0-0.25-0.161-0.411t-0.411-0.161h-2.286q-0.25 0-0.411 0.161t-0.161 0.411v2.286q0 0.25 0.161 0.411t0.411 0.161h2.286q0.25 0 0.411-0.161t0.161-0.411zM21.143 22.857v-2.286q0-0.25-0.161-0.411t-0.411-0.161h-2.286q-0.25 0-0.411 0.161t-0.161 0.411v2.286q0 0.25 0.161 0.411t0.411 0.161h2.286q0.25 0 0.411-0.161t0.161-0.411zM21.143 18.286v-2.286q0-0.25-0.161-0.411t-0.411-0.161h-2.286q-0.25 0-0.411 0.161t-0.161 0.411v2.286q0 0.25 0.161 0.411t0.411 0.161h2.286q0.25 0 0.411-0.161t0.161-0.411zM25.714 27.429v-2.286q0-0.25-0.161-0.411t-0.411-0.161h-2.286q-0.25 0-0.411 0.161t-0.161 0.411v2.286q0 0.25 0.161 0.411t0.411 0.161h2.286q0.25 0 0.411-0.161t0.161-0.411zM25.714 22.857v-2.286q0-0.25-0.161-0.411t-0.411-0.161h-2.286q-0.25 0-0.411 0.161t-0.161 0.411v2.286q0 0.25 0.161 0.411t0.411 0.161h2.286q0.25 0 0.411-0.161t0.161-0.411zM25.714 18.286v-2.286q0-0.25-0.161-0.411t-0.411-0.161h-2.286q-0.25 0-0.411 0.161t-0.161 0.411v2.286q0 0.25 0.161 0.411t0.411 0.161h2.286q0.25 0 0.411-0.161t0.161-0.411zM27.429 11.429v-4.571h-2.857q-0.714 0-1.214-0.5t-0.5-1.214v-2.857h-11.429v9.143h16z"></path>
</svg>
