<!-- Generated by IcoMoon.io -->
<svg version="1.1" xmlns="http://www.w3.org/2000/svg" width="32" height="32" viewBox="0 0 32 32">
<title>untitled206</title>
<path d="M32 22.286v5.714q0 0.714-0.5 1.214t-1.214 0.5h-5.714q-0.714 0-1.214-0.5t-0.5-1.214v-5.714q0-0.714 0.5-1.214t1.214-0.5h1.714v-3.429h-9.143v3.429h1.714q0.714 0 1.214 0.5t0.5 1.214v5.714q0 0.714-0.5 1.214t-1.214 0.5h-5.714q-0.714 0-1.214-0.5t-0.5-1.214v-5.714q0-0.714 0.5-1.214t1.214-0.5h1.714v-3.429h-9.143v3.429h1.714q0.714 0 1.214 0.5t0.5 1.214v5.714q0 0.714-0.5 1.214t-1.214 0.5h-5.714q-0.714 0-1.214-0.5t-0.5-1.214v-5.714q0-0.714 0.5-1.214t1.214-0.5h1.714v-3.429q0-0.929 0.679-1.607t1.607-0.679h9.143v-3.429h-1.714q-0.714 0-1.214-0.5t-0.5-1.214v-5.714q0-0.714 0.5-1.214t1.214-0.5h5.714q0.714 0 1.214 0.5t0.5 1.214v5.714q0 0.714-0.5 1.214t-1.214 0.5h-1.714v3.429h9.143q0.929 0 1.607 0.679t0.679 1.607v3.429h1.714q0.714 0 1.214 0.5t0.5 1.214z"></path>
</svg>
