<!-- Generated by IcoMoon.io -->
<svg version="1.1" xmlns="http://www.w3.org/2000/svg" width="32" height="32" viewBox="0 0 32 32">
<title>untitled397</title>
<path d="M28.25 10.393q0 1.804-1.277 3.080t-3.080 1.277-3.080-1.277-1.277-3.080 1.277-3.080 3.080-1.277 3.080 1.277 1.277 3.080zM14.5 23.643q0-1.857-1.304-3.161t-3.161-1.304q-0.482 0-0.964 0.107l1.857 0.75q1.375 0.554 1.955 1.902t0.027 2.705q-0.554 1.375-1.911 1.946t-2.714 0.018q-0.375-0.143-1.107-0.438t-1.089-0.438q0.571 1.071 1.625 1.723t2.321 0.652q1.857 0 3.161-1.304t1.304-3.161zM29.321 10.411q0-2.25-1.598-3.848t-3.848-1.598q-2.268 0-3.866 1.598t-1.598 3.848q0 2.268 1.598 3.857t3.866 1.589q2.25 0 3.848-1.589t1.598-3.857zM32 10.411q0 3.375-2.384 5.75t-5.741 2.375l-7.804 5.696q-0.214 2.304-1.946 3.893t-4.089 1.589q-2.161 0-3.821-1.357t-2.107-3.429l-4.107-1.643v-7.661l6.946 2.804q1.411-0.857 3.089-0.857 0.232 0 0.625 0.036l5.071-7.268q0.036-3.339 2.42-5.696t5.723-2.357q3.357 0 5.741 2.384t2.384 5.741z"></path>
</svg>
