<!-- Generated by IcoMoon.io -->
<svg version="1.1" xmlns="http://www.w3.org/2000/svg" width="30" height="32" viewBox="0 0 30 32">
<title>untitled391</title>
<path d="M13.929 8.429q0 1.071-0.339 2.027t-1.125 1.652-1.875 0.696q-1.357 0-2.464-1.027t-1.643-2.42-0.536-2.696q0-1.071 0.339-2.027t1.125-1.652 1.875-0.696q1.375 0 2.473 1.027t1.634 2.411 0.536 2.705zM7.821 17.054q0 1.429-0.75 2.482t-2.125 1.054q-1.357 0-2.527-0.991t-1.795-2.384-0.625-2.714q0-1.429 0.75-2.491t2.125-1.063q1.357 0 2.527 0.991t1.795 2.393 0.625 2.723zM14.857 16.571q2.107 0 4.554 1.741t4.089 4.232 1.643 4.545q0 0.821-0.304 1.366t-0.866 0.804-1.152 0.357-1.357 0.098q-1.214 0-3.348-0.804t-3.259-0.804q-1.179 0-3.438 0.795t-3.58 0.795q-3.268 0-3.268-2.607 0-1.536 1-3.42t2.491-3.438 3.348-2.607 3.446-1.054zM19.125 12.804q-1.089 0-1.875-0.696t-1.125-1.652-0.339-2.027q0-1.321 0.536-2.705t1.634-2.411 2.473-1.027q1.089 0 1.875 0.696t1.125 1.652 0.339 2.027q0 1.304-0.536 2.696t-1.643 2.42-2.464 1.027zM26.839 10.946q1.375 0 2.125 1.063t0.75 2.491q0 1.321-0.625 2.714t-1.795 2.384-2.527 0.991q-1.375 0-2.125-1.054t-0.75-2.482q0-1.321 0.625-2.723t1.795-2.393 2.527-0.991z"></path>
</svg>
