<!-- Generated by IcoMoon.io -->
<svg version="1.1" xmlns="http://www.w3.org/2000/svg" width="32" height="32" viewBox="0 0 32 32">
<title>untitled303</title>
<path d="M19.429 16q0 0.589-0.482 0.929l-8 5.714q-0.554 0.411-1.179 0.089-0.625-0.304-0.625-1.018v-11.429q0-0.714 0.625-1.018 0.625-0.321 1.179 0.089l8 5.714q0.482 0.339 0.482 0.929zM22.857 24.571v-17.143q0-0.25-0.161-0.411t-0.411-0.161h-17.143q-0.25 0-0.411 0.161t-0.161 0.411v17.143q0 0.25 0.161 0.411t0.411 0.161h17.143q0.25 0 0.411-0.161t0.161-0.411zM27.429 7.429v17.143q0 2.125-1.509 3.634t-3.634 1.509h-17.143q-2.125 0-3.634-1.509t-1.509-3.634v-17.143q0-2.125 1.509-3.634t3.634-1.509h17.143q2.125 0 3.634 1.509t1.509 3.634z"></path>
</svg>
