<!-- Generated by IcoMoon.io -->
<svg version="1.1" xmlns="http://www.w3.org/2000/svg" width="37" height="32" viewBox="0 0 37 32">
<title>untitled484</title>
<path d="M26.786 24.482v-13.089q0-0.375-0.268-0.643t-0.625-0.268h-1.661q-0.357 0-0.625 0.268t-0.268 0.643v13.089q0 0.357 0.268 0.625t0.625 0.268h1.661q0.357 0 0.625-0.268t0.268-0.625zM21.714 24.482v-9.482q0-0.357-0.268-0.625t-0.625-0.268h-1.804q-0.357 0-0.625 0.268t-0.268 0.625v9.482q0 0.357 0.268 0.625t0.625 0.268h1.804q0.357 0 0.625-0.268t0.268-0.625zM16.5 24.482v-7.661q0-0.357-0.268-0.625t-0.625-0.268h-1.804q-0.357 0-0.625 0.268t-0.268 0.625v7.661q0 0.357 0.268 0.625t0.625 0.268h1.804q0.357 0 0.625-0.268t0.268-0.625zM11.286 24.482v-6.464q0-0.357-0.268-0.625t-0.625-0.268h-1.804q-0.357 0-0.625 0.268t-0.268 0.625v6.464q0 0.357 0.268 0.625t0.625 0.268h1.804q0.357 0 0.625-0.268t0.268-0.625zM36.571 21.875q0 2.964-2.107 5.071t-5.071 2.107h-22.214q-2.964 0-5.071-2.107t-2.107-5.071q0-2.071 1.125-3.83t3-2.652q-0.179-0.607-0.179-1.304 0-2.018 1.438-3.455t3.455-1.438q1.821 0 3.214 1.196 0.804-3.268 3.464-5.357t6.036-2.089q2.661 0 4.911 1.313t3.563 3.563 1.313 4.911q0 1.179-0.25 2.179 2.411 0.589 3.946 2.545t1.536 4.42z"></path>
</svg>
