<!-- Generated by IcoMoon.io -->
<svg version="1.1" xmlns="http://www.w3.org/2000/svg" width="25" height="32" viewBox="0 0 25 32">
<title>untitled612</title>
<path d="M6.536 5.554q-1.143 0-1.964-0.813t-0.821-1.973q0-1.143 0.821-1.955t1.964-0.813 1.955 0.813 0.813 1.955q0 1.161-0.813 1.973t-1.955 0.813zM16.375 17.018q0 0.893-0.536 1.205t-1.134 0.116-0.848-0.607l-6.554-7.821q-0.125-0.214-0.25-0.277t-0.196-0.027l-0.054 0.054q-0.125 0.143 0.071 0.375l2.179 2.482 0.018 6.321-2.875 8.161q-1.196 3.429-1.643 4.179-0.286 0.464-0.5 0.571-0.893 0.464-1.839 0.018-0.518-0.232-0.741-0.768t-0.17-1.018q0.036-0.304 3.518-11.036l0.089-7.429-1.518 2.929 0.625 3.964q0.071 0.429-0.018 0.75t-0.25 0.491-0.339 0.286-0.304 0.134l-0.125 0.036q-0.339 0.054-0.616-0.054t-0.429-0.286-0.25-0.393-0.134-0.348-0.036-0.17l-0.821-5.339 3.768-6.804q0.411-0.607 2.018-0.607 1.339 0 1.911 0.714l7.571 9.304q0.125 0.089 0.25 0.304l0.054 0.054-0.018 0.018q0.125 0.232 0.125 0.518zM9.179 19.696q0.768 2.018 1.58 4.018t1.241 3l0.429 0.982q0.643 1.661 0.75 2.232 0.196 1.25-0.643 1.732-0.625 0.393-1.179 0.286t-0.911-0.393-0.518-0.625h-0.018q-0.107-0.286-0.143-0.446l-2.214-6.268zM23.893 30.268q0.554 0.875 0.554 1.018 0 0.089-0.054 0.125-0.161 0.089-0.259-0.009t-0.277-0.464-0.286-0.545q-2.036-3.071-7.554-11.804 0.054 0.018 0.125-0.018t0.125-0.071l0.054-0.036q0.196-0.161 0.196-0.304z"></path>
</svg>
