<!-- Generated by IcoMoon.io -->
<svg version="1.1" xmlns="http://www.w3.org/2000/svg" width="23" height="32" viewBox="0 0 23 32">
<title>untitled498</title>
<path d="M14.821 5.643q2.589 1.286 4.17 3.759t1.58 5.455q0 3.946-2.634 6.866t-6.509 3.348v2.357h1.714q0.25 0 0.411 0.161t0.161 0.411v1.143q0 0.25-0.161 0.411t-0.411 0.161h-1.714v1.714q0 0.25-0.161 0.411t-0.411 0.161h-1.143q-0.25 0-0.411-0.161t-0.161-0.411v-1.714h-1.714q-0.25 0-0.411-0.161t-0.161-0.411v-1.143q0-0.25 0.161-0.411t0.411-0.161h1.714v-2.357q-3.875-0.429-6.509-3.348t-2.634-6.866q0-2.982 1.58-5.455t4.17-3.759q-2.946-1.714-4.071-4.875-0.107-0.286 0.063-0.527t0.473-0.241h1.232q0.375 0 0.518 0.357 0.786 1.893 2.5 3.054t3.821 1.161 3.821-1.161 2.5-3.054q0.143-0.357 0.661-0.357h1.089q0.304 0 0.473 0.241t0.063 0.527q-1.125 3.161-4.071 4.875zM10.286 22.857q3.304 0 5.652-2.348t2.348-5.652-2.348-5.652-5.652-2.348-5.652 2.348-2.348 5.652 2.348 5.652 5.652 2.348z"></path>
</svg>
