<!-- Generated by IcoMoon.io -->
<svg version="1.1" xmlns="http://www.w3.org/2000/svg" width="32" height="32" viewBox="0 0 32 32">
<title>untitled482</title>
<path d="M16.679 2.679q-5.661 2.161-9.929 6.473t-6.393 10.009q-0.357-1.589-0.357-3.143 0-3.714 1.83-6.866t4.973-4.982 6.857-1.83q1.464 0 3.018 0.339zM21.482 4.804q1.661 1.161 2.929 2.768-6.946 2.018-12.045 7.152t-7.080 12.080q-1.661-1.286-2.768-2.893 2-6.893 7.054-11.982t11.911-7.125zM8.393 28.625q2.054-6.357 6.777-11.107t11.063-6.857q0.714 1.643 0.964 3.482-5.214 2.143-9.214 6.161t-6.125 9.25q-1.839-0.25-3.464-0.929zM27.429 29.661q-3.446-0.893-6.554-2.054-2.411 1.5-5.179 1.911 1.946-3.661 4.893-6.616t6.589-4.92q-0.375 2.714-1.804 5.071 1.161 3.125 2.054 6.607z"></path>
</svg>
