<!-- Generated by IcoMoon.io -->
<svg version="1.1" xmlns="http://www.w3.org/2000/svg" width="32" height="32" viewBox="0 0 32 32">
<title>untitled618</title>
<path d="M18.857 14.857q0 0.464 0.339 0.804t0.804 0.339 0.804-0.339 0.339-0.804q0-2.607-1.839-4.446t-4.446-1.839-4.446 1.839-1.839 4.446q0 0.464 0.339 0.804t0.804 0.339 0.804-0.339 0.339-0.804q0-1.661 1.179-2.83t2.821-1.17 2.821 1.17 1.179 2.83zM14.911 4.571q-2.089 0-3.991 0.813t-3.286 2.196-2.196 3.286-0.813 3.991q0 0.464 0.339 0.804t0.804 0.339 0.804-0.339 0.339-0.804q0-3.304 2.348-5.652t5.652-2.348 5.652 2.348 2.348 5.652q0 0.982-0.321 1.848t-0.67 1.33-1.063 1.286q-0.607 0.696-0.929 1.125t-0.777 1.188-0.661 1.625-0.205 1.884q0 1.893-1.339 3.232t-3.232 1.339q-0.464 0-0.804 0.339t-0.339 0.804 0.339 0.804 0.804 0.339q2.839 0 4.848-2.009t2.009-4.848q0-0.732 0.134-1.321t0.473-1.143 0.598-0.893 0.813-0.964q0.625-0.732 0.946-1.152t0.786-1.205 0.67-1.67 0.205-1.938q0-2.089-0.813-3.991t-2.196-3.286-3.286-2.196-3.991-0.813zM10.554 17.411l4.036 4.036-10.339 10.339q-0.214 0.214-0.518 0.214t-0.518-0.214l-3-3q-0.214-0.214-0.214-0.518t0.214-0.518zM28.786 0.214l3 3q0.214 0.214 0.214 0.518t-0.214 0.536l-4.161 4.161-0.464 0.446-1.268 1.268q-1.179-2.732-3.482-4.607l5.321-5.321q0.232-0.214 0.536-0.214t0.518 0.214z"></path>
</svg>
