<!-- Generated by IcoMoon.io -->
<svg version="1.1" xmlns="http://www.w3.org/2000/svg" width="41" height="32" viewBox="0 0 41 32">
<title>untitled535</title>
<path d="M34.839 17.821q0 0.464-0.277 0.795t-0.688 0.42q-0.143 0.036-0.321 0.036h-2.732v-2.5h2.732q0.179 0 0.321 0.036 0.411 0.089 0.688 0.42t0.277 0.795zM34.518 14.018q0 0.446-0.268 0.75t-0.679 0.375q-0.054 0.018-0.268 0.018h-2.482v-2.304h2.482q0.054 0 0.152 0.009t0.116 0.009q0.411 0.071 0.679 0.384t0.268 0.759zM13 16.946v-5.5h-4.071v5.5q0 1.036-0.679 1.688t-1.875 0.652q-1.929 0-4.089-1.054v2q0.946 0.268 2.161 0.411t1.946 0.161l0.75 0.018q5.857 0 5.857-3.875zM25.75 20.232v-2.018q-1.768 0.929-3.571 1.054-1.929 0.143-3.018-0.732t-1.089-2.536 1.089-2.536 3.018-0.732q1.804 0.125 3.571 1.036v-2q-0.857-0.214-1.786-0.348t-1.429-0.17l-0.5-0.036q-2.268-0.107-3.902 0.25t-2.509 1.071-1.268 1.571-0.393 1.893 0.393 1.893 1.268 1.571 2.509 1.071 3.902 0.25q1.804-0.071 3.714-0.554zM38.857 18.179q0-0.964-0.768-1.58t-1.946-0.705v-0.054q1.018-0.143 1.589-0.741t0.571-1.42q0-0.982-0.732-1.571t-1.911-0.643q-0.054 0-0.214-0.009t-0.25-0.009h-8.125v9.107h8.768q1.321 0 2.17-0.652t0.848-1.723zM41.143 4.571v22.857q0 0.929-0.679 1.607t-1.607 0.679h-36.571q-0.929 0-1.607-0.679t-0.679-1.607v-22.857q0-0.929 0.679-1.607t1.607-0.679h36.571q0.929 0 1.607 0.679t0.679 1.607z"></path>
</svg>
