<!-- Generated by IcoMoon.io -->
<svg version="1.1" xmlns="http://www.w3.org/2000/svg" width="37" height="32" viewBox="0 0 37 32">
<title>untitled458</title>
<path d="M18.571 30.286q0-0.286-0.286-0.286-1.054 0-1.813-0.759t-0.759-1.813q0-0.286-0.286-0.286t-0.286 0.286q0 1.304 0.92 2.223t2.223 0.92q0.286 0 0.286-0.286zM8.982 21.804l15.661-13.571q-0.75-1.571-2.366-2.616t-3.991-1.045q-1.661 0-3.027 0.563t-2.17 1.438-1.232 1.839-0.429 1.875q0 6.857-2.446 11.518zM33.143 25.143q0 0.929-0.679 1.607t-1.607 0.679h-8q0 1.893-1.339 3.232t-3.232 1.339-3.223-1.33-1.348-3.223l2.661-2.304h13.518q-2.964-3.339-4.054-8.196l1.982-1.732q1.089 6.357 5.321 9.929zM34.679 0.286l1.5 1.714q0.143 0.179 0.134 0.42t-0.188 0.402l-33.429 28.964q-0.179 0.143-0.42 0.125t-0.384-0.196l-1.5-1.714q-0.143-0.179-0.134-0.42t0.188-0.384l3.321-2.875q-0.339-0.571-0.339-1.179 0.893-0.75 1.625-1.571t1.518-2.134 1.33-2.83 0.893-3.679 0.348-4.643q0-2.714 2.089-5.045t5.482-2.83q-0.143-0.339-0.143-0.696 0-0.714 0.5-1.214t1.214-0.5 1.214 0.5 0.5 1.214q0 0.357-0.143 0.696 2.214 0.321 3.911 1.473t2.643 2.813l7.464-6.482q0.179-0.143 0.42-0.125t0.384 0.196z"></path>
</svg>
