<!-- Generated by IcoMoon.io -->
<svg version="1.1" xmlns="http://www.w3.org/2000/svg" width="32" height="32" viewBox="0 0 32 32">
<title>untitled58</title>
<path d="M32 6.286v19.429q0 0.75-0.696 1.054-0.232 0.089-0.446 0.089-0.482 0-0.804-0.339l-7.196-7.196v2.964q0 2.125-1.509 3.634t-3.634 1.509h-12.571q-2.125 0-3.634-1.509t-1.509-3.634v-12.571q0-2.125 1.509-3.634t3.634-1.509h12.571q2.125 0 3.634 1.509t1.509 3.634v2.946l7.196-7.179q0.321-0.339 0.804-0.339 0.214 0 0.446 0.089 0.696 0.304 0.696 1.054z"></path>
</svg>
