<!-- Generated by IcoMoon.io -->
<svg version="1.1" xmlns="http://www.w3.org/2000/svg" width="35" height="32" viewBox="0 0 35 32">
<title>untitled551</title>
<path d="M15.304 9.714v2.089q0 0.232-0.17 0.393t-0.402 0.161h-5.321v14.5q0 0.232-0.161 0.402t-0.393 0.17h-2.411q-0.232 0-0.402-0.161t-0.17-0.411v-14.5h-5.304q-0.232 0-0.402-0.161t-0.17-0.393v-2.089q0-0.25 0.161-0.411t0.411-0.161h14.161q0.232 0 0.402 0.17t0.17 0.402zM33.839 9.661l1.375 17.161q0.018 0.232-0.143 0.429-0.179 0.179-0.411 0.179h-2.393q-0.214 0-0.375-0.152t-0.179-0.366l-0.821-10.5-3.375 7.589q-0.143 0.339-0.518 0.339h-2.143q-0.357 0-0.518-0.339l-3.357-7.625-0.804 10.536q-0.018 0.214-0.179 0.366t-0.375 0.152h-2.411q-0.232 0-0.411-0.179-0.161-0.179-0.161-0.429l1.393-17.161q0.018-0.214 0.179-0.366t0.375-0.152h2.536q0.357 0 0.518 0.339l3.929 9.286q0.179 0.429 0.357 0.911 0.054-0.125 0.17-0.438t0.188-0.473l3.946-9.286q0.161-0.339 0.518-0.339h2.518q0.232 0 0.393 0.152t0.179 0.366z"></path>
</svg>
