<!-- Generated by IcoMoon.io -->
<svg version="1.1" xmlns="http://www.w3.org/2000/svg" width="37" height="32" viewBox="0 0 37 32">
<title>untitled373</title>
<path d="M17.143 0l17.143 6.857v2.286h-2.286q0 0.464-0.366 0.804t-0.866 0.339h-27.25q-0.5 0-0.866-0.339t-0.366-0.804h-2.286v-2.286zM4.571 11.429h4.571v13.714h2.286v-13.714h4.571v13.714h2.286v-13.714h4.571v13.714h2.286v-13.714h4.571v13.714h1.054q0.5 0 0.866 0.339t0.366 0.804v1.143h-29.714v-1.143q0-0.464 0.366-0.804t0.866-0.339h1.054v-13.714zM33.054 28.571q0.5 0 0.866 0.339t0.366 0.804v2.286h-34.286v-2.286q0-0.464 0.366-0.804t0.866-0.339h31.821z"></path>
</svg>
