<!-- Generated by IcoMoon.io -->
<svg version="1.1" xmlns="http://www.w3.org/2000/svg" width="14" height="32" viewBox="0 0 14 32">
<title>untitled239</title>
<path d="M8.286 25.143q0-0.589-0.42-1.009t-1.009-0.42-1.009 0.42-0.42 1.009 0.42 1.009 1.009 0.42 1.009-0.42 0.42-1.009zM12 22.286v-12.571q0-0.232-0.17-0.402t-0.402-0.17h-9.143q-0.232 0-0.402 0.17t-0.17 0.402v12.571q0 0.232 0.17 0.402t0.402 0.17h9.143q0.232 0 0.402-0.17t0.17-0.402zM8.571 7.143q0-0.286-0.286-0.286h-2.857q-0.286 0-0.286 0.286t0.286 0.286h2.857q0.286 0 0.286-0.286zM13.714 6.857v18.286q0 0.929-0.679 1.607t-1.607 0.679h-9.143q-0.929 0-1.607-0.679t-0.679-1.607v-18.286q0-0.929 0.679-1.607t1.607-0.679h9.143q0.929 0 1.607 0.679t0.679 1.607z"></path>
</svg>
