<!-- Generated by IcoMoon.io -->
<svg version="1.1" xmlns="http://www.w3.org/2000/svg" width="37" height="32" viewBox="0 0 37 32">
<title>untitled480</title>
<path d="M36.571 15.982q0 0.375-0.232 0.652t-0.589 0.348l-3.661 6.357q0.054 0.161 0.054 0.321 0 0.357-0.223 0.634t-0.58 0.348l-3.446 6.018q0.054 0.143 0.054 0.286 0 0.411-0.295 0.714t-0.723 0.304q-0.446 0-0.732-0.321h-7.143q-0.304 0.357-0.768 0.357t-0.768-0.357h-7.125q-0.304 0.357-0.768 0.357-0.411 0-0.714-0.295t-0.304-0.723q0-0.143 0.071-0.357l-3.446-5.982q-0.357-0.071-0.58-0.348t-0.223-0.634q0-0.161 0.054-0.321l-3.679-6.357q-0.357-0.089-0.58-0.366t-0.223-0.634q0-0.375 0.241-0.652t0.598-0.348l3.554-6.143q0-0.018-0.009-0.054t-0.009-0.054q0-0.643 0.607-0.911l3.732-6.482q-0.071-0.179-0.071-0.321 0-0.429 0.304-0.723t0.714-0.295q0.464 0 0.786 0.375h7.071q0.286-0.375 0.768-0.375t0.768 0.375h7.107q0.321-0.375 0.786-0.375 0.411 0 0.714 0.295t0.304 0.723q0 0.107-0.071 0.321l3.696 6.393q0.411 0.018 0.696 0.313t0.286 0.688q0 0.232-0.125 0.482l3.339 5.786q0.339 0.071 0.563 0.348t0.223 0.634zM18.982 30.25h6.946l-6.107-6.321h-2.554l-6.107 6.321h6.429q0.321-0.286 0.696-0.286t0.696 0.286zM2 15.75q0.018 0.071 0.018 0.232 0 0.179-0.036 0.268l3.714 6.429q0.036 0 0.080 0.018t0.098 0.045l0.089 0.045 3.357-3.554v-6.196l-3.339-3.464q-0.232 0.143-0.518 0.179zM17.607 1.75h-6.929l3.393 3.571 9.893-3.571h-5q-0.286 0.286-0.679 0.286t-0.679-0.286zM30.161 23.393q0.018-0.107 0.089-0.196l-1.143-1.214-0.304 1.411h1.357zM28.268 23.393l0.393-1.875-4.5-4.75-5.286 5.482 1.125 1.143h8.268zM26.696 29.964l0.286-0.5 1.161-5.536h-7.625l5.946 6.125q0.143-0.071 0.232-0.089zM10.321 30.25h0.089l6.107-6.321h-6.661v5.982l0.071 0.107q0.25 0.089 0.393 0.232zM9.857 23.393h7.179l1.143-1.179-5.518-5.732-2.804 2.964v3.946zM6.411 23.393h2.911v-3.375l-3 3.161q0.071 0.143 0.089 0.214zM6.393 8.661q0 0.018 0.009 0.036t0.009 0.036q0 0.286-0.143 0.518l3.054 3.161v-4.804zM9.857 7.411v5.554l2.732 2.804 5.304-5.607-3.982-4.214zM9.929 1.982l-0.071 0.143v4.714l3.661-1.321-3.411-3.589q-0.107 0.036-0.179 0.054zM25.839 1.75h-0.286l-11.089 4 3.804 4.018zM18.268 10.536l-5.304 5.625 5.554 5.696 5.286-5.482zM12.286 16.107l-2.429-2.518v5.071zM18.536 22.607l-0.75 0.786h1.518zM24.536 16.393l4.25 4.482 2.357-11.143-0.054-0.089-0.018-0.018zM30.679 9.25q-0.143-0.232-0.143-0.518v-0.036l-3.857-6.714q-0.089-0.018-0.232-0.089l-7.804 8.268 5.536 5.839zM9.321 7.036v-3.982l-2.911 5.036zM9.321 23.929h-2.911l2.911 5.054v-5.054zM28.696 23.929l-0.857 4.054 2.321-4.054h-1.464zM30.875 22.679l3.696-6.446q-0.036-0.179-0.036-0.25 0-0.018 0.054-0.286l-3.054-5.286-2.304 10.929 1.375 1.464q0.089-0.054 0.268-0.125z"></path>
</svg>
