<!-- Generated by IcoMoon.io -->
<svg version="1.1" xmlns="http://www.w3.org/2000/svg" width="32" height="32" viewBox="0 0 32 32">
<title>untitled607</title>
<path d="M9.196 16.268v2.286h-4.5v-2.286h4.5zM9.196 11.714v2.268h-4.5v-2.268h4.5zM22.732 20.839v2.286h-6.089v-2.286h6.089zM22.732 16.268v2.286h-12v-2.286h12zM22.732 11.714v2.268h-12v-2.268h12zM25.143 27.071v-22.143q0-0.143-0.107-0.25t-0.25-0.107h-0.571l-6.75 4.571-3.75-3.054-3.75 3.054-6.75-4.571h-0.571q-0.143 0-0.25 0.107t-0.107 0.25v22.143q0 0.143 0.107 0.25t0.25 0.107h22.143q0.143 0 0.25-0.107t0.107-0.25zM9.875 7.25l3.304-2.679h-7.25zM17.554 7.25l3.946-2.679h-7.25zM27.429 4.929v22.143q0 1.107-0.768 1.875t-1.875 0.768h-22.143q-1.107 0-1.875-0.768t-0.768-1.875v-22.143q0-1.107 0.768-1.875t1.875-0.768h22.143q1.107 0 1.875 0.768t0.768 1.875z"></path>
</svg>
