<!-- Generated by IcoMoon.io -->
<svg version="1.1" xmlns="http://www.w3.org/2000/svg" width="21" height="32" viewBox="0 0 21 32">
<title>untitled285</title>
<path d="M18.857 13.714q0.714 0 1.214 0.5t0.5 1.214v10.286q0 0.714-0.5 1.214t-1.214 0.5h-17.143q-0.714 0-1.214-0.5t-0.5-1.214v-10.286q0-0.714 0.5-1.214t1.214-0.5h0.571v-5.714q0-3.304 2.348-5.652t5.652-2.348 5.652 2.348 2.348 5.652q0 0.464-0.339 0.804t-0.804 0.339h-1.143q-0.464 0-0.804-0.339t-0.339-0.804q0-1.893-1.339-3.232t-3.232-1.339-3.232 1.339-1.339 3.232v5.714h13.143z"></path>
</svg>
