<!-- Generated by IcoMoon.io -->
<svg version="1.1" xmlns="http://www.w3.org/2000/svg" width="37" height="32" viewBox="0 0 37 32">
<title>untitled470</title>
<path d="M20.571 16q0-1.857-0.723-3.545t-1.955-2.92-2.92-1.955-3.545-0.723-3.545 0.723-2.92 1.955-1.955 2.92-0.723 3.545 0.723 3.545 1.955 2.92 2.92 1.955 3.545 0.723 3.545-0.723 2.92-1.955 1.955-2.92 0.723-3.545zM34.286 16q0-1.857-0.723-3.545t-1.955-2.92-2.92-1.955-3.545-0.723h-6.893q2.125 1.607 3.366 4t1.241 5.143-1.241 5.143-3.366 4h6.893q1.857 0 3.545-0.723t2.92-1.955 1.955-2.92 0.723-3.545zM36.571 16q0 2.321-0.911 4.438t-2.438 3.643-3.643 2.438-4.438 0.911h-13.714q-2.321 0-4.438-0.911t-3.643-2.438-2.438-3.643-0.911-4.438 0.911-4.438 2.438-3.643 3.643-2.438 4.438-0.911h13.714q2.321 0 4.438 0.911t3.643 2.438 2.438 3.643 0.911 4.438z"></path>
</svg>
