<!-- Generated by IcoMoon.io -->
<svg version="1.1" xmlns="http://www.w3.org/2000/svg" width="41" height="32" viewBox="0 0 41 32">
<title>untitled521</title>
<path d="M8.536 29.911q-0.143 0.286-0.482 0.616t-0.661 0.455q-0.446 0.161-0.92-0.063t-0.509-0.563q-0.018-0.393 0.714-0.982t1.214-0.679q0.411-0.071 0.607 0.384t0.036 0.83zM32.482 29.911q0.125 0.286 0.464 0.616t0.679 0.455q0.446 0.161 0.92-0.063t0.491-0.563q0.036-0.393-0.705-0.982t-1.223-0.679q-0.393-0.071-0.589 0.384t-0.036 0.83zM33.339 27.964q0.232 0.482 1.009 1.063t1.384 0.741q0.804 0.232 1.464-0.080t0.661-0.902q0-0.821-1.205-1.795t-2.063-1.063q-0.714-0.089-1.134 0.67t-0.116 1.366zM7.643 27.964q-0.232 0.482-1 1.063t-1.375 0.741q-0.804 0.232-1.464-0.080t-0.661-0.902q0-0.821 1.205-1.795t2.063-1.063q0.714-0.089 1.125 0.67t0.107 1.366zM20.679 7.893h0.018q-0.732 0-1.357 0.268 0.482 0.143 0.786 0.545t0.304 0.884q0 0.625-0.482 1.071t-1.161 0.446q-0.929 0-1.429-0.768-0.089 0.411-0.089 0.75 0 1.321 1 2.259t2.411 0.938q1.429 0 2.429-0.938t1-2.259-1-2.259-2.429-0.938zM26.107 4q-1.768-1.946-3.938-2.348t-4.384 0.795q0.482-1.071 1.473-1.723t2.107-0.705 2.17 0.304 1.777 1.33 0.795 2.348zM39.5 26.125q0.143 0.196-0.196 0.75 0.125 0.411 0.125 0.714 0.018 1-0.795 2.009t-1.955 1.634-2.107 0.661q-0.857 0.036-1.643-0.384t-1.179-1.17q-12.268 0.446-22.482 0-0.411 0.732-1.188 1.161t-1.652 0.393q-1.536-0.054-3.205-1.438t-1.652-2.866q0.036-0.393 0.125-0.714-0.339-0.554-0.196-0.75 0.107-0.179 0.554-0.018 0.25-0.393 0.732-0.911-0.125-0.518 0.036-0.679 0.196-0.179 0.696 0.071 0.518-0.357 1.054-0.607 0-0.518 0.232-0.661 0.411-0.214 0.911 0.286 0.625-0.089 1.089 0.036 0.321 0.071 0.679 0.339v-1.304q-0.196 0-0.321-0.036-0.946-0.179-1.732-0.795t-0.982-1.563q-0.161-0.679 0-1.446 0.268-1.107 1.661-1.696 0.036-0.304 0.339-0.634t0.643-0.42 0.589 0.134 0.339 0.545h0.232q0.821 0.089 1.071 0.411 0.054 0.054 0.089 0.125 0.179-0.018 0.545-0.063t0.545-0.063q-0.268-0.196-0.536-0.304-0.411-0.714-1.625-0.768 0-0.107 0.018-0.179-1.107-0.036-2.116-0.33t-1.509-0.848q-0.571-0.643-0.759-1.643t-0.045-2q0.286-2.25 1.607-3.196 0.411-0.286 0.929-0.080t0.571 0.723q0 0.018 0.027 0.25t0.045 0.375 0.054 0.357 0.098 0.339 0.152 0.179q0.482 0.25 1.357 0.214 0.857-0.821 1.75-1.321-0.714-0.071-2.893 0.25l0.839-0.821q1.089-1.036 2.911-1.982 2.589-1.304 5.036-1.536-0.357-0.143-0.732-0.277t-0.839-0.25-0.759-0.188-0.848-0.196-0.768-0.179q10.625-2.25 16.143 2.482 1.75 1.5 2.821 3.964 1.518 0.179 2.161-0.161h0.018q0.089-0.054 0.152-0.179t0.098-0.339 0.054-0.348 0.054-0.384l0.018-0.25q0.054-0.5 0.571-0.714t0.929 0.089q1.304 0.929 1.625 3.179 0.125 1.018-0.063 2.018t-0.759 1.625q-0.5 0.571-1.491 0.866t-2.063 0.33v0.179q-1.268 0.036-1.696 0.768-0.25 0.089-0.554 0.304 0.196 0.018 0.571 0.063t0.536 0.063q0.018-0.071 0.089-0.143 0.286-0.321 1.071-0.411h0.232q0.089-0.321 0.339-0.536t0.589-0.143 0.643 0.411 0.339 0.643q1.411 0.571 1.661 1.696 0.161 0.714 0.018 1.446-0.214 0.946-1 1.571t-1.732 0.786q-0.179 0.036-0.304 0.036 0 0.875-0.018 1.304 0.357-0.268 0.679-0.339 0.464-0.125 1.089-0.036 0.5-0.5 0.911-0.286 0.25 0.161 0.25 0.661 0.589 0.286 1.054 0.607 0.482-0.232 0.679-0.071 0.179 0.179 0.036 0.679 0.5 0.536 0.732 0.911 0.411-0.143 0.554 0.018zM34.589 9.125q0 0.518-0.161 0.964 1.464 0.571 2 2.357 0.071-0.661-0.17-1.759t-0.741-1.616q-0.357-0.339-0.643-0.304t-0.286 0.357zM33.196 10.911q0.625 0.75 0.848 1.938t-0.009 2.223q1.196-0.232 1.732-0.804 0.232-0.25 0.321-0.5-0.054-1.143-0.554-2.045t-1.411-1.188q-0.268 0.268-0.929 0.375zM32.536 10.982q-0.536 0-0.786-0.018 0.75 2.054 0.946 4.268 0.375 0 0.768-0.054 0.286-1.214 0.018-2.411t-0.946-1.786zM4.607 12.446q0.536-1.786 2-2.357-0.161-0.446-0.161-0.964 0-0.321-0.295-0.357t-0.634 0.304q-0.5 0.518-0.741 1.616t-0.17 1.759zM5.25 14.268q0.518 0.554 1.732 0.804-0.232-1.036-0.009-2.223t0.848-1.938v0q-0.661-0.107-0.929-0.375-0.911 0.286-1.402 1.179t-0.563 2.054q0.161 0.304 0.321 0.5zM8.411 15.232q0.25-2.214 1.304-4.196-0.339 0.071-0.982 0.321l-0.804 0.339v-0.018q-0.821 1.589-0.357 3.5 0.446 0.054 0.839 0.054zM25.607 15.929q0.143 0.679 0.295 1.937t0.205 1.598q0.054 0.321 0.17 0.384t0.42-0.080q0.714-0.357 1.107-1.527t0.411-2.241q-0.429-0.036-2.607-0.071zM20.571 4.482q-2.071 0-3.554 1.473t-1.482 3.545q0 2.089 1.482 3.563t3.554 1.473 3.554-1.473 1.482-3.563q0-2.071-1.482-3.545t-3.554-1.473zM24.643 15.893q-1.893-0.036-3.768 0v-0.018q-0.018 0.482 0.045 1.536t0.241 1.179q0.518 0.25 1.67 0.259t1.705-0.188q0.161-0.054 0.196-0.696t-0.009-1.241-0.080-0.83zM19.857 19.446q0.143-0.071 0.17-0.857t-0.009-1.571-0.071-1.125v-0.018q-3.786 0.054-3.821 0.054-0.071 0.357-0.125 1.107t0 1.482 0.25 0.821q0.607 0.268 1.804 0.286t1.804-0.179zM12.821 16.071q-0.286 1.054 0.080 2.116t1.384 1.509q0.268 0.143 0.429 0.089t0.214-0.375q0.054-0.286 0.143-1.607t0.179-1.839q-1.232 0.036-2.429 0.107zM10.554 18.321q0.054 0.411-0.607 0.643 2.357 2.518 4.848 4.286t5.455 2.75q3.071-0.875 5.545-2.607t5.241-4.464q-0.589-0.232-0.536-0.607l0.054-0.161q-0.304-0.036-0.893-0.098t-0.857-0.080q-0.464 1.607-1.464 2.357-0.911 0.679-1.464-0.018-0.089-0.107-0.161-0.25-0.125-0.232-0.304-1.107-0.036 0.089-0.089 0.161t-0.134 0.125-0.143 0.098-0.17 0.071l-0.179 0.045t-0.214 0.036l-0.214 0.027t-0.241 0.018-0.241 0.009q-1.893 0.161-2.911-0.196-0.071 0.304-0.179 0.473t-0.375 0.268-0.411 0.125-0.643 0.063q-0.036 0-0.054 0.009t-0.054 0.009h-0.054q-3.196 0.304-3.625-0.714-0.036 1.125-1 0.964-0.839-0.143-1.625-0.964-0.214-0.232-0.357-0.464-0.304-0.518-0.464-1.161-1.036 0.107-1.554 0.179 0.018 0.036 0.071 0.179zM9.054 29.536q0.054-0.25 0.054-0.536-0.304-1.268-0.911-2.321t-1.304-1.25q-0.732-0.214-1.813 0.259t-1.866 1.429-0.696 1.92q0.625 0.946 1.786 1.661t2.125 0.75q0.911 0.036 1.679-0.5t0.946-1.411zM9.107 26.482q0.411 1.125 0.482 2.125 3.482-2.018 7-3.107-1.75-0.929-3.223-2.143t-3.205-2.946q-0.107 0.071-0.518 0.232 0 0.036-0.018 0.089t-0.018 0.071q0.554 0.321 0.393 0.661-0.214 0.411-1 0.607-0.179 0.232-0.518 0.429h-0.018q-0.036 1.482 0.018 2.679 0.339 0.607 0.625 1.304zM10.339 29.446q9.5 0.375 20.446 0-4.536-2.625-7.643-3.5-1.357 0.625-2.786 1.018-0.143 0.054-0.286 0-1.161-0.375-2.304-0.875-3.714 1.071-7.429 3.357h-0.018v0.018q0.018 0 0.018-0.018zM31.482 28.625q0.071-0.964 0.5-2.143 0.25-0.679 0.589-1.268l-0.018 0.018q0.054-1.375 0.054-2.732-0.268-0.143-0.536-0.446-0.75-0.161-1-0.589-0.161-0.357 0.393-0.679-0.036-0.071-0.036-0.161-0.286-0.071-0.5-0.214-3.643 3.393-6.839 5.071 3.536 1.054 7.393 3.143zM38.482 29.036q0.089-0.964-0.696-1.92t-1.857-1.429-1.821-0.259q-0.679 0.196-1.295 1.259t-0.92 2.313q0 0.286 0.054 0.536 0.179 0.875 0.946 1.411t1.679 0.5q0.964-0.036 2.125-0.75t1.786-1.661z"></path>
</svg>
