<!-- Generated by IcoMoon.io -->
<svg version="1.1" xmlns="http://www.w3.org/2000/svg" width="32" height="32" viewBox="0 0 32 32">
<title>untitled518</title>
<path d="M19.429 0q3.304 0 5.652 1.67t2.348 4.045v16q0 2.321-2.241 3.964t-5.455 1.732l3.804 3.607q0.286 0.268 0.143 0.625t-0.536 0.357h-18.857q-0.393 0-0.536-0.357t0.143-0.625l3.804-3.607q-3.214-0.089-5.455-1.732t-2.241-3.964v-16q0-2.375 2.348-4.045t5.652-1.67h11.429zM5.143 23.429q1.179 0 2.018-0.839t0.839-2.018-0.839-2.018-2.018-0.839-2.018 0.839-0.839 2.018 0.839 2.018 2.018 0.839zM12.571 13.714v-9.143h-9.714v9.143h9.714zM22.286 23.429q1.179 0 2.018-0.839t0.839-2.018-0.839-2.018-2.018-0.839-2.018 0.839-0.839 2.018 0.839 2.018 2.018 0.839zM25.143 13.714v-9.143h-10.286v9.143h10.286z"></path>
</svg>
