<!-- Generated by IcoMoon.io -->
<svg version="1.1" xmlns="http://www.w3.org/2000/svg" width="32" height="32" viewBox="0 0 32 32">
<title>untitled550</title>
<path d="M23 11.554q1.071 0 1.911 0.411 2.518 1.125 2.518 4.036v3.161q0 1.679-0.411 3.321l-1.518 6.054q-0.375 1.536-1.616 2.5t-2.813 0.964h-11.929q-1.893 0-3.232-1.339t-1.339-3.232v-7.161l-4.268-11.214q-0.304-0.804-0.304-1.625 0-1.893 1.339-3.232t3.232-1.339q1.429 0 2.598 0.813t1.67 2.134l0.304 0.786v-2.018q0-1.893 1.339-3.232t3.232-1.339 3.232 1.339 1.339 3.232v4.661q0.482-0.089 0.857-0.089 1.232 0 2.277 0.652t1.58 1.759zM19.143 11.429q-0.589 0-1.080 0.321t-0.741 0.857l-1.321 2.911-1.268 2.768h0.982q0.893 0 1.607 0.563t0.893 1.438l2.75-6.036q0.179-0.357 0.179-0.821 0-0.821-0.589-1.411t-1.411-0.589zM23.089 13.839q-0.393 0-0.723 0.143t-0.518 0.286-0.42 0.527-0.304 0.545-0.304 0.661l-2.357 5.179q-0.179 0.357-0.179 0.821 0 0.821 0.589 1.411t1.411 0.589q0.589 0 1.080-0.321t0.741-0.857l2.857-6.286q0.161-0.321 0.161-0.679 0-0.893-0.571-1.455t-1.464-0.563zM2.286 7.429q0 0.393 0.143 0.821l4.429 11.607v1.232l1.821-1.982q0.768-0.821 1.893-0.821h3.536l1.893-4.161v-9.554q0-0.946-0.67-1.616t-1.616-0.67-1.616 0.67-0.67 1.616v11.429h-1.143l-3.571-9.393q-0.25-0.661-0.839-1.063t-1.304-0.402q-0.946 0-1.616 0.67t-0.67 1.616zM21.071 29.714q0.786 0 1.402-0.482t0.813-1.25l1.518-6.054q0.339-1.304 0.339-2.768v-1.625l-2.518 5.536q-0.304 0.679-0.946 1.089t-1.393 0.411q-0.946 0-1.67-0.616t-0.866-1.545q-0.786 1.018-2.036 1.018h-3.714v-0.571h3.714q0.821 0 1.446-0.589t0.625-1.411-0.554-1.411-1.375-0.589h-5.286q-0.875 0-1.464 0.643l-2.25 2.429v5.5q0 0.946 0.67 1.616t1.616 0.67h11.929z"></path>
</svg>
