<!-- Generated by IcoMoon.io -->
<svg version="1.1" xmlns="http://www.w3.org/2000/svg" width="32" height="32" viewBox="0 0 32 32">
<title>untitled153</title>
<path d="M24.571 16l2.464 2.411q0.536 0.5 0.357 1.25-0.214 0.732-0.929 0.911l-3.357 0.857 0.946 3.321q0.214 0.732-0.339 1.25-0.518 0.554-1.25 0.339l-3.321-0.946-0.857 3.357q-0.179 0.714-0.911 0.929-0.214 0.036-0.339 0.036-0.554 0-0.911-0.393l-2.411-2.464-2.411 2.464q-0.5 0.536-1.25 0.357-0.732-0.196-0.911-0.929l-0.857-3.357-3.321 0.946q-0.732 0.214-1.25-0.339-0.554-0.518-0.339-1.25l0.946-3.321-3.357-0.857q-0.714-0.179-0.929-0.911-0.179-0.75 0.357-1.25l2.464-2.411-2.464-2.411q-0.536-0.5-0.357-1.25 0.214-0.732 0.929-0.911l3.357-0.857-0.946-3.321q-0.214-0.732 0.339-1.25 0.518-0.554 1.25-0.339l3.321 0.946 0.857-3.357q0.179-0.732 0.911-0.911 0.732-0.214 1.25 0.339l2.411 2.482 2.411-2.482q0.518-0.536 1.25-0.339 0.732 0.179 0.911 0.911l0.857 3.357 3.321-0.946q0.732-0.214 1.25 0.339 0.554 0.518 0.339 1.25l-0.946 3.321 3.357 0.857q0.714 0.179 0.929 0.911 0.179 0.75-0.357 1.25z"></path>
</svg>
