<!-- Generated by IcoMoon.io -->
<svg version="1.1" xmlns="http://www.w3.org/2000/svg" width="41" height="32" viewBox="0 0 41 32">
<title>untitled560</title>
<path d="M26.679 29.268l-5.268-12.411q-0.446 0.875-2.83 5.455t-3.545 6.955q-0.018 0.018-0.491 0.009t-0.473-0.027q-1.464-3.446-4.563-10.482t-4.634-10.643q-0.375-0.893-1.188-1.92t-1.848-1.795-1.821-0.768q0-0.089-0.009-0.429t-0.009-0.482h10.411v0.893q-0.696 0.036-1.42 0.286t-1.188 0.768-0.179 1.143q0.464 1.054 3.866 8.911t4.205 9.643q0.554-1.089 2.5-4.759t2.339-4.42q-0.339-0.696-2.25-5.018t-2.429-5.268q-0.679-1.232-3.589-1.268v-0.893l9.161 0.018v0.839q-1.071 0.036-1.67 0.446t-0.223 1.232q0.589 1.25 1.554 3.384t1.536 3.348q1.964-3.821 3.089-6.482 0.429-0.982-0.179-1.42t-2.304-0.473q0.018-0.125 0.018-0.446v-0.429q1.143 0 3.045-0.009t3.214-0.018 1.652-0.009v0.875q-1.107 0.036-2.125 0.589t-1.607 1.446l-3.804 7.893q0.232 0.589 2.277 5.179t2.17 4.893l7.875-18.161q-0.25-0.679-0.884-1.116t-1.161-0.563-0.991-0.143v-0.893l8.214 0.071 0.018 0.036-0.018 0.786q-2.482 0.071-3.589 2.589-9.393 21.714-9.982 23.054h-0.875z"></path>
</svg>
