<!-- Generated by IcoMoon.io -->
<svg version="1.1" xmlns="http://www.w3.org/2000/svg" width="32" height="32" viewBox="0 0 32 32">
<title>untitled383</title>
<path d="M18.679 18.214q0 1.143-0.679 1.946t-1.625 0.804q-0.768 0-1.25-0.268v-4.946q0.5-0.304 1.25-0.304 0.946 0 1.625 0.813t0.679 1.955zM12.554 10.571q0 1.143-0.679 1.955t-1.625 0.813q-0.768 0-1.25-0.268v-4.946q0.5-0.304 1.25-0.304 0.946 0 1.625 0.804t0.679 1.946zM22.589 18.268q0-2.393-1.571-4.089t-3.804-1.696q-0.357 0-0.696 0.054-0.411 1.393-1.393 2.429-1.554 1.696-3.768 1.804v11.357l3.768-0.732v-3.679q0.911 0.339 2.089 0.339 2.232 0 3.804-1.696t1.571-4.089zM16.464 10.643q0-2.393-1.58-4.089t-3.813-1.696q-1.321 0-2.518 0.643h-3.321v15l3.768-0.732v-3.679q0.982 0.339 2.071 0.339 2.232 0 3.813-1.696t1.58-4.089zM27.429 7.429v17.143q0 2.125-1.509 3.634t-3.634 1.509h-17.143q-2.125 0-3.634-1.509t-1.509-3.634v-17.143q0-2.125 1.509-3.634t3.634-1.509h17.143q2.125 0 3.634 1.509t1.509 3.634z"></path>
</svg>
