<!-- Generated by IcoMoon.io -->
<svg version="1.1" xmlns="http://www.w3.org/2000/svg" width="32" height="32" viewBox="0 0 32 32">
<title>untitled604</title>
<path d="M22.857 22.857q0-0.929-0.679-1.607t-1.607-0.679-1.607 0.679-0.679 1.607 0.679 1.607 1.607 0.679 1.607-0.679 0.679-1.607zM9.143 9.143q0-0.929-0.679-1.607t-1.607-0.679-1.607 0.679-0.679 1.607 0.679 1.607 1.607 0.679 1.607-0.679 0.679-1.607zM27.429 22.857q0 2.839-2.009 4.848t-4.848 2.009-4.848-2.009-2.009-4.848 2.009-4.848 4.848-2.009 4.848 2.009 2.009 4.848zM25.714 3.429q0 0.357-0.232 0.679l-18.857 25.143q-0.339 0.464-0.911 0.464h-2.857q-0.464 0-0.804-0.339t-0.339-0.804q0-0.357 0.232-0.679l18.857-25.143q0.339-0.464 0.911-0.464h2.857q0.464 0 0.804 0.339t0.339 0.804zM13.714 9.143q0 2.839-2.009 4.848t-4.848 2.009-4.848-2.009-2.009-4.848 2.009-4.848 4.848-2.009 4.848 2.009 2.009 4.848z"></path>
</svg>
