<!-- Generated by IcoMoon.io -->
<svg version="1.1" xmlns="http://www.w3.org/2000/svg" width="37" height="32" viewBox="0 0 37 32">
<title>untitled447</title>
<path d="M18.286 27.196q-0.357 0-1.661-1.313t-1.304-1.67q0-0.571 1.116-0.964t1.848-0.393 1.848 0.393 1.116 0.964q0 0.357-1.304 1.67t-1.661 1.313zM23.107 22.357q-0.036 0-0.714-0.446t-1.813-0.893-2.295-0.446-2.295 0.446-1.804 0.893-0.723 0.446q-0.321 0-1.67-1.339t-1.348-1.661q0-0.232 0.179-0.411 1.393-1.375 3.5-2.161t4.161-0.786 4.161 0.786 3.5 2.161q0.179 0.179 0.179 0.411 0 0.321-1.348 1.661t-1.67 1.339zM27.982 17.5q-0.196 0-0.411-0.143-2.429-1.875-4.5-2.759t-4.786-0.884q-1.518 0-3.045 0.393t-2.661 0.946-2.027 1.107-1.411 0.946-0.554 0.393q-0.304 0-1.643-1.339t-1.339-1.661q0-0.214 0.179-0.393 2.357-2.357 5.714-3.661t6.786-1.304 6.786 1.304 5.714 3.661q0.179 0.179 0.179 0.393 0 0.321-1.339 1.661t-1.643 1.339zM32.821 12.661q-0.196 0-0.393-0.161-3.196-2.804-6.634-4.223t-7.509-1.42-7.509 1.42-6.634 4.223q-0.196 0.161-0.393 0.161-0.304 0-1.652-1.339t-1.348-1.661q0-0.232 0.179-0.411 3.339-3.321 7.946-5.143t9.411-1.821 9.411 1.821 7.946 5.143q0.179 0.179 0.179 0.411 0 0.321-1.348 1.661t-1.652 1.339z"></path>
</svg>
