<!-- Generated by IcoMoon.io -->
<svg version="1.1" xmlns="http://www.w3.org/2000/svg" width="32" height="32" viewBox="0 0 32 32">
<title>untitled590</title>
<path d="M11.429 18v-4q0-0.286-0.286-0.286h-1.714q-0.286 0-0.286 0.286v4q0 0.286 0.286 0.286h1.714q0.286 0 0.286-0.286zM20.571 18v-4q0-0.286-0.286-0.286h-1.714q-0.286 0-0.286 0.286v4q0 0.286 0.286 0.286h1.714q0.286 0 0.286-0.286zM29.714 18.571v13.429h-11.429v-5.714q0-1.429-1-2.429t-2.429-1-2.429 1-1 2.429v5.714h-11.429v-13.429q0-0.286 0.286-0.286h1.714q0.286 0 0.286 0.286v2h2.286v-11.143q0-0.286 0.286-0.286h1.714q0.286 0 0.286 0.286v2h2.286v-2q0-0.286 0.286-0.286h1.714q0.286 0 0.286 0.286v2h2.286v-2q0-0.286 0.286-0.286h0.286v-7.018q-0.571-0.339-0.571-0.982 0-0.464 0.339-0.804t0.804-0.339 0.804 0.339 0.339 0.804q0 0.643-0.571 0.982v0.161h4.857q0.286 0 0.286 0.286v4q0 0.286-0.286 0.286h-4.857v2.286h0.286q0.286 0 0.286 0.286v2h2.286v-2q0-0.286 0.286-0.286h1.714q0.286 0 0.286 0.286v2h2.286v-2q0-0.286 0.286-0.286h1.714q0.286 0 0.286 0.286v11.143h2.286v-2q0-0.286 0.286-0.286h1.714q0.286 0 0.286 0.286z"></path>
</svg>
