<!-- Generated by IcoMoon.io -->
<svg version="1.1" xmlns="http://www.w3.org/2000/svg" width="32" height="32" viewBox="0 0 32 32">
<title>untitled379</title>
<path d="M15.464 14.982l1.607-0.482v-1.107q0-1.411-1.036-2.411t-2.464-1-2.464 0.991-1.036 2.402v5.054q0 0.357-0.25 0.598t-0.589 0.241-0.58-0.241-0.241-0.598v-2.143h-2.696v2.179q0 1.464 1.027 2.482t2.491 1.018q1.446 0 2.473-1.009t1.027-2.438v-5q0-0.339 0.241-0.589t0.598-0.25q0.339 0 0.58 0.25t0.241 0.589v0.964zM21.411 18.464v-2.179h-2.679v2.25q0 0.357-0.241 0.598t-0.598 0.241q-0.339 0-0.58-0.25t-0.241-0.589v-2.196l-1.607 0.464-1.071-0.5v2.196q0 1.429 1.036 2.446t2.482 1.018 2.473-1.018 1.027-2.482zM27.429 16q0 3.732-1.839 6.884t-4.991 4.991-6.884 1.839-6.884-1.839-4.991-4.991-1.839-6.884 1.839-6.884 4.991-4.991 6.884-1.839 6.884 1.839 4.991 4.991 1.839 6.884z"></path>
</svg>
