<!-- Generated by IcoMoon.io -->
<svg version="1.1" xmlns="http://www.w3.org/2000/svg" width="32" height="32" viewBox="0 0 32 32">
<title>untitled552</title>
<path d="M18.607 12.554q0-1.571-1.071-2.161-0.589-0.321-2.089-0.321h-2.196v5.018h2.893q1.179 0 1.821-0.661t0.643-1.875zM19.536 17.643l3.661 6.661q0.143 0.304-0.018 0.554-0.143 0.286-0.482 0.286h-2.714q-0.357 0-0.5-0.304l-3.464-6.518h-2.768v6.25q0 0.25-0.161 0.411t-0.411 0.161h-2.393q-0.25 0-0.411-0.161t-0.161-0.411v-17.143q0-0.25 0.161-0.411t0.411-0.161h5.25q2.286 0 3.393 0.429 1.518 0.554 2.393 1.946t0.875 3.214q0 1.643-0.759 2.955t-2.063 1.955q0.107 0.179 0.161 0.286zM16 2.857q-2.679 0-5.107 1.045t-4.188 2.804-2.804 4.188-1.045 5.107 1.045 5.107 2.804 4.188 4.188 2.804 5.107 1.045 5.107-1.045 4.188-2.804 2.804-4.188 1.045-5.107-1.045-5.107-2.804-4.188-4.188-2.804-5.107-1.045zM32 16q0 3.25-1.268 6.214t-3.411 5.107-5.107 3.411-6.214 1.268-6.214-1.268-5.107-3.411-3.411-5.107-1.268-6.214 1.268-6.214 3.411-5.107 5.107-3.411 6.214-1.268 6.214 1.268 5.107 3.411 3.411 5.107 1.268 6.214z"></path>
</svg>
