<!-- Generated by IcoMoon.io -->
<svg version="1.1" xmlns="http://www.w3.org/2000/svg" width="32" height="32" viewBox="0 0 32 32">
<title>untitled393</title>
<path d="M16 29.089l11.429-6.232v-11.357l-11.429 4.161v13.429zM14.857 13.643l12.464-4.536-12.464-4.536-12.464 4.536zM29.714 9.143v13.714q0 0.625-0.321 1.161t-0.875 0.839l-12.571 6.857q-0.5 0.286-1.089 0.286t-1.089-0.286l-12.571-6.857q-0.554-0.304-0.875-0.839t-0.321-1.161v-13.714q0-0.714 0.411-1.304t1.089-0.839l12.571-4.571q0.393-0.143 0.786-0.143t0.786 0.143l12.571 4.571q0.679 0.25 1.089 0.839t0.411 1.304z"></path>
</svg>
