<!-- Generated by IcoMoon.io -->
<svg version="1.1" xmlns="http://www.w3.org/2000/svg" width="32" height="32" viewBox="0 0 32 32">
<title>untitled423</title>
<path d="M10.393 23.357q0 1.179-1.661 1.179-1.911 0-1.911-1.125 0-1.143 1.75-1.143 1.821 0 1.821 1.089zM9.75 15.036q0 1.518-1.321 1.518-1.375 0-1.375-1.5 0-1.607 1.375-1.607 0.643 0 0.982 0.455t0.339 1.134zM12.714 13.696v-2.232q-1.393 0.518-2.411 0.518-0.893-0.518-1.964-0.518-1.536 0-2.589 1.018t-1.054 2.554q0 0.893 0.527 1.821t1.313 1.196v0.054q-0.679 0.304-0.679 1.518 0 0.946 0.732 1.375v0.054q-2.018 0.661-2.018 2.482 0 0.804 0.357 1.402t0.964 0.911 1.286 0.455 1.446 0.143q4 0 4-3.357 0-1.196-0.857-1.768t-2.25-0.821q-0.482-0.089-0.92-0.366t-0.438-0.705q0-0.786 0.875-0.929 1.375-0.268 2.179-1.25t0.804-2.393q0-0.429-0.179-0.929 0.661-0.161 0.875-0.232zM13.768 21.179h2.446q-0.036-0.482-0.036-1.464v-6.911q0-0.821 0.036-1.232h-2.446q0.054 0.411 0.054 1.268v7q0 0.893-0.054 1.339zM22.857 20.893v-2.161q-0.536 0.375-1.214 0.375-0.946 0-0.946-1.464v-4.018h0.929q0.161 0 0.473 0.018t0.473 0.018v-2.089h-1.875q0-1.464 0.054-1.821h-2.5q0.071 0.429 0.071 0.982v0.839h-1.071v2.089q0.643-0.054 0.661-0.054 0.054 0 0.196 0.009t0.214 0.009v0.036h-0.036v3.875q0 0.661 0.045 1.143t0.205 1.009 0.438 0.866 0.777 0.554 1.179 0.214q1.143 0 1.929-0.429zM16.5 8.286q0-0.643-0.429-1.134t-1.071-0.491-1.080 0.482-0.438 1.143q0 0.643 0.446 1.116t1.071 0.473 1.063-0.482 0.438-1.107zM27.429 7.429v17.143q0 2.125-1.509 3.634t-3.634 1.509h-17.143q-2.125 0-3.634-1.509t-1.509-3.634v-17.143q0-2.125 1.509-3.634t3.634-1.509h17.143q2.125 0 3.634 1.509t1.509 3.634z"></path>
</svg>
