<!-- Generated by IcoMoon.io -->
<svg version="1.1" xmlns="http://www.w3.org/2000/svg" width="32" height="32" viewBox="0 0 32 32">
<title>untitled460</title>
<path d="M20.536 19.179v1.946q0 0.893-0.652 1.589t-1.679 1.080-2.107 0.58-2.098 0.196q-3.661 0-6.116-2.482t-2.455-6.179q0-3.625 2.429-6.054t6.054-2.429q0.607 0 1.348 0.080t1.661 0.321 1.652 0.607 1.232 1.009 0.5 1.446v1.946q0 0.286-0.286 0.286h-2.107q-0.286 0-0.286-0.286v-1.25q0-0.768-1.17-1.205t-2.455-0.438q-2.5 0-4.080 1.634t-1.58 4.241q0 2.696 1.634 4.455t4.17 1.759q1.214 0 2.464-0.429t1.25-1.179v-1.25q0-0.125 0.080-0.205t0.188-0.080h2.125q0.107 0 0.196 0.080t0.089 0.205zM13.714 4.571q-2.321 0-4.438 0.911t-3.643 2.438-2.438 3.643-0.911 4.438 0.911 4.438 2.438 3.643 3.643 2.438 4.438 0.911 4.437-0.911 3.643-2.438 2.438-3.643 0.911-4.438-0.911-4.438-2.438-3.643-3.643-2.438-4.438-0.911zM27.429 16q0 3.732-1.839 6.884t-4.991 4.991-6.884 1.839-6.884-1.839-4.991-4.991-1.839-6.884 1.839-6.884 4.991-4.991 6.884-1.839 6.884 1.839 4.991 4.991 1.839 6.884z"></path>
</svg>
