<!-- Generated by IcoMoon.io -->
<svg version="1.1" xmlns="http://www.w3.org/2000/svg" width="32" height="32" viewBox="0 0 32 32">
<title>untitled398</title>
<path d="M22.179 11.554q0-1.429-1.018-2.438t-2.446-1.009-2.438 1.018-1.009 2.429q0 1.429 1.009 2.438t2.438 1.009 2.446-1.009 1.018-2.438zM11.286 22.054q0 1.482-1.036 2.509t-2.5 1.027q-1 0-1.839-0.518t-1.286-1.375q0.929 0.357 1.75 0.714 1.071 0.429 2.143-0.027t1.518-1.545q0.429-1.071-0.027-2.143t-1.545-1.5l-1.464-0.589q0.393-0.089 0.75-0.089 1.464 0 2.5 1.027t1.036 2.509zM27.429 7.429v17.143q0 2.125-1.509 3.634t-3.634 1.509h-17.143q-2.125 0-3.634-1.509t-1.509-3.634v-2.732l3.071 1.232q0.357 1.643 1.67 2.714t3.009 1.071q1.857 0 3.232-1.25t1.554-3.089l6.161-4.5q2.679 0 4.563-1.884t1.884-4.545q0-2.679-1.884-4.563t-4.563-1.884q-2.643 0-4.518 1.866t-1.911 4.509l-4.018 5.75q-0.161-0.018-0.5-0.018-1.339 0-2.446 0.661l-5.304-2.125v-8.357q0-2.125 1.509-3.634t3.634-1.509h17.143q2.125 0 3.634 1.509t1.509 3.634zM23.018 11.589q0 1.786-1.268 3.045t-3.054 1.259-3.045-1.259-1.259-3.045 1.259-3.054 3.045-1.268q1.804 0 3.063 1.259t1.259 3.063z"></path>
</svg>
