<!-- Generated by IcoMoon.io -->
<svg version="1.1" xmlns="http://www.w3.org/2000/svg" width="41" height="32" viewBox="0 0 41 32">
<title>untitled536</title>
<path d="M15.321 22.161v-12.375q-1.893 0.732-3.071 2.42t-1.179 3.777 1.179 3.777 3.071 2.402zM24.321 15.982q0-2.089-1.179-3.777t-3.071-2.42v12.393q1.893-0.732 3.071-2.42t1.179-3.777zM28.161 15.982q0 2.839-1.402 5.25t-3.813 3.813-5.25 1.402q-2.125 0-4.063-0.83t-3.339-2.232-2.232-3.339-0.83-4.063q0-2.839 1.402-5.25t3.813-3.813 5.25-1.402 5.25 1.402 3.813 3.813 1.402 5.25zM35 16.107q0-2.482-0.991-4.67t-2.634-3.67-3.813-2.339-4.509-0.857h-5.375q-3.143 0-5.777 1.446t-4.196 4.107-1.563 5.982q0 3.054 1.554 5.67t4.214 4.134 5.768 1.518h5.375q2.304 0 4.491-0.902t3.83-2.411 2.634-3.616 0.991-4.393zM41.143 4.571v22.857q0 0.929-0.679 1.607t-1.607 0.679h-36.571q-0.929 0-1.607-0.679t-0.679-1.607v-22.857q0-0.929 0.679-1.607t1.607-0.679h36.571q0.929 0 1.607 0.679t0.679 1.607z"></path>
</svg>
