<!-- Generated by IcoMoon.io -->
<svg version="1.1" xmlns="http://www.w3.org/2000/svg" width="32" height="32" viewBox="0 0 32 32">
<title>untitled563</title>
<path d="M16.125 32q-5.054 0-9.009-2.688t-5.884-7.116q-1.036-2.339-1.196-5.375t0.464-5.938 1.982-5.571 3.196-4.33l-0.196 5.018q0.196-0.25 1.214-0.277t1.25 0.277q0.75-1.446 2.866-2.464t4.188-1.054q-0.964 0.804-2.134 2.652t-1.045 2.92q0.446 0.143 1.116 0.241t1.125 0.134 1.214 0.071 0.902 0.054q0.268 0.089 0.17 0.813t-0.545 1.348q-0.089 0.125-0.295 0.33t-1.009 0.634-1.804 0.607l0.268 3.375-2.482-1.196q-0.321 0.768-0.134 1.455t0.643 1.188 1.17 0.741 1.446 0.116q0.911-0.161 1.75-0.616t1.491-0.804 1.313-0.313q1.089 0.071 1.598 0.589t0.348 1.161q-0.018 0.036-0.045 0.098t-0.152 0.223-0.321 0.277-0.563 0.188-0.83 0.018q-1.071 1.696-2.58 2.42t-3.741 0.527q1.321 1.089 2.902 1.473t3.009 0.107 2.759-0.929 2.286-1.563 1.438-1.857q0.768-1.625 0.696-3.438t-0.67-3.366-1.402-2.232q1.554 0.679 2.446 1.42t1.375 2.009q0.268-3.036-1.027-6.125t-3.741-5.071q4.732 1.375 7.357 4.991t2.696 9.241q0.036 2.268-0.723 4.554t-2.205 4.25-3.375 3.5-4.42 2.42-5.152 0.884z"></path>
</svg>
