<!-- Generated by IcoMoon.io -->
<svg version="1.1" xmlns="http://www.w3.org/2000/svg" width="32" height="32" viewBox="0 0 32 32">
<title>untitled419</title>
<path d="M16 0q3.25 0 6.214 1.268t5.107 3.411 3.411 5.107 1.268 6.214-1.268 6.214-3.411 5.107-5.107 3.411-6.214 1.268-6.214-1.268-5.107-3.411-3.411-5.107-1.268-6.214 1.268-6.214 3.411-5.107 5.107-3.411 6.214-1.268zM16 2.286q-3.393 0-6.446 1.607l3.464 3.464q1.464-0.5 2.982-0.5t2.982 0.5l3.464-3.464q-3.054-1.607-6.446-1.607zM3.893 22.446l3.464-3.464q-0.5-1.464-0.5-2.982t0.5-2.982l-3.464-3.464q-1.607 3.054-1.607 6.446t1.607 6.446zM16 29.714q3.393 0 6.446-1.607l-3.464-3.464q-1.464 0.5-2.982 0.5t-2.982-0.5l-3.464 3.464q3.054 1.607 6.446 1.607zM16 22.857q2.839 0 4.848-2.009t2.009-4.848-2.009-4.848-4.848-2.009-4.848 2.009-2.009 4.848 2.009 4.848 4.848 2.009zM24.643 18.982l3.464 3.464q1.607-3.054 1.607-6.446t-1.607-6.446l-3.464 3.464q0.5 1.464 0.5 2.982t-0.5 2.982z"></path>
</svg>
