<!-- Generated by IcoMoon.io -->
<svg version="1.1" xmlns="http://www.w3.org/2000/svg" width="37" height="32" viewBox="0 0 37 32">
<title>untitled401</title>
<path d="M32.571 16q1.661 0 2.83 1.17t1.17 2.83v6.857q0 0.25-0.161 0.411t-0.411 0.161h-1.714v1.143q0 1.429-1 2.429t-2.429 1-2.429-1-1-2.429v-1.143h-18.286v1.143q0 1.429-1 2.429t-2.429 1-2.429-1-1-2.429v-1.143h-1.714q-0.25 0-0.411-0.161t-0.161-0.411v-6.857q0-1.661 1.17-2.83t2.83-1.17h0.5l1.875-7.482q0.411-1.679 1.857-2.813t3.196-1.134h2.286v-4q0-0.25 0.161-0.411t0.411-0.161h8q0.25 0 0.411 0.161t0.161 0.411v4h2.286q1.75 0 3.196 1.134t1.857 2.813l1.875 7.482h0.5zM5.714 24.571q1.179 0 2.018-0.839t0.839-2.018-0.839-2.018-2.018-0.839-2.018 0.839-0.839 2.018 0.839 2.018 2.018 0.839zM9.214 16h18.143l-1.589-6.375q-0.036-0.143-0.25-0.313t-0.375-0.17h-13.714q-0.161 0-0.375 0.17t-0.25 0.313zM30.857 24.571q1.179 0 2.018-0.839t0.839-2.018-0.839-2.018-2.018-0.839-2.018 0.839-0.839 2.018 0.839 2.018 2.018 0.839z"></path>
</svg>
