<!-- Generated by IcoMoon.io -->
<svg version="1.1" xmlns="http://www.w3.org/2000/svg" width="32" height="32" viewBox="0 0 32 32">
<title>untitled501</title>
<path d="M31.964 9.446q0.214 2.768-0.938 5.214t-3.321 4-4.848 1.839v4.643h4q0.25 0 0.411 0.161t0.161 0.411v1.143q0 0.25-0.161 0.411t-0.411 0.161h-4v4q0 0.25-0.161 0.411t-0.411 0.161h-1.143q-0.25 0-0.411-0.161t-0.161-0.411v-4h-9.143v4q0 0.25-0.161 0.411t-0.411 0.161h-1.143q-0.25 0-0.411-0.161t-0.161-0.411v-4h-4q-0.25 0-0.411-0.161t-0.161-0.411v-1.143q0-0.25 0.161-0.411t0.411-0.161h4v-4.643q-2.679-0.286-4.848-1.839t-3.321-4-0.938-5.214q0.304-3.679 2.938-6.366t6.295-3.027q3.679-0.375 6.732 1.679 3.054-2.054 6.732-1.679 3.661 0.339 6.295 3.027t2.938 6.366zM16 15.875q2.286-2.339 2.286-5.589t-2.286-5.589q-2.286 2.339-2.286 5.589t2.286 5.589zM10.286 18.286q2.054 0 3.893-1.018-2.75-2.946-2.75-6.982 0-4 2.75-6.982-1.839-1.018-3.893-1.018-3.304 0-5.652 2.348t-2.348 5.652 2.348 5.652 5.652 2.348zM20.571 25.143v-4.643q-2.446-0.268-4.571-1.679-2.125 1.411-4.571 1.679v4.643h9.143zM21.714 18.286q3.304 0 5.652-2.348t2.348-5.652-2.348-5.652-5.652-2.348q-2.054 0-3.893 1.018 2.75 2.982 2.75 6.982 0 4.036-2.75 6.982 1.839 1.018 3.893 1.018z"></path>
</svg>
