<!-- Generated by IcoMoon.io -->
<svg version="1.1" xmlns="http://www.w3.org/2000/svg" width="32" height="32" viewBox="0 0 32 32">
<title>untitled435</title>
<path d="M6.286 25.143v2.286h-6.286v-2.286h6.286zM12.571 22.857q0.464 0 0.804 0.339t0.339 0.804v4.571q0 0.464-0.339 0.804t-0.804 0.339h-4.571q-0.464 0-0.804-0.339t-0.339-0.804v-4.571q0-0.464 0.339-0.804t0.804-0.339h4.571zM15.429 16v2.286h-15.429v-2.286h15.429zM4 6.857v2.286h-4v-2.286h4zM27.429 25.143v2.286h-13.143v-2.286h13.143zM10.286 4.571q0.464 0 0.804 0.339t0.339 0.804v4.571q0 0.464-0.339 0.804t-0.804 0.339h-4.571q-0.464 0-0.804-0.339t-0.339-0.804v-4.571q0-0.464 0.339-0.804t0.804-0.339h4.571zM21.714 13.714q0.464 0 0.804 0.339t0.339 0.804v4.571q0 0.464-0.339 0.804t-0.804 0.339h-4.571q-0.464 0-0.804-0.339t-0.339-0.804v-4.571q0-0.464 0.339-0.804t0.804-0.339h4.571zM27.429 16v2.286h-4v-2.286h4zM27.429 6.857v2.286h-15.429v-2.286h15.429z"></path>
</svg>
