<!-- Generated by IcoMoon.io -->
<svg version="1.1" xmlns="http://www.w3.org/2000/svg" width="37" height="32" viewBox="0 0 37 32">
<title>untitled487</title>
<path d="M30.179 14.054q2.643 0 4.518 1.759t1.875 4.366q0 2.804-1.946 4.67t-4.768 1.866q-1.518 0-2.893-0.491t-2.464-1.313-2.107-1.893-1.946-2.259-1.848-2.366-1.938-2.25-2.089-1.893-2.429-1.313-2.839-0.491q-2.75 0-4.491 1.634t-1.741 4.366q0 2.804 1.857 4.464t4.696 1.661q1.786 0 3.714-0.67t3.446-1.759q0.089-0.071 0.375-0.33t0.536-0.429 0.393-0.17q0.25 0 0.438 0.188t0.188 0.438q0 0.429-1.071 1.375-1.804 1.571-4.188 2.536t-4.652 0.964q-2.375 0-4.384-1.036t-3.214-2.946-1.205-4.304q0-3.661 2.527-6.089t6.205-2.429q2.143 0 4.045 0.777t3.313 2.018 2.705 2.732 2.482 2.991 2.384 2.741 2.67 2.018 3.080 0.777q1.821 0 3.009-1.098t1.188-2.902q0-1.696-1.152-2.839t-2.848-1.143q-0.536 0-1.455 0.33t-1.223 0.33q-0.357 0-0.634-0.268t-0.277-0.625q0-0.321 0.152-1.018t0.152-1.054q0-2.839-1.92-4.696t-4.759-1.857q-1.036 0-1.991 0.33t-1.5 0.723-0.991 0.723-0.589 0.33q-0.268 0-0.455-0.188t-0.188-0.455q0-0.339 0.446-0.821 1.054-1.196 2.625-1.848t3.25-0.652q3.411 0 5.679 2.241t2.268 5.634q0 0.661-0.071 1.179 1.018-0.268 2.054-0.268z"></path>
</svg>
