<!-- Generated by IcoMoon.io -->
<svg version="1.1" xmlns="http://www.w3.org/2000/svg" width="32" height="32" viewBox="0 0 32 32">
<title>untitled69</title>
<path d="M31.196 2.518q0.339-0.339 0.571-0.232t0.232 0.571v26.286q0 0.464-0.232 0.571t-0.571-0.232l-12.679-12.679q-0.161-0.161-0.232-0.339v12.679q0 0.464-0.232 0.571t-0.571-0.232l-12.679-12.679q-0.161-0.161-0.232-0.339v12.107q0 0.464-0.339 0.804t-0.804 0.339h-2.286q-0.464 0-0.804-0.339t-0.339-0.804v-25.143q0-0.464 0.339-0.804t0.804-0.339h2.286q0.464 0 0.804 0.339t0.339 0.804v12.107q0.071-0.196 0.232-0.339l12.679-12.679q0.339-0.339 0.571-0.232t0.232 0.571v12.679q0.071-0.196 0.232-0.339z"></path>
</svg>
