<!-- Generated by IcoMoon.io -->
<svg version="1.1" xmlns="http://www.w3.org/2000/svg" width="32" height="32" viewBox="0 0 32 32">
<title>untitled504</title>
<path d="M26.286 2.286q0.464 0 0.804 0.339t0.339 0.804v7.429q0 0.25-0.161 0.411t-0.411 0.161h-1.143q-0.25 0-0.411-0.161t-0.161-0.411v-4.679l-3.804 3.821 2.5 2.5q0.161 0.179 0.161 0.411t-0.161 0.393l-0.821 0.821q-0.161 0.161-0.393 0.161t-0.411-0.161l-2.5-2.518-1.393 1.411q2.25 2.786 2.25 6.411 0 2.089-0.813 3.991t-2.196 3.286-3.286 2.196-3.991 0.813-3.991-0.813-3.286-2.196-2.196-3.286-0.813-3.991 0.813-3.991 2.196-3.286 3.286-2.196 3.991-0.813q3.625 0 6.411 2.25l1.393-1.393-3.071-3.071q-0.161-0.179-0.161-0.411t0.161-0.393l0.821-0.821q0.161-0.161 0.393-0.161t0.411 0.161l3.071 3.071 3.804-3.804h-4.661q-0.25 0-0.411-0.161t-0.161-0.411v-1.143q0-0.25 0.161-0.411t0.411-0.161h7.429zM10.286 27.429q3.304 0 5.652-2.348t2.348-5.652-2.348-5.652-5.652-2.348-5.652 2.348-2.348 5.652 2.348 5.652 5.652 2.348z"></path>
</svg>
