<!-- Generated by IcoMoon.io -->
<svg version="1.1" xmlns="http://www.w3.org/2000/svg" width="23" height="32" viewBox="0 0 23 32">
<title>untitled623</title>
<path d="M18.75 19.75q0 3.839-2.625 6.679-2.643 2.875-6.75 2.875-4.143 0-6.75-2.875-2.625-2.839-2.625-6.679 0-2.625 1.214-4.83t3.375-3.509 4.786-1.304q1.714 0 3.25 0.554-0.571 1.107-0.696 2.25-1.179-0.5-2.554-0.5-2.982 0-5.009 2.196t-2.027 5.196q0 3.036 2.009 5.152t5.027 2.116 5.018-2.116 2-5.152q0-1.589-0.571-2.964 1.179-0.232 2.196-0.875 0.732 1.75 0.732 3.786zM15.107 16.375q0 3.429-1.42 6.161t-4.259 4.518l-0.25 0.018q-0.518 0-1.107-0.089 1.482-0.571 2.616-1.83t1.777-2.759 1.045-3.375 0.536-3.438 0.134-3.188q0-1.232-0.054-1.839 0.982 2.857 0.982 5.821zM14.125 10.518v0.036q-1.304-3.821-3.679-7.857 1.571 1.054 2.545 3.33t1.134 4.491zM18.482 14.143q-1.482 0-2.857-1.339 3.893-2.143 5.179-4.411 0.339-0.661 0.375-1-0.75 1.679-2.491 2.973t-3.652 1.741q-0.625-0.964-0.625-2.018 0-0.661 0.304-1.411t0.768-1.214q0.821-0.786 2.804-1.321 1.054-0.286 1.893-1.045t1.321-1.795q1.321 1.875 1.321 4.518 0 1.946-0.429 3.036-0.571 1.375-1.58 2.33t-2.33 0.955z"></path>
</svg>
