<!-- Generated by IcoMoon.io -->
<svg version="1.1" xmlns="http://www.w3.org/2000/svg" width="32" height="32" viewBox="0 0 32 32">
<title>untitled438</title>
<path d="M10.196 10.518q-0.179-0.446-0.607-0.625t-0.875 0q-1.929 0.786-3.411 2.268t-2.268 3.411q-0.179 0.446 0 0.875t0.625 0.607q0.232 0.089 0.429 0.089 0.75 0 1.071-0.714 0.607-1.5 1.759-2.652t2.652-1.759q0.446-0.196 0.625-0.625t0-0.875zM27.018 4.161l0.821 0.821-4.357 4.339 1.214 1.214q0.339 0.339 0.339 0.813t-0.339 0.813l-1.143 1.143q1.589 2.875 1.589 6.125 0 2.554-0.991 4.884t-2.679 4.018-4.018 2.679-4.884 0.991-4.884-0.991-4.018-2.679-2.679-4.018-0.991-4.884 0.991-4.884 2.679-4.018 4.018-2.679 4.884-0.991q3.25 0 6.125 1.589l1.143-1.143q0.339-0.339 0.813-0.339t0.813 0.339l1.214 1.214zM27.161 3.161q-0.179 0.179-0.393 0.179-0.232 0-0.411-0.179l-1.625-1.607q-0.161-0.179-0.161-0.411t0.161-0.411q0.179-0.161 0.411-0.161t0.411 0.161l1.607 1.625q0.179 0.161 0.179 0.402t-0.179 0.402zM31.268 7.268q-0.196 0.161-0.411 0.161t-0.411-0.161l-1.607-1.625q-0.179-0.161-0.179-0.402t0.179-0.402q0.161-0.179 0.402-0.179t0.402 0.179l1.625 1.607q0.161 0.179 0.161 0.411t-0.161 0.411zM32 4q0 0.25-0.161 0.411t-0.411 0.161h-1.714q-0.25 0-0.411-0.161t-0.161-0.411 0.161-0.411 0.411-0.161h1.714q0.25 0 0.411 0.161t0.161 0.411zM28.571 0.571v1.714q0 0.25-0.161 0.411t-0.411 0.161-0.411-0.161-0.161-0.411v-1.714q0-0.25 0.161-0.411t0.411-0.161 0.411 0.161 0.161 0.411zM31.268 1.554l-1.625 1.607q-0.179 0.179-0.393 0.179-0.232 0-0.411-0.179-0.179-0.161-0.179-0.402t0.179-0.402l1.607-1.625q0.179-0.161 0.411-0.161t0.411 0.161q0.161 0.179 0.161 0.411t-0.161 0.411z"></path>
</svg>
