<!-- Generated by IcoMoon.io -->
<svg version="1.1" xmlns="http://www.w3.org/2000/svg" width="41" height="32" viewBox="0 0 41 32">
<title>untitled394</title>
<path d="M11.429 29.143l6.857-3.429v-5.607l-6.857 2.929v6.107zM10.286 21.036l7.214-3.089-7.214-3.089-7.214 3.089zM29.714 29.143l6.857-3.429v-5.607l-6.857 2.929v6.107zM28.571 21.036l7.214-3.089-7.214-3.089-7.214 3.089zM20.571 15.804l6.857-2.946v-4.75l-6.857 2.929v4.768zM19.429 9.036l7.875-3.375-7.875-3.375-7.875 3.375zM38.857 18.286v7.429q0 0.643-0.339 1.196t-0.929 0.839l-8 4q-0.446 0.25-1.018 0.25t-1.018-0.25l-8-4q-0.089-0.036-0.125-0.071-0.036 0.036-0.125 0.071l-8 4q-0.446 0.25-1.018 0.25t-1.018-0.25l-8-4q-0.589-0.286-0.929-0.839t-0.339-1.196v-7.429q0-0.679 0.384-1.25t1.009-0.857l7.75-3.321v-7.143q0-0.679 0.384-1.25t1.009-0.857l8-3.429q0.411-0.179 0.893-0.179t0.893 0.179l8 3.429q0.625 0.286 1.009 0.857t0.384 1.25v7.143l7.75 3.321q0.643 0.286 1.018 0.857t0.375 1.25z"></path>
</svg>
