<!-- Generated by IcoMoon.io -->
<svg version="1.1" xmlns="http://www.w3.org/2000/svg" width="32" height="32" viewBox="0 0 32 32">
<title>untitled564</title>
<path d="M26.661 4.071q-2.946-1.964-6.411-1.964-2.768 0-5.232 1.304t-4.286 3.571q-1.339 1.661-2.134 3.893t-0.866 4.75v0.75q0.071 2.518 0.866 4.75t2.134 3.893q1.821 2.268 4.286 3.571t5.232 1.304q3.464 0 6.411-1.964-2.161 1.929-4.902 3t-5.759 1.071q-0.518 0-0.768-0.018-3.125-0.143-5.946-1.464t-4.857-3.446-3.232-5.018-1.196-6.054q0-3.25 1.268-6.214t3.411-5.107 5.107-3.411 6.214-1.268h0.054q3 0.018 5.723 1.080t4.884 2.991zM32 16q0 3.429-1.375 6.473t-3.804 5.295q-1.857 1.125-3.964 1.125-2.446 0-4.554-1.5 2.75-1 4.527-4.161t1.777-7.232q0-4.054-1.768-7.214t-4.518-4.179q2.125-1.482 4.536-1.482 2.125 0 4.036 1.161 2.411 2.232 3.759 5.268t1.348 6.446z"></path>
</svg>
