<!-- Generated by IcoMoon.io -->
<svg version="1.1" xmlns="http://www.w3.org/2000/svg" width="30" height="32" viewBox="0 0 30 32">
<title>untitled621</title>
<path d="M14.839 12.018q0.571 0 1.054 0.321l3.964 2.643q1.089 0.714 1.964 1.732l2.607 3.036q0.714 0.821 0.518 1.893l-1.286 7.375q-0.107 0.571-0.527 0.955t-0.991 0.455l-9.411 1-6.286 0.571h-0.161q-0.696 0-1.205-0.5t-0.509-1.214q0-0.661 0.482-1.143t1.161-0.571l4.643-0.571h-8q-0.732 0-1.241-0.536t-0.473-1.268q0.036-0.696 0.571-1.161t1.232-0.464l7.893-0.018-9.304-1.143q-0.732-0.089-1.179-0.661t-0.339-1.304q0.107-0.625 0.616-1.027t1.17-0.402h0.179l8.589 1.071-6.268-1.679q-0.679-0.179-1.107-0.741t-0.321-1.223q0.107-0.643 0.589-1.045t1.107-0.402q0.107 0 0.357 0.036l8 1.714 3.875 0.661q0.018 0 0.054 0.009t0.054 0.009q0.411 0 0.545-0.411t-0.223-0.643l-3.321-2.232q-0.625-0.411-0.75-1.134t0.321-1.313q0.482-0.679 1.357-0.679zM13.589 15.625l3.321 2.232-3.893-0.661-0.089-0.036-0.643-0.679-4.25-4.679q-0.018-0.018-0.045-0.063t-0.045-0.063q-0.429-0.554-0.33-1.25t0.67-1.143q0.554-0.411 1.214-0.313t1.143 0.598l2.536 2.625-0.071 0.071t-0.089 0.071q-0.571 0.804-0.411 1.768t0.982 1.518zM29.429 7.518l0.268 4.75q0.071 1.304-0.196 2.625l-0.857 3.911q-0.214 1.054-1.196 1.554l-1.893 0.964q0.036-1.107-0.696-1.946l-2.607-3.036q-0.946-1.089-2.089-1.839l-3.964-2.643q-0.607-0.411-1.357-0.411-0.911 0-1.571 0.661l-4.196-5.571q-0.446-0.589-0.321-1.313t0.732-1.134q0.589-0.393 1.277-0.25t1.116 0.714l4.75 6.286-4.679-8.125q-0.375-0.625-0.188-1.339t0.848-1.054q0.625-0.321 1.295-0.107t1.027 0.821l4.304 7.5-2.429-6.018q-0.268-0.625-0.080-1.321t0.795-1q0.661-0.339 1.357-0.107t1 0.911l3.446 7.411 1.804 3.5q0.143 0.268 0.411 0.313t0.482-0.134 0.196-0.464l-0.214-4q-0.036-0.732 0.464-1.268t1.232-0.554q0.696 0 1.196 0.509t0.536 1.205z"></path>
</svg>
