<!-- Generated by IcoMoon.io -->
<svg version="1.1" xmlns="http://www.w3.org/2000/svg" width="32" height="32" viewBox="0 0 32 32">
<title>untitled437</title>
<path d="M22.857 21.339q0-1.571-1.116-2.696t-2.688-1.125q-1.5 0-2.589 1.036l-4.304-2.143q0.036-0.286 0.036-0.411t-0.036-0.411l4.304-2.143q1.089 1.036 2.589 1.036 1.571 0 2.688-1.125t1.116-2.696-1.116-2.688-2.688-1.116-2.696 1.116-1.125 2.688q0 0.125 0.036 0.411l-4.304 2.143q-1.107-1.018-2.589-1.018-1.571 0-2.688 1.116t-1.116 2.688 1.116 2.687 2.688 1.116q1.482 0 2.589-1.018l4.304 2.143q-0.036 0.286-0.036 0.411 0 1.571 1.125 2.688t2.696 1.116 2.688-1.116 1.116-2.688zM27.429 7.429v17.143q0 2.125-1.509 3.634t-3.634 1.509h-17.143q-2.125 0-3.634-1.509t-1.509-3.634v-17.143q0-2.125 1.509-3.634t3.634-1.509h17.143q2.125 0 3.634 1.509t1.509 3.634z"></path>
</svg>
