<!-- Generated by IcoMoon.io -->
<svg version="1.1" xmlns="http://www.w3.org/2000/svg" width="32" height="32" viewBox="0 0 32 32">
<title>untitled215</title>
<path d="M11.429 6.857h9.143v-2.286h-9.143v2.286zM5.143 6.857v22.857h-1.143q-1.643 0-2.821-1.179t-1.179-2.821v-14.857q0-1.643 1.179-2.821t2.821-1.179h1.143zM25.143 6.857v22.857h-18.286v-22.857h2.286v-2.857q0-0.714 0.5-1.214t1.214-0.5h10.286q0.714 0 1.214 0.5t0.5 1.214v2.857h2.286zM32 10.857v14.857q0 1.643-1.179 2.821t-2.821 1.179h-1.143v-22.857h1.143q1.643 0 2.821 1.179t1.179 2.821z"></path>
</svg>
