<!-- Generated by IcoMoon.io -->
<svg version="1.1" xmlns="http://www.w3.org/2000/svg" width="23" height="32" viewBox="0 0 23 32">
<title>untitled426</title>
<path d="M15.036 10.214q0 1.429-1.018 2.438t-2.429 1.009q-1.071 0-1.982-0.625-1.107 1.196-2.054 2.607-4.411 6.625-3.607 15.339 0.018 0.393-0.223 0.688t-0.616 0.33h-0.089q-0.357 0-0.625-0.241t-0.304-0.598q-0.25-2.25-0.063-4.42t0.527-3.875 0.964-3.321 1.232-2.777 1.321-2.232q1.089-1.607 2.357-2.946-0.286-0.625-0.286-1.375 0-1.429 1.009-2.438t2.438-1.009 2.438 1.009 1.009 2.438zM21.839 10.411q0 2.821-1.393 5.214t-3.795 3.786-5.223 1.393q-1.143 0-2.339-0.25-0.375-0.089-0.58-0.42t-0.116-0.705q0.089-0.357 0.411-0.563t0.696-0.134q0.911 0.232 1.929 0.232 1.732 0 3.321-0.679t2.732-1.821 1.821-2.732 0.679-3.321-0.679-3.321-1.821-2.732-2.732-1.821-3.321-0.679-3.321 0.679-2.732 1.821-1.821 2.732-0.679 3.321q0 2.036 0.929 3.893 0.179 0.357 0.063 0.714t-0.455 0.536-0.705 0.054-0.545-0.464q-1.143-2.196-1.143-4.732 0-2.125 0.83-4.054t2.223-3.321 3.321-2.214 4.036-0.821q2.821 0 5.223 1.393t3.795 3.795 1.393 5.223z"></path>
</svg>
