<!-- Generated by IcoMoon.io -->
<svg version="1.1" xmlns="http://www.w3.org/2000/svg" width="41" height="32" viewBox="0 0 41 32">
<title>untitled493</title>
<path d="M41.089 18.5q0.214 1.839-0.393 3.545t-1.768 2.92-2.83 1.893-3.509 0.554q-2.875-0.196-4.991-2.232t-2.402-4.893q-0.214-1.982 0.491-3.759t2.116-3.045l-1.268-1.911q-1.714 1.429-2.696 3.464t-0.982 4.357q0 0.482-0.33 0.83t-0.813 0.348h-5.804q-0.411 2.929-2.661 4.893t-5.25 1.964q-3.304 0-5.652-2.348t-2.348-5.652 2.348-5.652 5.652-2.348q1.357 0 2.714 0.482l0.429-0.804q-2.196-1.964-5.429-1.964h-1.143q-0.464 0-0.804-0.339t-0.339-0.804 0.339-0.804 0.804-0.339h2.286q1.393 0 2.589 0.241t2.080 0.688 1.277 0.705 0.911 0.652h11.196l-1.518-2.286h-3.964q-0.536 0-0.875-0.402t-0.25-0.938q0.071-0.411 0.411-0.679t0.768-0.268h4.518q0.589 0 0.946 0.5l1.25 1.875 2.036-2.036q0.339-0.339 0.821-0.339h1.804q0.464 0 0.804 0.339t0.339 0.804v2.286q0 0.464-0.339 0.804t-0.804 0.339h-3.196l2.054 3.071q2.339-1.125 4.911-0.643 2.554 0.464 4.357 2.402t2.107 4.527zM8 25.143q2.054 0 3.625-1.295t1.982-3.277h-5.607q-0.625 0-0.982-0.554-0.321-0.571-0.018-1.125l2.625-4.946q-0.839-0.232-1.625-0.232-2.357 0-4.036 1.679t-1.679 4.036 1.679 4.036 4.036 1.679zM33.143 25.143q2.357 0 4.036-1.679t1.679-4.036-1.679-4.036-4.036-1.679q-1.071 0-2.161 0.429l3.107 4.643q0.268 0.411 0.179 0.875t-0.482 0.714q-0.268 0.196-0.643 0.196-0.625 0-0.946-0.518l-3.107-4.643q-1.661 1.696-1.661 4.018 0 2.357 1.679 4.036t4.036 1.679z"></path>
</svg>
