<!-- Generated by IcoMoon.io -->
<svg version="1.1" xmlns="http://www.w3.org/2000/svg" width="41" height="32" viewBox="0 0 41 32">
<title>untitled591</title>
<path d="M40.857 14.375q0.286 0.143 0.286 0.482t-0.286 0.482l-5.714 3.429q-0.143 0.089-0.286 0.089-0.161 0-0.286-0.071-0.286-0.179-0.286-0.5v-2.286h-15.321q0.661 1.036 1.482 2.946 0.286 0.661 0.438 0.982t0.429 0.875 0.482 0.839 0.482 0.607 0.563 0.464 0.589 0.143h1.714v-1.714q0-0.25 0.161-0.411t0.411-0.161h5.714q0.25 0 0.411 0.161t0.161 0.411v5.714q0 0.25-0.161 0.411t-0.411 0.161h-5.714q-0.25 0-0.411-0.161t-0.161-0.411v-1.714h-1.714q-0.571 0-1.089-0.179t-0.911-0.42-0.804-0.723-0.661-0.821-0.598-1.018-0.509-1.027-0.5-1.080q-0.411-0.946-0.661-1.455t-0.643-1.161-0.795-0.955-0.83-0.304h-6.429q-0.393 1.5-1.625 2.464t-2.804 0.964q-1.893 0-3.232-1.339t-1.339-3.232 1.339-3.232 3.232-1.339q1.571 0 2.804 0.964t1.625 2.464h1.857q0.429 0 0.83-0.304t0.795-0.955 0.643-1.161 0.661-1.455q0.339-0.732 0.5-1.080t0.509-1.027 0.598-1.018 0.661-0.821 0.804-0.723 0.911-0.42 1.089-0.179h1.911q0.375-1.018 1.25-1.652t1.982-0.634q1.429 0 2.429 1t1 2.429-1 2.429-2.429 1q-1.107 0-1.982-0.634t-1.25-1.652h-1.911q-0.304 0-0.589 0.143t-0.563 0.464-0.482 0.607-0.482 0.839-0.429 0.875-0.438 0.982q-0.821 1.911-1.482 2.946h19.893v-2.286q0-0.321 0.286-0.5t0.571 0.018z"></path>
</svg>
