<!-- Generated by IcoMoon.io -->
<svg version="1.1" xmlns="http://www.w3.org/2000/svg" width="32" height="32" viewBox="0 0 32 32">
<title>untitled377</title>
<path d="M19.554 20.839q0.286 0.286 0 0.554-1.107 1.107-3.554 1.107t-3.554-1.107q-0.286-0.268 0-0.554 0.107-0.107 0.268-0.107t0.268 0.107q0.857 0.875 3.018 0.875 2.143 0 3.018-0.875 0.107-0.107 0.268-0.107t0.268 0.107zM14.071 17.607q0 0.661-0.464 1.125t-1.125 0.464-1.134-0.464-0.473-1.125q0-0.679 0.473-1.143t1.134-0.464 1.125 0.473 0.464 1.134zM21.125 17.607q0 0.661-0.473 1.125t-1.134 0.464-1.125-0.464-0.464-1.125 0.464-1.134 1.125-0.473 1.134 0.464 0.473 1.143zM25.607 15.464q0-0.875-0.625-1.5t-1.518-0.625-1.536 0.643q-2.321-1.607-5.554-1.714l1.125-5.054 3.571 0.804q0 0.661 0.464 1.125t1.125 0.464 1.134-0.473 0.473-1.134-0.473-1.134-1.134-0.473q-0.964 0-1.429 0.893l-3.946-0.875q-0.339-0.089-0.446 0.286l-1.232 5.571q-3.214 0.125-5.518 1.732-0.625-0.661-1.554-0.661-0.893 0-1.518 0.625t-0.625 1.5q0 0.625 0.33 1.143t0.884 0.786q-0.107 0.482-0.107 1 0 2.536 2.5 4.339t6.018 1.804q3.536 0 6.036-1.804t2.5-4.339q0-0.571-0.125-1.018 0.536-0.268 0.857-0.777t0.321-1.134zM32 16q0 3.25-1.268 6.214t-3.411 5.107-5.107 3.411-6.214 1.268-6.214-1.268-5.107-3.411-3.411-5.107-1.268-6.214 1.268-6.214 3.411-5.107 5.107-3.411 6.214-1.268 6.214 1.268 5.107 3.411 3.411 5.107 1.268 6.214z"></path>
</svg>
