<!-- Generated by IcoMoon.io -->
<svg version="1.1" xmlns="http://www.w3.org/2000/svg" width="32" height="32" viewBox="0 0 32 32">
<title>untitled576</title>
<path d="M31.161 5.304q0.179 0.179 0.179 0.411t-0.179 0.411l-2.518 2.518q-0.5 0.5-1.214 0.5h-24q-0.464 0-0.804-0.339t-0.339-0.804v-4.571q0-0.464 0.339-0.804t0.804-0.339h10.286v-1.143q0-0.464 0.339-0.804t0.804-0.339h2.286q0.464 0 0.804 0.339t0.339 0.804v1.143h9.143q0.714 0 1.214 0.5zM13.714 21.714h4.571v9.143q0 0.464-0.339 0.804t-0.804 0.339h-2.286q-0.464 0-0.804-0.339t-0.339-0.804v-9.143zM28.571 13.714q0.464 0 0.804 0.339t0.339 0.804v4.571q0 0.464-0.339 0.804t-0.804 0.339h-24q-0.714 0-1.214-0.5l-2.518-2.518q-0.179-0.179-0.179-0.411t0.179-0.411l2.518-2.518q0.5-0.5 1.214-0.5h9.143v-3.429h4.571v3.429h10.286z"></path>
</svg>
