<!-- Generated by IcoMoon.io -->
<svg version="1.1" xmlns="http://www.w3.org/2000/svg" width="32" height="32" viewBox="0 0 32 32">
<title>untitled167</title>
<path d="M22.911 9.661l-6.339 6.339 6.339 6.339 2.571-2.571q0.518-0.554 1.25-0.25 0.696 0.304 0.696 1.054v8q0 0.464-0.339 0.804t-0.804 0.339h-8q-0.75 0-1.054-0.714-0.304-0.696 0.25-1.232l2.571-2.571-6.339-6.339-6.339 6.339 2.571 2.571q0.554 0.536 0.25 1.232-0.304 0.714-1.054 0.714h-8q-0.464 0-0.804-0.339t-0.339-0.804v-8q0-0.75 0.714-1.054 0.696-0.304 1.232 0.25l2.571 2.571 6.339-6.339-6.339-6.339-2.571 2.571q-0.339 0.339-0.804 0.339-0.214 0-0.429-0.089-0.714-0.304-0.714-1.054v-8q0-0.464 0.339-0.804t0.804-0.339h8q0.75 0 1.054 0.714 0.304 0.696-0.25 1.232l-2.571 2.571 6.339 6.339 6.339-6.339-2.571-2.571q-0.554-0.536-0.25-1.232 0.304-0.714 1.054-0.714h8q0.464 0 0.804 0.339t0.339 0.804v8q0 0.75-0.696 1.054-0.232 0.089-0.446 0.089-0.464 0-0.804-0.339z"></path>
</svg>
