<!-- Generated by IcoMoon.io -->
<svg version="1.1" xmlns="http://www.w3.org/2000/svg" width="37" height="32" viewBox="0 0 37 32">
<title>untitled474</title>
<path d="M26.125 14.857q0 0.625-0.446 1.080t-1.089 0.455h-12.536q-0.643 0-1.089-0.455t-0.446-1.080 0.446-1.080 1.089-0.455h12.536q0.643 0 1.089 0.455t0.446 1.080zM29.946 14.857q0-1.536-0.411-3.036h-17.536q-0.643 0-1.089-0.446t-0.446-1.071q0-0.643 0.446-1.089t1.089-0.446h16.214q-1.571-2.554-4.196-4.054t-5.714-1.5q-3.161 0-5.848 1.563t-4.25 4.241-1.563 5.839q0 1.536 0.411 3.036h17.536q0.643 0 1.089 0.446t0.446 1.071q0 0.643-0.446 1.089t-1.089 0.446h-16.214q1.571 2.554 4.205 4.054t5.723 1.5q2.357 0 4.518-0.92t3.714-2.482 2.482-3.714 0.929-4.527zM36.571 10.304q0 0.625-0.446 1.071t-1.089 0.446h-2.339q0.304 1.518 0.304 3.036 0 2.982-1.17 5.705t-3.134 4.696-4.688 3.143-5.705 1.17q-4.393 0-8.009-2.375t-5.384-6.25h-3.375q-0.643 0-1.089-0.446t-0.446-1.089q0-0.625 0.446-1.071t1.089-0.446h2.357q-0.304-1.518-0.304-3.036 0-2.982 1.17-5.705t3.134-4.696 4.688-3.143 5.723-1.17q4.375 0 7.991 2.375t5.384 6.25h3.357q0.643 0 1.089 0.446t0.446 1.089z"></path>
</svg>
