<!-- Generated by IcoMoon.io -->
<svg version="1.1" xmlns="http://www.w3.org/2000/svg" width="25" height="32" viewBox="0 0 25 32">
<title>untitled614</title>
<path d="M11.018 30.161q0-0.196-0.232-1.036t-0.554-1.911-0.357-1.232q-0.018-0.071-0.089-0.473t-0.152-0.643-0.241-0.384q-0.268-0.25-0.911-0.25-0.411 0-1.25 0.098t-1.268 0.098q-0.607 0-0.839-0.196-0.107-0.089-0.196-0.277t-0.134-0.357-0.116-0.429-0.089-0.33q-0.661-2.286-0.661-4.554t0.661-4.554q0.018-0.071 0.089-0.33t0.116-0.429 0.134-0.357 0.196-0.277q0.232-0.196 0.839-0.196 0.429 0 1.268 0.098t1.25 0.098q0.643 0 0.911-0.25 0.161-0.143 0.241-0.384t0.152-0.643 0.089-0.473q0.036-0.161 0.357-1.232t0.554-1.911 0.232-1.036q0-0.393-0.777-0.938t-1.348-0.759q-0.357-0.143-0.804-0.143-0.607 0-1.75 0.321-1.018 0.304-1.723 0.723t-1.268 1.179-0.821 1.25-0.813 1.688q-0.107 0.214-0.161 0.339-0.875 1.911-1.214 3.857t-0.339 4.357 0.339 4.357 1.214 3.857q1 2.179 1.482 2.875 1.125 1.625 3.196 2.268l0.107 0.036q1.143 0.321 1.75 0.321 0.446 0 0.804-0.143 0.571-0.214 1.348-0.759t0.777-0.938zM13.857 13.857q-0.464 0-0.804-0.339t-0.339-0.813 0.339-0.813q0.661-0.661 0.661-1.607 0-0.929-0.661-1.625-0.339-0.339-0.339-0.804t0.339-0.804 0.804-0.339 0.804 0.339q1.339 1.339 1.339 3.232t-1.339 3.232q-0.375 0.339-0.804 0.339zM17.089 17.089q-0.482 0-0.804-0.339-0.339-0.339-0.339-0.804t0.339-0.804q2-2.036 2-4.857t-2-4.857q-0.339-0.339-0.339-0.804t0.339-0.804 0.804-0.339 0.804 0.339q2.679 2.679 2.679 6.464t-2.679 6.464q-0.321 0.339-0.804 0.339zM20.321 20.321q-0.482 0-0.804-0.339-0.339-0.339-0.339-0.804t0.339-0.804q1.607-1.625 2.473-3.714t0.866-4.375-0.866-4.375-2.473-3.714q-0.339-0.339-0.339-0.804t0.339-0.804 0.804-0.339 0.804 0.339q1.946 1.946 2.982 4.446t1.036 5.25-1.036 5.25-2.982 4.446q-0.321 0.339-0.804 0.339z"></path>
</svg>
