<!-- Generated by IcoMoon.io -->
<svg version="1.1" xmlns="http://www.w3.org/2000/svg" width="39" height="32" viewBox="0 0 39 32">
<title>untitled615</title>
<path d="M3.429 21.143q-1.179 0-2.018 0.839t-0.839 2.018 0.839 2.018 2.018 0.839 2.018-0.839 0.839-2.018-0.839-2.018-2.018-0.839zM12.571 21.143q-1.179 0-2.018 0.839t-0.839 2.018 0.839 2.018 2.018 0.839 2.018-0.839 0.839-2.018-0.839-2.018-2.018-0.839zM12.571 12q-1.179 0-2.018 0.839t-0.839 2.018 0.839 2.018 2.018 0.839 2.018-0.839 0.839-2.018-0.839-2.018-2.018-0.839zM26.286 21.143q-1.179 0-2.018 0.839t-0.839 2.018 0.839 2.018 2.018 0.839 2.018-0.839 0.839-2.018-0.839-2.018-2.018-0.839zM35.429 21.143q-1.179 0-2.018 0.839t-0.839 2.018 0.839 2.018 2.018 0.839 2.018-0.839 0.839-2.018-0.839-2.018-2.018-0.839zM26.286 12q-1.179 0-2.018 0.839t-0.839 2.018 0.839 2.018 2.018 0.839 2.018-0.839 0.839-2.018-0.839-2.018-2.018-0.839zM35.429 12q-1.179 0-2.018 0.839t-0.839 2.018 0.839 2.018 2.018 0.839 2.018-0.839 0.839-2.018-0.839-2.018-2.018-0.839zM35.429 2.857q-1.179 0-2.018 0.839t-0.839 2.018 0.839 2.018 2.018 0.839 2.018-0.839 0.839-2.018-0.839-2.018-2.018-0.839zM6.857 24q0 1.429-1 2.429t-2.429 1-2.429-1-1-2.429 1-2.429 2.429-1 2.429 1 1 2.429zM16 24q0 1.429-1 2.429t-2.429 1-2.429-1-1-2.429 1-2.429 2.429-1 2.429 1 1 2.429zM6.857 14.857q0 1.429-1 2.429t-2.429 1-2.429-1-1-2.429 1-2.429 2.429-1 2.429 1 1 2.429zM16 14.857q0 1.429-1 2.429t-2.429 1-2.429-1-1-2.429 1-2.429 2.429-1 2.429 1 1 2.429zM6.857 5.714q0 1.429-1 2.429t-2.429 1-2.429-1-1-2.429 1-2.429 2.429-1 2.429 1 1 2.429zM29.714 24q0 1.429-1 2.429t-2.429 1-2.429-1-1-2.429 1-2.429 2.429-1 2.429 1 1 2.429zM16 5.714q0 1.429-1 2.429t-2.429 1-2.429-1-1-2.429 1-2.429 2.429-1 2.429 1 1 2.429zM38.857 24q0 1.429-1 2.429t-2.429 1-2.429-1-1-2.429 1-2.429 2.429-1 2.429 1 1 2.429zM29.714 14.857q0 1.429-1 2.429t-2.429 1-2.429-1-1-2.429 1-2.429 2.429-1 2.429 1 1 2.429zM38.857 14.857q0 1.429-1 2.429t-2.429 1-2.429-1-1-2.429 1-2.429 2.429-1 2.429 1 1 2.429zM29.714 5.714q0 1.429-1 2.429t-2.429 1-2.429-1-1-2.429 1-2.429 2.429-1 2.429 1 1 2.429zM38.857 5.714q0 1.429-1 2.429t-2.429 1-2.429-1-1-2.429 1-2.429 2.429-1 2.429 1 1 2.429z"></path>
</svg>
