<!-- Generated by IcoMoon.io -->
<svg version="1.1" xmlns="http://www.w3.org/2000/svg" width="23" height="32" viewBox="0 0 23 32">
<title>untitled496</title>
<path d="M20.571 10.286q0 3.946-2.634 6.866t-6.509 3.348v4.643h4q0.25 0 0.411 0.161t0.161 0.411v1.143q0 0.25-0.161 0.411t-0.411 0.161h-4v4q0 0.25-0.161 0.411t-0.411 0.161h-1.143q-0.25 0-0.411-0.161t-0.161-0.411v-4h-4q-0.25 0-0.411-0.161t-0.161-0.411v-1.143q0-0.25 0.161-0.411t0.411-0.161h4v-4.643q-2.679-0.286-4.848-1.839t-3.321-4-0.938-5.214q0.196-2.393 1.438-4.446t3.25-3.357 4.384-1.571q3.036-0.339 5.696 0.964t4.214 3.786 1.554 5.464zM2.286 10.286q0 3.304 2.348 5.652t5.652 2.348 5.652-2.348 2.348-5.652-2.348-5.652-5.652-2.348-5.652 2.348-2.348 5.652z"></path>
</svg>
