<!-- Generated by IcoMoon.io -->
<svg version="1.1" xmlns="http://www.w3.org/2000/svg" width="23" height="32" viewBox="0 0 23 32">
<title>untitled507</title>
<path d="M20.571 10.286q0 3.946-2.634 6.866t-6.509 3.348v10.929q0 0.25-0.161 0.411t-0.411 0.161h-1.143q-0.25 0-0.411-0.161t-0.161-0.411v-10.929q-3.875-0.429-6.509-3.348t-2.634-6.866q0-2.089 0.813-3.991t2.196-3.286 3.286-2.196 3.991-0.813 3.991 0.813 3.286 2.196 2.196 3.286 0.813 3.991zM10.286 18.286q3.304 0 5.652-2.348t2.348-5.652-2.348-5.652-5.652-2.348-5.652 2.348-2.348 5.652 2.348 5.652 5.652 2.348z"></path>
</svg>
