<!-- Generated by IcoMoon.io -->
<svg version="1.1" xmlns="http://www.w3.org/2000/svg" width="32" height="32" viewBox="0 0 32 32">
<title>untitled497</title>
<path d="M26.286 2.286q0.464 0 0.804 0.339t0.339 0.804v7.429q0 0.25-0.161 0.411t-0.411 0.161h-1.143q-0.25 0-0.411-0.161t-0.161-0.411v-4.679l-6.821 6.839q2.25 2.786 2.25 6.411 0 2.089-0.813 3.991t-2.196 3.286-3.286 2.196-3.991 0.813-3.991-0.813-3.286-2.196-2.196-3.286-0.813-3.991 0.813-3.991 2.196-3.286 3.286-2.196 3.991-0.813q3.625 0 6.411 2.25l6.821-6.821h-4.661q-0.25 0-0.411-0.161t-0.161-0.411v-1.143q0-0.25 0.161-0.411t0.411-0.161h7.429zM10.286 27.429q3.304 0 5.652-2.348t2.348-5.652-2.348-5.652-5.652-2.348-5.652 2.348-2.348 5.652 2.348 5.652 5.652 2.348z"></path>
</svg>
