<!-- Generated by IcoMoon.io -->
<svg version="1.1" xmlns="http://www.w3.org/2000/svg" width="32" height="32" viewBox="0 0 32 32">
<title>untitled462</title>
<path d="M30.321 1.679q1.679 1.679 1.679 4.045t-1.679 4.027l-4.018 3.982 1.857 1.857q0.179 0.179 0.179 0.411t-0.179 0.411l-3.75 3.75q-0.179 0.179-0.411 0.179t-0.411-0.179l-1.875-1.875-10.768 10.768q-0.661 0.661-1.607 0.661h-3.625l-4.571 2.286-1.143-1.143 2.286-4.571v-3.625q0-0.946 0.661-1.607l10.768-10.768-1.875-1.875q-0.179-0.179-0.179-0.411t0.179-0.411l3.75-3.75q0.179-0.179 0.411-0.179t0.411 0.179l1.857 1.857 3.982-4.018q1.661-1.679 4.027-1.679t4.045 1.679zM9.143 26.286l10.286-10.286-3.429-3.429-10.286 10.286v3.429h3.429z"></path>
</svg>
