<!-- Generated by IcoMoon.io -->
<svg version="1.1" xmlns="http://www.w3.org/2000/svg" width="23" height="32" viewBox="0 0 23 32">
<title>untitled434</title>
<path d="M22.821 3.375v1.304q0 0.518-0.33 1.089t-0.759 0.571q-0.893 0-0.964 0.018-0.464 0.107-0.571 0.554-0.054 0.196-0.054 1.143v20.571q0 0.446-0.321 0.768t-0.768 0.321h-1.929q-0.446 0-0.768-0.321t-0.321-0.768v-21.75h-2.554v21.75q0 0.446-0.313 0.768t-0.777 0.321h-1.929q-0.464 0-0.777-0.321t-0.313-0.768v-8.857q-2.625-0.214-4.375-1.054-2.25-1.036-3.429-3.196-1.143-2.089-1.143-4.625 0-2.964 1.571-5.107 1.571-2.107 3.732-2.839 1.982-0.661 7.446-0.661h8.554q0.446 0 0.768 0.321t0.321 0.768z"></path>
</svg>
