<!-- Generated by IcoMoon.io -->
<svg version="1.1" xmlns="http://www.w3.org/2000/svg" width="41" height="32" viewBox="0 0 41 32">
<title>untitled453</title>
<path d="M5.589 13.875q0 0.911-0.643 1.5-0.518 0.464-1.589 0.464h-0.304v-3.929h0.304q1.089 0 1.589 0.482 0.643 0.554 0.643 1.482zM37.304 12.714q0 0.929-1.143 0.929h-0.339v-1.804h0.357q1.125 0 1.125 0.875zM6.786 13.875q0-1.321-0.893-2.152t-2.304-0.83h-1.696v5.946h1.696q1.321 0 2.125-0.679 1.071-0.911 1.071-2.286zM7.321 16.839h1.161v-5.946h-1.161v5.946zM13.036 15.036q0-0.714-0.366-1.107t-1.348-0.75q-0.518-0.179-0.705-0.339t-0.188-0.411q0-0.286 0.241-0.473t0.616-0.188q0.518 0 0.946 0.482l0.607-0.786q-0.732-0.661-1.75-0.661-0.786 0-1.321 0.491t-0.536 1.205q0 0.625 0.321 0.991t1.143 0.652q0.661 0.232 0.804 0.339 0.339 0.214 0.339 0.607 0 0.357-0.25 0.598t-0.643 0.241q-0.857 0-1.268-0.786l-0.75 0.714q0.786 1.143 2.054 1.143 0.911 0 1.482-0.545t0.571-1.42zM18 16.643v-1.375q-0.661 0.661-1.393 0.661-0.875 0-1.438-0.58t-0.563-1.473q0-0.857 0.563-1.455t1.384-0.598q0.768 0 1.446 0.679v-1.375q-0.714-0.357-1.429-0.357-1.321 0-2.241 0.902t-0.92 2.205 0.911 2.205 2.232 0.902q0.75 0 1.446-0.339zM40 27.429v-9.411q-1.161 0.714-2.58 1.5t-4.241 2.089-5.884 2.455-7.455 2.402-9 2.107h28.018q0.464 0 0.804-0.339t0.339-0.804zM24.804 13.911q0-1.339-0.946-2.286t-2.286-0.946-2.286 0.946-0.946 2.286 0.946 2.286 2.286 0.946 2.286-0.946 0.946-2.286zM27.518 17l2.571-6.107h-1.268l-1.607 4-1.589-4h-1.268l2.536 6.107h0.625zM30.607 16.839h3.286v-1h-2.125v-1.607h2.054v-1h-2.054v-1.321h2.125v-1.018h-3.286v5.946zM37.589 16.839h1.429l-1.875-2.5q1.357-0.286 1.357-1.679 0-0.839-0.554-1.304t-1.554-0.464h-1.732v5.946h1.161v-2.375h0.161zM41.143 4.679v22.643q0 1-0.688 1.696t-1.67 0.696h-36.429q-0.982 0-1.67-0.696t-0.688-1.696v-22.643q0-1 0.688-1.696t1.67-0.696h36.429q0.982 0 1.67 0.696t0.688 1.696z"></path>
</svg>
