<!-- Generated by IcoMoon.io -->
<svg version="1.1" xmlns="http://www.w3.org/2000/svg" width="32" height="32" viewBox="0 0 32 32">
<title>untitled500</title>
<path d="M22.857 0.571q0-0.25 0.161-0.411t0.411-0.161h5.143q0.464 0 0.804 0.339t0.339 0.804v5.143q0 0.25-0.161 0.411t-0.411 0.161h-1.143q-0.25 0-0.411-0.161t-0.161-0.411v-2.393l-4.536 4.554q2.25 2.821 2.25 6.411 0 3.946-2.634 6.866t-6.509 3.348v2.357h1.714q0.25 0 0.411 0.161t0.161 0.411v1.143q0 0.25-0.161 0.411t-0.411 0.161h-1.714v1.714q0 0.25-0.161 0.411t-0.411 0.161h-1.143q-0.25 0-0.411-0.161t-0.161-0.411v-1.714h-1.714q-0.25 0-0.411-0.161t-0.161-0.411v-1.143q0-0.25 0.161-0.411t0.411-0.161h1.714v-2.357q-3.875-0.429-6.509-3.348t-2.634-6.866q0-3.589 2.25-6.411l-0.929-0.946-1.804 1.982q-0.161 0.179-0.393 0.188t-0.411-0.134l-0.857-0.786q-0.179-0.143-0.188-0.384t0.152-0.42l1.875-2.054-1.982-2v2.393q0 0.25-0.161 0.411t-0.411 0.161h-1.143q-0.25 0-0.411-0.161t-0.161-0.411v-5.143q0-0.464 0.339-0.804t0.804-0.339h5.143q0.25 0 0.411 0.161t0.161 0.411v1.143q0 0.25-0.161 0.411t-0.411 0.161h-2.375l1.893 1.911 1.536-1.679q0.161-0.179 0.393-0.188t0.411 0.134l0.857 0.786q0.179 0.143 0.188 0.384t-0.152 0.42l-1.607 1.768 1.018 1q2.821-2.25 6.411-2.25t6.411 2.25l4.554-4.536h-2.393q-0.25 0-0.411-0.161t-0.161-0.411v-1.143zM14.857 22.857q3.304 0 5.652-2.348t2.348-5.652-2.348-5.652-5.652-2.348-5.652 2.348-2.348 5.652 2.348 5.652 5.652 2.348z"></path>
</svg>
