<!-- Generated by IcoMoon.io -->
<svg version="1.1" xmlns="http://www.w3.org/2000/svg" width="41" height="32" viewBox="0 0 41 32">
<title>untitled472</title>
<path d="M13.607 20.571h-5.607q-0.714 0-1.027-0.625t0.116-1.196l3.357-4.482q-1.161-0.554-2.446-0.554-2.357 0-4.036 1.679t-1.679 4.036 1.679 4.036 4.036 1.679q2.054 0 3.625-1.295t1.982-3.277zM10.286 18.286h3.321q-0.321-1.518-1.339-2.643zM18.857 18.286l5.143-6.857h-8.571l-1.768 2.357q1.875 1.839 2.25 4.5h2.946zM38.857 19.429q0-2.357-1.679-4.036t-4.036-1.679q-1.071 0-2.161 0.429l3.107 4.643q0.268 0.411 0.179 0.875t-0.482 0.714q-0.268 0.196-0.643 0.196-0.625 0-0.946-0.518l-3.107-4.643q-1.661 1.696-1.661 4.018 0 2.357 1.679 4.036t4.036 1.679 4.036-1.679 1.679-4.036zM41.143 19.429q0 3.304-2.348 5.652t-5.652 2.348-5.652-2.348-2.348-5.652q0-1.732 0.705-3.277t1.955-2.67l-1.161-1.75-6.304 8.375q-0.321 0.464-0.911 0.464h-3.518q-0.411 2.929-2.661 4.893t-5.25 1.964q-3.304 0-5.652-2.348t-2.348-5.652 2.348-5.652 5.652-2.348q2.036 0 3.839 0.982l2.446-3.268h-4q-0.464 0-0.804-0.339t-0.339-0.804 0.339-0.804 0.804-0.339h6.857v2.286h7.768l-1.518-2.286h-3.964q-0.464 0-0.804-0.339t-0.339-0.804 0.339-0.804 0.804-0.339h4.571q0.589 0 0.946 0.5l4.768 7.143q1.625-0.786 3.429-0.786 3.304 0 5.652 2.348t2.348 5.652z"></path>
</svg>
