<!-- Generated by IcoMoon.io -->
<svg version="1.1" xmlns="http://www.w3.org/2000/svg" width="32" height="32" viewBox="0 0 32 32">
<title>untitled567</title>
<path d="M2.464 2.286h3.518q-1.25 1.143-2.25 2.661-0.643 1-1.054 2.054t-0.536 2.241-0.152 2.143 0.188 2.357 0.375 2.25 0.5 2.438q0.071 0.339 0.107 0.5 0.911 4.25 1.446 5.875 1.018 3.054 2.714 4.911h-4.857q-0.857 0-1.464-0.607t-0.607-1.464v-23.286q0-0.857 0.607-1.464t1.464-0.607zM24.036 2.286h5.5q0.857 0 1.464 0.607t0.607 1.464v23.286q0 0.857-0.607 1.464t-1.464 0.607h-3.179q3.786-3.75 3.5-10.089l-8.375 1.804q-0.036 0.804-0.214 1.464t-0.554 1.286-1.063 1.063-1.67 0.652q-2.196 0.464-3.554-0.714-0.571-0.482-0.946-1.089t-0.92-2.304-1.152-4.607q-0.625-2.911-0.813-4.696t-0.098-2.482 0.411-1.375q0.357-0.732 1.116-1.304t1.83-0.804q0.804-0.214 1.491-0.116t1.196 0.304 0.964 0.625 0.768 0.857 0.616 1.009l8.357-1.786q-1.214-3.125-3.214-5.125z"></path>
</svg>
