<!-- Generated by IcoMoon.io -->
<svg version="1.1" xmlns="http://www.w3.org/2000/svg" width="32" height="32" viewBox="0 0 32 32">
<title>untitled313</title>
<path d="M26.214 8.5q0.25 0.25 0.5 0.643h-8.429v-8.429q0.393 0.25 0.643 0.5zM17.714 11.429h9.714v18.857q0 0.714-0.5 1.214t-1.214 0.5h-24q-0.714 0-1.214-0.5t-0.5-1.214v-28.571q0-0.714 0.5-1.214t1.214-0.5h14.286v9.714q0 0.714 0.5 1.214t1.214 0.5zM20.571 24.571v-1.143q0-0.25-0.161-0.411t-0.411-0.161h-12.571q-0.25 0-0.411 0.161t-0.161 0.411v1.143q0 0.25 0.161 0.411t0.411 0.161h12.571q0.25 0 0.411-0.161t0.161-0.411zM20.571 20v-1.143q0-0.25-0.161-0.411t-0.411-0.161h-12.571q-0.25 0-0.411 0.161t-0.161 0.411v1.143q0 0.25 0.161 0.411t0.411 0.161h12.571q0.25 0 0.411-0.161t0.161-0.411zM20.571 15.429v-1.143q0-0.25-0.161-0.411t-0.411-0.161h-12.571q-0.25 0-0.411 0.161t-0.161 0.411v1.143q0 0.25 0.161 0.411t0.411 0.161h12.571q0.25 0 0.411-0.161t0.161-0.411z"></path>
</svg>
