<!-- Generated by IcoMoon.io -->
<svg version="1.1" xmlns="http://www.w3.org/2000/svg" width="41" height="32" viewBox="0 0 41 32">
<title>untitled528</title>
<path d="M38.857 10.286q0.946 0 1.616 0.67t0.67 1.616v6.857q0 0.946-0.67 1.616t-1.616 0.67v2.857q0 1.179-0.839 2.018t-2.018 0.839h-33.143q-1.179 0-2.018-0.839t-0.839-2.018v-17.143q0-1.179 0.839-2.018t2.018-0.839h33.143q1.179 0 2.018 0.839t0.839 2.018v2.857zM38.857 19.429v-6.857h-2.286v-5.143q0-0.25-0.161-0.411t-0.411-0.161h-33.143q-0.25 0-0.411 0.161t-0.161 0.411v17.143q0 0.25 0.161 0.411t0.411 0.161h33.143q0.25 0 0.411-0.161t0.161-0.411v-5.143h2.286z"></path>
</svg>
