<!-- Generated by IcoMoon.io -->
<svg version="1.1" xmlns="http://www.w3.org/2000/svg" width="36" height="32" viewBox="0 0 36 32">
<title>untitled384</title>
<path d="M21.821 16.589q1.339-0.054 2.563 0.366t2.107 1.045 1.804 1.688 1.5 1.929 1.348 2.152q0.589 1 1.402 1.946t1.348 1.438 1.768 1.58q-0.857 0.536-1.938 1.027t-2.473 1.054-2.036 0.848q-0.786-0.661-1.321-2.054t-0.777-2.938-0.589-3.223-0.759-3.009-1.295-2.196-2.188-0.866l-0.179 0.036-0.107 0.071q0.071 0.089 0.232 0.25 0.107 0.089 0.5 0.42t0.455 0.393 0.339 0.321 0.321 0.366 0.205 0.375 0.188 0.491 0.080 0.554 0.071 0.723l0.018 0.589q0.018 0.464-0.045 1.027t-0.134 0.929-0.223 1.045-0.205 0.946q-0.625-0.018-1.804 0.17t-1.75 0.188q-0.696 0-1.286-0.179-0.036-0.286-0.036-0.839 0-1.321 0.054-1.714 0.036-0.232 0.563-0.741t1.018-1.054 0.473-0.92q-0.429-0.036-0.768 0.429-0.643 0.946-1.991 1.777t-2.438 0.83q-0.446 0-1.348-1.125t-1.902-2.491-1.5-1.723q-0.107-0.071-0.482-0.536-8.607 2-9.161 2-0.286 0-0.5-0.196t-0.214-0.482q0-0.268 0.152-0.473t0.402-0.259l8.679-1.893q-0.143-0.25-0.143-0.446t0.098-0.313 0.286-0.205 0.357-0.125 0.411-0.080 0.33-0.080q0.071-0.018 0.277-0.134t0.313-0.116q0.268 0 0.5 0.286t0.357 0.589q2.911-0.661 3.071-0.661 0.304 0 0.527 0.196t0.223 0.5q0 0.268-0.152 0.464t-0.42 0.25l-3.25 0.714-0.018 0.286q-0.018 0.464 1.455 2.098t1.866 1.634q0.839 0 2.125-1.429t1.286-2.304q0-0.643-0.42-0.946t-0.911-0.33-0.911-0.205-0.42-0.607q0-0.286 0.179-0.607l-1.214-0.339q0.768-0.786 0.768-2.089 0-0.464-0.089-1.036 1.464-0.286 2.571-0.286 0.786 0 1.277 0.027t0.866 0.152 0.554 0.241 0.366 0.438 0.277 0.598 0.304 0.848 0.429 1.071l0.893-0.446q-0.054 0.714-0.411 1.071t-0.759 0.375-0.714 0.116-0.295 0.366zM22.893 12.393q-0.089-0.089-0.241-0.277t-0.214-0.259-0.188-0.205-0.179-0.188l-0.143-0.143t-0.152-0.134-0.143-0.089-0.152-0.080q-0.125-0.054-0.259-0.089t-0.366-0.045-0.393-0.009h-1.25q-2.25 0-3.875 0.768 0.286-0.536 0.643-0.83t0.964-0.527 1.17-0.643 0.821-0.652 0.893-0.982 0.777-0.902q0.214 0.161 0.5 0.563t0.571 0.652 0.679 0.232l0.214-0.018v1.357l0.393 0.018q4.411-1.696 6.625-3.393 0.5-0.375 0.893-0.696t0.759-0.67 0.589-0.554 0.527-0.607 0.429-0.554 0.438-0.661 0.411-0.679 0.482-0.848 0.527-0.946l0.125-0.161q-0.036 0.946-0.768 2.482-1.411 2.946-3.661 4.714t-5.464 2.536q-0.25 0.054-0.75 0.134t-0.893 0.17-0.696 0.25q0.054 0.339 0.438 0.821t0.384 0.607q0 0.196-0.464 0.536zM18.946 28.839q0.696-0.464 2.348-0.848t2.616-0.384q0.161 0 0.402 0.277t0.5 0.759 0.464 0.893 0.429 0.911 0.259 0.589q-2.161 0.804-4.357 0.804-1.089 0-2.232-0.196zM14.679 17.286l0.857-0.214 1.946 3.161-1.304 0.857zM23.625 26.518q0.054 0.268 0.054 0.286 0 0.125-0.313 0.259t-0.821 0.232-0.964 0.17-0.955 0.134-0.571 0.080l-0.125-0.768q0.375-0.036 1.080-0.152t1.286-0.179 1.080-0.063h0.25zM15.464 15.304l-1.714 0.357-0.107-0.304q0.179-0.018 0.58-0.125t0.616-0.107q0.339 0 0.625 0.179zM18.946 26.625h0.554l0.179 1.482-0.732 0.214v-1.696zM34.821 0.018v0zM34.821 0.018l-0.018 0.089-0.036 0.036 0.018-0.054zM34.821 0.018l0.018-0.018z"></path>
</svg>
