<!-- Generated by IcoMoon.io -->
<svg version="1.1" xmlns="http://www.w3.org/2000/svg" width="27" height="32" viewBox="0 0 27 32">
<title>untitled620</title>
<path d="M13.286 5.446q0-0.429-0.036-0.688t-0.152-0.536-0.375-0.411-0.67-0.134q-0.696 0-1.393 0.411-1.875 1.036-2.839 3.402t-0.964 4.813q0 0.786 0.152 1.527t0.473 1.438 0.938 1.116 1.455 0.42q0.071 0 0.321 0.009t0.357 0 0.286-0.054 0.268-0.152 0.125-0.286q0.286-1.375 0.857-4.134t0.857-4.134q0.339-1.625 0.339-2.607zM26.75 17.161q0 0.125-0.134 0.241t-0.277 0.116l-0.107-0.018q-0.393-0.054-1.107-0.196t-1.286-0.223-1.125-0.080q-2.982 0-6.268 1.661-0.268 0.143-0.375 0.482-0.179 0.643-0.438 1.884t-0.402 1.795q-0.411 1.625-1.25 3.205t-2.009 2.938-2.759 2.196-3.304 0.839q-2.411 0-3.83-1.491t-1.42-3.92q0-0.946 0.348-2.089t1.125-2.080 1.741-0.938q0.679 0 2.143 0.598t1.482 1.098q0 0.018-0.295 0.223t-0.705 0.554-0.821 0.795-0.696 1.089-0.286 1.321q0 0.589 0.295 0.946t0.866 0.357q0.804 0 1.518-0.563t1.188-1.393 0.857-1.884 0.58-1.911 0.286-1.607v-0.161q0-0.036-0.063-0.063t-0.152-0.027h-0.179t-0.179 0.009-0.107 0.009q-4.054 0-6.286-2.188t-2.232-6.223q0-1.929 0.616-3.946t1.714-3.75 2.786-2.991 3.652-1.598q0.929-0.161 1.893-0.161 6.679 0 6.679 6.429 0 1.75-0.679 4.875t-0.768 3.768l0.054 0.054q1.804-1.018 3.259-1.571t2.991-0.554q0.393 0 0.946 0.232 0.339 0.125 1.429 1.83t1.089 2.080z"></path>
</svg>
