<!-- Generated by IcoMoon.io -->
<svg version="1.1" xmlns="http://www.w3.org/2000/svg" width="41" height="32" viewBox="0 0 41 32">
<title>untitled522</title>
<path d="M27.214 27.875q0 1.214-0.857 2.071t-2.071 0.857-2.080-0.857-0.866-2.071 0.866-2.080 2.080-0.866 2.071 0.866 0.857 2.080zM13.839 27.875q0 1.214-0.866 2.071t-2.080 0.857-2.071-0.857-0.857-2.071 0.857-2.080 2.071-0.866 2.080 0.866 0.866 2.080zM0 1.196q1.018 1.071 1.973 1.866t2.161 1.464 2.429 1.125 2.964 0.813 3.571 0.563 4.464 0.33 5.429 0.17 6.652 0.045q2.482 0 4.366 0.089t3.232 0.295 2.214 0.491 1.268 0.705 0.429 0.92-0.348 1.143-1.009 1.366-1.598 1.625-2.071 1.866-2.482 2.125q-3.304 2.804-5.107 4.411 0.518-0.911 1.366-1.946t1.679-1.884 1.688-1.759 1.482-1.634 0.964-1.438 0.232-1.25-0.813-0.991-2.080-0.732-3.643-0.42-5.429-0.089q-3 0.036-5.607-0.107t-4.571-0.411-3.652-0.732-2.848-0.92-2.188-1.116-1.634-1.188-1.214-1.277-0.902-1.241-0.714-1.214-0.652-1.063z"></path>
</svg>
