<!-- Generated by IcoMoon.io -->
<svg version="1.1" xmlns="http://www.w3.org/2000/svg" width="41" height="32" viewBox="0 0 41 32">
<title>untitled617</title>
<path d="M18.429 17.143q-1.054-0.036-1.5-0.982-0.304-0.607-0.857-0.955t-1.214-0.348q-0.946 0-1.616 0.67t-0.67 1.616q0 1 0.643 1.589l0.179 0.143q0.607 0.554 1.464 0.554 0.661 0 1.214-0.348t0.857-0.955q0.446-0.946 1.5-0.982zM28.571 14.857q0-1-0.643-1.589l-0.179-0.143q-0.607-0.554-1.464-0.554-0.661 0-1.214 0.348t-0.857 0.955q-0.446 0.946-1.5 0.982 1.054 0.036 1.5 0.982 0.304 0.607 0.857 0.955t1.214 0.348q0.946 0 1.616-0.67t0.67-1.616zM20.964 10.911q-0.304 0.625-0.982 0.857t-1.304-0.071q-1.107-0.554-2.393-0.554-0.911 0-1.768 0.304 0.054 0 0.17-0.009t0.17-0.009q1.643 0 3.045 0.893t2.116 2.375q0.304 0.643 0.063 1.313t-0.884 0.973q-0.321 0.161-0.696 0.161 0.375 0 0.696 0.161 0.643 0.304 0.884 0.973t-0.063 1.313q-0.714 1.482-2.116 2.375t-3.045 0.893h-0.107q-0.286-0.036-0.786-0.071l-5.179-0.482-4.268 2.143q-0.25 0.125-0.518 0.125-0.714 0-1.018-0.625l-2.857-5.714q-0.196-0.411-0.071-0.848t0.518-0.67l3.732-2.125 2.643-4.768q0.304-2.768 1.634-5.205t3.491-4.223q0.554-0.446 1.259-0.384t1.152 0.616 0.384 1.25-0.616 1.161q-1.25 1.054-2.089 2.286 2.196-1.5 4.768-1.804 0.714-0.089 1.277 0.339t0.634 1.143q0.089 0.714-0.339 1.277t-1.143 0.634q-1.5 0.179-2.839 0.982 0.821-0.179 1.768-0.179 2.054 0 3.893 0.893 0.643 0.321 0.875 0.991t-0.089 1.313zM38.161 8.054l2.857 5.714q0.196 0.411 0.071 0.848t-0.518 0.67l-3.732 2.125-2.643 4.768q-0.304 2.768-1.634 5.205t-3.491 4.223q-0.464 0.393-1.089 0.393-0.804 0-1.321-0.625-0.446-0.554-0.384-1.25t0.616-1.161q1.25-1.054 2.089-2.286-2.196 1.5-4.768 1.804-0.071 0.018-0.214 0.018-0.643 0-1.134-0.429t-0.563-1.071q-0.089-0.714 0.339-1.277t1.143-0.634q1.5-0.179 2.839-0.982-0.821 0.179-1.768 0.179-2.054 0-3.893-0.893-0.643-0.321-0.875-0.991t0.089-1.313q0.304-0.625 0.982-0.857t1.304 0.071q1.107 0.554 2.393 0.554 0.911 0 1.768-0.304-0.054 0-0.17 0.009t-0.17 0.009q-1.643 0-3.045-0.893t-2.116-2.375q-0.304-0.643-0.063-1.313t0.884-0.973q0.321-0.161 0.696-0.161-0.375 0-0.696-0.161-0.643-0.304-0.884-0.973t0.063-1.313q0.714-1.482 2.116-2.375t3.045-0.893h0.125q0.25 0.036 0.75 0.071l5.196 0.482 4.268-2.143q0.25-0.125 0.518-0.125 0.714 0 1.018 0.625z"></path>
</svg>
