<svg width="63" height="39" viewBox="0 0 63 39" fill="none" xmlns="http://www.w3.org/2000/svg">
<path d="M0.318 37.735L6.89 1.324C6.92533 1.18266 7.01367 1.112 7.155 1.112H14.84C14.9813 1.112 15.0697 1.18266 15.105 1.324L21.412 37.735C21.4473 37.9117 21.3767 38 21.2 38H15.317C15.1757 38 15.0873 37.9117 15.052 37.735L14.469 33.866H7.261L6.678 37.735C6.64267 37.9117 6.55433 38 6.413 38H0.53C0.388667 38 0.318 37.9117 0.318 37.735ZM8.321 28.195H13.409L11.236 13.302L10.918 11.341L10.706 13.302L8.321 28.195ZM27.502 38C27.3607 38 27.29 37.9117 27.29 37.735V7.525H20.4C20.2234 7.525 20.135 7.43666 20.135 7.26L20.188 1.324C20.188 1.18266 20.2587 1.112 20.4 1.112H40.54C40.7167 1.112 40.805 1.18266 40.805 1.324V7.26C40.805 7.43666 40.7344 7.525 40.593 7.525H33.65L33.703 37.735C33.703 37.9117 33.6324 38 33.491 38H27.502ZM52.1739 38.53C50.2659 38.53 48.5169 38.053 46.9269 37.099C45.3723 36.1097 44.1179 34.82 43.1639 33.23C42.2453 31.6047 41.7859 29.8203 41.7859 27.877V25.439C41.7859 25.2623 41.8743 25.174 42.0509 25.174H47.9869C48.1283 25.174 48.1989 25.2623 48.1989 25.439V27.877C48.1989 29.043 48.5876 30.05 49.3649 30.898C50.1423 31.7107 51.0786 32.117 52.1739 32.117C53.2693 32.117 54.2056 31.693 54.9829 30.845C55.7603 29.997 56.1489 29.0077 56.1489 27.877C56.1489 26.5697 55.3009 25.439 53.6049 24.485C53.0396 24.167 52.1563 23.6723 50.9549 23.001C49.7536 22.3297 48.6229 21.6937 47.5629 21.093C45.6196 19.9623 44.1709 18.549 43.2169 16.853C42.2983 15.1217 41.8389 13.1783 41.8389 11.023C41.8389 9.04433 42.3159 7.27767 43.2699 5.723C44.2239 4.133 45.4783 2.87866 47.0329 1.96C48.6229 1.04133 50.3366 0.581998 52.1739 0.581998C54.0466 0.581998 55.7603 1.059 57.3149 2.013C58.9049 2.93166 60.1593 4.186 61.0779 5.776C62.0319 7.33067 62.5089 9.07967 62.5089 11.023V15.369C62.5089 15.5103 62.4383 15.581 62.2969 15.581H56.3609C56.2196 15.581 56.1489 15.5103 56.1489 15.369L56.0959 11.023C56.0959 9.78633 55.7073 8.77933 54.9299 8.002C54.1526 7.22467 53.2339 6.836 52.1739 6.836C51.0786 6.836 50.1423 7.26 49.3649 8.108C48.5876 8.92067 48.1989 9.89233 48.1989 11.023C48.1989 12.189 48.4463 13.1607 48.9409 13.938C49.4356 14.7153 50.3366 15.4573 51.6439 16.164C51.8206 16.27 52.1563 16.4643 52.6509 16.747C53.1809 16.9943 53.7463 17.2947 54.3469 17.648C54.9476 17.966 55.4776 18.2487 55.9369 18.496C56.4316 18.7433 56.7319 18.9023 56.8379 18.973C58.6046 19.9623 60.0003 21.1813 61.0249 22.63C62.0496 24.0433 62.5619 25.7923 62.5619 27.877C62.5619 29.891 62.0849 31.7107 61.1309 33.336C60.2123 34.926 58.9579 36.198 57.3679 37.152C55.8133 38.0707 54.0819 38.53 52.1739 38.53Z" fill="white"/>
</svg>
