<svg version="1.1" id="Layer_1" xmlns="http://www.w3.org/2000/svg" x="0" y="0" viewBox="0 0 55 55" xml:space="preserve"><style>.st0{fill:#fff}</style><g id="XMLID_133_"><g id="XMLID_135_"><g id="XMLID_137_"><path id="XMLID_138_" class="st0" d="M18.8 41.3V21h3.8c.4 0 .7.1 1 .3.3.2.4.4.5.8l.4 1.2c.4-.4.8-.7 1.2-1 .4-.3.9-.6 1.3-.8.5-.2 1-.4 1.5-.5.6-.1 1.2-.2 1.8-.2 1.1 0 2.1.2 3 .6.9.4 1.6.9 2.2 1.6.6.7 1 1.5 1.3 2.5.3.9.5 2 .5 3.1v12.9h-6.1V28.4c0-1-.2-1.8-.7-2.3-.5-.6-1.1-.8-2-.8-.7 0-1.3.1-1.9.4-.6.3-1.1.7-1.7 1.2v14.5h-6.1z"/></g><circle id="XMLID_136_" class="st0" cx="20.9" cy="15.9" r="3"/></g><circle id="XMLID_134_" cx="27.5" cy="27.5" r="25" fill="none" stroke="#fff" stroke-width="3" stroke-miterlimit="10"/></g></svg>