<!-- Generated by IcoMoon.io -->
<svg version="1.1" xmlns="http://www.w3.org/2000/svg" width="32" height="32" viewBox="0 0 32 32">
<title>activity</title>
<path d="M29.333 15.333h-5.333c-0.533 0-1.067 0.4-1.2 0.933l-2.8 8.133-6.8-20.133c-0.133-0.533-0.667-0.933-1.2-0.933s-1.067 0.4-1.2 0.933l-3.733 11.067h-4.4c-0.8 0-1.333 0.533-1.333 1.333s0.533 1.333 1.333 1.333h5.333c0.533 0 1.067-0.4 1.2-0.933l2.8-8.133 6.8 20.267c0.133 0.533 0.667 0.933 1.2 0.933s1.067-0.4 1.2-0.933l3.733-11.067h4.4c0.8 0 1.333-0.533 1.333-1.333s-0.533-1.467-1.333-1.467z"></path>
</svg>
