<!-- Generated by IcoMoon.io -->
<svg version="1.1" xmlns="http://www.w3.org/2000/svg" width="32" height="32" viewBox="0 0 32 32">
<title>airplay</title>
<path d="M26.667 3.333h-21.333c-2.267 0-4 1.733-4 4v13.333c0 2.267 1.733 4 4 4h1.333c0.8 0 1.333-0.533 1.333-1.333s-0.533-1.333-1.333-1.333h-1.333c-0.8 0-1.333-0.533-1.333-1.333v-13.333c0-0.8 0.533-1.333 1.333-1.333h21.333c0.8 0 1.333 0.533 1.333 1.333v13.333c0 0.8-0.533 1.333-1.333 1.333h-1.333c-0.8 0-1.333 0.533-1.333 1.333s0.533 1.333 1.333 1.333h1.333c2.267 0 4-1.733 4-4v-13.333c0-2.267-1.733-4-4-4zM17.067 19.867c-0.533-0.667-1.6-0.667-2 0l-6.667 8c-0.267 0.4-0.4 0.933-0.133 1.467 0.133 0.4 0.533 0.667 1.067 0.667h13.333c0.533 0 0.933-0.267 1.2-0.8s0.133-1.067-0.133-1.467l-6.667-7.867zM12.133 27.333l3.867-4.533 3.867 4.533h-7.733z"></path>
</svg>
