<!-- Generated by IcoMoon.io -->
<svg version="1.1" xmlns="http://www.w3.org/2000/svg" width="32" height="32" viewBox="0 0 32 32">
<title>align-justify</title>
<path d="M28 12.667h-24c-0.8 0-1.333 0.533-1.333 1.333s0.533 1.333 1.333 1.333h24c0.8 0 1.333-0.533 1.333-1.333s-0.533-1.333-1.333-1.333zM4 10h24c0.8 0 1.333-0.533 1.333-1.333s-0.533-1.333-1.333-1.333h-24c-0.8 0-1.333 0.533-1.333 1.333s0.533 1.333 1.333 1.333zM28 18h-24c-0.8 0-1.333 0.533-1.333 1.333s0.533 1.333 1.333 1.333h24c0.8 0 1.333-0.533 1.333-1.333s-0.533-1.333-1.333-1.333zM28 23.333h-24c-0.8 0-1.333 0.533-1.333 1.333s0.533 1.333 1.333 1.333h24c0.8 0 1.333-0.533 1.333-1.333s-0.533-1.333-1.333-1.333z"></path>
</svg>
