<!-- Generated by IcoMoon.io -->
<svg version="1.1" xmlns="http://www.w3.org/2000/svg" width="32" height="32" viewBox="0 0 32 32">
<title>anchor</title>
<path d="M29.333 15.333h-4c-0.8 0-1.333 0.533-1.333 1.333s0.533 1.333 1.333 1.333h2.533c-0.667 5.6-5.067 10-10.533 10.533v-16c2.267-0.533 4-2.667 4-5.2 0-2.933-2.4-5.333-5.333-5.333s-5.333 2.4-5.333 5.333c0 2.533 1.733 4.533 4 5.2v16.133c-5.6-0.667-10-5.067-10.533-10.533h2.533c0.8 0 1.333-0.533 1.333-1.333s-0.533-1.333-1.333-1.333h-4c-0.8 0-1.333 0.533-1.333 1.333 0 8.133 6.533 14.667 14.667 14.667s14.667-6.533 14.667-14.667c0-0.933-0.533-1.467-1.333-1.467zM13.333 7.333c0-1.467 1.2-2.667 2.667-2.667s2.667 1.2 2.667 2.667-1.2 2.667-2.667 2.667c-1.467 0-2.667-1.2-2.667-2.667z"></path>
</svg>
