<!-- Generated by IcoMoon.io -->
<svg version="1.1" xmlns="http://www.w3.org/2000/svg" width="32" height="32" viewBox="0 0 32 32">
<title>aperture</title>
<path d="M27.867 25.2c1.733-2.4 2.8-5.333 2.8-8.533 0-2-0.4-4-1.2-5.733 0 0 0-0.133 0-0.133-2-4.667-6.4-8-11.733-8.667 0 0-0.133 0-0.133 0-0.533-0.133-1.067-0.133-1.6-0.133-4.8 0-9.067 2.267-11.733 5.867 0 0.133-0.133 0.133-0.133 0.267-1.733 2.4-2.8 5.333-2.8 8.533 0 2 0.4 4 1.2 5.867 0 0 0 0.133 0 0.133 2 4.533 6.4 8 11.6 8.667 0 0 0.133 0 0.133 0 0.533 0 1.067 0.133 1.6 0.133 4.8 0 9.067-2.267 11.733-5.867 0.133-0.133 0.267-0.267 0.267-0.4zM18.267 20.667h-4.667l-2.267-4 2.267-4h4.667l2.267 4-2.267 4zM4 16.667c0-1.867 0.4-3.733 1.2-5.333l5.333 9.333h-5.867c-0.4-1.2-0.667-2.533-0.667-4zM21.333 12.667h5.867c0.4 1.2 0.667 2.533 0.667 4 0 1.867-0.4 3.733-1.2 5.333l-5.333-9.333zM26 10h-10.8l2.933-5.067c3.333 0.533 6.133 2.4 7.867 5.067zM15.2 4.667l-5.333 9.333-2.933-5.067c2-2.4 4.933-4 8.267-4.267zM6 23.333h10.8l-2.933 5.067c-3.333-0.533-6.133-2.4-7.867-5.067zM16.8 28.667l5.333-9.333 2.933 5.067c-2 2.4-4.933 4-8.267 4.267z"></path>
</svg>
