<!-- Generated by IcoMoon.io -->
<svg version="1.1" xmlns="http://www.w3.org/2000/svg" width="32" height="32" viewBox="0 0 32 32">
<title>archive</title>
<path d="M30.667 3.333h-29.333c-0.8 0-1.333 0.533-1.333 1.333v6.667c0 0.8 0.533 1.333 1.333 1.333h1.333v16c0 0.8 0.533 1.333 1.333 1.333h24c0.8 0 1.333-0.533 1.333-1.333v-16h1.333c0.8 0 1.333-0.533 1.333-1.333v-6.667c0-0.8-0.533-1.333-1.333-1.333zM26.667 27.333h-21.333v-14.667h21.333v14.667zM29.333 10h-26.667v-4h26.667v4zM13.333 18h5.333c0.8 0 1.333-0.533 1.333-1.333s-0.533-1.333-1.333-1.333h-5.333c-0.8 0-1.333 0.533-1.333 1.333s0.533 1.333 1.333 1.333z"></path>
</svg>
