<!-- Generated by IcoMoon.io -->
<svg version="1.1" xmlns="http://www.w3.org/2000/svg" width="32" height="32" viewBox="0 0 32 32">
<title>arrow-up-left</title>
<path d="M12.533 11.333h10.133c0.8 0 1.333-0.533 1.333-1.333s-0.533-1.333-1.333-1.333h-13.333c-0.133 0-0.4 0-0.533 0.133-0.267 0.133-0.533 0.4-0.667 0.667-0.133 0.133-0.133 0.4-0.133 0.533v13.333c0 0.8 0.533 1.333 1.333 1.333s1.333-0.533 1.333-1.333v-10.133l11.067 11.067c0.267 0.267 0.667 0.4 0.933 0.4s0.667-0.133 0.933-0.4c0.533-0.533 0.533-1.333 0-1.867l-11.067-11.067z"></path>
</svg>
