<!-- Generated by IcoMoon.io -->
<svg version="1.1" xmlns="http://www.w3.org/2000/svg" width="32" height="32" viewBox="0 0 32 32">
<title>arrow-down-left</title>
<path d="M22.667 22h-10.133l11.067-11.067c0.533-0.533 0.533-1.333 0-1.867s-1.333-0.533-1.867 0l-11.067 11.067v-10.133c0-0.8-0.533-1.333-1.333-1.333s-1.333 0.533-1.333 1.333v13.333c0 0.133 0 0.4 0.133 0.533 0.133 0.267 0.4 0.533 0.667 0.667 0.133 0.133 0.4 0.133 0.533 0.133h13.333c0.8 0 1.333-0.533 1.333-1.333s-0.533-1.333-1.333-1.333z"></path>
</svg>
