<!-- Generated by IcoMoon.io -->
<svg version="1.1" xmlns="http://www.w3.org/2000/svg" width="32" height="32" viewBox="0 0 32 32">
<title>arrow-up-right</title>
<path d="M23.867 9.467c-0.133-0.267-0.4-0.533-0.667-0.667-0.133-0.133-0.4-0.133-0.533-0.133h-13.333c-0.8 0-1.333 0.533-1.333 1.333s0.533 1.333 1.333 1.333h10.133l-11.067 11.067c-0.533 0.533-0.533 1.333 0 1.867 0.267 0.267 0.533 0.4 0.933 0.4s0.667-0.133 0.933-0.4l11.067-11.067v10.133c0 0.8 0.533 1.333 1.333 1.333s1.333-0.533 1.333-1.333v-13.333c0-0.133 0-0.4-0.133-0.533z"></path>
</svg>
