<!-- Generated by IcoMoon.io -->
<svg version="1.1" xmlns="http://www.w3.org/2000/svg" width="32" height="32" viewBox="0 0 32 32">
<title>arrow-right-circle</title>
<path d="M16 2c-8.133 0-14.667 6.533-14.667 14.667s6.533 14.667 14.667 14.667 14.667-6.533 14.667-14.667-6.533-14.667-14.667-14.667zM16 28.667c-6.667 0-12-5.333-12-12s5.333-12 12-12c6.667 0 12 5.333 12 12s-5.333 12-12 12zM22.533 16.133c-0.133-0.133-0.133-0.267-0.267-0.4l-5.333-5.333c-0.533-0.533-1.333-0.533-1.867 0s-0.533 1.333 0 1.867l3.067 3.067h-7.467c-0.8 0-1.333 0.533-1.333 1.333s0.533 1.333 1.333 1.333h7.467l-3.067 3.067c-0.533 0.533-0.533 1.333 0 1.867 0.267 0.267 0.667 0.4 0.933 0.4s0.667-0.133 0.933-0.4l5.333-5.333c0.133-0.133 0.267-0.267 0.267-0.4 0.133-0.4 0.133-0.667 0-1.067z"></path>
</svg>
