<!-- Generated by IcoMoon.io -->
<svg version="1.1" xmlns="http://www.w3.org/2000/svg" width="32" height="32" viewBox="0 0 32 32">
<title>arrow-up-circle</title>
<path d="M16 2c-8.133 0-14.667 6.533-14.667 14.667s6.533 14.667 14.667 14.667 14.667-6.533 14.667-14.667-6.533-14.667-14.667-14.667zM16 28.667c-6.667 0-12-5.333-12-12s5.333-12 12-12c6.667 0 12 5.333 12 12s-5.333 12-12 12zM16.933 10.4c-0.133-0.133-0.267-0.267-0.4-0.267-0.267-0.133-0.667-0.133-1.067 0-0.133 0.133-0.267 0.133-0.4 0.267l-5.333 5.333c-0.533 0.533-0.533 1.333 0 1.867s1.333 0.533 1.867 0l3.067-3.067v7.467c0 0.8 0.533 1.333 1.333 1.333s1.333-0.533 1.333-1.333v-7.467l3.067 3.067c0.267 0.267 0.667 0.4 0.933 0.4s0.667-0.133 0.933-0.4c0.533-0.533 0.533-1.333 0-1.867l-5.333-5.333z"></path>
</svg>
