<!-- Generated by IcoMoon.io -->
<svg version="1.1" xmlns="http://www.w3.org/2000/svg" width="32" height="32" viewBox="0 0 32 32">
<title>arrow-down-right</title>
<path d="M24 10c0-0.8-0.533-1.333-1.333-1.333s-1.333 0.533-1.333 1.333v10.133l-11.067-11.067c-0.533-0.533-1.333-0.533-1.867 0s-0.533 1.333 0 1.867l11.067 11.067h-10.133c-0.8 0-1.333 0.533-1.333 1.333s0.533 1.333 1.333 1.333h13.333c0.133 0 0.4 0 0.533-0.133 0.267-0.133 0.533-0.4 0.667-0.667 0.133-0.133 0.133-0.4 0.133-0.533v-13.333z"></path>
</svg>
