<!-- Generated by IcoMoon.io -->
<svg version="1.1" xmlns="http://www.w3.org/2000/svg" width="32" height="32" viewBox="0 0 32 32">
<title>arrow-down</title>
<path d="M26.267 15.733c-0.533-0.533-1.333-0.533-1.867 0l-7.067 7.067v-15.467c0-0.8-0.533-1.333-1.333-1.333s-1.333 0.533-1.333 1.333v15.467l-7.067-7.067c-0.533-0.533-1.333-0.533-1.867 0s-0.533 1.333 0 1.867l9.333 9.333c0.133 0.133 0.267 0.267 0.4 0.267 0.133 0.133 0.4 0.133 0.533 0.133s0.4 0 0.533-0.133c0.133-0.133 0.267-0.133 0.4-0.267l9.333-9.333c0.533-0.533 0.533-1.333 0-1.867z"></path>
</svg>
