<!-- Generated by IcoMoon.io -->
<svg version="1.1" xmlns="http://www.w3.org/2000/svg" width="32" height="32" viewBox="0 0 32 32">
<title>arrow-up</title>
<path d="M26.267 15.733l-9.333-9.333c-0.133-0.133-0.267-0.267-0.4-0.267-0.267-0.133-0.667-0.133-1.067 0-0.133 0.133-0.267 0.133-0.4 0.267l-9.333 9.333c-0.533 0.533-0.533 1.333 0 1.867s1.333 0.533 1.867 0l7.067-7.067v15.467c0 0.8 0.533 1.333 1.333 1.333s1.333-0.533 1.333-1.333v-15.467l7.067 7.067c0.267 0.267 0.667 0.4 0.933 0.4s0.667-0.133 0.933-0.4c0.533-0.533 0.533-1.333 0-1.867z"></path>
</svg>
