<!-- Generated by IcoMoon.io -->
<svg version="1.1" xmlns="http://www.w3.org/2000/svg" width="32" height="32" viewBox="0 0 32 32">
<title>arrow-left</title>
<path d="M25.333 15.333h-15.467l7.067-7.067c0.533-0.533 0.533-1.333 0-1.867s-1.333-0.533-1.867 0l-9.333 9.333c-0.133 0.133-0.267 0.267-0.267 0.4-0.133 0.267-0.133 0.667 0 1.067 0.133 0.133 0.133 0.267 0.267 0.4l9.333 9.333c0.267 0.267 0.667 0.4 0.933 0.4s0.667-0.133 0.933-0.4c0.533-0.533 0.533-1.333 0-1.867l-7.067-7.067h15.467c0.8 0 1.333-0.533 1.333-1.333s-0.533-1.333-1.333-1.333z"></path>
</svg>
