<!-- Generated by IcoMoon.io -->
<svg version="1.1" xmlns="http://www.w3.org/2000/svg" width="32" height="32" viewBox="0 0 32 32">
<title>at-sign</title>
<path d="M16 2c-3.867 0-7.6 1.467-10.4 4.267s-4.267 6.533-4.267 10.4c0 8.133 6.533 14.667 14.667 14.667 3.2 0 6.4-1.067 8.933-3.067 0.533-0.4 0.667-1.333 0.267-1.867s-1.333-0.667-1.867-0.267c-2.133 1.6-4.667 2.533-7.333 2.533-6.667 0-12-5.333-12-12 0-3.2 1.2-6.267 3.467-8.533s5.333-3.467 8.533-3.467c6.667 0 12 5.333 12 12v1.333c0 1.467-1.2 2.667-2.667 2.667s-2.667-1.2-2.667-2.667v-6.667c0-0.8-0.533-1.333-1.333-1.333s-1.333 0.533-1.333 1.333v0c-1.067-0.8-2.533-1.333-4-1.333-3.733 0-6.667 2.933-6.667 6.667s2.933 6.667 6.667 6.667c2 0 3.733-0.933 4.933-2.267 0.933 1.333 2.533 2.267 4.4 2.267 2.933 0 5.333-2.4 5.333-5.333v-1.333c0-8.133-6.533-14.667-14.667-14.667zM16 20.667c-2.267 0-4-1.733-4-4s1.733-4 4-4 4 1.733 4 4-1.733 4-4 4z"></path>
</svg>
