<!-- Generated by IcoMoon.io -->
<svg version="1.1" xmlns="http://www.w3.org/2000/svg" width="32" height="32" viewBox="0 0 32 32">
<title>award</title>
<path d="M26.667 11.333c0-5.867-4.8-10.667-10.667-10.667s-10.667 4.8-10.667 10.667c0 3.467 1.6 6.533 4.133 8.4l-1.467 11.467c-0.133 0.533 0.133 1.067 0.533 1.333s0.933 0.267 1.467 0l6-3.6 6 3.6c0.133 0.133 0.4 0.133 0.667 0.133s0.533-0.133 0.667-0.267 0.667-0.8 0.533-1.333l-1.467-11.333c2.667-1.867 4.267-4.933 4.267-8.4zM8 11.333c0-4.4 3.6-8 8-8s8 3.6 8 8-3.6 8-8 8-8-3.6-8-8zM20.933 28.8l-4.267-2.533c-0.4-0.267-0.933-0.267-1.333 0l-4.267 2.533 0.933-7.6c1.2 0.533 2.533 0.8 4 0.8s2.8-0.267 4-0.8l0.933 7.6z"></path>
</svg>
