<!-- Generated by IcoMoon.io -->
<svg version="1.1" xmlns="http://www.w3.org/2000/svg" width="32" height="32" viewBox="0 0 32 32">
<title>bar-chart-2</title>
<path d="M24 12.667c-0.8 0-1.333 0.533-1.333 1.333v13.333c0 0.8 0.533 1.333 1.333 1.333s1.333-0.533 1.333-1.333v-13.333c0-0.8-0.533-1.333-1.333-1.333zM16 4.667c-0.8 0-1.333 0.533-1.333 1.333v21.333c0 0.8 0.533 1.333 1.333 1.333s1.333-0.533 1.333-1.333v-21.333c0-0.8-0.533-1.333-1.333-1.333zM8 18c-0.8 0-1.333 0.533-1.333 1.333v8c0 0.8 0.533 1.333 1.333 1.333s1.333-0.533 1.333-1.333v-8c0-0.8-0.533-1.333-1.333-1.333z"></path>
</svg>
