<!-- Generated by IcoMoon.io -->
<svg version="1.1" xmlns="http://www.w3.org/2000/svg" width="32" height="32" viewBox="0 0 32 32">
<title>bar-chart</title>
<path d="M16 12.667c-0.8 0-1.333 0.533-1.333 1.333v13.333c0 0.8 0.533 1.333 1.333 1.333s1.333-0.533 1.333-1.333v-13.333c0-0.8-0.533-1.333-1.333-1.333zM24 4.667c-0.8 0-1.333 0.533-1.333 1.333v21.333c0 0.8 0.533 1.333 1.333 1.333s1.333-0.533 1.333-1.333v-21.333c0-0.8-0.533-1.333-1.333-1.333zM8 20.667c-0.8 0-1.333 0.533-1.333 1.333v5.333c0 0.8 0.533 1.333 1.333 1.333s1.333-0.533 1.333-1.333v-5.333c0-0.8-0.533-1.333-1.333-1.333z"></path>
</svg>
