<!-- Generated by IcoMoon.io -->
<svg version="1.1" xmlns="http://www.w3.org/2000/svg" width="32" height="32" viewBox="0 0 32 32">
<title>battery-charging</title>
<path d="M6.667 23.333h-2.667c-0.8 0-1.333-0.533-1.333-1.333v-10.667c0-0.8 0.533-1.333 1.333-1.333h4.267c0.8 0 1.333-0.533 1.333-1.333s-0.533-1.333-1.333-1.333h-4.267c-2.267 0-4 1.733-4 4v10.667c0 2.267 1.733 4 4 4h2.667c0.8 0 1.333-0.533 1.333-1.333s-0.533-1.333-1.333-1.333zM22.667 7.333h-2.667c-0.8 0-1.333 0.533-1.333 1.333s0.533 1.333 1.333 1.333h2.667c0.8 0 1.333 0.533 1.333 1.333v10.667c0 0.8-0.533 1.333-1.333 1.333h-4.267c-0.8 0-1.333 0.533-1.333 1.333s0.533 1.333 1.333 1.333h4.267c2.267 0 4-1.733 4-4v-10.667c0-2.267-1.733-4-4-4zM30.667 14c-0.8 0-1.333 0.533-1.333 1.333v2.667c0 0.8 0.533 1.333 1.333 1.333s1.333-0.533 1.333-1.333v-2.667c0-0.8-0.533-1.333-1.333-1.333zM18.533 16c-0.267-0.4-0.667-0.667-1.2-0.667h-5.467l4-5.867c0.4-0.667 0.267-1.467-0.4-1.867s-1.467-0.267-1.867 0.4l-5.333 8c-0.267 0.4-0.267 0.933 0 1.333 0.133 0.4 0.533 0.667 1.067 0.667h5.467l-4 5.867c-0.4 0.667-0.267 1.467 0.4 1.867 0.267 0.133 0.533 0.267 0.8 0.267 0.4 0 0.8-0.267 1.067-0.533l5.333-8c0.267-0.533 0.4-0.933 0.133-1.467z"></path>
</svg>
