<!-- Generated by IcoMoon.io -->
<svg version="1.1" xmlns="http://www.w3.org/2000/svg" width="32" height="32" viewBox="0 0 32 32">
<title>battery</title>
<path d="M22.667 7.333h-18.667c-2.267 0-4 1.733-4 4v10.667c0 2.267 1.733 4 4 4h18.667c2.267 0 4-1.733 4-4v-10.667c0-2.267-1.733-4-4-4zM24 22c0 0.8-0.533 1.333-1.333 1.333h-18.667c-0.8 0-1.333-0.533-1.333-1.333v-10.667c0-0.8 0.533-1.333 1.333-1.333h18.667c0.8 0 1.333 0.533 1.333 1.333v10.667zM30.667 14c-0.8 0-1.333 0.533-1.333 1.333v2.667c0 0.8 0.533 1.333 1.333 1.333s1.333-0.533 1.333-1.333v-2.667c0-0.8-0.533-1.333-1.333-1.333z"></path>
</svg>
