<!-- Generated by IcoMoon.io -->
<svg version="1.1" xmlns="http://www.w3.org/2000/svg" width="32" height="32" viewBox="0 0 32 32">
<title>bell-off</title>
<path d="M18.933 27.467c-0.667-0.4-1.467-0.133-1.867 0.533s-1.2 0.8-1.867 0.533c-0.267-0.133-0.4-0.267-0.533-0.533-0.4-0.667-1.2-0.8-1.867-0.533-0.667 0.4-0.8 1.2-0.533 1.867 0.4 0.667 0.8 1.067 1.467 1.467s1.333 0.533 2 0.533c1.333 0 2.667-0.667 3.467-2 0.667-0.667 0.4-1.467-0.267-1.867zM12.133 5.733c3.867-2.133 8.667-0.8 10.933 3.067 0.533 1.067 0.933 2.533 0.933 3.867v5.333c0 0.8 0.533 1.333 1.333 1.333s1.333-0.533 1.333-1.333v-5.333c0-1.867-0.533-3.6-1.333-5.2-2.933-5.067-9.467-6.933-14.533-4-0.667 0.267-0.933 1.067-0.533 1.733s1.2 0.8 1.867 0.533zM31.6 30.4l-8-8c0 0 0 0 0 0l-21.333-21.333c-0.533-0.533-1.333-0.533-1.867 0s-0.533 1.333 0 1.867l5.733 5.733c-0.533 1.333-0.8 2.667-0.8 4v6.667c0 1.467-1.2 2.667-2.667 2.667-0.8 0-1.333 0.533-1.333 1.333s0.533 1.333 1.333 1.333h19.467l7.6 7.6c0.267 0.267 0.667 0.4 0.933 0.4s0.667-0.133 0.933-0.4c0.533-0.533 0.533-1.333 0-1.867zM7.333 22c0.4-0.8 0.667-1.733 0.667-2.667v-6.667c0-0.667 0.133-1.333 0.267-1.867l11.2 11.2h-12.133z"></path>
</svg>
