<!-- Generated by IcoMoon.io -->
<svg version="1.1" xmlns="http://www.w3.org/2000/svg" width="32" height="32" viewBox="0 0 32 32">
<title>bell</title>
<path d="M18.933 27.467c-0.667-0.4-1.467-0.133-1.867 0.533s-1.2 0.8-1.867 0.533c-0.267-0.133-0.4-0.267-0.533-0.533-0.4-0.667-1.2-0.8-1.867-0.533-0.667 0.4-0.8 1.2-0.533 1.867 0.4 0.667 0.8 1.067 1.467 1.467s1.333 0.533 2 0.533c1.333 0 2.667-0.667 3.467-2 0.667-0.667 0.4-1.467-0.267-1.867zM29.333 22c-1.467 0-2.667-1.2-2.667-2.667v-6.667c0-5.867-4.8-10.667-10.667-10.667s-10.667 4.8-10.667 10.667v6.667c0 1.467-1.2 2.667-2.667 2.667-0.8 0-1.333 0.533-1.333 1.333s0.533 1.333 1.333 1.333h26.667c0.8 0 1.333-0.533 1.333-1.333s-0.533-1.333-1.333-1.333zM7.333 22c0.4-0.8 0.667-1.733 0.667-2.667v-6.667c0-4.4 3.6-8 8-8s8 3.6 8 8v6.667c0 0.933 0.267 1.867 0.667 2.667h-17.333z"></path>
</svg>
