<!-- Generated by IcoMoon.io -->
<svg version="1.1" xmlns="http://www.w3.org/2000/svg" width="32" height="32" viewBox="0 0 32 32">
<title>bluetooth</title>
<path d="M17.867 16.667l6.4-6.4c0.533-0.533 0.533-1.333 0-1.867l-7.333-7.333c-0.4-0.4-0.933-0.533-1.467-0.267-0.533 0.133-0.8 0.667-0.8 1.2v11.467l-5.067-5.067c-0.533-0.533-1.333-0.533-1.867 0s-0.533 1.333 0 1.867l6.4 6.4-6.4 6.4c-0.533 0.533-0.533 1.333 0 1.867s1.333 0.533 1.867 0l5.067-5.067v11.467c0 0.533 0.267 1.067 0.8 1.2 0.133 0.133 0.4 0.133 0.533 0.133 0.4 0 0.667-0.133 0.933-0.4l7.333-7.333c0.533-0.533 0.533-1.333 0-1.867l-6.4-6.4zM17.333 5.2l4.133 4.133-4.133 4.133v-8.267zM17.333 28.133v-8.267l4.133 4.133-4.133 4.133z"></path>
</svg>
