<!-- Generated by IcoMoon.io -->
<svg version="1.1" xmlns="http://www.w3.org/2000/svg" width="32" height="32" viewBox="0 0 32 32">
<title>bold</title>
<path d="M23.2 16.133c1.333-1.2 2.133-2.933 2.133-4.8 0-3.733-2.933-6.667-6.667-6.667h-10.667c-0.8 0-1.333 0.533-1.333 1.333v21.333c0 0.8 0.533 1.333 1.333 1.333h12c3.733 0 6.667-2.933 6.667-6.667 0-2.533-1.467-4.667-3.467-5.867zM9.333 7.333h9.333c2.267 0 4 1.733 4 4s-1.733 4-4 4h-9.333v-8zM20 26h-10.667v-8h10.667c2.267 0 4 1.733 4 4s-1.733 4-4 4z"></path>
</svg>
