<!-- Generated by IcoMoon.io -->
<svg version="1.1" xmlns="http://www.w3.org/2000/svg" width="32" height="32" viewBox="0 0 32 32">
<title>bookmark</title>
<path d="M22.667 3.333h-13.333c-2.267 0-4 1.733-4 4v21.333c0 0.533 0.267 0.933 0.667 1.2s0.933 0.133 1.333-0.133l8.533-6.133 8.533 6.133c0.267 0.133 0.533 0.267 0.8 0.267s0.4 0 0.667-0.133c0.4-0.267 0.667-0.667 0.667-1.2v-21.333c0.133-2.267-1.6-4-3.867-4zM24 26.133l-7.2-5.2c-0.267-0.133-0.533-0.267-0.8-0.267s-0.533 0.133-0.8 0.267l-7.2 5.2v-18.8c0-0.8 0.533-1.333 1.333-1.333h13.333c0.8 0 1.333 0.533 1.333 1.333v18.8z"></path>
</svg>
