<!-- Generated by IcoMoon.io -->
<svg version="1.1" xmlns="http://www.w3.org/2000/svg" width="32" height="32" viewBox="0 0 32 32">
<title>book-open</title>
<path d="M29.333 3.333h-8c-2.133 0-4.133 1.067-5.333 2.667-1.2-1.6-3.2-2.667-5.333-2.667h-8c-0.8 0-1.333 0.533-1.333 1.333v20c0 0.8 0.533 1.333 1.333 1.333h9.333c1.467 0 2.667 1.2 2.667 2.667 0 0.8 0.533 1.333 1.333 1.333s1.333-0.533 1.333-1.333c0-1.467 1.2-2.667 2.667-2.667h9.333c0.8 0 1.333-0.533 1.333-1.333v-20c0-0.8-0.533-1.333-1.333-1.333zM14.667 24c-0.8-0.4-1.733-0.667-2.667-0.667h-8v-17.333h6.667c2.267 0 4 1.733 4 4v14zM28 23.333h-8c-0.933 0-1.867 0.267-2.667 0.667v-14c0-2.267 1.733-4 4-4h6.667v17.333z"></path>
</svg>
