<!-- Generated by IcoMoon.io -->
<svg version="1.1" xmlns="http://www.w3.org/2000/svg" width="32" height="32" viewBox="0 0 32 32">
<title>briefcase</title>
<path d="M26.667 8.667h-4v-1.333c0-2.267-1.733-4-4-4h-5.333c-2.267 0-4 1.733-4 4v1.333h-4c-2.267 0-4 1.733-4 4v13.333c0 2.267 1.733 4 4 4h21.333c2.267 0 4-1.733 4-4v-13.333c0-2.267-1.733-4-4-4zM12 7.333c0-0.8 0.533-1.333 1.333-1.333h5.333c0.8 0 1.333 0.533 1.333 1.333v1.333h-8v-1.333zM20 11.333v16h-8v-16h8zM4 26v-13.333c0-0.8 0.533-1.333 1.333-1.333h4v16h-4c-0.8 0-1.333-0.533-1.333-1.333zM28 26c0 0.8-0.533 1.333-1.333 1.333h-4v-16h4c0.8 0 1.333 0.533 1.333 1.333v13.333z"></path>
</svg>
