<!-- Generated by IcoMoon.io -->
<svg version="1.1" xmlns="http://www.w3.org/2000/svg" width="32" height="32" viewBox="0 0 32 32">
<title>calendar</title>
<path d="M25.333 4.667h-2.667v-1.333c0-0.8-0.533-1.333-1.333-1.333s-1.333 0.533-1.333 1.333v1.333h-8v-1.333c0-0.8-0.533-1.333-1.333-1.333s-1.333 0.533-1.333 1.333v1.333h-2.667c-2.267 0-4 1.733-4 4v18.667c0 2.267 1.733 4 4 4h18.667c2.267 0 4-1.733 4-4v-18.667c0-2.267-1.733-4-4-4zM6.667 7.333h2.667v1.333c0 0.8 0.533 1.333 1.333 1.333s1.333-0.533 1.333-1.333v-1.333h8v1.333c0 0.8 0.533 1.333 1.333 1.333s1.333-0.533 1.333-1.333v-1.333h2.667c0.8 0 1.333 0.533 1.333 1.333v4h-21.333v-4c0-0.8 0.533-1.333 1.333-1.333zM25.333 28.667h-18.667c-0.8 0-1.333-0.533-1.333-1.333v-12h21.333v12c0 0.8-0.533 1.333-1.333 1.333z"></path>
</svg>
