<!-- Generated by IcoMoon.io -->
<svg version="1.1" xmlns="http://www.w3.org/2000/svg" width="32" height="32" viewBox="0 0 32 32">
<title>camera-off</title>
<path d="M28.933 27.733c0 0 0 0 0 0l-20-20c0 0 0 0 0 0l-6.667-6.667c-0.533-0.533-1.333-0.533-1.867 0s-0.533 1.333 0 1.867l4.4 4.4h-0.8c-2.267 0-4 1.733-4 4v14.667c0 2.267 1.733 4 4 4h23.467l2.267 2.267c0.267 0.267 0.667 0.4 0.933 0.4s0.667-0.133 0.933-0.4c0.533-0.533 0.533-1.333 0-1.867l-2.667-2.667zM12.667 15.733c0.133-0.133 0.133-0.133 0.267-0.267l5.6 5.6c-0.533 0.4-1.2 0.8-1.867 0.933-1.067 0.133-2.133 0-2.933-0.667-0.933-0.667-1.467-1.467-1.733-2.533-0.133-1.067 0.133-2.133 0.667-3.067zM4 27.333c-0.8 0-1.333-0.533-1.333-1.333v-14.667c0-0.8 0.533-1.333 1.333-1.333h3.467l3.6 3.6c-0.267 0.267-0.4 0.4-0.533 0.667-1.067 1.467-1.333 3.2-1.067 4.933s1.333 3.333 2.8 4.267c1.067 0.8 2.4 1.2 3.733 1.2 0.4 0 0.8 0 1.2-0.133 1.2-0.267 2.267-0.8 3.2-1.6l4.4 4.4h-20.8zM28 7.333h-4.667l-2.267-3.467c-0.267-0.267-0.667-0.533-1.067-0.533h-8c-0.8 0-1.333 0.533-1.333 1.333s0.533 1.333 1.333 1.333h7.333l2.267 3.467c0.267 0.267 0.667 0.533 1.067 0.533h5.333c0.8 0 1.333 0.533 1.333 1.333v12.4c0 0.8 0.533 1.333 1.333 1.333s1.333-0.533 1.333-1.333v-12.4c0-2.267-1.733-4-4-4z"></path>
</svg>
