<!-- Generated by IcoMoon.io -->
<svg version="1.1" xmlns="http://www.w3.org/2000/svg" width="32" height="32" viewBox="0 0 32 32">
<title>camera</title>
<path d="M28 7.333h-4.667l-2.267-3.467c-0.267-0.267-0.667-0.533-1.067-0.533h-8c-0.4 0-0.8 0.267-1.067 0.533l-2.267 3.467h-4.667c-2.267 0-4 1.733-4 4v14.667c0 2.267 1.733 4 4 4h24c2.267 0 4-1.733 4-4v-14.667c0-2.267-1.733-4-4-4zM29.333 26c0 0.8-0.533 1.333-1.333 1.333h-24c-0.8 0-1.333-0.533-1.333-1.333v-14.667c0-0.8 0.533-1.333 1.333-1.333h5.333c0.4 0 0.8-0.267 1.067-0.533l2.267-3.467h6.533l2.267 3.467c0.4 0.267 0.8 0.533 1.2 0.533h5.333c0.8 0 1.333 0.533 1.333 1.333v14.667zM16 11.333c-3.733 0-6.667 2.933-6.667 6.667s2.933 6.667 6.667 6.667 6.667-2.933 6.667-6.667-2.933-6.667-6.667-6.667zM16 22c-2.267 0-4-1.733-4-4s1.733-4 4-4 4 1.733 4 4-1.733 4-4 4z"></path>
</svg>
