<!-- Generated by IcoMoon.io -->
<svg version="1.1" xmlns="http://www.w3.org/2000/svg" width="32" height="32" viewBox="0 0 32 32">
<title>cast</title>
<path d="M2.933 20.8c-0.667-0.133-1.467 0.4-1.6 1.067s0.267 1.467 1.067 1.6c2.133 0.4 3.733 2 4.133 4.133 0.133 0.667 0.667 1.067 1.333 1.067 0.133 0 0.133 0 0.267 0 0.667-0.133 1.2-0.8 1.067-1.6-0.667-3.2-3.067-5.6-6.267-6.267zM26.667 4.667h-21.333c-2.267 0-4 1.733-4 4v2.667c0 0.8 0.533 1.333 1.333 1.333s1.333-0.533 1.333-1.333v-2.667c0-0.8 0.533-1.333 1.333-1.333h21.333c0.8 0 1.333 0.533 1.333 1.333v16c0 0.8-0.533 1.333-1.333 1.333h-8c-0.8 0-1.333 0.533-1.333 1.333s0.533 1.333 1.333 1.333h8c2.267 0 4-1.733 4-4v-16c0-2.267-1.733-4-4-4zM2.8 15.467c-0.667-0.133-1.333 0.4-1.467 1.2-0.133 0.667 0.4 1.333 1.2 1.467 4.933 0.533 8.8 4.4 9.467 9.467 0 0.533 0.533 1.067 1.2 1.067 0 0 0.133 0 0.133 0 0.667-0.133 1.2-0.8 1.2-1.467-0.667-6.267-5.467-11.067-11.733-11.733zM1.733 26.4c-0.267 0.267-0.4 0.533-0.4 0.933s0.133 0.667 0.4 0.933c0.267 0.267 0.533 0.4 0.933 0.4s0.667-0.133 0.933-0.4c0.267-0.267 0.4-0.533 0.4-0.933s-0.133-0.667-0.4-0.933c-0.533-0.533-1.333-0.533-1.867 0z"></path>
</svg>
