<!-- Generated by IcoMoon.io -->
<svg version="1.1" xmlns="http://www.w3.org/2000/svg" width="32" height="32" viewBox="0 0 32 32">
<title>check-square</title>
<path d="M30.267 5.067c-0.533-0.533-1.333-0.533-1.867 0l-12.4 12.4-3.067-3.067c-0.533-0.533-1.333-0.533-1.867 0s-0.533 1.333 0 1.867l4 4c0.267 0.267 0.667 0.4 0.933 0.4s0.667-0.133 0.933-0.4l13.333-13.333c0.533-0.533 0.533-1.333 0-1.867zM28 15.333c-0.8 0-1.333 0.533-1.333 1.333v9.333c0 0.8-0.533 1.333-1.333 1.333h-18.667c-0.8 0-1.333-0.533-1.333-1.333v-18.667c0-0.8 0.533-1.333 1.333-1.333h14.667c0.8 0 1.333-0.533 1.333-1.333s-0.533-1.333-1.333-1.333h-14.667c-2.267 0-4 1.733-4 4v18.667c0 2.267 1.733 4 4 4h18.667c2.267 0 4-1.733 4-4v-9.333c0-0.8-0.533-1.333-1.333-1.333z"></path>
</svg>
