<!-- Generated by IcoMoon.io -->
<svg version="1.1" xmlns="http://www.w3.org/2000/svg" width="32" height="32" viewBox="0 0 32 32">
<title>chevrons-left</title>
<path d="M9.867 16.667l5.733-5.733c0.533-0.533 0.533-1.333 0-1.867s-1.333-0.533-1.867 0l-6.667 6.667c-0.533 0.533-0.533 1.333 0 1.867l6.667 6.667c0.267 0.267 0.667 0.4 0.933 0.4s0.667-0.133 0.933-0.4c0.533-0.533 0.533-1.333 0-1.867l-5.733-5.733zM19.2 16.667l5.733-5.733c0.533-0.533 0.533-1.333 0-1.867s-1.333-0.533-1.867 0l-6.667 6.667c-0.533 0.533-0.533 1.333 0 1.867l6.667 6.667c0.267 0.267 0.667 0.4 0.933 0.4s0.667-0.133 0.933-0.4c0.533-0.533 0.533-1.333 0-1.867l-5.733-5.733z"></path>
</svg>
