<!-- Generated by IcoMoon.io -->
<svg version="1.1" xmlns="http://www.w3.org/2000/svg" width="32" height="32" viewBox="0 0 32 32">
<title>chevrons-up</title>
<path d="M10.267 16.267l5.733-5.733 5.733 5.733c0.267 0.267 0.667 0.4 0.933 0.4s0.667-0.133 0.933-0.4c0.533-0.533 0.533-1.333 0-1.867l-6.667-6.667c-0.533-0.533-1.333-0.533-1.867 0l-6.667 6.667c-0.533 0.533-0.533 1.333 0 1.867s1.333 0.533 1.867 0zM16.933 17.067c-0.533-0.533-1.333-0.533-1.867 0l-6.667 6.667c-0.533 0.533-0.533 1.333 0 1.867s1.333 0.533 1.867 0l5.733-5.733 5.733 5.733c0.267 0.267 0.667 0.4 0.933 0.4s0.667-0.133 0.933-0.4c0.533-0.533 0.533-1.333 0-1.867l-6.667-6.667z"></path>
</svg>
