<!-- Generated by IcoMoon.io -->
<svg version="1.1" xmlns="http://www.w3.org/2000/svg" width="32" height="32" viewBox="0 0 32 32">
<title>chevrons-down</title>
<path d="M21.733 17.067l-5.733 5.733-5.733-5.733c-0.533-0.533-1.333-0.533-1.867 0s-0.533 1.333 0 1.867l6.667 6.667c0.267 0.267 0.667 0.4 0.933 0.4s0.667-0.133 0.933-0.4l6.667-6.667c0.533-0.533 0.533-1.333 0-1.867s-1.333-0.533-1.867 0zM15.067 16.267c0.267 0.267 0.667 0.4 0.933 0.4s0.667-0.133 0.933-0.4l6.667-6.667c0.533-0.533 0.533-1.333 0-1.867s-1.333-0.533-1.867 0l-5.733 5.733-5.733-5.733c-0.533-0.533-1.333-0.533-1.867 0s-0.533 1.333 0 1.867l6.667 6.667z"></path>
</svg>
