<!-- Generated by IcoMoon.io -->
<svg version="1.1" xmlns="http://www.w3.org/2000/svg" width="32" height="32" viewBox="0 0 32 32">
<title>chrome</title>
<path d="M29.467 10.933c0-0.133 0-0.133 0 0-2.4-5.333-7.467-8.933-13.467-8.933-4.8 0-9.067 2.267-11.733 5.867 0 0.133-0.133 0.133-0.133 0.267-1.733 2.4-2.8 5.333-2.8 8.533 0 7.467 5.6 13.6 12.8 14.533 0 0 0.133 0 0.133 0 0.533 0 1.067 0.133 1.6 0.133 8.133 0 14.667-6.533 14.667-14.667 0.133-2-0.267-4-1.067-5.733zM16 4.667c4.133 0 7.867 2.133 10 5.333h-10c-2.8 0-5.067 1.733-6.133 4l-2.933-5.067c2.133-2.667 5.467-4.267 9.067-4.267zM20 16.667c0 2.267-1.733 4-4 4s-4-1.733-4-4 1.733-4 4-4 4 1.733 4 4zM4 16.667c0-1.867 0.4-3.733 1.2-5.333l4.933 8.667c0 0 0 0.133 0.133 0.133 1.2 1.867 3.333 3.2 5.733 3.2 0.267 0 0.533 0 0.8-0.133l-3.067 5.2c-5.467-0.933-9.733-5.867-9.733-11.733zM16.8 28.667l4.933-8.667c0 0 0-0.133 0-0.133 0.533-0.933 0.8-2 0.8-3.2 0-1.467-0.533-2.933-1.333-4h6c0.4 1.2 0.667 2.533 0.667 4 0.133 6.4-4.8 11.6-11.067 12z"></path>
</svg>
