<!-- Generated by IcoMoon.io -->
<svg version="1.1" xmlns="http://www.w3.org/2000/svg" width="32" height="32" viewBox="0 0 32 32">
<title>clipboard</title>
<path d="M24 4.667h-1.333c0-1.467-1.2-2.667-2.667-2.667h-8c-1.467 0-2.667 1.2-2.667 2.667h-1.333c-2.267 0-4 1.733-4 4v18.667c0 2.267 1.733 4 4 4h16c2.267 0 4-1.733 4-4v-18.667c0-2.267-1.733-4-4-4zM12 4.667h8v2.667h-8v-1.333c0 0 0 0 0 0s0 0 0 0v-1.333zM25.333 27.333c0 0.8-0.533 1.333-1.333 1.333h-16c-0.8 0-1.333-0.533-1.333-1.333v-18.667c0-0.8 0.533-1.333 1.333-1.333h1.333c0 1.467 1.2 2.667 2.667 2.667h8c1.467 0 2.667-1.2 2.667-2.667h1.333c0.8 0 1.333 0.533 1.333 1.333v18.667z"></path>
</svg>
