<!-- Generated by IcoMoon.io -->
<svg version="1.1" xmlns="http://www.w3.org/2000/svg" width="32" height="32" viewBox="0 0 32 32">
<title>clock</title>
<path d="M16 2c-8.133 0-14.667 6.533-14.667 14.667s6.533 14.667 14.667 14.667 14.667-6.533 14.667-14.667-6.533-14.667-14.667-14.667zM16 28.667c-6.667 0-12-5.333-12-12s5.333-12 12-12c6.667 0 12 5.333 12 12s-5.333 12-12 12zM21.867 18.133l-4.533-2.267v-7.2c0-0.8-0.533-1.333-1.333-1.333s-1.333 0.533-1.333 1.333v8c0 0.533 0.267 0.933 0.8 1.2l5.333 2.667c0.133 0.133 0.267 0.133 0.533 0.133 0.533 0 0.933-0.267 1.2-0.8s0-1.333-0.667-1.733z"></path>
</svg>
