<!-- Generated by IcoMoon.io -->
<svg version="1.1" xmlns="http://www.w3.org/2000/svg" width="32" height="32" viewBox="0 0 32 32">
<title>cloud</title>
<path d="M24 12.667h-0.667c-0.933-2.667-2.8-4.933-5.2-6.4-2.8-1.6-6-2.133-9.067-1.333-3.2 0.933-5.733 2.933-7.467 5.6-1.6 2.8-2.133 6-1.333 9.067 1.333 5.333 6.133 9.067 11.6 9.067 0 0 0 0 0 0h12c4.4 0 8-3.6 8-8s-3.467-8-7.867-8zM24 26h-12c0 0 0 0 0 0-4.267 0-8-2.933-9.067-6.933-0.667-2.533-0.267-4.933 1.067-7.2s3.333-3.733 5.733-4.267c0.667-0.133 1.467-0.267 2.267-0.267 4.133 0 8 2.8 9.067 7.067 0.133 0.533 0.667 1.067 1.333 1.067h1.6c2.933 0 5.333 2.4 5.333 5.333 0 2.8-2.4 5.2-5.333 5.2z"></path>
</svg>
