<!-- Generated by IcoMoon.io -->
<svg version="1.1" xmlns="http://www.w3.org/2000/svg" width="32" height="32" viewBox="0 0 32 32">
<title>cloud-rain</title>
<path d="M21.333 16.667c-0.8 0-1.333 0.533-1.333 1.333v10.667c0 0.8 0.533 1.333 1.333 1.333s1.333-0.533 1.333-1.333v-10.667c0-0.8-0.533-1.333-1.333-1.333zM10.667 16.667c-0.8 0-1.333 0.533-1.333 1.333v10.667c0 0.8 0.533 1.333 1.333 1.333s1.333-0.533 1.333-1.333v-10.667c0-0.8-0.533-1.333-1.333-1.333zM16 19.333c-0.8 0-1.333 0.533-1.333 1.333v10.667c0 0.8 0.533 1.333 1.333 1.333s1.333-0.533 1.333-1.333v-10.667c0-0.8-0.533-1.333-1.333-1.333zM31.333 13.467c-1.333-2.933-4.133-4.8-7.333-4.8h-0.667c-2-5.867-8.267-9.2-14.267-7.6-6.533 1.6-10.4 8.133-8.667 14.667 0.667 2.533 2.133 4.8 4.133 6.4 0.533 0.4 1.467 0.4 1.867-0.267 0.4-0.533 0.4-1.467-0.267-1.867-1.6-1.2-2.667-3.067-3.2-4.933-1.333-4.933 1.733-10.133 6.667-11.333 4.933-1.333 10.133 1.733 11.333 6.667 0.133 0.533 0.667 1.067 1.333 1.067h1.733c2.133 0 4 1.2 4.933 3.2 0.533 1.333 0.667 2.8 0.133 4.133s-1.467 2.4-2.8 2.933c-0.667 0.267-0.933 1.067-0.667 1.733 0.267 0.533 0.667 0.8 1.2 0.8 0.133 0 0.4 0 0.533-0.133 2-0.8 3.467-2.4 4.267-4.4 0.667-2.133 0.533-4.267-0.267-6.267z"></path>
</svg>
