<!-- Generated by IcoMoon.io -->
<svg version="1.1" xmlns="http://www.w3.org/2000/svg" width="32" height="32" viewBox="0 0 32 32">
<title>cloud-lightning</title>
<path d="M31.867 15.067c-0.8-3.733-4.133-6.4-7.867-6.4 0 0 0 0 0 0h-0.667c-2-5.867-8.267-9.2-14.267-7.6-3.2 0.8-5.733 2.8-7.467 5.467-1.6 2.8-2.133 6-1.333 9.067 0.8 3.2 2.933 5.867 5.867 7.467 0.667 0.4 1.467 0.267 1.867-0.4s0.133-1.467-0.533-1.867c-2.267-1.2-3.867-3.333-4.533-5.867-0.667-2.4-0.267-4.8 1.067-7.067 1.2-2.133 3.333-3.733 5.733-4.267 4.933-1.333 10.133 1.733 11.333 6.667 0.133 0.533 0.667 1.067 1.333 1.067h1.6c0 0 0 0 0 0 2.533 0 4.667 1.733 5.2 4.267 0.533 2.933-1.333 5.733-4.133 6.267-0.667 0.133-1.2 0.8-1.067 1.6 0.133 0.667 0.667 1.067 1.333 1.067 0.133 0 0.133 0 0.267 0 4.267-0.933 7.067-5.2 6.267-9.467zM20 22h-5.467l4-5.867c0.4-0.667 0.267-1.467-0.4-1.867s-1.467-0.267-1.867 0.4l-5.333 8c-0.267 0.4-0.267 0.933 0 1.333 0.133 0.4 0.533 0.667 1.067 0.667h5.467l-4 5.867c-0.4 0.667-0.267 1.467 0.4 1.867 0.267 0.133 0.533 0.267 0.8 0.267 0.4 0 0.8-0.267 1.067-0.533l5.333-8c0.267-0.4 0.267-0.933 0-1.333s-0.533-0.8-1.067-0.8z"></path>
</svg>
