<!-- Generated by IcoMoon.io -->
<svg version="1.1" xmlns="http://www.w3.org/2000/svg" width="32" height="32" viewBox="0 0 32 32">
<title>cloud-off</title>
<path d="M12.8 7.333c4 0.4 7.2 3.2 8.267 6.933 0.133 0.533 0.667 1.067 1.333 1.067h1.6c0 0 0 0 0 0 0.667 0 1.467 0.133 2.133 0.4 2.667 1.2 4 4.267 2.8 6.933-0.267 0.667 0 1.467 0.667 1.733 0.133 0.133 0.4 0.133 0.533 0.133 0.533 0 1.067-0.267 1.2-0.8 1.733-4-0.133-8.8-4.267-10.533-0.933-0.267-2-0.533-3.067-0.533h-0.667c-1.6-4.4-5.6-7.6-10.267-8-0.8 0-1.333 0.533-1.467 1.2-0.133 0.8 0.533 1.333 1.2 1.467zM2.267 1.067c-0.533-0.533-1.333-0.533-1.867 0s-0.533 1.333 0 1.867l4.133 4.133c-2 1.6-3.467 3.733-4.267 6.267-0.933 3.067-0.533 6.267 1.067 9.067 2.133 3.867 6.133 6.267 10.533 6.267 0 0 0.133 0 0.133 0h12c0.667 0 1.2-0.133 1.867-0.267l3.867 3.867c0.267 0.267 0.667 0.4 0.933 0.4s0.667-0.133 0.933-0.4c0.533-0.533 0.533-1.333 0-1.867l-29.333-29.333zM12 26c-3.467 0.133-6.667-1.733-8.267-4.8-1.2-2.133-1.467-4.667-0.8-7.067 0.533-2.133 1.867-3.867 3.6-5.067l16.933 16.933h-11.467z"></path>
</svg>
