<!-- Generated by IcoMoon.io -->
<svg version="1.1" xmlns="http://www.w3.org/2000/svg" width="32" height="32" viewBox="0 0 32 32">
<title>codepen</title>
<path d="M30.667 21.6c0-0.133 0-0.133 0-0.267v-9.333c0-0.133 0-0.133 0-0.267 0 0 0 0 0-0.133s-0.133-0.267-0.133-0.4c0 0 0 0 0 0s0 0 0 0c-0.133-0.133-0.133-0.267-0.267-0.267v0c0 0 0 0 0 0l-13.333-8.667c0 0-0.133 0-0.133 0s-0.133 0-0.133 0c-0.267-0.133-0.667-0.133-0.933 0 0 0-0.133 0-0.133 0s-0.133 0-0.133 0l-13.333 8.667c-0.267 0-0.4 0.133-0.533 0.267 0 0 0 0 0 0s0 0 0 0c-0.133 0.267-0.133 0.4-0.267 0.533 0 0 0 0 0 0.133s0 0.133 0 0.267v9.333c0 0.133 0 0.133 0 0.267 0 0 0 0 0 0.133s0.133 0.267 0.133 0.4c0 0 0 0 0 0s0 0 0 0c0.133 0.133 0.133 0.267 0.267 0.267l13.333 8.667c0 0 0.133 0 0.133 0s0.133 0 0.133 0 0.267 0.133 0.4 0.133 0.267 0 0.4-0.133c0 0 0.133 0 0.133 0s0.133 0 0.133 0l13.333-8.667c0.133-0.133 0.267-0.267 0.4-0.267 0 0 0 0 0 0s0 0 0 0c0.4-0.4 0.4-0.533 0.533-0.667 0 0 0 0 0 0zM4 14.533l3.067 2.133-3.067 2.133v-4.267zM16 19.733l-4.4-3.067 4.4-3.067 4.4 3.067-4.4 3.067zM17.333 11.333v-5.6l9.6 6.267-4.267 3.067-5.333-3.733zM14.667 11.333l-5.333 3.733-4.267-3.067 9.6-6.267v5.6zM9.333 18.267l5.333 3.733v5.467l-9.6-6.267 4.267-2.933zM17.333 22l5.333-3.733 4.267 2.933-9.6 6.4v-5.6zM24.933 16.667l3.067-2.133v4.267l-3.067-2.133z"></path>
</svg>
