<!-- Generated by IcoMoon.io -->
<svg version="1.1" xmlns="http://www.w3.org/2000/svg" width="32" height="32" viewBox="0 0 32 32">
<title>command</title>
<path d="M24 19.333h-2.667v-5.333h2.667c2.933 0 5.333-2.4 5.333-5.333s-2.4-5.333-5.333-5.333-5.333 2.4-5.333 5.333v2.667h-5.333v-2.667c0-2.933-2.4-5.333-5.333-5.333s-5.333 2.4-5.333 5.333 2.4 5.333 5.333 5.333h2.667v5.333h-2.667c-2.933 0-5.333 2.4-5.333 5.333s2.4 5.333 5.333 5.333 5.333-2.4 5.333-5.333v-2.667h5.333v2.667c0 2.933 2.4 5.333 5.333 5.333s5.333-2.4 5.333-5.333-2.4-5.333-5.333-5.333zM21.333 8.667c0-1.467 1.2-2.667 2.667-2.667s2.667 1.2 2.667 2.667-1.2 2.667-2.667 2.667h-2.667v-2.667zM10.667 24.667c0 1.467-1.2 2.667-2.667 2.667s-2.667-1.2-2.667-2.667 1.2-2.667 2.667-2.667h2.667v2.667zM10.667 11.333h-2.667c-1.467 0-2.667-1.2-2.667-2.667s1.2-2.667 2.667-2.667 2.667 1.2 2.667 2.667v2.667zM18.667 19.333h-5.333v-5.333h5.333v5.333zM24 27.333c-1.467 0-2.667-1.2-2.667-2.667v-2.667h2.667c1.467 0 2.667 1.2 2.667 2.667s-1.2 2.667-2.667 2.667z"></path>
</svg>
