<!-- Generated by IcoMoon.io -->
<svg version="1.1" xmlns="http://www.w3.org/2000/svg" width="32" height="32" viewBox="0 0 32 32">
<title>compass</title>
<path d="M16 2c-8.133 0-14.667 6.533-14.667 14.667s6.533 14.667 14.667 14.667 14.667-6.533 14.667-14.667-6.533-14.667-14.667-14.667zM16 28.667c-6.667 0-12-5.333-12-12s5.333-12 12-12c6.667 0 12 5.333 12 12s-5.333 12-12 12zM21.2 9.733l-8.4 2.8c-0.4 0.133-0.8 0.533-0.933 0.933l-2.8 8.533c-0.133 0.533 0 1.067 0.267 1.333s0.533 0.4 0.933 0.4c0.133 0 0.267 0 0.4-0.133l8.533-2.8c0.4-0.133 0.667-0.4 0.8-0.8l2.8-8.533c0.133-0.533 0-1.067-0.267-1.333-0.267-0.4-0.8-0.533-1.333-0.4zM17.733 18.4l-5.333 1.733 1.733-5.333 5.333-1.733-1.733 5.333z"></path>
</svg>
