<!-- Generated by IcoMoon.io -->
<svg version="1.1" xmlns="http://www.w3.org/2000/svg" width="32" height="32" viewBox="0 0 32 32">
<title>copy</title>
<path d="M26.667 11.333h-12c-2.267 0-4 1.733-4 4v12c0 2.267 1.733 4 4 4h12c2.267 0 4-1.733 4-4v-12c0-2.267-1.733-4-4-4zM28 27.333c0 0.8-0.533 1.333-1.333 1.333h-12c-0.8 0-1.333-0.533-1.333-1.333v-12c0-0.8 0.533-1.333 1.333-1.333h12c0.8 0 1.333 0.533 1.333 1.333v12zM6.667 19.333h-1.333c-0.8 0-1.333-0.533-1.333-1.333v-12c0-0.8 0.533-1.333 1.333-1.333h12c0.8 0 1.333 0.533 1.333 1.333v1.333c0 0.8 0.533 1.333 1.333 1.333s1.333-0.533 1.333-1.333v-1.333c0-2.267-1.733-4-4-4h-12c-2.267 0-4 1.733-4 4v12c0 2.267 1.733 4 4 4h1.333c0.8 0 1.333-0.533 1.333-1.333s-0.533-1.333-1.333-1.333z"></path>
</svg>
