<!-- Generated by IcoMoon.io -->
<svg version="1.1" xmlns="http://www.w3.org/2000/svg" width="32" height="32" viewBox="0 0 32 32">
<title>corner-up-right</title>
<path d="M27.867 13.2c0.133-0.267 0.133-0.667 0-1.067-0.133-0.133-0.133-0.267-0.267-0.4l-6.667-6.667c-0.533-0.533-1.333-0.533-1.867 0s-0.533 1.333 0 1.867l4.4 4.4h-12.8c-3.733 0-6.667 2.933-6.667 6.667v9.333c0 0.8 0.533 1.333 1.333 1.333s1.333-0.533 1.333-1.333v-9.333c0-2.267 1.733-4 4-4h12.8l-4.4 4.4c-0.533 0.533-0.533 1.333 0 1.867 0.267 0.267 0.667 0.4 0.933 0.4s0.667-0.133 0.933-0.4l6.667-6.667c0.133-0.133 0.267-0.267 0.267-0.4z"></path>
</svg>
