<!-- Generated by IcoMoon.io -->
<svg version="1.1" xmlns="http://www.w3.org/2000/svg" width="32" height="32" viewBox="0 0 32 32">
<title>corner-right-down</title>
<path d="M27.6 19.733c-0.533-0.533-1.333-0.533-1.867 0l-4.4 4.4v-12.8c0-3.733-2.933-6.667-6.667-6.667h-9.333c-0.8 0-1.333 0.533-1.333 1.333s0.533 1.333 1.333 1.333h9.333c2.267 0 4 1.733 4 4v12.8l-4.4-4.4c-0.533-0.533-1.333-0.533-1.867 0s-0.533 1.333 0 1.867l6.667 6.667c0.133 0.133 0.267 0.267 0.4 0.267 0.133 0.133 0.4 0.133 0.533 0.133s0.4 0 0.533-0.133c0.133-0.133 0.267-0.133 0.4-0.267l6.667-6.667c0.533-0.533 0.533-1.333 0-1.867z"></path>
</svg>
