<!-- Generated by IcoMoon.io -->
<svg version="1.1" xmlns="http://www.w3.org/2000/svg" width="32" height="32" viewBox="0 0 32 32">
<title>crop</title>
<path d="M30.667 23.333h-5.333v-12c0-2.267-1.733-4-4-4l-11.867 0.133v-5.467c0-0.8-0.533-1.333-1.333-1.333 0 0 0 0 0 0-0.667 0-1.333 0.533-1.333 1.333v5.467h-5.467c-0.8 0-1.333 0.667-1.333 1.333s0.667 1.333 1.333 1.333c0 0 0 0 0 0h5.467l-0.133 11.867c0 2.267 1.733 4 4 4h12v5.333c0 0.8 0.533 1.333 1.333 1.333s1.333-0.533 1.333-1.333v-5.333h5.333c0.8 0 1.333-0.533 1.333-1.333s-0.533-1.333-1.333-1.333zM10.667 23.333c-0.8 0-1.333-0.533-1.333-1.333l0.133-11.867 11.867-0.133c0.8 0 1.333 0.533 1.333 1.333v12h-12z"></path>
</svg>
