<!-- Generated by IcoMoon.io -->
<svg version="1.1" xmlns="http://www.w3.org/2000/svg" width="32" height="32" viewBox="0 0 32 32">
<title>crosshair</title>
<path d="M16 2c-8.133 0-14.667 6.533-14.667 14.667s6.533 14.667 14.667 14.667 14.667-6.533 14.667-14.667-6.533-14.667-14.667-14.667zM17.333 28.533v-3.867c0-0.8-0.533-1.333-1.333-1.333s-1.333 0.533-1.333 1.333v3.867c-5.6-0.667-10-5.067-10.533-10.533h3.867c0.8 0 1.333-0.533 1.333-1.333s-0.533-1.333-1.333-1.333h-3.867c0.533-5.6 4.933-10 10.533-10.533v3.867c0 0.8 0.533 1.333 1.333 1.333s1.333-0.533 1.333-1.333v-3.867c5.6 0.667 10 5.067 10.533 10.533h-3.867c-0.8 0-1.333 0.533-1.333 1.333s0.533 1.333 1.333 1.333h3.867c-0.533 5.6-4.933 10-10.533 10.533z"></path>
</svg>
