<!-- Generated by IcoMoon.io -->
<svg version="1.1" xmlns="http://www.w3.org/2000/svg" width="32" height="32" viewBox="0 0 32 32">
<title>database</title>
<path d="M16 2c-6.4 0-13.333 1.733-13.333 5.333v18.667c0 3.6 6.933 5.333 13.333 5.333s13.333-1.733 13.333-5.333v-18.667c0-3.6-6.933-5.333-13.333-5.333zM26.667 16.667c0 0.667-3.333 2.667-10.667 2.667s-10.667-2-10.667-2.667v-6c2.533 1.333 6.667 2 10.667 2s8.133-0.667 10.667-2v6zM16 4.667c6.933 0 10.667 2 10.667 2.667s-3.733 2.667-10.667 2.667c-6.933 0-10.667-2-10.667-2.667s3.733-2.667 10.667-2.667zM16 28.667c-7.333 0-10.667-2-10.667-2.667v-6c2.533 1.333 6.667 2 10.667 2s8.133-0.667 10.667-2v6c0 0.667-3.333 2.667-10.667 2.667z"></path>
</svg>
