<!-- Generated by IcoMoon.io -->
<svg version="1.1" xmlns="http://www.w3.org/2000/svg" width="32" height="32" viewBox="0 0 32 32">
<title>delete</title>
<path d="M28 4.667h-17.333c-0.4 0-0.8 0.133-1.067 0.4l-9.333 10.667c-0.4 0.533-0.4 1.2 0 1.733l9.333 10.667c0.267 0.4 0.667 0.533 1.067 0.533h17.333c2.267 0 4-1.733 4-4v-16c0-2.267-1.733-4-4-4zM29.333 24.667c0 0.8-0.533 1.333-1.333 1.333h-16.667l-8.133-9.333 8.133-9.333h16.667c0.8 0 1.333 0.533 1.333 1.333v16zM24.933 11.733c-0.533-0.533-1.333-0.533-1.867 0l-3.067 3.067-3.067-3.067c-0.533-0.533-1.333-0.533-1.867 0s-0.533 1.333 0 1.867l3.067 3.067-3.067 3.067c-0.533 0.533-0.533 1.333 0 1.867 0.267 0.267 0.667 0.4 0.933 0.4s0.667-0.133 0.933-0.4l3.067-3.067 3.067 3.067c0.267 0.267 0.667 0.4 0.933 0.4s0.667-0.133 0.933-0.4c0.533-0.533 0.533-1.333 0-1.867l-3.067-3.067 3.067-3.067c0.533-0.533 0.533-1.333 0-1.867z"></path>
</svg>
