<!-- Generated by IcoMoon.io -->
<svg version="1.1" xmlns="http://www.w3.org/2000/svg" width="32" height="32" viewBox="0 0 32 32">
<title>disc</title>
<path d="M16 2c-8.133 0-14.667 6.533-14.667 14.667s6.533 14.667 14.667 14.667 14.667-6.533 14.667-14.667-6.533-14.667-14.667-14.667zM16 28.667c-6.667 0-12-5.333-12-12s5.333-12 12-12c6.667 0 12 5.333 12 12s-5.333 12-12 12zM16 11.333c-2.933 0-5.333 2.4-5.333 5.333s2.4 5.333 5.333 5.333c2.933 0 5.333-2.4 5.333-5.333s-2.4-5.333-5.333-5.333zM16 19.333c-1.467 0-2.667-1.2-2.667-2.667s1.2-2.667 2.667-2.667c1.467 0 2.667 1.2 2.667 2.667s-1.2 2.667-2.667 2.667z"></path>
</svg>
