<!-- Generated by IcoMoon.io -->
<svg version="1.1" xmlns="http://www.w3.org/2000/svg" width="32" height="32" viewBox="0 0 32 32">
<title>dollar-sign</title>
<path d="M19.333 15.333h-2v-6.667h5.333c0.8 0 1.333-0.533 1.333-1.333s-0.533-1.333-1.333-1.333h-5.333v-4c0-0.8-0.533-1.333-1.333-1.333s-1.333 0.533-1.333 1.333v4h-2c-3.333 0-6 2.667-6 6s2.667 6 6 6h2v6.667h-6.667c-0.8 0-1.333 0.533-1.333 1.333s0.533 1.333 1.333 1.333h6.667v4c0 0.8 0.533 1.333 1.333 1.333s1.333-0.533 1.333-1.333v-4h2c3.333 0 6-2.667 6-6s-2.667-6-6-6zM12.667 15.333c-1.867 0-3.333-1.467-3.333-3.333s1.467-3.333 3.333-3.333h2v6.667h-2zM19.333 24.667h-2v-6.667h2c1.867 0 3.333 1.467 3.333 3.333s-1.467 3.333-3.333 3.333z"></path>
</svg>
