<!-- Generated by IcoMoon.io -->
<svg version="1.1" xmlns="http://www.w3.org/2000/svg" width="32" height="32" viewBox="0 0 32 32">
<title>download</title>
<path d="M28 19.333c-0.8 0-1.333 0.533-1.333 1.333v5.333c0 0.8-0.533 1.333-1.333 1.333h-18.667c-0.8 0-1.333-0.533-1.333-1.333v-5.333c0-0.8-0.533-1.333-1.333-1.333s-1.333 0.533-1.333 1.333v5.333c0 2.267 1.733 4 4 4h18.667c2.267 0 4-1.733 4-4v-5.333c0-0.8-0.533-1.333-1.333-1.333zM15.067 21.6c0.133 0.133 0.267 0.267 0.4 0.267 0.133 0.133 0.4 0.133 0.533 0.133s0.4 0 0.533-0.133c0.133-0.133 0.267-0.133 0.4-0.267l6.667-6.667c0.533-0.533 0.533-1.333 0-1.867s-1.333-0.533-1.867 0l-4.4 4.4v-12.8c0-0.8-0.533-1.333-1.333-1.333s-1.333 0.533-1.333 1.333v12.8l-4.4-4.4c-0.533-0.533-1.333-0.533-1.867 0s-0.533 1.333 0 1.867l6.667 6.667z"></path>
</svg>
