<!-- Generated by IcoMoon.io -->
<svg version="1.1" xmlns="http://www.w3.org/2000/svg" width="32" height="32" viewBox="0 0 32 32">
<title>download-cloud</title>
<path d="M20.4 22.4l-3.067 3.067v-8.8c0-0.8-0.533-1.333-1.333-1.333s-1.333 0.533-1.333 1.333v8.8l-3.067-3.067c-0.533-0.533-1.333-0.533-1.867 0s-0.533 1.333 0 1.867l5.333 5.333c0.133 0.133 0.267 0.267 0.4 0.267 0.133 0.133 0.4 0.133 0.533 0.133s0.4 0 0.533-0.133c0.133-0.133 0.267-0.133 0.4-0.267l5.333-5.333c0.533-0.533 0.533-1.333 0-1.867s-1.333-0.533-1.867 0zM30.533 14.667c-1.467-2-3.867-3.333-6.533-3.333 0 0 0 0 0 0h-0.667c-2-5.867-8.267-9.2-14.267-7.6-3.2 0.8-5.733 2.667-7.467 5.467-1.6 2.8-2.133 6-1.333 9.067 0.533 1.867 1.333 3.6 2.667 4.933 0.533 0.533 1.333 0.667 1.867 0.133s0.667-1.333 0.133-1.867c-0.933-1.067-1.733-2.4-2-3.867-0.667-2.4-0.267-4.933 1.067-7.067s3.333-3.733 5.733-4.267c4.933-1.333 10.133 1.733 11.333 6.667 0.133 0.533 0.667 1.067 1.333 1.067h1.6c0 0 0 0 0 0 1.733 0 3.333 0.8 4.4 2.267 0.8 1.2 1.2 2.533 0.933 4s-1.067 2.667-2.133 3.467c-0.667 0.4-0.8 1.2-0.267 1.867 0.267 0.4 0.667 0.533 1.067 0.533 0.267 0 0.533-0.133 0.8-0.267 1.733-1.2 2.933-3.067 3.333-5.2s-0.4-4.133-1.6-6z"></path>
</svg>
