<!-- Generated by IcoMoon.io -->
<svg version="1.1" xmlns="http://www.w3.org/2000/svg" width="32" height="32" viewBox="0 0 32 32">
<title>droplet</title>
<path d="M24.533 10.8l-7.6-7.467c-0.267-0.267-0.533-0.4-0.933-0.4v0c-0.4 0-0.667 0.133-0.933 0.4l-7.467 7.467c0 0 0 0 0 0-2.4 2.267-3.6 5.333-3.6 8.533s1.2 6.267 3.467 8.533c2.267 2.267 5.333 3.467 8.533 3.467 0 0 0 0 0 0 3.2 0 6.267-1.2 8.533-3.467 4.667-4.667 4.667-12.267 0-17.067zM22.667 26c-1.867 1.733-4.133 2.667-6.667 2.667 0 0 0 0 0 0-2.533 0-4.8-0.933-6.533-2.667-1.867-1.867-2.8-4.133-2.8-6.667s0.933-4.8 2.667-6.533c0 0 0 0 0 0l6.533-6.667 6.667 6.667c3.733 3.6 3.733 9.467 0.133 13.2z"></path>
</svg>
