<!-- Generated by IcoMoon.io -->
<svg version="1.1" xmlns="http://www.w3.org/2000/svg" width="32" height="32" viewBox="0 0 32 32">
<title>edit</title>
<path d="M26.667 18.933c-0.8 0-1.333 0.533-1.333 1.333v7.067c0 0.8-0.533 1.333-1.333 1.333h-18.667c-0.8 0-1.333-0.533-1.333-1.333v-18.667c0-0.8 0.533-1.333 1.333-1.333h7.067c0.8 0 1.333-0.533 1.333-1.333s-0.533-1.333-1.333-1.333h-7.067c-2.267 0-4 1.733-4 4v18.667c0 2.267 1.733 4 4 4h18.667c2.267 0 4-1.733 4-4v-7.067c0-0.8-0.533-1.333-1.333-1.333zM30.267 7.733l-5.333-5.333c-0.533-0.533-1.333-0.533-1.867 0l-13.333 13.333c-0.267 0.267-0.4 0.533-0.4 0.933v5.333c0 0.8 0.533 1.333 1.333 1.333h5.333c0.4 0 0.667-0.133 0.933-0.4l13.333-13.333c0.533-0.533 0.533-1.333 0-1.867zM15.467 20.667h-3.467v-3.467l12-12 3.467 3.467-12 12z"></path>
</svg>
