<!-- Generated by IcoMoon.io -->
<svg version="1.1" xmlns="http://www.w3.org/2000/svg" width="32" height="32" viewBox="0 0 32 32">
<title>external-link</title>
<path d="M24 16.667c-0.8 0-1.333 0.533-1.333 1.333v8c0 0.8-0.533 1.333-1.333 1.333h-14.667c-0.8 0-1.333-0.533-1.333-1.333v-14.667c0-0.8 0.533-1.333 1.333-1.333h8c0.8 0 1.333-0.533 1.333-1.333s-0.533-1.333-1.333-1.333h-8c-2.267 0-4 1.733-4 4v14.667c0 2.267 1.733 4 4 4h14.667c2.267 0 4-1.733 4-4v-8c0-0.8-0.533-1.333-1.333-1.333zM29.2 4.133c-0.133-0.267-0.4-0.533-0.667-0.667-0.133-0.133-0.4-0.133-0.533-0.133h-8c-0.8 0-1.333 0.533-1.333 1.333s0.533 1.333 1.333 1.333h4.8l-12.4 12.4c-0.533 0.533-0.533 1.333 0 1.867 0.267 0.267 0.533 0.4 0.933 0.4s0.667-0.133 0.933-0.4l12.4-12.4v4.8c0 0.8 0.533 1.333 1.333 1.333s1.333-0.533 1.333-1.333v-8c0-0.133 0-0.4-0.133-0.533z"></path>
</svg>
