<!-- Generated by IcoMoon.io -->
<svg version="1.1" xmlns="http://www.w3.org/2000/svg" width="32" height="32" viewBox="0 0 32 32">
<title>eye</title>
<path d="M31.867 16.133c-0.267-0.533-5.867-11.467-15.867-11.467s-15.6 10.933-15.867 11.467c-0.133 0.4-0.133 0.8 0 1.2 0.267 0.4 5.867 11.333 15.867 11.333s15.6-10.933 15.867-11.467c0.133-0.267 0.133-0.8 0-1.067zM16 26c-7.2 0-11.867-7.2-13.2-9.333 1.2-2.133 6-9.333 13.2-9.333s11.867 7.2 13.2 9.333c-1.333 2.133-6 9.333-13.2 9.333zM16 11.333c-2.933 0-5.333 2.4-5.333 5.333s2.4 5.333 5.333 5.333c2.933 0 5.333-2.4 5.333-5.333s-2.4-5.333-5.333-5.333zM16 19.333c-1.467 0-2.667-1.2-2.667-2.667s1.2-2.667 2.667-2.667c1.467 0 2.667 1.2 2.667 2.667s-1.2 2.667-2.667 2.667z"></path>
</svg>
