<!-- Generated by IcoMoon.io -->
<svg version="1.1" xmlns="http://www.w3.org/2000/svg" width="32" height="32" viewBox="0 0 32 32">
<title>fast-forward</title>
<path d="M30.133 15.6l-12-9.333c-0.4-0.267-0.933-0.4-1.467-0.133-0.4 0.267-0.667 0.667-0.667 1.2v18.667c0 0.533 0.267 0.933 0.8 1.2 0.133 0.133 0.4 0.133 0.533 0.133 0.267 0 0.533-0.133 0.8-0.267l12-9.333c0.267-0.267 0.533-0.667 0.533-1.067s-0.133-0.8-0.533-1.067zM18.667 23.333v-13.333l8.533 6.667-8.533 6.667zM3.467 6.267c-0.4-0.267-0.933-0.4-1.333-0.133-0.533 0.267-0.8 0.667-0.8 1.2v18.667c0 0.533 0.267 0.933 0.8 1.2 0.133 0.133 0.4 0.133 0.533 0.133 0.267 0 0.533-0.133 0.8-0.267l12-9.333c0.267-0.267 0.533-0.667 0.533-1.067s-0.133-0.8-0.533-1.067l-12-9.333zM4 23.333v-13.333l8.533 6.667-8.533 6.667z"></path>
</svg>
