<!-- Generated by IcoMoon.io -->
<svg version="1.1" xmlns="http://www.w3.org/2000/svg" width="32" height="32" viewBox="0 0 32 32">
<title>file</title>
<path d="M27.867 12.133c-0.133-0.133-0.133-0.267-0.267-0.4l-9.333-9.333c-0.133-0.133-0.267-0.267-0.4-0.267-0.133-0.133-0.4-0.133-0.533-0.133h-9.333c-2.267 0-4 1.733-4 4v21.333c0 2.267 1.733 4 4 4h16c2.267 0 4-1.733 4-4v-14.667c0-0.133 0-0.4-0.133-0.533zM18.667 6.533l4.8 4.8h-4.8v-4.8zM24 28.667h-16c-0.8 0-1.333-0.533-1.333-1.333v-21.333c0-0.8 0.533-1.333 1.333-1.333h8v8c0 0.8 0.533 1.333 1.333 1.333h8v13.333c0 0.8-0.533 1.333-1.333 1.333z"></path>
</svg>
