<!-- Generated by IcoMoon.io -->
<svg version="1.1" xmlns="http://www.w3.org/2000/svg" width="32" height="32" viewBox="0 0 32 32">
<title>file-plus</title>
<path d="M27.867 10.8c-0.133-0.133-0.133-0.267-0.267-0.4l-8-8c-0.133-0.133-0.267-0.267-0.4-0.267-0.133-0.133-0.4-0.133-0.533-0.133h-10.667c-2.267 0-4 1.733-4 4v21.333c0 2.267 1.733 4 4 4h16c2.267 0 4-1.733 4-4v-16c0-0.133 0-0.4-0.133-0.533zM20 6.533l3.467 3.467h-3.467v-3.467zM24 28.667h-16c-0.8 0-1.333-0.533-1.333-1.333v-21.333c0-0.8 0.533-1.333 1.333-1.333h9.333v6.667c0 0.8 0.533 1.333 1.333 1.333h6.667v14.667c0 0.8-0.533 1.333-1.333 1.333zM20 19.333h-2.667v-2.667c0-0.8-0.533-1.333-1.333-1.333s-1.333 0.533-1.333 1.333v2.667h-2.667c-0.8 0-1.333 0.533-1.333 1.333s0.533 1.333 1.333 1.333h2.667v2.667c0 0.8 0.533 1.333 1.333 1.333s1.333-0.533 1.333-1.333v-2.667h2.667c0.8 0 1.333-0.533 1.333-1.333s-0.533-1.333-1.333-1.333z"></path>
</svg>
