<!-- Generated by IcoMoon.io -->
<svg version="1.1" xmlns="http://www.w3.org/2000/svg" width="32" height="32" viewBox="0 0 32 32">
<title>film</title>
<path d="M26.4 2h-20.8c-2.4 0-4.267 1.867-4.267 4.267v20.8c0 2.4 1.867 4.267 4.267 4.267h20.8c2.4 0 4.267-1.867 4.267-4.267v-20.8c0-2.4-1.867-4.267-4.267-4.267zM24 11.333h4v4h-4v-4zM21.333 15.333h-10.667v-10.667h10.667v10.667zM8 15.333h-4v-4h4v4zM4 18h4v4h-4v-4zM10.667 18h10.667v10.667h-10.667v-10.667zM24 18h4v4h-4v-4zM28 6.267v2.4h-4v-4h2.4c0.933 0 1.6 0.667 1.6 1.6zM5.6 4.667h2.4v4h-4v-2.4c0-0.933 0.667-1.6 1.6-1.6zM4 27.067v-2.4h4v4h-2.4c-0.933 0-1.6-0.667-1.6-1.6zM26.4 28.667h-2.4v-4h4v2.4c0 0.933-0.667 1.6-1.6 1.6z"></path>
</svg>
