<!-- Generated by IcoMoon.io -->
<svg version="1.1" xmlns="http://www.w3.org/2000/svg" width="32" height="32" viewBox="0 0 32 32">
<title>filter</title>
<path d="M30.533 4.133c-0.267-0.533-0.667-0.8-1.2-0.8h-26.667c-0.533 0-0.933 0.267-1.2 0.8-0.267 0.4-0.133 0.933 0.133 1.333l10.4 12.267v8.267c0 0.533 0.267 0.933 0.8 1.2l5.333 2.667c0.133 0.133 0.267 0.133 0.533 0.133s0.533 0 0.667-0.133c0.4-0.267 0.667-0.667 0.667-1.2v-10.933l10.4-12.267c0.267-0.4 0.4-0.933 0.133-1.333zM17.6 16.4c-0.133 0.267-0.267 0.533-0.267 0.933v9.2l-2.667-1.333v-7.867c0-0.267-0.133-0.667-0.267-0.8l-8.8-10.533h20.933l-8.933 10.4z"></path>
</svg>
