<!-- Generated by IcoMoon.io -->
<svg version="1.1" xmlns="http://www.w3.org/2000/svg" width="32" height="32" viewBox="0 0 32 32">
<title>flag</title>
<path d="M27.2 3.467c-0.533-0.267-1.067-0.133-1.467 0.267 0 0-1.2 0.933-4.4 0.933-1.733 0-3.2-0.667-4.8-1.2-1.733-0.8-3.6-1.467-5.867-1.467-4.267 0-6 1.467-6.267 1.733s-0.4 0.533-0.4 0.933v25.333c0 0.8 0.533 1.333 1.333 1.333s1.333-0.533 1.333-1.333v-8.667c0.533-0.267 1.867-0.667 4-0.667 1.733 0 3.2 0.667 4.8 1.2 1.733 0.667 3.6 1.467 5.867 1.467 4.267 0 6-1.467 6.267-1.733s0.4-0.533 0.4-0.933v-16c0-0.533-0.267-0.933-0.8-1.2zM25.333 20c-0.533 0.267-1.867 0.667-4 0.667-1.733 0-3.2-0.667-4.8-1.2-1.733-0.8-3.6-1.467-5.867-1.467-1.733 0-3.067 0.267-4 0.533v-13.2c0.533-0.267 1.867-0.667 4-0.667 1.733 0 3.2 0.667 4.8 1.2 1.733 0.8 3.6 1.467 5.867 1.467 1.733 0 3.067-0.267 4-0.533v13.2z"></path>
</svg>
