<!-- Generated by IcoMoon.io -->
<svg version="1.1" xmlns="http://www.w3.org/2000/svg" width="32" height="32" viewBox="0 0 32 32">
<title>folder</title>
<path d="M26.667 7.333h-11.333l-2.267-3.467c-0.267-0.267-0.667-0.533-1.067-0.533h-6.667c-2.267 0-4 1.733-4 4v18.667c0 2.267 1.733 4 4 4h21.333c2.267 0 4-1.733 4-4v-14.667c0-2.267-1.733-4-4-4zM28 26c0 0.8-0.533 1.333-1.333 1.333h-21.333c-0.8 0-1.333-0.533-1.333-1.333v-18.667c0-0.8 0.533-1.333 1.333-1.333h6l2.267 3.467c0.267 0.267 0.667 0.533 1.067 0.533h12c0.8 0 1.333 0.533 1.333 1.333v14.667z"></path>
</svg>
