<!-- Generated by IcoMoon.io -->
<svg version="1.1" xmlns="http://www.w3.org/2000/svg" width="32" height="32" viewBox="0 0 32 32">
<title>gift</title>
<path d="M29.333 8.667h-3.2c0.4-0.667 0.533-1.333 0.533-2 0-2.533-2.133-4.667-4.667-4.667-3.067 0-4.933 2.133-6 4.133-1.067-2-2.933-4.133-6-4.133-2.533 0-4.667 2.133-4.667 4.667 0 0.667 0.133 1.333 0.533 2h-3.2c-0.8 0-1.333 0.533-1.333 1.333v6.667c0 0.8 0.533 1.333 1.333 1.333h1.333v12c0 0.8 0.533 1.333 1.333 1.333h21.333c0.8 0 1.333-0.533 1.333-1.333v-12h1.333c0.8 0 1.333-0.533 1.333-1.333v-6.667c0-0.8-0.533-1.333-1.333-1.333zM22 4.667c1.067 0 2 0.933 2 2s-0.933 2-2 2h-4.267c0.667-1.6 2-4 4.267-4zM8 6.667c0-1.067 0.933-2 2-2 2.267 0 3.6 2.4 4.267 4h-4.267c-1.067 0-2-0.933-2-2zM4 11.333h10.667v4h-10.667v-4zM6.667 18h8v10.667h-8v-10.667zM25.333 28.667h-8v-10.667h8v10.667zM28 15.333h-10.667v-4h10.667v4z"></path>
</svg>
