<!-- Generated by IcoMoon.io -->
<svg version="1.1" xmlns="http://www.w3.org/2000/svg" width="32" height="32" viewBox="0 0 32 32">
<title>git-merge</title>
<path d="M24 19.333c-2.4 0-4.533 1.733-5.067 4-4.933-0.533-8.933-4.533-9.467-9.467 2.267-0.667 4-2.667 4-5.067 0-2.933-2.4-5.333-5.333-5.333s-5.467 2.267-5.467 5.2c0 2.533 1.733 4.533 4 5.2v14.8c0 0.8 0.533 1.333 1.333 1.333s1.333-0.533 1.333-1.333v-8c2.267 2.933 5.6 4.933 9.467 5.333 0.533 2.267 2.667 4.133 5.2 4.133 2.933 0 5.333-2.4 5.333-5.333s-2.4-5.467-5.333-5.467zM5.333 8.667c0-1.467 1.2-2.667 2.667-2.667s2.667 1.2 2.667 2.667-1.2 2.667-2.667 2.667-2.667-1.2-2.667-2.667zM24 27.333c-1.467 0-2.667-1.2-2.667-2.667s1.2-2.667 2.667-2.667 2.667 1.2 2.667 2.667-1.2 2.667-2.667 2.667z"></path>
</svg>
