<!-- Generated by IcoMoon.io -->
<svg version="1.1" xmlns="http://www.w3.org/2000/svg" width="32" height="32" viewBox="0 0 32 32">
<title>git-branch</title>
<path d="M29.333 8.667c0-2.933-2.4-5.333-5.333-5.333s-5.333 2.4-5.333 5.333c0 2.4 1.733 4.533 4 5.067-0.533 4.933-4.533 8.933-9.467 9.467-0.533-1.867-2-3.333-3.733-3.733v-14.8c0-0.8-0.533-1.333-1.333-1.333s-1.467 0.533-1.467 1.333v14.8c-2.267 0.533-4 2.667-4 5.2 0 2.933 2.4 5.333 5.333 5.333 2.533 0 4.533-1.733 5.2-4 6.4-0.533 11.6-5.733 12.133-12.133 2.267-0.667 4-2.667 4-5.2zM8 27.333c-1.467 0-2.667-1.2-2.667-2.667s1.2-2.667 2.667-2.667 2.667 1.2 2.667 2.667-1.2 2.667-2.667 2.667zM24 11.333c-1.467 0-2.667-1.2-2.667-2.667s1.2-2.667 2.667-2.667 2.667 1.2 2.667 2.667-1.2 2.667-2.667 2.667z"></path>
</svg>
