<!-- Generated by IcoMoon.io -->
<svg version="1.1" xmlns="http://www.w3.org/2000/svg" width="32" height="32" viewBox="0 0 32 32">
<title>git-pull-request</title>
<path d="M25.333 19.467v-8.133c0-2.267-1.733-4-4-4h-4c-0.8 0-1.333 0.533-1.333 1.333s0.533 1.333 1.333 1.333h4c0.8 0 1.333 0.533 1.333 1.333v8.133c-2.267 0.533-4 2.667-4 5.2 0 2.933 2.4 5.333 5.333 5.333s5.333-2.4 5.333-5.333c0-2.533-1.733-4.533-4-5.2zM24 27.333c-1.467 0-2.667-1.2-2.667-2.667s1.2-2.667 2.667-2.667 2.667 1.2 2.667 2.667-1.2 2.667-2.667 2.667zM8 3.333c-2.933 0-5.333 2.4-5.333 5.333 0 2.533 1.733 4.533 4 5.2v14.8c0 0.8 0.533 1.333 1.333 1.333s1.333-0.533 1.333-1.333v-14.8c2.267-0.533 4-2.667 4-5.2 0-2.933-2.4-5.333-5.333-5.333zM8 11.333c-1.467 0-2.667-1.2-2.667-2.667s1.2-2.667 2.667-2.667 2.667 1.2 2.667 2.667-1.2 2.667-2.667 2.667z"></path>
</svg>
