<!-- Generated by IcoMoon.io -->
<svg version="1.1" xmlns="http://www.w3.org/2000/svg" width="32" height="32" viewBox="0 0 32 32">
<title>git-commit</title>
<path d="M30.667 15.333h-8c0 0-0.133 0-0.133 0-0.667-3.067-3.333-5.333-6.533-5.333s-5.867 2.267-6.533 5.333c0 0-0.133 0-0.133 0h-8c-0.8 0-1.333 0.533-1.333 1.333s0.533 1.333 1.333 1.333h8c0 0 0.133 0 0.133 0 0.667 3.067 3.333 5.333 6.533 5.333s5.867-2.267 6.533-5.333c0 0 0.133 0 0.133 0h8c0.8 0 1.333-0.533 1.333-1.333s-0.667-1.333-1.333-1.333zM16 20.667c-2.267 0-4-1.733-4-4s1.733-4 4-4 4 1.733 4 4-1.733 4-4 4z"></path>
</svg>
