<!-- Generated by IcoMoon.io -->
<svg version="1.1" xmlns="http://www.w3.org/2000/svg" width="32" height="32" viewBox="0 0 32 32">
<title>github</title>
<path d="M30 12c0-2-0.667-3.733-1.867-5.333 0.4-1.733 0.267-3.6-0.4-5.2-0.133-0.4-0.4-0.667-0.8-0.8-0.533-0.133-2.267-0.4-5.867 1.867-2.933-0.667-6-0.667-8.8 0-3.6-2.267-5.333-2-5.867-1.867-0.4 0.133-0.667 0.4-0.8 0.8-0.8 1.733-0.933 3.467-0.4 5.2-1.2 1.6-1.867 3.467-1.867 5.333 0 7.2 4 9.467 7.733 10.267-0.267 0.933-0.4 1.733-0.4 2.533v0.133c-2.8 0.533-3.733-0.533-4.8-2-0.667-0.933-1.467-2-2.933-2.267-0.667-0.133-1.467 0.267-1.6 0.933s0.267 1.467 0.933 1.6c0.4 0.133 0.933 0.667 1.467 1.333 1.2 1.6 2.933 3.733 6.933 3.2v2.267c0 0.8 0.533 1.333 1.333 1.333s1.333-0.533 1.333-1.333v-3.867c0 0 0-0.133 0-0.133v-1.2c0-0.933 0.267-1.733 0.933-2.4 0.4-0.4 0.533-0.933 0.267-1.333-0.133-0.533-0.533-0.8-1.067-0.933-3.867-0.533-7.467-1.733-7.467-8 0-1.6 0.533-2.933 1.6-4.133 0.4-0.4 0.4-0.933 0.267-1.333-0.4-1.2-0.4-2.267-0.133-3.333 0.667 0.133 1.867 0.533 3.467 1.733 0.4 0.267 0.8 0.267 1.2 0.133 2.8-0.8 5.867-0.8 8.667 0 0.4 0.133 0.8 0 1.067-0.133 1.733-1.2 2.933-1.6 3.467-1.733 0.267 1.067 0.267 2.133-0.133 3.2-0.133 0.533-0.133 1.067 0.267 1.333 1.067 1.067 1.6 2.533 1.6 4.133 0 6.267-3.6 7.6-7.467 8-0.533 0-0.933 0.4-1.067 0.933s0 1.067 0.267 1.333c0.667 0.667 0.933 1.6 0.933 2.533v5.2c0 0.8 0.533 1.333 1.333 1.333s1.333-0.533 1.333-1.333v-5.067c0.133-0.933 0-1.733-0.4-2.533 3.2-0.667 7.733-2.8 7.733-10.4z"></path>
</svg>
