<!-- Generated by IcoMoon.io -->
<svg version="1.1" xmlns="http://www.w3.org/2000/svg" width="32" height="32" viewBox="0 0 32 32">
<title>gitlab</title>
<path d="M31.867 18.133l-4.933-14.933c-0.133-0.267-0.267-0.533-0.533-0.8-0.667-0.667-1.867-0.667-2.533 0-0.267 0.133-0.4 0.4-0.533 0.8l-2.933 9.067h-8.8l-2.933-9.067c-0.133-0.267-0.267-0.533-0.533-0.8-0.667-0.667-1.867-0.667-2.533 0-0.267 0.133-0.4 0.4-0.533 0.8l-4.933 14.933c-0.4 1.067 0 2.133 0.933 2.8l14.133 10.267c0.267 0.133 0.533 0.267 0.8 0.267s0.533-0.133 0.8-0.267l14.133-10.267c0.933-0.533 1.333-1.733 0.933-2.8zM16 28.533l-13.333-9.6 4.133-12.667 2.533 7.733c0.133 0.533 0.667 0.933 1.333 0.933h10.667c0.533 0 1.067-0.4 1.333-0.933l2.533-7.733 2.533 7.733 1.6 4.8-13.333 9.733z"></path>
</svg>
