<!-- Generated by IcoMoon.io -->
<svg version="1.1" xmlns="http://www.w3.org/2000/svg" width="32" height="32" viewBox="0 0 32 32">
<title>globe</title>
<path d="M16 2c-8.133 0-14.667 6.533-14.667 14.667s6.533 14.667 14.667 14.667 14.667-6.533 14.667-14.667-6.533-14.667-14.667-14.667zM27.867 15.333h-5.333c-0.267-3.733-1.467-7.2-3.6-10.267 4.8 1.2 8.4 5.333 8.933 10.267zM12.133 18h7.867c-0.4 3.6-1.733 7.067-3.867 9.867-2.4-2.8-3.733-6.267-4-9.867zM12.133 15.333c0.4-3.6 1.733-7.067 3.867-9.867 2.267 2.933 3.6 6.4 3.867 9.867h-7.733zM12.933 5.067c-2 3.067-3.2 6.533-3.467 10.267h-5.333c0.533-4.933 4.133-9.067 8.8-10.267zM4.133 18h5.333c0.267 3.733 1.467 7.2 3.6 10.267-4.8-1.2-8.4-5.333-8.933-10.267zM19.067 28.267c2-3.067 3.2-6.533 3.6-10.267h5.333c-0.667 4.933-4.267 9.067-8.933 10.267z"></path>
</svg>
