<!-- Generated by IcoMoon.io -->
<svg version="1.1" xmlns="http://www.w3.org/2000/svg" width="32" height="32" viewBox="0 0 32 32">
<title>grid</title>
<path d="M13.333 3.333h-9.333c-0.8 0-1.333 0.533-1.333 1.333v9.333c0 0.8 0.533 1.333 1.333 1.333h9.333c0.8 0 1.333-0.533 1.333-1.333v-9.333c0-0.8-0.533-1.333-1.333-1.333zM12 12.667h-6.667v-6.667h6.667v6.667zM28 3.333h-9.333c-0.8 0-1.333 0.533-1.333 1.333v9.333c0 0.8 0.533 1.333 1.333 1.333h9.333c0.8 0 1.333-0.533 1.333-1.333v-9.333c0-0.8-0.533-1.333-1.333-1.333zM26.667 12.667h-6.667v-6.667h6.667v6.667zM28 18h-9.333c-0.8 0-1.333 0.533-1.333 1.333v9.333c0 0.8 0.533 1.333 1.333 1.333h9.333c0.8 0 1.333-0.533 1.333-1.333v-9.333c0-0.8-0.533-1.333-1.333-1.333zM26.667 27.333h-6.667v-6.667h6.667v6.667zM13.333 18h-9.333c-0.8 0-1.333 0.533-1.333 1.333v9.333c0 0.8 0.533 1.333 1.333 1.333h9.333c0.8 0 1.333-0.533 1.333-1.333v-9.333c0-0.8-0.533-1.333-1.333-1.333zM12 27.333h-6.667v-6.667h6.667v6.667z"></path>
</svg>
