<!-- Generated by IcoMoon.io -->
<svg version="1.1" xmlns="http://www.w3.org/2000/svg" width="32" height="32" viewBox="0 0 32 32">
<title>hash</title>
<path d="M26.667 19.333h-5.6l0.533-5.333h5.067c0.8 0 1.333-0.533 1.333-1.333s-0.533-1.333-1.333-1.333h-4.667l0.667-6.533c0.133-0.667-0.4-1.333-1.2-1.467-0.667-0.133-1.333 0.4-1.467 1.2l-0.8 6.8h-5.333l0.8-6.533c0.133-0.667-0.4-1.333-1.2-1.467-0.667-0.133-1.333 0.4-1.467 1.2l-0.8 6.8h-5.867c-0.8 0-1.333 0.533-1.333 1.333s0.533 1.333 1.333 1.333h5.6l-0.533 5.333h-5.067c-0.8 0-1.333 0.533-1.333 1.333s0.533 1.333 1.333 1.333h4.667l-0.667 6.533c-0.133 0.667 0.4 1.333 1.2 1.467 0 0 0.133 0 0.133 0 0.667 0 1.2-0.533 1.333-1.2l0.8-6.8h5.333l-0.8 6.533c-0.133 0.667 0.4 1.333 1.2 1.467 0 0 0.133 0 0.133 0 0.667 0 1.2-0.533 1.333-1.2l0.8-6.8h5.867c0.8 0 1.333-0.533 1.333-1.333s-0.533-1.333-1.333-1.333zM13.067 19.333l0.533-5.333h5.333l-0.533 5.333h-5.333z"></path>
</svg>
