<!-- Generated by IcoMoon.io -->
<svg version="1.1" xmlns="http://www.w3.org/2000/svg" width="32" height="32" viewBox="0 0 32 32">
<title>headphones</title>
<path d="M16 3.333c-7.333 0-13.333 6-13.333 13.333v9.333c0 2.267 1.733 4 4 4h1.333c2.267 0 4-1.733 4-4v-4c0-2.267-1.733-4-4-4h-2.667v-1.333c0-5.867 4.8-10.667 10.667-10.667s10.667 4.8 10.667 10.667v1.333h-2.667c-2.267 0-4 1.733-4 4v4c0 2.267 1.733 4 4 4h1.333c2.267 0 4-1.733 4-4v-9.333c0-7.333-6-13.333-13.333-13.333zM8 20.667c0.8 0 1.333 0.533 1.333 1.333v4c0 0.8-0.533 1.333-1.333 1.333h-1.333c-0.8 0-1.333-0.533-1.333-1.333v-5.333h2.667zM26.667 26c0 0.8-0.533 1.333-1.333 1.333h-1.333c-0.8 0-1.333-0.533-1.333-1.333v-4c0-0.8 0.533-1.333 1.333-1.333h2.667v5.333z"></path>
</svg>
