<!-- Generated by IcoMoon.io -->
<svg version="1.1" xmlns="http://www.w3.org/2000/svg" width="32" height="32" viewBox="0 0 32 32">
<title>heart</title>
<path d="M28.667 5.867v0c-1.6-1.6-3.733-2.533-6-2.533v0c-2.267 0-4.533 0.933-6.133 2.533 0 0 0 0 0 0l-0.533 0.533-0.533-0.533c-1.6-1.6-3.733-2.533-6.133-2.533-2.267 0-4.4 0.933-6 2.533s-2.667 3.867-2.667 6.133 0.933 4.533 2.533 6.133l11.733 11.733c0.267 0.267 0.533 0.4 0.933 0.4s0.667-0.133 0.933-0.4l11.733-11.733c3.6-3.333 3.6-8.933 0.133-12.267zM26.8 16.267l-10.8 10.8-10.8-10.8c-2.4-2.4-2.4-6.133 0-8.533 1.067-1.2 2.667-1.733 4.133-1.733 1.6 0 3.067 0.533 4.267 1.733l1.467 1.467c0.533 0.533 1.333 0.533 1.867 0l1.333-1.467c0 0 0 0 0 0 1.2-1.067 2.667-1.733 4.4-1.733 0 0 0 0 0 0 1.6 0 3.067 0.667 4.267 1.733v0c1.067 1.2 1.733 2.667 1.733 4.267s-0.667 3.067-1.867 4.267z"></path>
</svg>
