<!-- Generated by IcoMoon.io -->
<svg version="1.1" xmlns="http://www.w3.org/2000/svg" width="32" height="32" viewBox="0 0 32 32">
<title>help-circle</title>
<path d="M16 2c-8.133 0-14.667 6.533-14.667 14.667s6.533 14.667 14.667 14.667 14.667-6.533 14.667-14.667-6.533-14.667-14.667-14.667zM16 28.667c-6.667 0-12-5.333-12-12s5.333-12 12-12c6.667 0 12 5.333 12 12s-5.333 12-12 12zM17.6 8.933c-2.8-0.933-5.867 0.533-6.8 3.2-0.133 0.8 0.133 1.6 0.933 1.733 0.667 0.267 1.467-0.133 1.733-0.8 0.533-1.333 2-2.133 3.467-1.6 1.067 0.4 1.733 1.333 1.733 2.533 0 1.333-2.267 2.4-3.067 2.8-0.667 0.267-1.067 0.933-0.8 1.733 0.133 0.533 0.667 0.933 1.2 0.933 0.133 0 0.267 0 0.4-0.133 0.533-0.133 4.933-1.733 4.933-5.2-0.133-2.4-1.6-4.4-3.733-5.2zM15.067 22.4c-0.267 0.267-0.4 0.533-0.4 0.933s0.133 0.667 0.4 0.933c0.267 0.267 0.533 0.4 0.933 0.4s0.667-0.133 0.933-0.4c0.267-0.267 0.4-0.667 0.4-0.933s-0.133-0.667-0.4-0.933c-0.533-0.533-1.333-0.533-1.867 0z"></path>
</svg>
