<!-- Generated by IcoMoon.io -->
<svg version="1.1" xmlns="http://www.w3.org/2000/svg" width="32" height="32" viewBox="0 0 32 32">
<title>home</title>
<path d="M28.8 11.6l-12-9.333c-0.533-0.4-1.2-0.4-1.6 0l-12 9.333c-0.4 0.267-0.533 0.667-0.533 1.067v14.667c0 2.267 1.733 4 4 4h18.667c2.267 0 4-1.733 4-4v-14.667c0-0.4-0.133-0.8-0.533-1.067zM18.667 28.667h-5.333v-10.667h5.333v10.667zM26.667 27.333c0 0.8-0.533 1.333-1.333 1.333h-4v-12c0-0.8-0.533-1.333-1.333-1.333h-8c-0.8 0-1.333 0.533-1.333 1.333v12h-4c-0.8 0-1.333-0.533-1.333-1.333v-14l10.667-8.267 10.667 8.267v14z"></path>
</svg>
