<!-- Generated by IcoMoon.io -->
<svg version="1.1" xmlns="http://www.w3.org/2000/svg" width="32" height="32" viewBox="0 0 32 32">
<title>image</title>
<path d="M25.333 3.333h-18.667c-2.267 0-4 1.733-4 4v18.667c0 2.267 1.733 4 4 4h18.667c2.267 0 4-1.733 4-4v-18.667c0-2.267-1.733-4-4-4zM5.333 7.333c0-0.8 0.533-1.333 1.333-1.333h18.667c0.8 0 1.333 0.533 1.333 1.333v10.133l-4.4-4.4c-0.533-0.533-1.333-0.533-1.867 0l-14.133 14.133c-0.533-0.133-0.933-0.667-0.933-1.2v-18.667zM25.333 27.333h-15.467l11.467-11.467 5.333 5.333v4.8c0 0.8-0.533 1.333-1.333 1.333zM11.333 15.333c1.867 0 3.333-1.467 3.333-3.333s-1.467-3.333-3.333-3.333-3.333 1.467-3.333 3.333 1.467 3.333 3.333 3.333zM11.333 11.333c0.4 0 0.667 0.267 0.667 0.667s-0.267 0.667-0.667 0.667-0.667-0.267-0.667-0.667 0.267-0.667 0.667-0.667z"></path>
</svg>
