<!-- Generated by IcoMoon.io -->
<svg version="1.1" xmlns="http://www.w3.org/2000/svg" width="32" height="32" viewBox="0 0 32 32">
<title>inbox</title>
<path d="M30.533 16.133c0 0 0 0 0 0l-4.667-9.2c-0.667-1.333-2-2.267-3.6-2.267h-12.667c-1.467 0-2.8 0.8-3.467 2.267l-4.533 9.2c0 0 0 0 0 0-0.267 0.133-0.267 0.267-0.267 0.533v8c0 2.267 1.733 4 4 4h21.333c2.267 0 4-1.733 4-4v-8c0-0.267 0-0.4-0.133-0.533zM8.4 8.133c0 0 0 0 0 0 0.267-0.533 0.8-0.8 1.2-0.8h12.667c0.533 0 0.933 0.267 1.2 0.8l3.6 7.2h-5.733c-0.4 0-0.8 0.267-1.067 0.533l-2.267 3.467h-3.867l-2.267-3.467c-0.4-0.267-0.8-0.533-1.2-0.533h-5.867l3.6-7.2zM26.667 26h-21.333c-0.8 0-1.333-0.533-1.333-1.333v-6.667h6l2.267 3.467c0.267 0.267 0.667 0.533 1.067 0.533h5.333c0.4 0 0.8-0.267 1.067-0.533l2.267-3.467h6v6.667c0 0.8-0.533 1.333-1.333 1.333z"></path>
</svg>
