<!-- Generated by IcoMoon.io -->
<svg version="1.1" xmlns="http://www.w3.org/2000/svg" width="32" height="32" viewBox="0 0 32 32">
<title>layout</title>
<path d="M25.333 3.333h-18.667c-2.267 0-4 1.733-4 4v18.667c0 2.267 1.733 4 4 4h18.667c2.267 0 4-1.733 4-4v-18.667c0-2.267-1.733-4-4-4zM6.667 6h18.667c0.8 0 1.333 0.533 1.333 1.333v4h-21.333v-4c0-0.8 0.533-1.333 1.333-1.333zM5.333 26v-12h5.333v13.333h-4c-0.8 0-1.333-0.533-1.333-1.333zM25.333 27.333h-12v-13.333h13.333v12c0 0.8-0.533 1.333-1.333 1.333z"></path>
</svg>
