<!-- Generated by IcoMoon.io -->
<svg version="1.1" xmlns="http://www.w3.org/2000/svg" width="32" height="32" viewBox="0 0 32 32">
<title>life-buoy</title>
<path d="M26.4 27.067c2.667-2.667 4.267-6.267 4.267-10.4 0-4-1.6-7.733-4.267-10.4 0 0 0 0 0 0s0 0 0 0c-2.667-2.667-6.4-4.267-10.4-4.267s-7.733 1.6-10.4 4.267c0 0 0 0 0 0s0 0 0 0c-2.667 2.667-4.267 6.4-4.267 10.4s1.6 7.733 4.267 10.4c0 0 0 0 0 0s0 0 0 0c2.667 2.667 6.267 4.267 10.4 4.267 4 0 7.733-1.6 10.4-4.267 0 0 0 0 0 0s0 0 0 0zM25.333 24.133l-3.867-3.867c0.8-0.933 1.2-2.267 1.2-3.6s-0.4-2.667-1.067-3.733l3.733-3.733c1.6 2 2.667 4.667 2.667 7.467s-0.933 5.467-2.667 7.467zM12 16.667c0-2.267 1.733-4 4-4s4 1.733 4 4-1.733 4-4 4-4-1.733-4-4zM23.467 7.333l-3.867 3.867c-0.933-0.8-2.267-1.2-3.6-1.2s-2.667 0.4-3.733 1.067l-3.733-3.733c2-1.733 4.667-2.667 7.467-2.667s5.467 0.933 7.467 2.667zM6.667 9.2l3.867 3.867c-0.8 0.933-1.2 2.267-1.2 3.6s0.4 2.667 1.067 3.733l-3.733 3.733c-1.6-2-2.667-4.667-2.667-7.467s0.933-5.467 2.667-7.467zM8.533 26l3.867-3.867c0.933 0.8 2.267 1.2 3.6 1.2s2.667-0.4 3.733-1.067l3.867 3.867c-2 1.6-4.667 2.667-7.467 2.667-2.933-0.133-5.6-1.067-7.6-2.8z"></path>
</svg>
