<!-- Generated by IcoMoon.io -->
<svg version="1.1" xmlns="http://www.w3.org/2000/svg" width="32" height="32" viewBox="0 0 32 32">
<title>link</title>
<path d="M28.133 4.4c-3.067-3.067-8-3.067-11.067 0l-2.4 2.267c-0.533 0.533-0.533 1.333 0 1.867s1.333 0.533 1.867 0l2.267-2.267c2.133-2 5.333-2 7.467 0s2.133 5.467 0.133 7.467l-4 4c-0.133 0.133-0.4 0.4-0.533 0.533-2.4 1.733-5.733 1.333-7.467-1.067-0.4-0.533-1.333-0.667-1.867-0.267s-0.667 1.333-0.267 1.867c1.6 2.133 4 3.2 6.4 3.2 1.6 0 3.333-0.533 4.8-1.6 0.267-0.267 0.533-0.533 0.933-0.8l4-4c3.067-3.067 2.933-8.267-0.267-11.2zM15.333 24.8l-2.267 2.267c-2.133 2-5.333 2-7.467 0s-2.133-5.467-0.133-7.467l4-4c0.133-0.133 0.4-0.4 0.533-0.533 1.2-0.8 2.533-1.2 4-1.067 1.467 0.267 2.667 0.933 3.467 2.133 0.4 0.533 1.333 0.667 1.867 0.267s0.667-1.333 0.267-1.867c-1.333-1.733-3.2-2.8-5.2-3.067-2-0.4-4.133 0.133-5.867 1.467-0.267 0.267-0.533 0.533-0.8 0.8l-4 4c-3.067 3.2-2.933 8.267 0.133 11.333 1.6 1.467 3.6 2.267 5.6 2.267s4-0.8 5.6-2.267l2.267-2.267c0.533-0.533 0.533-1.333 0-1.867s-1.467-0.667-2-0.133z"></path>
</svg>
