<!-- Generated by IcoMoon.io -->
<svg version="1.1" xmlns="http://www.w3.org/2000/svg" width="32" height="32" viewBox="0 0 32 32">
<title>link-2</title>
<path d="M12 22h-4c-2.933 0-5.333-2.4-5.333-5.333s2.4-5.333 5.333-5.333h4c0.8 0 1.333-0.533 1.333-1.333s-0.533-1.333-1.333-1.333h-4c-4.4 0-8 3.6-8 8s3.6 8 8 8h4c0.8 0 1.333-0.533 1.333-1.333s-0.533-1.333-1.333-1.333zM24 8.667h-4c-0.8 0-1.333 0.533-1.333 1.333s0.533 1.333 1.333 1.333h4c2.933 0 5.333 2.4 5.333 5.333s-2.4 5.333-5.333 5.333h-4c-0.8 0-1.333 0.533-1.333 1.333s0.533 1.333 1.333 1.333h4c4.4 0 8-3.6 8-8s-3.6-8-8-8zM9.333 16.667c0 0.8 0.533 1.333 1.333 1.333h10.667c0.8 0 1.333-0.533 1.333-1.333s-0.533-1.333-1.333-1.333h-10.667c-0.8 0-1.333 0.533-1.333 1.333z"></path>
</svg>
