<!-- Generated by IcoMoon.io -->
<svg version="1.1" xmlns="http://www.w3.org/2000/svg" width="32" height="32" viewBox="0 0 32 32">
<title>linkedin</title>
<path d="M21.333 10c-5.2 0-9.333 4.133-9.333 9.333v9.333c0 0.8 0.533 1.333 1.333 1.333h5.333c0.8 0 1.333-0.533 1.333-1.333v-9.333c0-0.8 0.533-1.333 1.333-1.333s1.333 0.533 1.333 1.333v9.333c0 0.8 0.533 1.333 1.333 1.333h5.333c0.8 0 1.333-0.533 1.333-1.333v-9.333c0-5.2-4.133-9.333-9.333-9.333zM28 27.333h-2.667v-8c0-2.267-1.733-4-4-4s-4 1.733-4 4v8h-2.667v-8c0-3.733 2.933-6.667 6.667-6.667s6.667 2.933 6.667 6.667v8zM8 11.333h-5.333c-0.8 0-1.333 0.533-1.333 1.333v16c0 0.8 0.533 1.333 1.333 1.333h5.333c0.8 0 1.333-0.533 1.333-1.333v-16c0-0.8-0.533-1.333-1.333-1.333zM6.667 27.333h-2.667v-13.333h2.667v13.333zM5.333 2c-2.267 0-4 1.733-4 4s1.733 4 4 4 4-1.733 4-4-1.733-4-4-4zM5.333 7.333c-0.8 0-1.333-0.533-1.333-1.333s0.533-1.333 1.333-1.333 1.333 0.533 1.333 1.333-0.533 1.333-1.333 1.333z"></path>
</svg>
