<!-- Generated by IcoMoon.io -->
<svg version="1.1" xmlns="http://www.w3.org/2000/svg" width="32" height="32" viewBox="0 0 32 32">
<title>list</title>
<path d="M10.667 10h17.333c0.8 0 1.333-0.533 1.333-1.333s-0.533-1.333-1.333-1.333h-17.333c-0.8 0-1.333 0.533-1.333 1.333s0.533 1.333 1.333 1.333zM28 15.333h-17.333c-0.8 0-1.333 0.533-1.333 1.333s0.533 1.333 1.333 1.333h17.333c0.8 0 1.333-0.533 1.333-1.333s-0.533-1.333-1.333-1.333zM28 23.333h-17.333c-0.8 0-1.333 0.533-1.333 1.333s0.533 1.333 1.333 1.333h17.333c0.8 0 1.333-0.533 1.333-1.333s-0.533-1.333-1.333-1.333zM3.067 7.733c-0.267 0.267-0.4 0.533-0.4 0.933s0.133 0.667 0.4 0.933c0.267 0.267 0.533 0.4 0.933 0.4s0.667-0.133 0.933-0.4c0.267-0.267 0.4-0.533 0.4-0.933s-0.133-0.667-0.4-0.933c-0.533-0.533-1.333-0.533-1.867 0zM3.067 15.733c-0.267 0.267-0.4 0.533-0.4 0.933s0.133 0.667 0.4 0.933c0.267 0.267 0.533 0.4 0.933 0.4s0.667-0.133 0.933-0.4c0.267-0.267 0.4-0.533 0.4-0.933s-0.133-0.667-0.4-0.933c-0.533-0.533-1.333-0.533-1.867 0zM3.067 23.733c-0.267 0.267-0.4 0.533-0.4 0.933s0.133 0.667 0.4 0.933c0.267 0.267 0.533 0.4 0.933 0.4s0.667-0.133 0.933-0.4c0.267-0.267 0.4-0.533 0.4-0.933s-0.133-0.667-0.4-0.933c-0.533-0.533-1.333-0.533-1.867 0z"></path>
</svg>
