<!-- Generated by IcoMoon.io -->
<svg version="1.1" xmlns="http://www.w3.org/2000/svg" width="32" height="32" viewBox="0 0 32 32">
<title>lock</title>
<path d="M25.333 14h-1.333v-4c0-4.4-3.6-8-8-8s-8 3.6-8 8v4h-1.333c-2.267 0-4 1.733-4 4v9.333c0 2.267 1.733 4 4 4h18.667c2.267 0 4-1.733 4-4v-9.333c0-2.267-1.733-4-4-4zM10.667 10c0-2.933 2.4-5.333 5.333-5.333s5.333 2.4 5.333 5.333v4h-10.667v-4zM26.667 27.333c0 0.8-0.533 1.333-1.333 1.333h-18.667c-0.8 0-1.333-0.533-1.333-1.333v-9.333c0-0.8 0.533-1.333 1.333-1.333h18.667c0.8 0 1.333 0.533 1.333 1.333v9.333z"></path>
</svg>
