<!-- Generated by IcoMoon.io -->
<svg version="1.1" xmlns="http://www.w3.org/2000/svg" width="32" height="32" viewBox="0 0 32 32">
<title>log-out</title>
<path d="M12 27.333h-5.333c-0.8 0-1.333-0.533-1.333-1.333v-18.667c0-0.8 0.533-1.333 1.333-1.333h5.333c0.8 0 1.333-0.533 1.333-1.333s-0.533-1.333-1.333-1.333h-5.333c-2.267 0-4 1.733-4 4v18.667c0 2.267 1.733 4 4 4h5.333c0.8 0 1.333-0.533 1.333-1.333s-0.533-1.333-1.333-1.333zM29.2 17.2c0.133-0.267 0.133-0.667 0-1.067-0.133-0.133-0.133-0.267-0.267-0.4l-6.667-6.667c-0.533-0.533-1.333-0.533-1.867 0s-0.533 1.333 0 1.867l4.4 4.4h-12.8c-0.8 0-1.333 0.533-1.333 1.333s0.533 1.333 1.333 1.333h12.8l-4.4 4.4c-0.533 0.533-0.533 1.333 0 1.867 0.267 0.267 0.667 0.4 0.933 0.4s0.667-0.133 0.933-0.4l6.667-6.667c0.133-0.133 0.267-0.267 0.267-0.4z"></path>
</svg>
