<!-- Generated by IcoMoon.io -->
<svg version="1.1" xmlns="http://www.w3.org/2000/svg" width="32" height="32" viewBox="0 0 32 32">
<title>mail</title>
<path d="M26.667 4.667h-21.333c-2.267 0-4 1.733-4 4v16c0 2.267 1.733 4 4 4h21.333c2.267 0 4-1.733 4-4v-16c0-2.267-1.733-4-4-4zM5.333 7.333h21.333c0.533 0 0.933 0.267 1.2 0.8l-11.867 8.267-11.867-8.267c0.267-0.533 0.667-0.8 1.2-0.8zM26.667 26h-21.333c-0.8 0-1.333-0.533-1.333-1.333v-13.467l11.2 7.867c0.267 0.133 0.533 0.267 0.8 0.267s0.533-0.133 0.8-0.267l11.2-7.867v13.467c0 0.8-0.533 1.333-1.333 1.333z"></path>
</svg>
