<!-- Generated by IcoMoon.io -->
<svg version="1.1" xmlns="http://www.w3.org/2000/svg" width="32" height="32" viewBox="0 0 32 32">
<title>map-pin</title>
<path d="M16 0.667c-7.333 0-13.333 6-13.333 13.333 0 9.867 12.133 18.133 12.533 18.4 0.267 0.133 0.533 0.267 0.8 0.267s0.533-0.133 0.8-0.267c0.4-0.267 12.533-8.533 12.533-18.4 0-7.333-6-13.333-13.333-13.333zM16 29.733c-2.533-1.867-10.667-8.533-10.667-15.733 0-5.867 4.8-10.667 10.667-10.667s10.667 4.8 10.667 10.667c0 7.2-8.133 13.867-10.667 15.733zM16 8.667c-2.933 0-5.333 2.4-5.333 5.333s2.4 5.333 5.333 5.333c2.933 0 5.333-2.4 5.333-5.333s-2.4-5.333-5.333-5.333zM16 16.667c-1.467 0-2.667-1.2-2.667-2.667s1.2-2.667 2.667-2.667c1.467 0 2.667 1.2 2.667 2.667s-1.2 2.667-2.667 2.667z"></path>
</svg>
