<!-- Generated by IcoMoon.io -->
<svg version="1.1" xmlns="http://www.w3.org/2000/svg" width="32" height="32" viewBox="0 0 32 32">
<title>map</title>
<path d="M31.333 2.133c-0.4-0.267-0.933-0.267-1.333 0l-8.667 5.067-10.133-5.067c0 0 0 0 0 0s0 0-0.133 0c-0.133-0.133-0.267-0.133-0.4-0.133 0 0 0 0 0 0s0 0 0 0c-0.133 0-0.267 0-0.533 0.133 0 0 0 0-0.133 0 0 0-0.133 0-0.133 0l-9.333 5.333c-0.267 0.267-0.533 0.667-0.533 1.2v21.333c0 0.533 0.267 0.933 0.667 1.2s0.933 0.267 1.333 0l8.667-5.067 10 5.067c0 0 0 0 0 0 0.267 0.133 0.4 0.133 0.667 0.133 0.133 0 0.267 0 0.4-0.133 0 0 0.133 0 0.133 0s0 0 0.133 0l9.333-5.333c0.4-0.267 0.667-0.667 0.667-1.2v-21.333c0-0.533-0.267-0.933-0.667-1.2zM12 5.467l8 4v18.4l-8-4v-18.4zM2.667 9.467l6.667-3.867v18.267l-6.667 3.867v-18.267zM29.333 23.867l-6.667 3.867v-18.267l6.667-3.867v18.267z"></path>
</svg>
