<!-- Generated by IcoMoon.io -->
<svg version="1.1" xmlns="http://www.w3.org/2000/svg" width="32" height="32" viewBox="0 0 32 32">
<title>maximize-2</title>
<path d="M29.2 4.133c-0.133-0.267-0.4-0.533-0.667-0.667-0.133-0.133-0.4-0.133-0.533-0.133h-8c-0.8 0-1.333 0.533-1.333 1.333s0.533 1.333 1.333 1.333h4.8l-7.067 7.067c-0.533 0.533-0.533 1.333 0 1.867 0.267 0.267 0.667 0.4 0.933 0.4s0.667-0.133 0.933-0.4l7.067-7.067v4.8c0 0.8 0.533 1.333 1.333 1.333s1.333-0.533 1.333-1.333v-8c0-0.133 0-0.4-0.133-0.533zM12.4 18.4l-7.067 7.067v-4.8c0-0.8-0.533-1.333-1.333-1.333s-1.333 0.533-1.333 1.333v8c0 0.133 0 0.4 0.133 0.533 0.133 0.267 0.4 0.533 0.667 0.667 0.133 0.133 0.4 0.133 0.533 0.133h8c0.8 0 1.333-0.533 1.333-1.333s-0.533-1.333-1.333-1.333h-4.8l7.067-7.067c0.533-0.533 0.533-1.333 0-1.867s-1.333-0.533-1.867 0z"></path>
</svg>
