<!-- Generated by IcoMoon.io -->
<svg version="1.1" xmlns="http://www.w3.org/2000/svg" width="32" height="32" viewBox="0 0 32 32">
<title>maximize</title>
<path d="M10.667 27.333h-4c-0.8 0-1.333-0.533-1.333-1.333v-4c0-0.8-0.533-1.333-1.333-1.333s-1.333 0.533-1.333 1.333v4c0 2.267 1.733 4 4 4h4c0.8 0 1.333-0.533 1.333-1.333s-0.533-1.333-1.333-1.333zM10.667 3.333h-4c-2.267 0-4 1.733-4 4v4c0 0.8 0.533 1.333 1.333 1.333s1.333-0.533 1.333-1.333v-4c0-0.8 0.533-1.333 1.333-1.333h4c0.8 0 1.333-0.533 1.333-1.333s-0.533-1.333-1.333-1.333zM25.333 3.333h-4c-0.8 0-1.333 0.533-1.333 1.333s0.533 1.333 1.333 1.333h4c0.8 0 1.333 0.533 1.333 1.333v4c0 0.8 0.533 1.333 1.333 1.333s1.333-0.533 1.333-1.333v-4c0-2.267-1.733-4-4-4zM28 20.667c-0.8 0-1.333 0.533-1.333 1.333v4c0 0.8-0.533 1.333-1.333 1.333h-4c-0.8 0-1.333 0.533-1.333 1.333s0.533 1.333 1.333 1.333h4c2.267 0 4-1.733 4-4v-4c0-0.8-0.533-1.333-1.333-1.333z"></path>
</svg>
