<!-- Generated by IcoMoon.io -->
<svg version="1.1" xmlns="http://www.w3.org/2000/svg" width="32" height="32" viewBox="0 0 32 32">
<title>message-square</title>
<path d="M25.333 3.333h-18.667c-2.267 0-4 1.733-4 4v21.333c0 0.533 0.267 1.067 0.8 1.2 0.133 0.133 0.4 0.133 0.533 0.133 0.4 0 0.667-0.133 0.933-0.4l4.933-4.933h15.467c2.267 0 4-1.733 4-4v-13.333c0-2.267-1.733-4-4-4zM26.667 20.667c0 0.8-0.533 1.333-1.333 1.333h-16c-0.4 0-0.667 0.133-0.933 0.4l-3.067 3.067v-18.133c0-0.8 0.533-1.333 1.333-1.333h18.667c0.8 0 1.333 0.533 1.333 1.333v13.333z"></path>
</svg>
