<!-- Generated by IcoMoon.io -->
<svg version="1.1" xmlns="http://www.w3.org/2000/svg" width="32" height="32" viewBox="0 0 32 32">
<title>message-circle</title>
<path d="M29.333 15.2c-0.4-6.4-5.467-11.6-12-11.867h-0.667c0 0 0 0 0 0-2 0-3.867 0.4-5.6 1.333-4.4 2.133-7.067 6.533-7.067 11.333 0 1.733 0.4 3.6 1.067 5.2l-2.4 7.067c-0.133 0.533 0 1.067 0.267 1.333 0.4 0.267 0.667 0.4 1.067 0.4 0.133 0 0.267 0 0.4-0.133l7.067-2.4c1.6 0.667 3.333 1.067 5.2 1.067 4.8 0 9.2-2.667 11.333-6.933 0.933-1.733 1.333-3.733 1.333-5.733v-0.667zM26.667 16c0 0 0 0 0 0 0 1.6-0.4 3.067-1.067 4.533-1.733 3.467-5.067 5.467-8.933 5.467-1.6 0-3.067-0.4-4.4-1.067-0.267-0.133-0.667-0.133-1.067-0.133l-5.067 1.733 1.733-5.067c0.133-0.4 0.133-0.667-0.133-1.067-0.667-1.333-1.067-2.933-1.067-4.4 0-3.867 2.133-7.2 5.6-8.933 1.333-0.667 2.933-1.067 4.4-1.067 0 0 0 0 0 0h0.533c5.067 0.267 9.067 4.267 9.467 9.333v0.667z"></path>
</svg>
