<!-- Generated by IcoMoon.io -->
<svg version="1.1" xmlns="http://www.w3.org/2000/svg" width="32" height="32" viewBox="0 0 32 32">
<title>mic-off</title>
<path d="M31.6 30.4l-7.867-7.867c0-0.133-0.133-0.133-0.133-0.267 0 0-0.133-0.133-0.133-0.133l-10.533-10.4c0 0 0 0 0 0l-10.667-10.667c-0.533-0.533-1.333-0.533-1.867 0s-0.533 1.333 0 1.867l10.267 10.267v3.467c0 1.467 0.533 2.8 1.6 3.733 0.933 1.067 2.267 1.6 3.733 1.6 0 0 0 0 0 0 0.933 0 1.867-0.267 2.667-0.8l2 2c-1.333 0.933-2.8 1.467-4.4 1.467-0.133 0-0.133 0-0.267 0s-0.133 0-0.267 0c-2 0-3.867-0.8-5.333-2.267-1.6-1.467-2.4-3.6-2.4-5.733v-2.667c0-0.8-0.533-1.333-1.333-1.333s-1.333 0.533-1.333 1.333v2.667c0 2.933 1.2 5.733 3.2 7.733 1.733 1.733 3.867 2.667 6.133 2.933v2.667h-4c-0.8 0-1.333 0.533-1.333 1.333s0.533 1.333 1.333 1.333h10.667c0.8 0 1.333-0.533 1.333-1.333s-0.533-1.333-1.333-1.333h-4v-2.667c1.867-0.267 3.733-0.933 5.2-2.133l7.2 7.2c0.267 0.267 0.667 0.4 0.933 0.4s0.667-0.133 0.933-0.4c0.533-0.667 0.533-1.467 0-2zM16 19.333c0 0 0 0 0 0-0.667 0-1.333-0.267-1.867-0.8s-0.8-1.2-0.8-1.867v-0.8l3.333 3.333c-0.267 0.133-0.4 0.133-0.667 0.133zM11.867 6.533c0.667 0.133 1.333-0.4 1.467-1.067 0.267-1.2 1.333-2.133 2.667-2.133 0 0 0 0 0 0 0.667 0 1.333 0.267 1.867 0.8s0.8 1.2 0.8 1.867v7.067c0 0.8 0.533 1.333 1.333 1.333s1.333-0.533 1.333-1.333v-7.067c0-1.467-0.533-2.8-1.6-3.733-0.933-1.067-2.267-1.6-3.733-1.6 0 0 0 0 0 0-2.533 0-4.667 1.733-5.2 4.267-0.133 0.667 0.267 1.467 1.067 1.6zM24.933 19.6c0.133 0 0.133 0 0.267 0 0.667 0 1.2-0.4 1.333-1.067s0.133-1.2 0.133-1.867v-2.667c0-0.8-0.533-1.333-1.333-1.333s-1.333 0.533-1.333 1.333v2.667c0 0.533 0 0.933-0.133 1.467-0.133 0.667 0.4 1.333 1.067 1.467z"></path>
</svg>
