<!-- Generated by IcoMoon.io -->
<svg version="1.1" xmlns="http://www.w3.org/2000/svg" width="32" height="32" viewBox="0 0 32 32">
<title>mic</title>
<path d="M16 22c2.933 0 5.333-2.4 5.333-5.333v-10.667c0-2.933-2.4-5.333-5.333-5.333s-5.333 2.4-5.333 5.333v10.667c0 2.933 2.4 5.333 5.333 5.333zM13.333 6c0-1.467 1.2-2.667 2.667-2.667s2.667 1.2 2.667 2.667v10.667c0 1.467-1.2 2.667-2.667 2.667s-2.667-1.2-2.667-2.667v-10.667zM25.333 12.667c-0.8 0-1.333 0.533-1.333 1.333v2.667c0 4.4-3.6 8-8 8s-8-3.6-8-8v-2.667c0-0.8-0.533-1.333-1.333-1.333s-1.333 0.533-1.333 1.333v2.667c0 5.467 4.133 9.867 9.333 10.533v2.8h-4c-0.8 0-1.333 0.533-1.333 1.333s0.533 1.333 1.333 1.333h10.667c0.8 0 1.333-0.533 1.333-1.333s-0.533-1.333-1.333-1.333h-4v-2.8c5.2-0.667 9.333-5.2 9.333-10.533v-2.667c0-0.8-0.533-1.333-1.333-1.333z"></path>
</svg>
