<!-- Generated by IcoMoon.io -->
<svg version="1.1" xmlns="http://www.w3.org/2000/svg" width="32" height="32" viewBox="0 0 32 32">
<title>monitor</title>
<path d="M26.667 3.333h-21.333c-2.267 0-4 1.733-4 4v13.333c0 2.267 1.733 4 4 4h9.333v2.667h-4c-0.8 0-1.333 0.533-1.333 1.333s0.533 1.333 1.333 1.333h10.667c0.8 0 1.333-0.533 1.333-1.333s-0.533-1.333-1.333-1.333h-4v-2.667h9.333c2.267 0 4-1.733 4-4v-13.333c0-2.267-1.733-4-4-4zM28 20.667c0 0.8-0.533 1.333-1.333 1.333h-21.333c-0.8 0-1.333-0.533-1.333-1.333v-13.333c0-0.8 0.533-1.333 1.333-1.333h21.333c0.8 0 1.333 0.533 1.333 1.333v13.333z"></path>
</svg>
