<!-- Generated by IcoMoon.io -->
<svg version="1.1" xmlns="http://www.w3.org/2000/svg" width="32" height="32" viewBox="0 0 32 32">
<title>move</title>
<path d="M30.533 17.2c0.133-0.267 0.133-0.667 0-1.067-0.133-0.133-0.133-0.267-0.267-0.4l-4-4c-0.533-0.533-1.333-0.533-1.867 0s-0.533 1.333 0 1.867l1.733 1.733h-8.8v-8.8l1.733 1.733c0.267 0.267 0.533 0.4 0.933 0.4s0.667-0.133 0.933-0.4c0.533-0.533 0.533-1.333 0-1.867l-4-4c-0.133-0.133-0.267-0.267-0.4-0.267-0.267-0.133-0.667-0.133-1.067 0-0.133 0.133-0.267 0.133-0.4 0.267l-4 4c-0.533 0.533-0.533 1.333 0 1.867s1.333 0.533 1.867 0l1.733-1.733v8.8h-8.8l1.733-1.733c0.533-0.533 0.533-1.333 0-1.867s-1.333-0.533-1.867 0l-4 4c-0.133 0.133-0.267 0.267-0.267 0.4-0.133 0.267-0.133 0.667 0 1.067 0.133 0.133 0.133 0.267 0.267 0.4l4 4c0.267 0.267 0.533 0.4 0.933 0.4s0.667-0.133 0.933-0.4c0.533-0.533 0.533-1.333 0-1.867l-1.733-1.733h8.8v8.8l-1.733-1.733c-0.533-0.533-1.333-0.533-1.867 0s-0.533 1.333 0 1.867l4 4c0.133 0.133 0.267 0.267 0.4 0.267 0.133 0.133 0.4 0.133 0.533 0.133s0.4 0 0.533-0.133c0.133-0.133 0.267-0.133 0.4-0.267l4-4c0.533-0.533 0.533-1.333 0-1.867s-1.333-0.533-1.867 0l-1.733 1.733v-8.8h8.8l-1.733 1.733c-0.533 0.533-0.533 1.333 0 1.867 0.267 0.267 0.667 0.4 0.933 0.4s0.667-0.133 0.933-0.4l4-4c0.133-0.133 0.267-0.267 0.267-0.4z"></path>
</svg>
