<!-- Generated by IcoMoon.io -->
<svg version="1.1" xmlns="http://www.w3.org/2000/svg" width="32" height="32" viewBox="0 0 32 32">
<title>music</title>
<path d="M28.8 3.6c-0.267-0.267-0.667-0.267-1.067-0.267l-16 2.667c-0.533 0.133-1.067 0.667-1.067 1.333v14.667h-4c-2.267 0-4 1.733-4 4s1.733 4 4 4h2.667c2.267 0 4-1.733 4-4v-17.6l13.333-2.267v13.2h-4c-2.267 0-4 1.733-4 4s1.733 4 4 4h2.667c2.267 0 4-1.733 4-4v-18.667c0-0.4-0.133-0.8-0.533-1.067zM10.667 26c0 0.8-0.533 1.333-1.333 1.333h-2.667c-0.8 0-1.333-0.533-1.333-1.333s0.533-1.333 1.333-1.333h4v1.333zM26.667 23.333c0 0.8-0.533 1.333-1.333 1.333h-2.667c-0.8 0-1.333-0.533-1.333-1.333s0.533-1.333 1.333-1.333h4v1.333z"></path>
</svg>
