<!-- Generated by IcoMoon.io -->
<svg version="1.1" xmlns="http://www.w3.org/2000/svg" width="32" height="32" viewBox="0 0 32 32">
<title>navigation</title>
<path d="M30.267 2.4c-0.4-0.4-0.933-0.533-1.467-0.267l-25.333 12c-0.533 0.267-0.8 0.8-0.8 1.333s0.4 1.067 1.067 1.2l9.867 2.533 2.533 9.867c0.133 0.533 0.667 0.933 1.2 1.067 0 0 0.133 0 0.133 0 0.533 0 0.933-0.267 1.2-0.8l12-25.333c0.133-0.667 0-1.2-0.4-1.6zM17.733 24.667l-1.733-6.933c-0.133-0.533-0.533-0.8-0.933-0.933l-7.067-1.867 18.533-8.8-8.8 18.533z"></path>
</svg>
