<!-- Generated by IcoMoon.io -->
<svg version="1.1" xmlns="http://www.w3.org/2000/svg" width="32" height="32" viewBox="0 0 32 32">
<title>navigation-2</title>
<path d="M26.533 28.267l-9.333-25.333c-0.133-0.533-0.667-0.933-1.2-0.933s-1.067 0.4-1.2 0.933l-9.333 25.333c-0.133 0.533 0 1.067 0.4 1.467s1.067 0.4 1.467 0.133l8.667-4.933 8.667 4.933c0.267 0.133 0.4 0.133 0.667 0.133s0.667-0.133 0.8-0.267c0.533-0.4 0.667-1.067 0.4-1.467zM16.667 22.133c-0.267-0.133-0.4-0.133-0.667-0.133s-0.4 0-0.667 0.133l-6.133 3.467 6.8-18.4 6.8 18.533-6.133-3.6z"></path>
</svg>
