<!-- Generated by IcoMoon.io -->
<svg version="1.1" xmlns="http://www.w3.org/2000/svg" width="32" height="32" viewBox="0 0 32 32">
<title>octagon</title>
<path d="M30.267 10.267l-7.867-7.867c-0.133-0.267-0.533-0.4-0.933-0.4h-10.933c-0.4 0-0.8 0.133-0.933 0.4l-7.867 7.867c-0.267 0.133-0.4 0.533-0.4 0.933v11.067c0 0.4 0.133 0.667 0.4 0.933l7.867 7.867c0.133 0.133 0.533 0.267 0.933 0.267h11.067c0.4 0 0.667-0.133 0.933-0.4l7.867-7.867c0.267-0.267 0.4-0.533 0.4-0.933v-10.933c-0.133-0.4-0.267-0.8-0.533-0.933zM28 21.6l-7.067 7.067h-9.867l-7.067-7.067v-9.867l7.067-7.067h10l6.933 7.067v9.867z"></path>
</svg>
