<!-- Generated by IcoMoon.io -->
<svg version="1.1" xmlns="http://www.w3.org/2000/svg" width="32" height="32" viewBox="0 0 32 32">
<title>package</title>
<path d="M28.4 6.8l-10.667-5.333c0 0 0 0 0 0-1.067-0.533-2.4-0.533-3.6 0l-10.667 5.333c-1.333 0.667-2.133 2-2.133 3.467v12.667c0 1.467 0.8 2.933 2.267 3.6l10.667 5.333c0.533 0.267 1.2 0.4 1.733 0.4 0.667 0 1.2-0.133 1.733-0.4l10.667-5.333c1.333-0.667 2.267-2 2.267-3.6v-12.667c0-1.467-0.8-2.8-2.267-3.467zM15.467 3.733c0.133-0.133 0.4-0.133 0.533-0.133 0.267 0 0.4 0 0.533 0.133l9.867 4.933-3.733 1.867-10.4-5.2 3.2-1.6zM16 13.867l-10.4-5.2 3.733-1.867 10.4 5.2-3.733 1.867zM4.667 24.267c-0.4-0.267-0.667-0.8-0.667-1.2v-12.267l10.667 5.333v13.067l-10-4.933zM27.2 24.267l-9.867 4.933v-13.067l10.667-5.333v12.267c0 0.533-0.267 0.933-0.8 1.2z"></path>
</svg>
