<!-- Generated by IcoMoon.io -->
<svg version="1.1" xmlns="http://www.w3.org/2000/svg" width="32" height="32" viewBox="0 0 32 32">
<title>paperclip</title>
<path d="M29.467 14.4c-0.533-0.533-1.333-0.533-1.867 0l-12.267 12.267c-2.667 2.667-6.8 2.667-9.467 0s-2.667-6.8 0-9.467l12.267-12.267c1.467-1.467 4.133-1.467 5.6 0 1.6 1.6 1.6 4.133 0 5.6l-12.267 12.267c-0.533 0.533-1.333 0.533-1.867 0-0.133-0.133-0.267-0.4-0.267-0.8s0.133-0.667 0.4-0.933l11.333-11.333c0.533-0.533 0.533-1.333 0-1.867s-1.333-0.533-1.867 0l-11.333 11.333c-0.8 0.667-1.2 1.733-1.2 2.8s0.4 2.133 1.2 2.8c1.6 1.6 4.133 1.6 5.6 0l12.267-12.267c2.667-2.667 2.667-6.8 0-9.467-1.2-1.2-2.933-2-4.667-2s-3.467 0.667-4.667 2l-12.267 12.267c-3.6 3.6-3.6 9.6 0 13.2 1.867 1.867 4.267 2.667 6.667 2.667s4.8-0.933 6.667-2.667l12.267-12.267c0.267-0.4 0.267-1.333-0.267-1.867z"></path>
</svg>
