<!-- Generated by IcoMoon.io -->
<svg version="1.1" xmlns="http://www.w3.org/2000/svg" width="32" height="32" viewBox="0 0 32 32">
<title>pause</title>
<path d="M13.333 4.667h-5.333c-0.8 0-1.333 0.533-1.333 1.333v21.333c0 0.8 0.533 1.333 1.333 1.333h5.333c0.8 0 1.333-0.533 1.333-1.333v-21.333c0-0.8-0.533-1.333-1.333-1.333zM12 26h-2.667v-18.667h2.667v18.667zM24 4.667h-5.333c-0.8 0-1.333 0.533-1.333 1.333v21.333c0 0.8 0.533 1.333 1.333 1.333h5.333c0.8 0 1.333-0.533 1.333-1.333v-21.333c0-0.8-0.533-1.333-1.333-1.333zM22.667 26h-2.667v-18.667h2.667v18.667z"></path>
</svg>
