<!-- Generated by IcoMoon.io -->
<svg version="1.1" xmlns="http://www.w3.org/2000/svg" width="32" height="32" viewBox="0 0 32 32">
<title>percent</title>
<path d="M26.267 6.4c-0.533-0.533-1.333-0.533-1.867 0l-18.667 18.667c-0.533 0.533-0.533 1.333 0 1.867 0.267 0.267 0.533 0.4 0.933 0.4s0.667-0.133 0.933-0.4l18.667-18.667c0.533-0.533 0.533-1.333 0-1.867zM8.667 14c2.533 0 4.667-2.133 4.667-4.667s-2.133-4.667-4.667-4.667-4.667 2.133-4.667 4.667 2.133 4.667 4.667 4.667zM8.667 7.333c1.067 0 2 0.933 2 2s-0.933 2-2 2-2-0.933-2-2 0.933-2 2-2zM23.333 19.333c-2.533 0-4.667 2.133-4.667 4.667s2.133 4.667 4.667 4.667 4.667-2.133 4.667-4.667-2.133-4.667-4.667-4.667zM23.333 26c-1.067 0-2-0.933-2-2s0.933-2 2-2 2 0.933 2 2-0.933 2-2 2z"></path>
</svg>
