<!-- Generated by IcoMoon.io -->
<svg version="1.1" xmlns="http://www.w3.org/2000/svg" width="32" height="32" viewBox="0 0 32 32">
<title>phone-off</title>
<path d="M6.933 19.067c0.267 0 0.533-0.133 0.667-0.267 0.667-0.4 0.8-1.2 0.4-1.867-2.133-3.2-3.467-6.933-3.867-10.8 0-0.4 0.133-0.667 0.267-0.933 0.267-0.267 0.667-0.533 1.067-0.533h4c0.667 0 1.2 0.533 1.333 1.2 0.133 1.333 0.533 2.8 1.067 4 0.133 0.533 0 1.067-0.267 1.467l-1.733 1.6c-0.533 0.533-0.533 1.333 0 1.867s1.333 0.533 1.867 0l1.733-1.733c1.067-1.067 1.467-2.8 0.933-4.267-0.4-1.067-0.667-2.267-0.8-3.467-0.4-1.867-2.133-3.333-4.133-3.333 0 0 0 0 0 0h-4c-0.133 0-0.267 0-0.4 0-1.067 0.133-2 0.667-2.667 1.467s-0.933 1.867-0.933 2.933c0.4 4.267 2 8.533 4.267 12.133 0.267 0.267 0.8 0.533 1.2 0.533zM31.6 1.067c-0.533-0.533-1.333-0.533-1.867 0l-16.4 16.4c0 0 0 0 0 0s0 0 0 0l-12.933 12.933c-0.533 0.533-0.533 1.333 0 1.867 0.267 0.267 0.533 0.4 0.933 0.4s0.667-0.133 0.933-0.4l8.267-8.267c1.2 1.067 2.4 2 3.733 2.8 3.6 2.4 7.867 3.867 12.133 4.267 0.133 0 0.267 0 0.4 0 1.067 0 2.133-0.4 2.8-1.2s1.2-1.733 1.2-2.8v-4c0-2-1.467-3.733-3.467-4-1.2-0.133-2.4-0.4-3.467-0.8-1.467-0.533-3.067-0.133-4.267 0.933l-0.933 0.933c-0.8-0.533-1.6-1.2-2.4-1.867l15.333-15.333c0.533-0.533 0.533-1.333 0-1.867zM18.133 23.067c0.533 0.267 1.2 0.267 1.6-0.267l1.733-1.733c0.4-0.4 0.933-0.533 1.467-0.267 1.333 0.533 2.667 0.8 4 1.067 0.667 0.133 1.2 0.667 1.2 1.333v4c0 0.4-0.133 0.667-0.4 0.933s-0.533 0.4-1.067 0.4c-3.867-0.4-7.6-1.733-10.933-3.867-1.2-0.667-2.267-1.6-3.2-2.533l1.867-1.867c1.067 1.067 2.4 2 3.733 2.8z"></path>
</svg>
