<!-- Generated by IcoMoon.io -->
<svg version="1.1" xmlns="http://www.w3.org/2000/svg" width="32" height="32" viewBox="0 0 32 32">
<title>phone-forwarded</title>
<path d="M31.867 7.867c0.133-0.267 0.133-0.667 0-1.067-0.133-0.133-0.133-0.267-0.267-0.4l-5.333-5.333c-0.533-0.533-1.333-0.533-1.867 0s-0.533 1.333 0 1.867l3.067 3.067h-7.467c-0.8 0-1.333 0.533-1.333 1.333s0.533 1.333 1.333 1.333h7.467l-3.067 3.067c-0.533 0.533-0.533 1.333 0 1.867 0.267 0.267 0.533 0.4 0.933 0.4s0.667-0.133 0.933-0.4l5.333-5.333c0.133-0.133 0.267-0.267 0.267-0.4zM27.2 19.2c-1.2-0.133-2.4-0.4-3.467-0.8-1.467-0.533-3.067-0.133-4.267 0.933l-0.933 0.933c-2.4-1.6-4.533-3.6-6.133-6.133l0.933-0.933c1.067-1.067 1.467-2.8 0.933-4.267-0.4-1.067-0.667-2.267-0.8-3.467-0.267-2-2-3.467-4-3.467 0 0 0 0 0 0h-4c-0.133 0-0.267 0-0.4 0-1.067 0.133-2 0.667-2.667 1.467s-0.933 1.867-0.933 2.933c0.4 4.267 2 8.533 4.267 12.133 2.133 3.333 5.067 6.267 8.4 8.4 3.6 2.4 7.867 3.867 12.133 4.267 0.133 0 0.267 0 0.4 0 0 0 0 0 0 0 1.067 0 2.133-0.4 2.8-1.2s1.2-1.733 1.2-2.8v-4c0-2-1.467-3.733-3.467-4zM28 23.2v4c0 0.4-0.133 0.667-0.4 0.933s-0.533 0.4-1.067 0.4c-3.867-0.4-7.6-1.733-10.933-3.867-3.067-1.867-5.6-4.533-7.6-7.6-2.133-3.333-3.467-7.067-3.867-10.933 0-0.4 0.133-0.667 0.267-0.933 0.267-0.267 0.667-0.533 1.067-0.533h4c0 0 0 0 0 0 0.667 0 1.2 0.533 1.333 1.2 0.133 1.333 0.533 2.8 1.067 4 0.133 0.533 0 1.067-0.267 1.467l-1.733 1.6c-0.4 0.4-0.533 1.067-0.267 1.6 2 3.6 4.933 6.533 8.533 8.533 0.533 0.267 1.2 0.267 1.6-0.267l1.733-1.733c0.4-0.4 0.933-0.533 1.467-0.267 1.333 0.533 2.667 0.8 4 1.067 0.533 0.133 1.067 0.667 1.067 1.333 0 0 0 0 0 0z"></path>
</svg>
