<!-- Generated by IcoMoon.io -->
<svg version="1.1" xmlns="http://www.w3.org/2000/svg" width="32" height="32" viewBox="0 0 32 32">
<title>pie-chart</title>
<path d="M28.8 20.667c-0.667-0.267-1.467 0-1.733 0.667-2.533 6.133-9.6 8.933-15.733 6.4s-8.933-9.6-6.4-15.733c1.2-2.8 3.467-5.067 6.267-6.267 0.667-0.267 0.933-1.067 0.667-1.733s-1.067-1.067-1.733-0.8c-3.467 1.467-6.133 4.267-7.6 7.733-3.2 7.467 0.4 16.133 7.733 19.2 1.867 0.8 3.867 1.2 5.733 1.2 5.733 0 11.2-3.333 13.467-8.933 0.267-0.667 0-1.467-0.667-1.733zM16 2c-0.8 0-1.333 0.533-1.333 1.333v13.333c0 0.8 0.533 1.333 1.333 1.333h13.333c0.8 0 1.333-0.533 1.333-1.333 0-8.133-6.533-14.667-14.667-14.667zM17.333 15.333v-10.533c5.6 0.667 10 5.067 10.533 10.533h-10.533z"></path>
</svg>
