<!-- Generated by IcoMoon.io -->
<svg version="1.1" xmlns="http://www.w3.org/2000/svg" width="32" height="32" viewBox="0 0 32 32">
<title>play-circle</title>
<path d="M16 2c-8.133 0-14.667 6.533-14.667 14.667s6.533 14.667 14.667 14.667 14.667-6.533 14.667-14.667-6.533-14.667-14.667-14.667zM16 28.667c-6.667 0-12-5.333-12-12s5.333-12 12-12c6.667 0 12 5.333 12 12s-5.333 12-12 12zM22.133 15.6l-8-5.333c-0.4-0.267-0.933-0.267-1.333 0-0.533 0.133-0.8 0.533-0.8 1.067v10.667c0 0.533 0.267 0.933 0.667 1.2 0.267 0.133 0.4 0.133 0.667 0.133s0.533-0.133 0.8-0.267l8-5.333c0.4-0.267 0.533-0.667 0.533-1.067s-0.267-0.8-0.533-1.067zM14.667 19.467v-5.6l4.267 2.8-4.267 2.8z"></path>
</svg>
