<!-- Generated by IcoMoon.io -->
<svg version="1.1" xmlns="http://www.w3.org/2000/svg" width="32" height="32" viewBox="0 0 32 32">
<title>pocket</title>
<path d="M26.667 3.333h-21.333c-2.267 0-4 1.733-4 4v8c0 8.133 6.533 14.667 14.667 14.667s14.667-6.533 14.667-14.667v-8c0-2.267-1.733-4-4-4zM28 15.333c0 6.667-5.333 12-12 12s-12-5.333-12-12v-8c0-0.8 0.533-1.333 1.333-1.333h21.333c0.8 0 1.333 0.533 1.333 1.333v8zM20.4 13.067l-4.4 4.4-4.4-4.4c-0.533-0.533-1.333-0.533-1.867 0s-0.533 1.333 0 1.867l5.333 5.333c0.267 0.267 0.667 0.4 0.933 0.4s0.667-0.133 0.933-0.4l5.333-5.333c0.533-0.533 0.533-1.333 0-1.867s-1.333-0.533-1.867 0z"></path>
</svg>
