<!-- Generated by IcoMoon.io -->
<svg version="1.1" xmlns="http://www.w3.org/2000/svg" width="32" height="32" viewBox="0 0 32 32">
<title>power</title>
<path d="M25.467 8.533c-0.533-0.533-1.333-0.533-1.867 0s-0.533 1.333 0 1.867c4.133 4.133 4.133 10.933 0 15.067s-10.933 4.133-15.067 0c-4.133-4.133-4.133-10.933 0-15.067 0.533-0.533 0.533-1.333 0-1.867s-1.333-0.533-1.867 0c-5.333 5.2-5.333 13.733-0.133 18.933 2.667 2.533 6 3.867 9.467 3.867s6.8-1.333 9.467-3.867c5.2-5.2 5.2-13.733 0-18.933zM16 18c0.8 0 1.333-0.533 1.333-1.333v-13.333c0-0.8-0.533-1.333-1.333-1.333s-1.333 0.533-1.333 1.333v13.333c0 0.8 0.533 1.333 1.333 1.333z"></path>
</svg>
