<!-- Generated by IcoMoon.io -->
<svg version="1.1" xmlns="http://www.w3.org/2000/svg" width="32" height="32" viewBox="0 0 32 32">
<title>radio</title>
<path d="M16 12.667c-2.267 0-4 1.733-4 4s1.733 4 4 4 4-1.733 4-4-1.733-4-4-4zM16 18c-0.8 0-1.333-0.533-1.333-1.333s0.533-1.333 1.333-1.333 1.333 0.533 1.333 1.333-0.533 1.333-1.333 1.333zM26.4 6.267c-0.533-0.533-1.333-0.533-1.867 0s-0.533 1.333 0 1.867c4.667 4.667 4.667 12.267 0 16.933-0.533 0.533-0.533 1.333 0 1.867 0.267 0.267 0.667 0.4 0.933 0.4s0.667-0.133 0.933-0.4c5.733-5.6 5.733-14.933 0-20.667zM7.467 8.133c0.533-0.533 0.533-1.333 0-1.867s-1.333-0.533-1.867 0c-5.733 5.733-5.733 15.067 0 20.8 0.267 0.267 0.667 0.4 0.933 0.4s0.667-0.133 0.933-0.4c0.533-0.533 0.533-1.333 0-1.867-4.667-4.667-4.667-12.4 0-17.067zM9.333 16.667c0-1.733 0.667-3.467 2-4.667 0 0 0 0 0 0 0.533-0.533 0.4-1.333 0-1.867-0.533-0.533-1.333-0.533-1.867 0 0 0 0 0 0 0-3.6 3.6-3.6 9.6 0 13.2 0.267 0.267 0.667 0.4 0.933 0.4s0.667-0.133 0.933-0.4c0.533-0.533 0.533-1.333 0-1.867-1.333-1.333-2-3.067-2-4.8zM22.533 10.133c-0.533-0.533-1.333-0.533-1.867 0s-0.533 1.333 0 1.867c2.667 2.533 2.667 6.8 0.133 9.333-0.133 0.133-0.267 0.267-0.4 0.4-0.267 0.667 0 1.467 0.533 1.733 0.133 0.133 0.4 0.133 0.533 0.133 0.4 0 0.667-0.133 0.933-0.4 3.867-3.6 3.867-9.467 0.133-13.067z"></path>
</svg>
