<!-- Generated by IcoMoon.io -->
<svg version="1.1" xmlns="http://www.w3.org/2000/svg" width="32" height="32" viewBox="0 0 32 32">
<title>refresh-cw</title>
<path d="M27.733 19.467c-0.667-0.267-1.467 0.133-1.733 0.8-0.533 1.467-1.333 2.933-2.533 4-1.867 2-4.667 3.067-7.467 3.067 0 0 0 0 0 0-2.8 0-5.467-1.067-7.6-3.2l-3.733-3.467h4.667c0.8 0 1.333-0.533 1.333-1.333s-0.533-1.333-1.333-1.333h-8c0 0 0 0 0 0-0.133 0-0.267 0-0.267 0.133 0 0-0.133 0-0.133 0s-0.133 0-0.133 0.133c-0.133 0-0.267 0.133-0.267 0.267 0 0 0 0 0 0s0 0.133-0.133 0.133c0 0.133-0.133 0.133-0.133 0.267s0 0.133 0 0.267c0 0 0 0.133 0 0.133v8c0 0.8 0.533 1.333 1.333 1.333s1.333-0.533 1.333-1.333v-4.933l3.867 3.733c2.267 2.533 5.6 3.867 9.2 3.867 0 0 0 0 0 0 3.6 0 6.933-1.333 9.467-3.867 1.333-1.333 2.533-3.067 3.2-4.933 0.133-0.8-0.267-1.6-0.933-1.733zM32 14.133c0 0 0-0.133 0-0.133v-8c0-0.8-0.533-1.333-1.333-1.333s-1.333 0.533-1.333 1.333v4.933l-3.867-3.733c-1.333-1.333-3.067-2.533-4.933-3.2-3.467-1.067-7.067-0.933-10.267 0.667-3.2 1.467-5.6 4.133-6.8 7.6-0.267 0.667 0.133 1.467 0.8 1.6 0.667 0.267 1.467-0.133 1.733-0.8 0.933-2.667 2.933-4.8 5.467-6.133 2.533-1.2 5.467-1.333 8.133-0.4 1.467 0.533 2.933 1.333 4 2.533l3.733 3.6h-4.667c-0.8 0-1.333 0.533-1.333 1.333s0.533 1.333 1.333 1.333h8c0.133 0 0.4 0 0.533-0.133 0 0 0 0 0 0 0.133-0.133 0.267-0.133 0.4-0.267 0 0 0 0 0 0s0-0.133 0.133-0.133c0-0.133 0.133-0.133 0.133-0.267 0.133-0.133 0.133-0.267 0.133-0.4z"></path>
</svg>
