<!-- Generated by IcoMoon.io -->
<svg version="1.1" xmlns="http://www.w3.org/2000/svg" width="32" height="32" viewBox="0 0 32 32">
<title>refresh-ccw</title>
<path d="M1.333 15.333h8c0.8 0 1.333-0.533 1.333-1.333s-0.533-1.333-1.333-1.333h-4.667l3.733-3.6c1.067-1.067 2.533-2 4-2.533 2.667-0.933 5.6-0.8 8.133 0.4s4.533 3.333 5.467 6.133c0.267 0.667 1.067 1.067 1.733 0.8s1.067-1.067 0.8-1.733c-1.2-3.333-3.6-6-6.8-7.6s-6.8-1.733-10.133-0.533c-1.867 0.8-3.6 1.867-4.933 3.2l-4 3.733v-4.933c0-0.8-0.533-1.333-1.333-1.333s-1.333 0.533-1.333 1.333v8c0 0 0 0.133 0 0.133 0 0.133 0 0.267 0 0.267 0 0.133 0.133 0.133 0.133 0.267 0 0 0 0.133 0.133 0.133 0 0 0 0 0 0 0.133 0.133 0.267 0.267 0.4 0.267 0 0 0 0 0 0 0.267 0.267 0.533 0.267 0.667 0.267zM32 19.067c0-0.133 0-0.133 0-0.267s-0.133-0.133-0.133-0.267c0 0 0-0.133-0.133-0.133 0 0 0 0 0 0-0.133-0.133-0.133-0.133-0.267-0.133 0 0-0.133-0.133-0.133-0.133s-0.133 0-0.133 0-0.267 0-0.4-0.133c0 0 0 0 0 0h-8c-0.8 0-1.333 0.533-1.333 1.333s0.533 1.333 1.333 1.333h4.667l-3.733 3.6c-4.133 4.133-10.933 4.133-15.067 0-1.067-1.067-2-2.533-2.533-4-0.267-0.667-1.067-1.067-1.733-0.8s-1.067 1.067-0.8 1.733c0.667 1.867 1.733 3.6 3.2 4.933 2.667 2.667 6 3.867 9.467 3.867s6.8-1.333 9.333-3.867l4-3.733v4.933c0 0.8 0.533 1.333 1.333 1.333s1.333-0.533 1.333-1.333v-8c-0.267-0.133-0.267-0.133-0.267-0.267z"></path>
</svg>
