<!-- Generated by IcoMoon.io -->
<svg version="1.1" xmlns="http://www.w3.org/2000/svg" width="32" height="32" viewBox="0 0 32 32">
<title>repeat</title>
<path d="M4 16.667c0.8 0 1.333-0.533 1.333-1.333v-2.667c0-2.267 1.733-4 4-4h15.467l-3.067 3.067c-0.533 0.533-0.533 1.333 0 1.867 0.267 0.267 0.533 0.4 0.933 0.4s0.667-0.133 0.933-0.4l5.333-5.333c0.133-0.133 0.267-0.267 0.267-0.4 0.133-0.267 0.133-0.667 0-1.067-0.133-0.133-0.133-0.267-0.267-0.4l-5.333-5.333c-0.533-0.533-1.333-0.533-1.867 0s-0.533 1.333 0 1.867l3.067 3.067h-15.467c-3.733 0-6.667 2.933-6.667 6.667v2.667c0 0.8 0.533 1.333 1.333 1.333zM28 16.667c-0.8 0-1.333 0.533-1.333 1.333v2.667c0 2.267-1.733 4-4 4h-15.467l3.067-3.067c0.533-0.533 0.533-1.333 0-1.867s-1.333-0.533-1.867 0l-5.333 5.333c-0.133 0.133-0.267 0.267-0.267 0.4-0.133 0.267-0.133 0.667 0 1.067 0.133 0.133 0.133 0.267 0.267 0.4l5.333 5.333c0.267 0.267 0.533 0.4 0.933 0.4s0.667-0.133 0.933-0.4c0.533-0.533 0.533-1.333 0-1.867l-3.067-3.067h15.467c3.733 0 6.667-2.933 6.667-6.667v-2.667c0-0.8-0.533-1.333-1.333-1.333z"></path>
</svg>
