<!-- Generated by IcoMoon.io -->
<svg version="1.1" xmlns="http://www.w3.org/2000/svg" width="32" height="32" viewBox="0 0 32 32">
<title>rewind</title>
<path d="M15.2 6.133c-0.4-0.267-1.067-0.133-1.467 0.133l-12 9.333c-0.267 0.267-0.4 0.667-0.4 1.067s0.133 0.8 0.533 1.067l12 9.333c0.267 0.133 0.533 0.267 0.8 0.267 0.133 0 0.4 0 0.533-0.133 0.4-0.267 0.8-0.667 0.8-1.2v-18.667c0-0.533-0.267-0.933-0.8-1.2zM13.333 23.333l-8.533-6.667 8.533-6.667v13.333zM29.867 6.133c-0.4-0.267-1.067-0.133-1.467 0.133l-12 9.333c-0.267 0.267-0.4 0.667-0.4 1.067s0.133 0.8 0.533 1.067l12 9.333c0.267 0.133 0.533 0.267 0.8 0.267 0.133 0 0.4 0 0.533-0.133 0.4-0.267 0.8-0.667 0.8-1.2v-18.667c0-0.533-0.267-0.933-0.8-1.2zM28 23.333l-8.533-6.667 8.533-6.667v13.333z"></path>
</svg>
