<!-- Generated by IcoMoon.io -->
<svg version="1.1" xmlns="http://www.w3.org/2000/svg" width="32" height="32" viewBox="0 0 32 32">
<title>rotate-ccw</title>
<path d="M28.533 12.267c-1.2-3.333-3.6-6-6.8-7.6s-6.8-1.733-10.133-0.533c-1.867 0.667-3.6 1.733-4.933 3.067l-4 3.733v-4.933c0-0.8-0.533-1.333-1.333-1.333s-1.333 0.533-1.333 1.333v8c0 0 0 0.133 0 0.133 0 0.133 0 0.267 0 0.267 0 0.133 0.133 0.133 0.133 0.267 0 0 0 0.133 0.133 0.133 0 0 0 0 0 0 0.133 0.133 0.133 0.133 0.267 0.133 0 0 0.133 0.133 0.133 0.133s0.133 0 0.133 0 0.267 0 0.267 0c0 0 0 0 0 0h8c0.8 0 1.333-0.533 1.333-1.333s-0.267-1.067-1.067-1.067h-4.667l3.733-3.6c1.067-1.067 2.533-2 4-2.533 2.667-0.933 5.6-0.8 8.133 0.4s4.533 3.333 5.467 6.133c0.933 2.667 0.8 5.6-0.4 8.133s-3.333 4.533-6.133 5.467c-5.6 2-11.6-0.933-13.6-6.533-0.267-0.667-1.067-1.067-1.733-0.8s-1.067 1.067-0.8 1.733c2 5.467 7.2 8.933 12.667 8.933 1.467 0 2.933-0.267 4.4-0.8 6.933-2.4 10.667-10 8.133-16.933z"></path>
</svg>
