<!-- Generated by IcoMoon.io -->
<svg version="1.1" xmlns="http://www.w3.org/2000/svg" width="32" height="32" viewBox="0 0 32 32">
<title>rotate-cw</title>
<path d="M32 14.133c0 0 0-0.133 0-0.133v-8c0-0.8-0.533-1.333-1.333-1.333s-1.333 0.533-1.333 1.333v4.933l-3.867-3.733c-1.333-1.333-3.067-2.533-4.933-3.2-7.067-2.4-14.667 1.333-17.067 8.267s1.2 14.533 8.133 17.067c1.467 0.4 2.933 0.667 4.4 0.667 5.467 0 10.667-3.467 12.533-8.933 0.267-0.667-0.133-1.467-0.8-1.733s-1.467 0.133-1.733 0.8c-2 5.6-8 8.4-13.6 6.533-5.6-2-8.4-8-6.533-13.6 2-5.467 8.133-8.4 13.733-6.4 1.467 0.533 2.933 1.333 4 2.533l3.733 3.467h-4.667c-0.8 0-1.333 0.533-1.333 1.333s0.533 1.333 1.333 1.333h8c0 0 0 0 0 0 0.133 0 0.267 0 0.267-0.133 0 0 0.133 0 0.133 0s0.133-0.133 0.133-0.133c0.133 0 0.267-0.133 0.267-0.267 0 0 0 0 0 0s0-0.133 0.133-0.133c0-0.133 0.133-0.133 0.133-0.267 0.267 0 0.267-0.133 0.267-0.267z"></path>
</svg>
