<!-- Generated by IcoMoon.io -->
<svg version="1.1" xmlns="http://www.w3.org/2000/svg" width="32" height="32" viewBox="0 0 32 32">
<title>rss</title>
<path d="M5.333 14c-0.8 0-1.333 0.533-1.333 1.333s0.533 1.333 1.333 1.333c5.867 0 10.667 4.8 10.667 10.667 0 0.8 0.533 1.333 1.333 1.333s1.333-0.533 1.333-1.333c0-7.333-6-13.333-13.333-13.333zM5.333 4.667c-0.8 0-1.333 0.533-1.333 1.333s0.533 1.333 1.333 1.333c11.067 0 20 8.933 20 20 0 0.8 0.533 1.333 1.333 1.333s1.333-0.533 1.333-1.333c0-12.533-10.133-22.667-22.667-22.667zM9.333 26c0 1.473-1.194 2.667-2.667 2.667s-2.667-1.194-2.667-2.667c0-1.473 1.194-2.667 2.667-2.667s2.667 1.194 2.667 2.667z"></path>
</svg>
