<!-- Generated by IcoMoon.io -->
<svg version="1.1" xmlns="http://www.w3.org/2000/svg" width="32" height="32" viewBox="0 0 32 32">
<title>save</title>
<path d="M28.933 10.4l-6.667-6.667c-0.267-0.267-0.533-0.4-0.933-0.4h-14.667c-2.267 0-4 1.733-4 4v18.667c0 2.267 1.733 4 4 4h18.667c2.267 0 4-1.733 4-4v-14.667c0-0.4-0.133-0.667-0.4-0.933zM21.333 27.333h-10.667v-8h10.667v8zM26.667 26c0 0.8-0.533 1.333-1.333 1.333h-1.333v-9.333c0-0.8-0.533-1.333-1.333-1.333h-13.333c-0.8 0-1.333 0.533-1.333 1.333v9.333h-1.333c-0.8 0-1.333-0.533-1.333-1.333v-18.667c0-0.8 0.533-1.333 1.333-1.333h1.333v5.333c0 0.8 0.533 1.333 1.333 1.333h10.667c0.8 0 1.333-0.533 1.333-1.333s-0.533-1.333-1.333-1.333h-9.333v-4h10.133l5.867 5.867v14.133z"></path>
</svg>
