<!-- Generated by IcoMoon.io -->
<svg version="1.1" xmlns="http://www.w3.org/2000/svg" width="32" height="32" viewBox="0 0 32 32">
<title>scissors</title>
<path d="M27.6 6.933c0.533-0.533 0.533-1.333 0-1.867s-1.333-0.533-1.867 0l-9.733 9.733-3.467-3.467c0.533-0.8 0.8-1.733 0.8-2.667 0-2.933-2.4-5.333-5.333-5.333s-5.333 2.4-5.333 5.333 2.4 5.333 5.333 5.333c0.933 0 1.867-0.267 2.667-0.8l3.467 3.467-3.467 3.467c-0.8-0.533-1.733-0.8-2.667-0.8-2.933 0-5.333 2.4-5.333 5.333s2.4 5.333 5.333 5.333 5.333-2.4 5.333-5.333c0-0.933-0.267-1.867-0.8-2.667l15.067-15.067zM5.333 8.667c0-1.467 1.2-2.667 2.667-2.667s2.667 1.2 2.667 2.667c0 0.8-0.267 1.333-0.8 1.867 0 0 0 0 0 0s0 0 0 0c-0.533 0.533-1.067 0.8-1.867 0.8-1.467 0-2.667-1.2-2.667-2.667zM8 27.333c-1.467 0-2.667-1.2-2.667-2.667s1.2-2.667 2.667-2.667c0.8 0 1.333 0.267 1.867 0.8 0 0 0 0 0 0s0 0 0 0c0.533 0.533 0.8 1.067 0.8 1.867 0 1.467-1.2 2.667-2.667 2.667zM20.267 19.067c-0.533-0.533-1.333-0.533-1.867 0s-0.533 1.333 0 1.867l7.333 7.333c0.267 0.267 0.667 0.4 0.933 0.4s0.667-0.133 0.933-0.4c0.533-0.533 0.533-1.333 0-1.867l-7.333-7.333z"></path>
</svg>
