<!-- Generated by IcoMoon.io -->
<svg version="1.1" xmlns="http://www.w3.org/2000/svg" width="32" height="32" viewBox="0 0 32 32">
<title>send</title>
<path d="M30.667 3.2c0-0.133 0-0.267-0.133-0.4 0 0 0-0.133 0-0.133 0-0.133-0.133-0.267-0.267-0.4s-0.267-0.133-0.4-0.267c0 0-0.133 0-0.133 0-0.133 0-0.267 0-0.4-0.133 0 0.133 0 0.133 0 0.133-0.133 0-0.267 0-0.4 0.133l-26.667 9.333c-0.533 0.133-0.933 0.533-0.933 1.2 0 0.533 0.267 1.067 0.8 1.333l11.467 5.067 5.067 11.467c0.267 0.533 0.667 0.8 1.2 0.8 0 0 0 0 0 0 0.533 0 1.067-0.4 1.2-0.933l9.333-26.667c0.267-0.133 0.267-0.267 0.267-0.533 0 0.133 0 0.133 0 0zM24.267 6.533l-9.867 9.867-8.133-3.6 18-6.267zM19.867 26.4l-3.6-8.133 9.867-9.867-6.267 18z"></path>
</svg>
