<!-- Generated by IcoMoon.io -->
<svg version="1.1" xmlns="http://www.w3.org/2000/svg" width="32" height="32" viewBox="0 0 32 32">
<title>settings</title>
<path d="M16 11.333c-2.933 0-5.333 2.4-5.333 5.333s2.4 5.333 5.333 5.333c2.933 0 5.333-2.4 5.333-5.333s-2.4-5.333-5.333-5.333zM16 19.333c-1.467 0-2.667-1.2-2.667-2.667s1.2-2.667 2.667-2.667c1.467 0 2.667 1.2 2.667 2.667s-1.2 2.667-2.667 2.667zM27.067 21.2c0.133-0.267 0.4-0.533 0.933-0.533 2.267 0 4-1.733 4-4s-1.733-4-4-4h-0.267c-0.267 0-0.533-0.133-0.667-0.4 0-0.133 0-0.133-0.133-0.267-0.133-0.267-0.133-0.667 0.267-1.067 1.6-1.6 1.6-4.133 0-5.6v0c0 0 0 0 0 0-0.8-0.8-1.733-1.2-2.8-1.2 0 0 0 0 0 0-1.067 0-2.133 0.4-2.933 1.2-0.267 0.267-0.667 0.267-0.933 0.133-0.267 0-0.533-0.4-0.533-0.8 0-2.267-1.733-4-4-4s-4 1.733-4 4v0.267c0 0.267-0.133 0.533-0.4 0.667-0.133 0-0.133 0-0.267 0.133-0.267 0.133-0.667 0-1.067-0.267-1.6-1.6-4.133-1.6-5.6 0-1.6 1.6-1.6 4.133 0.133 5.733 0.267 0.267 0.267 0.667 0.133 1.067-0.133 0.267-0.533 0.533-0.933 0.533-2.267 0-4 1.733-4 4s1.733 4 4 4h0.267c0.4 0 0.667 0.267 0.8 0.533s0.133 0.667-0.267 1.067c-0.8 0.8-1.2 1.733-1.2 2.8s0.4 2 1.2 2.8c0 0 0 0 0 0 1.6 1.6 4.133 1.6 5.733-0.133 0.267-0.267 0.667-0.267 1.067-0.133s0.533 0.4 0.533 0.933c0 2.267 1.733 4 4 4s4-1.733 4-4v-0.267c0-0.4 0.267-0.667 0.533-0.8s0.667-0.133 1.067 0.267c1.6 1.6 4.133 1.6 5.6 0 1.6-1.6 1.6-4.133-0.133-5.733-0.133-0.267-0.267-0.667-0.133-0.933 0 0 0 0 0 0zM24.667 20.133c-0.533 1.333-0.267 2.8 0.8 4 0.267 0.267 0.4 0.533 0.4 0.933s-0.133 0.667-0.4 0.933c-0.267 0.267-0.533 0.4-0.933 0.4 0 0 0 0 0 0-0.4 0-0.667-0.133-1.067-0.533-1.067-1.067-2.533-1.333-3.867-0.667-1.333 0.533-2.133 1.867-2.133 3.2v0.267c0 0.8-0.533 1.333-1.333 1.333s-1.333-0.533-1.333-1.333c0 0 0-0.133 0-0.133 0-1.467-0.933-2.667-2.267-3.2-0.4-0.267-0.933-0.267-1.467-0.267-0.933 0-1.867 0.4-2.533 1.067-0.533 0.533-1.333 0.533-1.867 0 0 0 0 0 0 0v0c-0.267-0.267-0.4-0.533-0.4-0.933s0.133-0.667 0.533-1.067c1.067-1.067 1.333-2.533 0.667-3.867-0.533-1.333-1.867-2.133-3.2-2.133h-0.267c-0.8 0-1.333-0.533-1.333-1.333s0.533-1.333 1.333-1.333c0 0 0.133 0 0.133 0 1.467 0 2.667-0.933 3.2-2.267s0.267-2.8-0.8-4c-0.533-0.533-0.533-1.333 0-1.867s1.333-0.533 2 0.133c0.933 0.933 2.4 1.2 3.6 0.8 0.133 0 0.267 0 0.4-0.133 1.333-0.533 2.133-1.867 2.133-3.2v-0.267c0-0.8 0.533-1.333 1.333-1.333s1.333 0.533 1.333 1.467c0 1.467 0.8 2.667 2.133 3.2s2.8 0.267 4-0.8c0.267-0.267 0.533-0.4 0.933-0.4v0c0.4 0 0.667 0.133 0.933 0.4 0 0 0 0 0 0 0.533 0.533 0.533 1.333-0.133 2-0.933 0.933-1.2 2.4-0.8 3.6 0 0.133 0 0.267 0.133 0.4 0.533 1.333 1.867 2.133 3.2 2.133h0.267c0.8 0 1.333 0.533 1.333 1.333s-0.533 1.333-1.467 1.333c-1.333 0-2.667 0.8-3.2 2.133z"></path>
</svg>
