<!-- Generated by IcoMoon.io -->
<svg version="1.1" xmlns="http://www.w3.org/2000/svg" width="32" height="32" viewBox="0 0 32 32">
<title>share</title>
<path d="M26.667 15.333c-0.8 0-1.333 0.533-1.333 1.333v10.667c0 0.8-0.533 1.333-1.333 1.333h-16c-0.8 0-1.333-0.533-1.333-1.333v-10.667c0-0.8-0.533-1.333-1.333-1.333s-1.333 0.533-1.333 1.333v10.667c0 2.267 1.733 4 4 4h16c2.267 0 4-1.733 4-4v-10.667c0-0.8-0.533-1.333-1.333-1.333zM11.6 9.6l3.067-3.067v14.133c0 0.8 0.533 1.333 1.333 1.333s1.333-0.533 1.333-1.333v-14.133l3.067 3.067c0.267 0.267 0.533 0.4 0.933 0.4s0.667-0.133 0.933-0.4c0.533-0.533 0.533-1.333 0-1.867l-5.333-5.333c-0.133-0.133-0.267-0.267-0.4-0.267-0.267-0.133-0.667-0.133-1.067 0-0.133 0.133-0.267 0.133-0.4 0.267l-5.333 5.333c-0.533 0.533-0.533 1.333 0 1.867s1.333 0.533 1.867 0z"></path>
</svg>
