<!-- Generated by IcoMoon.io -->
<svg version="1.1" xmlns="http://www.w3.org/2000/svg" width="32" height="32" viewBox="0 0 32 32">
<title>share-2</title>
<path d="M24 20.667c-1.467 0-2.8 0.667-3.733 1.6l-7.067-4.133c0-0.533 0.133-0.933 0.133-1.467s-0.133-0.933-0.267-1.467l7.067-4.133c1.067 0.933 2.4 1.6 3.867 1.6 2.933 0 5.333-2.4 5.333-5.333s-2.4-5.333-5.333-5.333-5.333 2.4-5.333 5.333c0 0.533 0.133 0.933 0.267 1.467l-7.2 4.133c-0.933-0.933-2.267-1.6-3.733-1.6-2.933 0-5.333 2.4-5.333 5.333s2.4 5.333 5.333 5.333c1.467 0 2.8-0.667 3.733-1.6l7.067 4.133c0 0.533-0.133 0.933-0.133 1.467 0 2.933 2.4 5.333 5.333 5.333s5.333-2.4 5.333-5.333-2.4-5.333-5.333-5.333zM24 4.667c1.467 0 2.667 1.2 2.667 2.667s-1.2 2.667-2.667 2.667-2.667-1.2-2.667-2.667 1.2-2.667 2.667-2.667zM8 19.333c-1.467 0-2.667-1.2-2.667-2.667s1.2-2.667 2.667-2.667 2.667 1.2 2.667 2.667c0 1.467-1.2 2.667-2.667 2.667zM24 28.667c-1.467 0-2.667-1.2-2.667-2.667 0-0.533 0.133-0.933 0.4-1.333 0 0 0 0 0 0s0 0 0 0c0.4-0.8 1.333-1.333 2.267-1.333 1.467 0 2.667 1.2 2.667 2.667s-1.2 2.667-2.667 2.667z"></path>
</svg>
