<!-- Generated by IcoMoon.io -->
<svg version="1.1" xmlns="http://www.w3.org/2000/svg" width="32" height="32" viewBox="0 0 32 32">
<title>shield-off</title>
<path d="M12.267 6.133l3.733-1.333 9.333 3.467v8.4c0 0.8-0.133 1.6-0.4 2.267s0.133 1.467 0.933 1.6c0.133 0 0.267 0 0.4 0 0.533 0 1.067-0.4 1.333-0.933 0.267-0.933 0.4-2 0.533-3.067v-9.2c0-0.533-0.4-1.067-0.8-1.2l-10.667-4c-0.267-0.133-0.667-0.133-0.933 0l-4.4 1.467c-0.667 0.267-1.067 1.067-0.8 1.733s1.067 1.067 1.733 0.8zM31.6 30.4l-29.333-29.333c-0.533-0.533-1.333-0.533-1.867 0s-0.533 1.333 0 1.867l3.733 3.733c0 0.267-0.133 0.4-0.133 0.667v9.333c0 8.667 10.933 14.267 11.467 14.533 0.133 0.133 0.267 0.133 0.533 0.133s0.4 0 0.667-0.133c2.533-1.333 4.8-3.067 6.933-5.067l6.267 6.267c0.267 0.267 0.667 0.4 0.933 0.4s0.667-0.133 0.933-0.4c0.4-0.667 0.4-1.467-0.133-2zM16 28.533c-2.133-1.2-9.333-5.733-9.333-11.867v-7.467l14.933 14.933c-1.6 1.733-3.467 3.2-5.6 4.4z"></path>
</svg>
