<!-- Generated by IcoMoon.io -->
<svg version="1.1" xmlns="http://www.w3.org/2000/svg" width="32" height="32" viewBox="0 0 32 32">
<title>shield</title>
<path d="M27.2 6.133l-10.667-4c-0.267-0.133-0.667-0.133-0.933 0l-10.667 4c-0.533 0.133-0.933 0.667-0.933 1.2v9.333c0 8.667 10.933 14.267 11.467 14.533 0.133 0.133 0.267 0.133 0.533 0.133s0.4 0 0.533-0.133c0.533-0.267 11.467-5.867 11.467-14.533v-9.333c0-0.533-0.4-1.067-0.8-1.2zM25.333 16.667c0 6-7.2 10.533-9.333 11.867-2.133-1.2-9.333-5.733-9.333-11.867v-8.4l9.333-3.467 9.333 3.467v8.4z"></path>
</svg>
