<!-- Generated by IcoMoon.io -->
<svg version="1.1" xmlns="http://www.w3.org/2000/svg" width="32" height="32" viewBox="0 0 32 32">
<title>shuffle</title>
<path d="M29.2 4.133c-0.133-0.267-0.4-0.533-0.667-0.667-0.133-0.133-0.4-0.133-0.533-0.133h-6.667c-0.8 0-1.333 0.533-1.333 1.333s0.533 1.333 1.333 1.333h3.467l-20.4 20.4c-0.533 0.533-0.533 1.333 0 1.867 0.267 0.267 0.533 0.4 0.933 0.4s0.667-0.133 0.933-0.4l20.4-20.4v3.467c0 0.8 0.533 1.333 1.333 1.333s1.333-0.533 1.333-1.333v-6.667c0-0.133 0-0.4-0.133-0.533zM28 20.667c-0.8 0-1.333 0.533-1.333 1.333v3.467l-5.733-5.733c-0.533-0.533-1.333-0.533-1.867 0s-0.533 1.333 0 1.867l5.733 5.733h-3.467c-0.8 0-1.333 0.533-1.333 1.333s0.533 1.333 1.333 1.333h6.667c0.133 0 0.4 0 0.533-0.133 0.267-0.133 0.533-0.4 0.667-0.667 0.133-0.133 0.133-0.4 0.133-0.533v-6.667c0-0.8-0.533-1.333-1.333-1.333zM11.067 13.6c0.267 0.267 0.533 0.4 0.933 0.4s0.667-0.133 0.933-0.4c0.533-0.533 0.533-1.333 0-1.867l-6.667-6.667c-0.533-0.533-1.333-0.533-1.867 0s-0.533 1.333 0 1.867l6.667 6.667z"></path>
</svg>
