<!-- Generated by IcoMoon.io -->
<svg version="1.1" xmlns="http://www.w3.org/2000/svg" width="32" height="32" viewBox="0 0 32 32">
<title>skip-back</title>
<path d="M25.867 4.8c-0.4-0.267-1.067-0.133-1.467 0.133l-13.333 10.667c-0.267 0.267-0.4 0.667-0.4 1.067s0.133 0.8 0.533 1.067l13.333 10.667c0.267 0.133 0.533 0.267 0.8 0.267 0.133 0 0.4 0 0.533-0.133 0.4-0.267 0.8-0.667 0.8-1.2v-21.333c0-0.533-0.267-0.933-0.8-1.2zM24 24.533l-9.867-7.867 9.867-7.867v15.733zM6.667 6c-0.8 0-1.333 0.533-1.333 1.333v18.667c0 0.8 0.533 1.333 1.333 1.333s1.333-0.533 1.333-1.333v-18.667c0-0.8-0.533-1.333-1.333-1.333z"></path>
</svg>
