<!-- Generated by IcoMoon.io -->
<svg version="1.1" xmlns="http://www.w3.org/2000/svg" width="32" height="32" viewBox="0 0 32 32">
<title>skip-forward</title>
<path d="M7.467 4.933c-0.4-0.267-0.933-0.4-1.333-0.133-0.533 0.267-0.8 0.667-0.8 1.2v21.333c0 0.533 0.267 0.933 0.8 1.2 0.133 0.133 0.4 0.133 0.533 0.133 0.267 0 0.533-0.133 0.8-0.267l13.333-10.667c0.267-0.267 0.533-0.667 0.533-1.067s-0.133-0.8-0.533-1.067l-13.333-10.667zM8 24.533v-15.733l9.867 7.867-9.867 7.867zM25.333 6c-0.8 0-1.333 0.533-1.333 1.333v18.667c0 0.8 0.533 1.333 1.333 1.333s1.333-0.533 1.333-1.333v-18.667c0-0.8-0.533-1.333-1.333-1.333z"></path>
</svg>
