<!-- Generated by IcoMoon.io -->
<svg version="1.1" xmlns="http://www.w3.org/2000/svg" width="32" height="32" viewBox="0 0 32 32">
<title>slack</title>
<path d="M30.667 12.267c-1.733-5.6-3.733-8.8-6.8-10.4-2.8-1.6-6.667-1.6-12.267 0.133-10.8 3.2-13.6 8.4-10.267 19.067 2.4 8 5.867 11.6 11.867 11.6 2.133 0 4.4-0.4 7.2-1.2 10.667-3.333 13.6-8.533 10.267-19.2zM19.6 28.8c-9.333 2.8-12.933 0.8-15.733-8.533-2.8-9.2-0.8-12.933 8.533-15.733 2.667-0.8 4.8-1.2 6.533-1.2 1.467 0 2.8 0.267 3.867 0.8 2.267 1.2 4 4 5.467 8.8 0 0 0 0 0 0 2.667 9.333 0.667 13.067-8.667 15.867zM23.6 16.133l-2.533 0.933-1.333-3.733 2.533-0.933c0.667-0.267 1.067-0.933 0.8-1.733-0.267-0.667-0.933-1.067-1.733-0.8l-2.533 0.933-0.933-2.533c-0.267-0.667-0.933-1.067-1.733-0.8-0.667 0.267-1.067 0.933-0.8 1.733l0.933 2.533-3.733 1.333-0.8-2.667c-0.267-0.667-1.067-1.067-1.733-0.8-0.667 0.133-1.067 0.933-0.8 1.6l0.933 2.533-2.533 0.933c-0.667 0.267-1.067 0.933-0.8 1.733 0.133 0.533 0.667 0.933 1.2 0.933 0.133 0 0.267 0 0.4-0.133l2.533-0.933 1.333 3.733-2.533 0.933c-0.667 0.267-1.067 0.933-0.8 1.733 0.133 0.533 0.667 0.933 1.2 0.933 0.133 0 0.267 0 0.4-0.133l2.533-0.933 0.933 2.533c0.133 0.533 0.667 0.933 1.2 0.933 0.133 0 0.267 0 0.4-0.133 0.667-0.267 1.067-0.933 0.8-1.733l-0.933-2.533 3.733-1.333 0.933 2.533c0.133 0.533 0.667 0.933 1.2 0.933 0.133 0 0.267 0 0.4-0.133 0.667-0.267 1.067-0.933 0.8-1.733l-0.933-2.533 2.533-0.933c0.667-0.267 1.067-0.933 0.8-1.733 0.133-0.4-0.667-0.8-1.333-0.533zM14.8 19.2l-1.333-3.733 3.733-1.333 1.333 3.733-3.733 1.333z"></path>
</svg>
