<!-- Generated by IcoMoon.io -->
<svg version="1.1" xmlns="http://www.w3.org/2000/svg" width="32" height="32" viewBox="0 0 32 32">
<title>slash</title>
<path d="M26.4 27.067c2.667-2.667 4.267-6.267 4.267-10.4 0-8.133-6.533-14.667-14.667-14.667-4 0-7.733 1.6-10.4 4.267 0 0 0 0 0 0s0 0 0 0c-2.667 2.667-4.267 6.4-4.267 10.4 0 8.133 6.533 14.667 14.667 14.667 4 0 7.733-1.6 10.4-4.267 0 0 0 0 0 0s0 0 0 0zM28 16.667c0 2.8-0.933 5.467-2.667 7.467l-16.8-16.8c2-1.733 4.667-2.667 7.467-2.667 6.667 0 12 5.333 12 12zM4 16.667c0-2.8 0.933-5.467 2.667-7.467l16.8 16.8c-2 1.6-4.667 2.667-7.467 2.667-6.667 0-12-5.333-12-12z"></path>
</svg>
