<!-- Generated by IcoMoon.io -->
<svg version="1.1" xmlns="http://www.w3.org/2000/svg" width="32" height="32" viewBox="0 0 32 32">
<title>sliders</title>
<path d="M5.333 15.333c0.8 0 1.333-0.533 1.333-1.333v-9.333c0-0.8-0.533-1.333-1.333-1.333s-1.333 0.533-1.333 1.333v9.333c0 0.8 0.533 1.333 1.333 1.333zM16 15.333c-0.8 0-1.333 0.533-1.333 1.333v12c0 0.8 0.533 1.333 1.333 1.333s1.333-0.533 1.333-1.333v-12c0-0.8-0.533-1.333-1.333-1.333zM26.667 18c0.8 0 1.333-0.533 1.333-1.333v-12c0-0.8-0.533-1.333-1.333-1.333s-1.333 0.533-1.333 1.333v12c0 0.8 0.533 1.333 1.333 1.333zM9.333 18h-8c-0.8 0-1.333 0.533-1.333 1.333s0.533 1.333 1.333 1.333h2.667v8c0 0.8 0.533 1.333 1.333 1.333s1.333-0.533 1.333-1.333v-8h2.667c0.8 0 1.333-0.533 1.333-1.333s-0.533-1.333-1.333-1.333zM20 10h-2.667v-5.333c0-0.8-0.533-1.333-1.333-1.333s-1.333 0.533-1.333 1.333v5.333h-2.667c-0.8 0-1.333 0.533-1.333 1.333s0.533 1.333 1.333 1.333h8c0.8 0 1.333-0.533 1.333-1.333s-0.533-1.333-1.333-1.333zM30.667 20.667h-8c-0.8 0-1.333 0.533-1.333 1.333s0.533 1.333 1.333 1.333h2.667v5.333c0 0.8 0.533 1.333 1.333 1.333s1.333-0.533 1.333-1.333v-5.333h2.667c0.8 0 1.333-0.533 1.333-1.333s-0.533-1.333-1.333-1.333z"></path>
</svg>
