<!-- Generated by IcoMoon.io -->
<svg version="1.1" xmlns="http://www.w3.org/2000/svg" width="32" height="32" viewBox="0 0 32 32">
<title>smartphone</title>
<path d="M22.667 2h-13.333c-2.267 0-4 1.733-4 4v21.333c0 2.267 1.733 4 4 4h13.333c2.267 0 4-1.733 4-4v-21.333c0-2.267-1.733-4-4-4zM24 27.333c0 0.8-0.533 1.333-1.333 1.333h-13.333c-0.8 0-1.333-0.533-1.333-1.333v-21.333c0-0.8 0.533-1.333 1.333-1.333h13.333c0.8 0 1.333 0.533 1.333 1.333v21.333zM15.067 23.733c-0.267 0.267-0.4 0.533-0.4 0.933s0.133 0.667 0.4 0.933c0.267 0.267 0.533 0.4 0.933 0.4s0.667-0.133 0.933-0.4c0.267-0.267 0.4-0.667 0.4-0.933s-0.133-0.667-0.4-0.933c-0.533-0.533-1.333-0.533-1.867 0z"></path>
</svg>
