<!-- Generated by IcoMoon.io -->
<svg version="1.1" xmlns="http://www.w3.org/2000/svg" width="32" height="32" viewBox="0 0 32 32">
<title>speaker</title>
<path d="M24 2h-16c-2.267 0-4 1.733-4 4v21.333c0 2.267 1.733 4 4 4h16c2.267 0 4-1.733 4-4v-21.333c0-2.267-1.733-4-4-4zM25.333 27.333c0 0.8-0.533 1.333-1.333 1.333h-16c-0.8 0-1.333-0.533-1.333-1.333v-21.333c0-0.8 0.533-1.333 1.333-1.333h16c0.8 0 1.333 0.533 1.333 1.333v21.333zM16 12.667c-3.733 0-6.667 2.933-6.667 6.667s2.933 6.667 6.667 6.667 6.667-2.933 6.667-6.667-2.933-6.667-6.667-6.667zM16 23.333c-2.267 0-4-1.733-4-4s1.733-4 4-4 4 1.733 4 4-1.733 4-4 4zM16 10c0.4 0 0.667-0.133 0.933-0.4s0.4-0.533 0.4-0.933c0-0.4-0.133-0.667-0.4-0.933-0.533-0.533-1.467-0.533-1.867 0-0.267 0.267-0.4 0.533-0.4 0.933s0.133 0.667 0.4 0.933c0.267 0.267 0.533 0.4 0.933 0.4z"></path>
</svg>
