<!-- Generated by IcoMoon.io -->
<svg version="1.1" xmlns="http://www.w3.org/2000/svg" width="32" height="32" viewBox="0 0 32 32">
<title>star</title>
<path d="M30.667 12.667c-0.133-0.533-0.533-0.8-1.067-0.933l-8.533-1.2-3.867-7.733c-0.4-0.933-2-0.933-2.4 0l-3.867 7.6-8.4 1.333c-0.533 0-0.933 0.4-1.2 0.933-0.133 0.533 0 1.067 0.4 1.333l6.133 6-1.467 8.533c-0.133 0.533 0.133 1.067 0.533 1.333s0.933 0.4 1.467 0.133l7.6-4 7.6 4c0.267 0 0.4 0 0.667 0s0.533-0.133 0.8-0.267c0.4-0.267 0.667-0.8 0.533-1.333l-1.467-8.533 6.133-6c0.4-0.267 0.533-0.8 0.4-1.2zM21.733 18.533c-0.267 0.4-0.4 0.8-0.4 1.2l1.067 6.533-5.867-3.067c-0.4-0.267-0.8-0.267-1.2 0l-5.867 3.067 1.2-6.533c0-0.4-0.133-0.8-0.4-1.2l-4.8-4.533 6.533-0.933c0.4 0 0.8-0.4 1.067-0.667l2.933-6 2.933 5.867c0.133 0.4 0.533 0.667 1.067 0.667l6.533 0.933-4.8 4.667z"></path>
</svg>
