<!-- Generated by IcoMoon.io -->
<svg version="1.1" xmlns="http://www.w3.org/2000/svg" width="32" height="32" viewBox="0 0 32 32">
<title>sun</title>
<path d="M16 8.667c-4.4 0-8 3.6-8 8s3.6 8 8 8 8-3.6 8-8-3.6-8-8-8zM16 22c-2.933 0-5.333-2.4-5.333-5.333s2.4-5.333 5.333-5.333c2.933 0 5.333 2.4 5.333 5.333s-2.4 5.333-5.333 5.333zM16 6c0.8 0 1.333-0.533 1.333-1.333v-2.667c0-0.8-0.533-1.333-1.333-1.333s-1.333 0.533-1.333 1.333v2.667c0 0.8 0.533 1.333 1.333 1.333zM16 27.333c-0.8 0-1.333 0.533-1.333 1.333v2.667c0 0.8 0.533 1.333 1.333 1.333s1.333-0.533 1.333-1.333v-2.667c0-0.8-0.533-1.333-1.333-1.333zM6.533 9.067c0.267 0.267 0.667 0.4 0.933 0.4s0.667-0.133 0.933-0.4c0.533-0.533 0.533-1.333 0-1.867l-1.867-1.867c-0.533-0.533-1.333-0.533-1.867 0s-0.533 1.333 0 1.867l1.867 1.867zM25.467 24.267c-0.533-0.533-1.333-0.533-1.867 0s-0.533 1.333 0 1.867l1.867 1.867c0.267 0.267 0.667 0.4 0.933 0.4s0.667-0.133 0.933-0.4c0.533-0.533 0.533-1.333 0-1.867l-1.867-1.867zM5.333 16.667c0-0.8-0.533-1.333-1.333-1.333h-2.667c-0.8 0-1.333 0.533-1.333 1.333s0.533 1.333 1.333 1.333h2.667c0.8 0 1.333-0.533 1.333-1.333zM30.667 15.333h-2.667c-0.8 0-1.333 0.533-1.333 1.333s0.533 1.333 1.333 1.333h2.667c0.8 0 1.333-0.533 1.333-1.333s-0.533-1.333-1.333-1.333zM6.533 24.267l-1.867 1.867c-0.533 0.533-0.533 1.333 0 1.867 0.267 0.267 0.667 0.4 0.933 0.4s0.667-0.133 0.933-0.4l1.867-1.867c0.533-0.533 0.533-1.333 0-1.867s-1.333-0.533-1.867 0zM24.533 9.467c0.4 0 0.667-0.133 0.933-0.4l1.867-1.867c0.533-0.533 0.533-1.333 0-1.867s-1.333-0.533-1.867 0l-1.867 1.867c-0.533 0.533-0.533 1.333 0 1.867 0.133 0.267 0.533 0.4 0.933 0.4z"></path>
</svg>
