<!-- Generated by IcoMoon.io -->
<svg version="1.1" xmlns="http://www.w3.org/2000/svg" width="32" height="32" viewBox="0 0 32 32">
<title>sunrise</title>
<path d="M16 16.667c-4.4 0-8 3.6-8 8 0 0.8 0.533 1.333 1.333 1.333s1.333-0.533 1.333-1.333c0-2.933 2.4-5.333 5.333-5.333s5.333 2.4 5.333 5.333c0 0.8 0.533 1.333 1.333 1.333s1.333-0.533 1.333-1.333c0-4.4-3.6-8-8-8zM6.533 17.067c0.267 0.267 0.667 0.4 0.933 0.4s0.667-0.133 0.933-0.4c0.533-0.533 0.533-1.333 0-1.867l-1.867-1.867c-0.533-0.533-1.333-0.533-1.867 0s-0.533 1.333 0 1.867l1.867 1.867zM1.333 26h2.667c0.8 0 1.333-0.533 1.333-1.333s-0.533-1.333-1.333-1.333h-2.667c-0.8 0-1.333 0.533-1.333 1.333s0.533 1.333 1.333 1.333zM26.667 24.667c0 0.8 0.533 1.333 1.333 1.333h2.667c0.8 0 1.333-0.533 1.333-1.333s-0.533-1.333-1.333-1.333h-2.667c-0.8 0-1.333 0.533-1.333 1.333zM24.533 17.467c0.4 0 0.667-0.133 0.933-0.4l1.867-1.867c0.533-0.533 0.533-1.333 0-1.867s-1.333-0.533-1.867 0l-1.867 1.867c-0.533 0.533-0.533 1.333 0 1.867 0.133 0.267 0.533 0.4 0.933 0.4zM30.667 28.667h-29.333c-0.8 0-1.333 0.533-1.333 1.333s0.533 1.333 1.333 1.333h29.333c0.8 0 1.333-0.533 1.333-1.333s-0.533-1.333-1.333-1.333zM11.6 9.6l3.067-3.067v6.133c0 0.8 0.533 1.333 1.333 1.333s1.333-0.533 1.333-1.333v-6.133l3.067 3.067c0.267 0.267 0.533 0.4 0.933 0.4s0.667-0.133 0.933-0.4c0.533-0.533 0.533-1.333 0-1.867l-5.333-5.333c-0.133-0.133-0.267-0.267-0.4-0.267-0.267-0.133-0.667-0.133-1.067 0-0.133 0.133-0.267 0.133-0.4 0.267l-5.333 5.333c-0.533 0.533-0.533 1.333 0 1.867s1.333 0.533 1.867 0z"></path>
</svg>
