<!-- Generated by IcoMoon.io -->
<svg version="1.1" xmlns="http://www.w3.org/2000/svg" width="32" height="32" viewBox="0 0 32 32">
<title>tag</title>
<path d="M28.4 13.867l-11.467-11.467c-0.267-0.267-0.533-0.4-0.933-0.4h-13.333c-0.8 0-1.333 0.533-1.333 1.333v13.333c0 0.4 0.133 0.667 0.4 0.933l11.467 11.467c0.8 0.8 1.867 1.2 2.8 1.2 1.067 0 2-0.4 2.8-1.2l9.6-9.6c0 0 0 0 0 0 1.6-1.6 1.6-4 0-5.6zM26.533 17.6l-9.6 9.6c-0.533 0.533-1.333 0.533-1.867 0l-11.067-11.067v-11.467h11.467l11.067 11.067c0.533 0.533 0.533 1.333 0 1.867zM8.4 9.067c-0.267 0.267-0.4 0.533-0.4 0.933s0.133 0.667 0.4 0.933c0.267 0.267 0.533 0.4 0.933 0.4s0.667-0.133 0.933-0.4c0.267-0.267 0.4-0.533 0.4-0.933s-0.133-0.667-0.4-0.933c-0.533-0.533-1.333-0.533-1.867 0z"></path>
</svg>
