<!-- Generated by IcoMoon.io -->
<svg version="1.1" xmlns="http://www.w3.org/2000/svg" width="32" height="32" viewBox="0 0 32 32">
<title>terminal</title>
<path d="M14.267 14.4l-8-8c-0.533-0.533-1.333-0.533-1.867 0s-0.533 1.333 0 1.867l7.067 7.067-7.067 7.067c-0.533 0.533-0.533 1.333 0 1.867 0.267 0.267 0.533 0.4 0.933 0.4s0.667-0.133 0.933-0.4l8-8c0.533-0.533 0.533-1.333 0-1.867zM26.667 24.667h-10.667c-0.8 0-1.333 0.533-1.333 1.333s0.533 1.333 1.333 1.333h10.667c0.8 0 1.333-0.533 1.333-1.333s-0.533-1.333-1.333-1.333z"></path>
</svg>
