<!-- Generated by IcoMoon.io -->
<svg version="1.1" xmlns="http://www.w3.org/2000/svg" width="32" height="32" viewBox="0 0 32 32">
<title>thermometer</title>
<path d="M21.467 21.2c-0.4-0.667-0.933-1.067-1.467-1.6v-14.267c0-2.533-2.133-4.667-4.667-4.667s-4.667 2.133-4.667 4.667v14.4c-2.933 2.4-3.6 6.533-1.467 9.733 1.067 1.6 2.8 2.8 4.667 3.067 0.533 0.133 0.933 0.133 1.467 0.133 1.467 0 2.8-0.4 4-1.2 3.467-2.267 4.4-6.8 2.133-10.267zM17.867 29.2c-2.133 1.467-5.067 0.8-6.533-1.333-0.667-1.067-0.933-2.267-0.667-3.467s0.933-2.267 2-2.933c0.4-0.267 0.533-0.667 0.533-1.067v-15.067c0.133-1.067 1.067-2 2.133-2s2 0.933 2 2v15.067c0 0.4 0.267 0.8 0.533 1.067 0.533 0.4 0.933 0.8 1.333 1.333 1.467 2.133 0.8 4.933-1.333 6.4z"></path>
</svg>
