<!-- Generated by IcoMoon.io -->
<svg version="1.1" xmlns="http://www.w3.org/2000/svg" width="32" height="32" viewBox="0 0 32 32">
<title>thumbs-down</title>
<path d="M30.667 5.867c-0.267-2.267-2.133-3.867-4.4-3.867 0 0 0 0-0.133 0h-18.533c-2 0-3.6 1.467-4 3.333l-1.867 12c-0.267 2.133 1.2 4.267 3.333 4.533 0.267 0 0.4 0 0.667 0h6.267v4c0 2.933 2.4 5.333 5.333 5.333 0.533 0 1.067-0.267 1.2-0.8l4.933-11.2h2.667c2.267 0 4.133-1.6 4.4-3.867 0 0 0-0.133 0-0.133v-9.2c0.133 0 0.133-0.133 0.133-0.133zM21.333 17.733l-4.8 10.8c-1.067-0.4-1.867-1.333-1.867-2.533v-5.333c0-0.8-0.533-1.333-1.333-1.333h-7.6c0 0-0.133 0-0.267 0-0.667-0.133-1.2-0.8-1.067-1.467l1.867-12c0.133-0.667 0.667-1.2 1.333-1.2h13.733v13.067zM28 15.2c-0.133 0.8-0.933 1.467-1.733 1.467h-2.267v-12h2.267c0.8-0.133 1.6 0.533 1.733 1.467v9.067z"></path>
</svg>
