<!-- Generated by IcoMoon.io -->
<svg version="1.1" xmlns="http://www.w3.org/2000/svg" width="32" height="32" viewBox="0 0 32 32">
<title>thumbs-up</title>
<path d="M29.467 12.933c-0.667-0.8-1.6-1.467-2.667-1.6-0.267 0-0.4 0-0.667 0h-6.133v-4c0-2.933-2.4-5.333-5.333-5.333-0.533 0-1.067 0.267-1.2 0.8l-4.933 11.2h-3.2c-2.267 0-4 1.733-4 4v9.333c0 2.267 1.733 4 4 4h19.067c0 0 0 0 0 0 2 0 3.6-1.467 4-3.333l1.867-12c0.133-1.067-0.133-2.133-0.8-3.067zM8 28.667h-2.667c-0.8 0-1.333-0.533-1.333-1.333v-9.333c0-0.8 0.533-1.333 1.333-1.333h2.667v12zM25.733 27.6c-0.133 0.667-0.667 1.067-1.333 1.067 0 0 0 0 0 0h-13.733v-13.067l4.8-10.8c1.067 0.4 1.867 1.333 1.867 2.533v5.333c0 0.8 0.533 1.333 1.333 1.333h7.6c0.133 0 0.133 0 0.267 0 0.4 0 0.667 0.267 0.933 0.533s0.267 0.667 0.267 0.933l-2 12.133z"></path>
</svg>
