<!-- Generated by IcoMoon.io -->
<svg version="1.1" xmlns="http://www.w3.org/2000/svg" width="32" height="32" viewBox="0 0 32 32">
<title>toggle-left</title>
<path d="M21.333 6h-10.667c-5.867 0-10.667 4.8-10.667 10.667s4.8 10.667 10.667 10.667h10.667c5.867 0 10.667-4.8 10.667-10.667s-4.8-10.667-10.667-10.667zM21.333 24.667h-10.667c-4.4 0-8-3.6-8-8s3.6-8 8-8h10.667c4.4 0 8 3.6 8 8s-3.6 8-8 8zM10.667 11.333c-2.933 0-5.333 2.4-5.333 5.333s2.4 5.333 5.333 5.333 5.333-2.4 5.333-5.333c0-2.933-2.4-5.333-5.333-5.333zM10.667 19.333c-1.467 0-2.667-1.2-2.667-2.667s1.2-2.667 2.667-2.667 2.667 1.2 2.667 2.667c0 1.467-1.2 2.667-2.667 2.667z"></path>
</svg>
