<!-- Generated by IcoMoon.io -->
<svg version="1.1" xmlns="http://www.w3.org/2000/svg" width="32" height="32" viewBox="0 0 32 32">
<title>trending-down</title>
<path d="M32 16.667c0-0.8-0.533-1.333-1.333-1.333s-1.333 0.533-1.333 1.333v4.8l-10.4-10.4c-0.533-0.533-1.333-0.533-1.867 0l-5.733 5.733-9.067-9.067c-0.533-0.533-1.333-0.533-1.867 0s-0.533 1.333 0 1.867l10 10c0.533 0.533 1.333 0.533 1.867 0l5.733-5.733 9.467 9.467h-4.8c-0.8 0-1.333 0.533-1.333 1.333s0.533 1.333 1.333 1.333h8c0.133 0 0.4 0 0.533-0.133 0.267-0.133 0.533-0.4 0.667-0.667 0.133-0.133 0.133-0.4 0.133-0.533v-8z"></path>
</svg>
