<!-- Generated by IcoMoon.io -->
<svg version="1.1" xmlns="http://www.w3.org/2000/svg" width="32" height="32" viewBox="0 0 32 32">
<title>trending-up</title>
<path d="M31.867 8.133c-0.133-0.267-0.4-0.533-0.667-0.667-0.133-0.133-0.4-0.133-0.533-0.133h-8c-0.8 0-1.333 0.533-1.333 1.333s0.533 1.333 1.333 1.333h4.8l-9.467 9.467-5.733-5.733c-0.533-0.533-1.333-0.533-1.867 0l-10 10c-0.533 0.533-0.533 1.333 0 1.867 0.267 0.267 0.533 0.4 0.933 0.4s0.667-0.133 0.933-0.4l9.067-9.067 5.733 5.733c0.533 0.533 1.333 0.533 1.867 0l10.4-10.4v4.8c0 0.8 0.533 1.333 1.333 1.333s1.333-0.533 1.333-1.333v-8c0-0.133 0-0.4-0.133-0.533z"></path>
</svg>
