<!-- Generated by IcoMoon.io -->
<svg version="1.1" xmlns="http://www.w3.org/2000/svg" width="32" height="32" viewBox="0 0 32 32">
<title>tv</title>
<path d="M26.667 8.667h-7.467l4.4-4.4c0.533-0.533 0.533-1.333 0-1.867s-1.333-0.533-1.867 0l-5.733 5.733-5.733-5.733c-0.533-0.533-1.333-0.533-1.867 0s-0.533 1.333 0 1.867l4.4 4.4h-7.467c-2.267 0-4 1.733-4 4v14.667c0 2.267 1.733 4 4 4h21.333c2.267 0 4-1.733 4-4v-14.667c0-2.267-1.733-4-4-4zM28 27.333c0 0.8-0.533 1.333-1.333 1.333h-21.333c-0.8 0-1.333-0.533-1.333-1.333v-14.667c0-0.8 0.533-1.333 1.333-1.333h21.333c0.8 0 1.333 0.533 1.333 1.333v14.667z"></path>
</svg>
