<!-- Generated by IcoMoon.io -->
<svg version="1.1" xmlns="http://www.w3.org/2000/svg" width="32" height="32" viewBox="0 0 32 32">
<title>type</title>
<path d="M26.667 4.667h-21.333c-0.8 0-1.333 0.533-1.333 1.333v4c0 0.8 0.533 1.333 1.333 1.333s1.333-0.533 1.333-1.333v-2.667h8v18.667h-2.667c-0.8 0-1.333 0.533-1.333 1.333s0.533 1.333 1.333 1.333h8c0.8 0 1.333-0.533 1.333-1.333s-0.533-1.333-1.333-1.333h-2.667v-18.667h8v2.667c0 0.8 0.533 1.333 1.333 1.333s1.333-0.533 1.333-1.333v-4c0-0.8-0.533-1.333-1.333-1.333z"></path>
</svg>
