<!-- Generated by IcoMoon.io -->
<svg version="1.1" xmlns="http://www.w3.org/2000/svg" width="32" height="32" viewBox="0 0 32 32">
<title>umbrella</title>
<path d="M14.533 2.133c-7.733 0.667-13.733 6.8-14.533 14.4 0 0.4 0.133 0.8 0.4 1.067 0.133 0.267 0.533 0.4 0.933 0.4h13.333v8c0 2.933 2.4 5.333 5.333 5.333s5.333-2.4 5.333-5.333c0-0.8-0.533-1.333-1.333-1.333s-1.333 0.533-1.333 1.333c0 1.467-1.2 2.667-2.667 2.667s-2.667-1.2-2.667-2.667v-8h13.333c0.4 0 0.8-0.133 0.933-0.4s0.4-0.667 0.4-1.067c-0.8-8.8-8.667-15.333-17.467-14.4zM16 15.333h-13.067c1.067-5.733 5.867-10 11.733-10.667 6.8-0.667 13.067 4 14.4 10.667h-13.067z"></path>
</svg>
