<!-- Generated by IcoMoon.io -->
<svg version="1.1" xmlns="http://www.w3.org/2000/svg" width="32" height="32" viewBox="0 0 32 32">
<title>underline</title>
<path d="M16 23.333c5.2 0 9.333-4.133 9.333-9.333v-9.333c0-0.8-0.533-1.333-1.333-1.333s-1.333 0.533-1.333 1.333v9.333c0 3.733-2.933 6.667-6.667 6.667s-6.667-2.933-6.667-6.667v-9.333c0-0.8-0.533-1.333-1.333-1.333s-1.333 0.533-1.333 1.333v9.333c0 5.2 4.133 9.333 9.333 9.333zM26.667 27.333h-21.333c-0.8 0-1.333 0.533-1.333 1.333s0.533 1.333 1.333 1.333h21.333c0.8 0 1.333-0.533 1.333-1.333s-0.533-1.333-1.333-1.333z"></path>
</svg>
