<!-- Generated by IcoMoon.io -->
<svg version="1.1" xmlns="http://www.w3.org/2000/svg" width="32" height="32" viewBox="0 0 32 32">
<title>unlock</title>
<path d="M25.333 14h-14.667v-4c0-1.467 0.533-2.8 1.6-3.733 0.933-1.067 2.267-1.6 3.733-1.6 0 0 0 0 0 0 2.533 0 4.667 1.733 5.2 4.267 0.133 0.667 0.933 1.2 1.6 1.067s1.2-0.8 1.067-1.6c-0.8-3.733-4.133-6.4-7.867-6.4 0 0 0 0 0 0-2.133 0-4.133 0.8-5.6 2.4-1.6 1.467-2.4 3.467-2.4 5.6v4h-1.333c-2.267 0-4 1.733-4 4v9.333c0 2.267 1.733 4 4 4h18.667c2.267 0 4-1.733 4-4v-9.333c0-2.267-1.733-4-4-4zM26.667 27.333c0 0.8-0.533 1.333-1.333 1.333h-18.667c-0.8 0-1.333-0.533-1.333-1.333v-9.333c0-0.8 0.533-1.333 1.333-1.333h18.667c0.8 0 1.333 0.533 1.333 1.333v9.333z"></path>
</svg>
