<!-- Generated by IcoMoon.io -->
<svg version="1.1" xmlns="http://www.w3.org/2000/svg" width="32" height="32" viewBox="0 0 32 32">
<title>upload</title>
<path d="M28 19.333c-0.8 0-1.333 0.533-1.333 1.333v5.333c0 0.8-0.533 1.333-1.333 1.333h-18.667c-0.8 0-1.333-0.533-1.333-1.333v-5.333c0-0.8-0.533-1.333-1.333-1.333s-1.333 0.533-1.333 1.333v5.333c0 2.267 1.733 4 4 4h18.667c2.267 0 4-1.733 4-4v-5.333c0-0.8-0.533-1.333-1.333-1.333zM10.267 12.267l4.4-4.4v12.8c0 0.8 0.533 1.333 1.333 1.333s1.333-0.533 1.333-1.333v-12.8l4.4 4.4c0.267 0.267 0.533 0.4 0.933 0.4s0.667-0.133 0.933-0.4c0.533-0.533 0.533-1.333 0-1.867l-6.667-6.667c-0.133-0.133-0.267-0.267-0.4-0.267-0.267-0.133-0.667-0.133-1.067 0-0.133 0.133-0.267 0.133-0.4 0.267l-6.667 6.667c-0.533 0.533-0.533 1.333 0 1.867s1.333 0.533 1.867 0z"></path>
</svg>
