<!-- Generated by IcoMoon.io -->
<svg version="1.1" xmlns="http://www.w3.org/2000/svg" width="32" height="32" viewBox="0 0 32 32">
<title>upload-cloud</title>
<path d="M31.067 15.467c-1.467-2.533-4.133-4.133-7.067-4.133h-0.667c-2-5.867-8.267-9.2-14.267-7.6-3.2 0.8-5.733 2.8-7.467 5.467s-2.133 6-1.333 9.067c0.533 1.867 1.333 3.467 2.667 4.933 0.533 0.533 1.333 0.667 1.867 0.133s0.667-1.333 0.133-1.867c-0.933-1.067-1.733-2.4-2-3.867-0.667-2.4-0.267-4.8 1.067-7.067 1.2-2.133 3.333-3.733 5.733-4.267 4.933-1.333 10.133 1.733 11.333 6.667 0.133 0.533 0.667 0.933 1.333 0.933h1.6c2 0 3.733 1.067 4.667 2.8 0.667 1.2 0.8 2.667 0.4 4s-1.333 2.533-2.533 3.2c-0.667 0.4-0.933 1.2-0.533 1.867 0.267 0.4 0.667 0.667 1.2 0.667 0.267 0 0.4 0 0.667-0.133 1.867-1.067 3.2-2.667 3.867-4.8 0.533-1.867 0.267-4.133-0.667-6zM16.933 15.733c-0.133-0.133-0.267-0.267-0.4-0.267-0.267-0.133-0.667-0.133-1.067 0-0.133 0.133-0.267 0.133-0.4 0.267l-5.333 5.333c-0.533 0.533-0.533 1.333 0 1.867s1.333 0.533 1.867 0l3.067-3.067v8.8c0 0.8 0.533 1.333 1.333 1.333s1.333-0.533 1.333-1.333v-8.8l3.067 3.067c0.267 0.267 0.667 0.4 0.933 0.4s0.667-0.133 0.933-0.4c0.533-0.533 0.533-1.333 0-1.867l-5.333-5.333z"></path>
</svg>
