<!-- Generated by IcoMoon.io -->
<svg version="1.1" xmlns="http://www.w3.org/2000/svg" width="32" height="32" viewBox="0 0 32 32">
<title>users</title>
<path d="M17.333 19.333h-10.667c-3.733 0-6.667 2.933-6.667 6.667v2.667c0 0.8 0.533 1.333 1.333 1.333s1.333-0.533 1.333-1.333v-2.667c0-2.267 1.733-4 4-4h10.667c2.267 0 4 1.733 4 4v2.667c0 0.8 0.533 1.333 1.333 1.333s1.333-0.533 1.333-1.333v-2.667c0-3.733-2.933-6.667-6.667-6.667zM12 16.667c3.733 0 6.667-2.933 6.667-6.667s-2.933-6.667-6.667-6.667-6.667 2.933-6.667 6.667 2.933 6.667 6.667 6.667zM12 6c2.267 0 4 1.733 4 4s-1.733 4-4 4-4-1.733-4-4 1.733-4 4-4zM26.933 19.6c-0.667-0.133-1.467 0.267-1.6 0.933s0.267 1.467 0.933 1.6c1.733 0.4 2.933 2 2.933 3.867v2.667c0 0.8 0.533 1.333 1.333 1.333s1.333-0.533 1.333-1.333v-2.667c0.133-3.067-1.867-5.733-4.933-6.4zM21.6 3.6c-0.667-0.267-1.333 0.133-1.6 0.933-0.133 0.667 0.267 1.467 0.933 1.6 2.133 0.533 3.467 2.667 2.933 4.933-0.4 1.467-1.467 2.533-2.933 2.933-0.667 0.133-1.2 0.933-0.933 1.6 0.133 0.667 0.667 1.067 1.333 1.067 0.133 0 0.267 0 0.267 0 2.4-0.667 4.267-2.4 4.8-4.8 0.933-3.733-1.2-7.467-4.8-8.267z"></path>
</svg>
