<!-- Generated by IcoMoon.io -->
<svg version="1.1" xmlns="http://www.w3.org/2000/svg" width="32" height="32" viewBox="0 0 32 32">
<title>user-minus</title>
<path d="M16 19.333h-9.333c-3.733 0-6.667 2.933-6.667 6.667v2.667c0 0.8 0.533 1.333 1.333 1.333s1.333-0.533 1.333-1.333v-2.667c0-2.267 1.733-4 4-4h9.333c2.267 0 4 1.733 4 4v2.667c0 0.8 0.533 1.333 1.333 1.333s1.333-0.533 1.333-1.333v-2.667c0-3.733-2.933-6.667-6.667-6.667zM11.333 16.667c3.733 0 6.667-2.933 6.667-6.667s-2.933-6.667-6.667-6.667-6.667 2.933-6.667 6.667 2.933 6.667 6.667 6.667zM11.333 6c2.267 0 4 1.733 4 4s-1.733 4-4 4-4-1.733-4-4 1.733-4 4-4zM30.667 14h-8c-0.8 0-1.333 0.533-1.333 1.333s0.533 1.333 1.333 1.333h8c0.8 0 1.333-0.533 1.333-1.333s-0.533-1.333-1.333-1.333z"></path>
</svg>
