<!-- Generated by IcoMoon.io -->
<svg version="1.1" xmlns="http://www.w3.org/2000/svg" width="32" height="32" viewBox="0 0 32 32">
<title>video</title>
<path d="M31.333 8.8c-0.4-0.267-0.933-0.133-1.333 0.133l-7.333 5.2v-4.133c0-2.267-1.733-4-4-4h-14.667c-2.267 0-4 1.733-4 4v13.333c0 2.267 1.733 4 4 4h14.667c2.267 0 4-1.733 4-4v-4.133l7.2 5.2c0.267 0.133 0.533 0.267 0.8 0.267s0.4 0 0.667-0.133c0.4-0.267 0.667-0.667 0.667-1.2v-13.333c0-0.533-0.267-0.933-0.667-1.2zM20 23.333c0 0.8-0.533 1.333-1.333 1.333h-14.667c-0.8 0-1.333-0.533-1.333-1.333v-13.333c0-0.8 0.533-1.333 1.333-1.333h14.667c0.8 0 1.333 0.533 1.333 1.333v13.333zM29.333 20.8l-5.733-4.133 5.733-4.133v8.267z"></path>
</svg>
