<!-- Generated by IcoMoon.io -->
<svg version="1.1" xmlns="http://www.w3.org/2000/svg" width="32" height="32" viewBox="0 0 32 32">
<title>video-off</title>
<path d="M31.333 8.8c-0.4-0.267-0.933-0.133-1.333 0.133l-7.2 5.067-0.133-0.133v-3.867c0-2.267-1.733-4-4-4h-4.4c-0.8 0-1.333 0.533-1.333 1.333s0.533 1.333 1.333 1.333h4.4c0.8 0 1.333 0.533 1.333 1.333v4.4c0 0.4 0.133 0.667 0.4 0.933l1.333 1.333c0.4 0.4 1.2 0.533 1.733 0.133l5.867-4.133v10.667c0 0.8 0.533 1.333 1.333 1.333s1.333-0.533 1.333-1.333v-13.333c0-0.533-0.267-0.933-0.667-1.2zM22.267 21.067c0 0 0 0 0 0l-14.667-14.667c0 0 0 0 0 0l-5.333-5.333c-0.533-0.533-1.333-0.533-1.867 0s-0.533 1.333 0 1.867l3.067 3.067c-2 0.267-3.467 2-3.467 4v13.333c0 2.267 1.733 4 4 4h14.667c1.6 0 3.067-1.067 3.733-2.4l7.333 7.333c0.267 0.267 0.667 0.4 0.933 0.4s0.667-0.133 0.933-0.4c0.533-0.533 0.533-1.333 0-1.867l-9.333-9.333zM20 23.333c0 0.8-0.533 1.333-1.333 1.333h-14.667c-0.8 0-1.333-0.533-1.333-1.333v-13.333c0-0.8 0.533-1.333 1.333-1.333h2.133l13.867 13.867v0.8z"></path>
</svg>
