<!-- Generated by IcoMoon.io -->
<svg version="1.1" xmlns="http://www.w3.org/2000/svg" width="32" height="32" viewBox="0 0 32 32">
<title>voicemail</title>
<path d="M24.667 8.667c-4 0-7.333 3.333-7.333 7.333 0 1.733 0.667 3.333 1.733 4.667h-6.133c1.067-1.333 1.733-2.933 1.733-4.667 0-4-3.333-7.333-7.333-7.333s-7.333 3.333-7.333 7.333c0 4 3.333 7.333 7.333 7.333h17.333c4 0 7.333-3.333 7.333-7.333s-3.333-7.333-7.333-7.333zM2.667 16c0-2.533 2.133-4.667 4.667-4.667s4.667 2.133 4.667 4.667-2.133 4.667-4.667 4.667-4.667-2.133-4.667-4.667zM24.667 20.667c-2.533 0-4.667-2.133-4.667-4.667s2.133-4.667 4.667-4.667 4.667 2.133 4.667 4.667-2.133 4.667-4.667 4.667z"></path>
</svg>
