<!-- Generated by IcoMoon.io -->
<svg version="1.1" xmlns="http://www.w3.org/2000/svg" width="32" height="32" viewBox="0 0 32 32">
<title>volume-2</title>
<path d="M15.2 6.133c-0.4-0.267-1.067-0.133-1.467 0.133l-6.267 5.067h-4.8c-0.8 0-1.333 0.533-1.333 1.333v8c0 0.8 0.533 1.333 1.333 1.333h4.8l6.267 5.067c0.267 0.133 0.533 0.267 0.8 0.267 0.133 0 0.4 0 0.533-0.133 0.4-0.267 0.8-0.667 0.8-1.2v-18.667c0.133-0.533-0.133-0.933-0.667-1.2zM13.333 23.2l-4.533-3.6c-0.267-0.133-0.533-0.267-0.8-0.267h-4v-5.333h4c0.267 0 0.533-0.133 0.8-0.267l4.533-3.6v13.067zM19.733 11.067c-0.533 0.533-0.533 1.333 0 1.867 2.133 2.133 2.133 5.467 0 7.6-0.533 0.533-0.533 1.333 0 1.867 0.267 0.267 0.667 0.4 0.933 0.4s0.667-0.133 0.933-0.4c3.067-3.067 3.067-8.133 0-11.333-0.4-0.533-1.333-0.533-1.867 0zM26.4 6.267c-0.533-0.533-1.333-0.533-1.867 0s-0.533 1.333 0 1.867c4.667 4.667 4.667 12.267 0 16.933-0.533 0.533-0.533 1.333 0 1.867 0.267 0.267 0.667 0.4 0.933 0.4s0.667-0.133 0.933-0.4c5.733-5.6 5.733-14.933 0-20.667z"></path>
</svg>
