<!-- Generated by IcoMoon.io -->
<svg version="1.1" xmlns="http://www.w3.org/2000/svg" width="32" height="32" viewBox="0 0 32 32">
<title>volume</title>
<path d="M15.2 6.133c-0.4-0.267-1.067-0.133-1.467 0.133l-6.267 5.067h-4.8c-0.8 0-1.333 0.533-1.333 1.333v8c0 0.8 0.533 1.333 1.333 1.333h4.8l6.267 5.067c0.267 0.133 0.533 0.267 0.8 0.267 0.133 0 0.4 0 0.533-0.133 0.4-0.267 0.8-0.667 0.8-1.2v-18.667c0.133-0.533-0.133-0.933-0.667-1.2zM13.333 23.2l-4.533-3.6c-0.267-0.133-0.533-0.267-0.8-0.267h-4v-5.333h4c0.267 0 0.533-0.133 0.8-0.267l4.533-3.6v13.067z"></path>
</svg>
