<!-- Generated by IcoMoon.io -->
<svg version="1.1" xmlns="http://www.w3.org/2000/svg" width="32" height="32" viewBox="0 0 32 32">
<title>watch</title>
<path d="M26.667 16.667c0-3.067-1.333-5.733-3.333-7.733l-0.4-4.667c-0.267-2-1.867-3.6-4-3.6 0 0 0 0 0 0h-5.867c-2 0-3.733 1.6-4 3.6l-0.4 4.667c-2 1.867-3.333 4.667-3.333 7.733s1.333 5.867 3.333 7.733l0.4 4.667c0.267 2 2 3.6 4 3.6 0 0 0 0 0 0h5.733c0 0 0 0 0 0 2.133 0 3.733-1.6 4-3.6l0.4-4.533c2.133-2 3.467-4.8 3.467-7.867zM11.733 4.533c0-0.667 0.667-1.2 1.333-1.2h5.867c0.667 0 1.333 0.533 1.333 1.2l0.267 2.4c-1.467-0.533-2.933-0.933-4.533-0.933s-3.067 0.4-4.4 0.933l0.133-2.4zM8 16.667c0-4.4 3.6-8 8-8s8 3.6 8 8-3.6 8-8 8-8-3.6-8-8zM20.267 28.8c0 0.667-0.667 1.2-1.333 1.2 0 0 0 0 0 0h-5.867c0 0 0 0 0 0-0.667 0-1.2-0.533-1.333-1.2l-0.267-2.4c1.333 0.667 2.8 0.933 4.4 0.933s3.067-0.4 4.4-0.933v2.4zM17.067 19.6c0.267 0.267 0.667 0.4 0.933 0.4s0.667-0.133 0.933-0.4c0.533-0.533 0.533-1.333 0-1.867l-1.6-1.6v-3.467c0-0.8-0.533-1.333-1.333-1.333s-1.333 0.533-1.333 1.333v4c0 0.4 0.133 0.667 0.4 0.933l2 2z"></path>
</svg>
