<!-- Generated by IcoMoon.io -->
<svg version="1.1" xmlns="http://www.w3.org/2000/svg" width="32" height="32" viewBox="0 0 32 32">
<title>wifi</title>
<path d="M5.867 16.4c-0.533 0.533-0.667 1.333-0.133 1.867 0.267 0.267 0.667 0.533 1.067 0.533 0.267 0 0.667-0.133 0.8-0.267 4.933-4.133 12.133-4.133 17.067 0 0.533 0.533 1.467 0.4 1.867-0.133 0.533-0.533 0.4-1.467-0.133-1.867-6-5.067-14.667-5.067-20.533-0.133zM30.933 11.6c-8.533-7.467-21.467-7.467-30 0-0.533 0.533-0.667 1.333-0.133 1.867 0.4 0.4 0.667 0.533 1.067 0.533 0.267 0 0.667-0.133 0.933-0.267 7.6-6.667 18.933-6.667 26.4 0 0.533 0.533 1.333 0.4 1.867-0.133 0.533-0.667 0.533-1.467-0.133-2zM10.667 21.067c-0.667 0.4-0.8 1.2-0.267 1.867 0.4 0.533 1.2 0.8 1.867 0.267 2.267-1.6 5.467-1.6 7.733 0 0.267 0.133 0.533 0.267 0.8 0.267 0.4 0 0.8-0.133 1.067-0.533 0.4-0.667 0.267-1.467-0.267-1.867-3.467-2.267-7.733-2.267-10.933 0zM15.067 26.4c-0.267 0.267-0.4 0.533-0.4 0.933s0.133 0.667 0.4 0.933c0.267 0.267 0.533 0.4 0.933 0.4s0.667-0.133 0.933-0.4c0.267-0.267 0.4-0.667 0.4-0.933s-0.133-0.667-0.4-0.933c-0.533-0.533-1.333-0.533-1.867 0z"></path>
</svg>
