<!-- Generated by IcoMoon.io -->
<svg version="1.1" xmlns="http://www.w3.org/2000/svg" width="32" height="32" viewBox="0 0 32 32">
<title>wifi-off</title>
<path d="M31.6 30.4l-22.533-22.533c0 0 0 0 0 0l-6.8-6.8c-0.533-0.533-1.333-0.533-1.867 0s-0.533 1.333 0 1.867l5.467 5.467c-1.733 0.933-3.333 2-4.8 3.333-0.533 0.533-0.667 1.333-0.133 1.867 0.267 0.267 0.533 0.4 0.933 0.4 0.267 0 0.667-0.133 0.933-0.4 1.467-1.333 3.2-2.4 5.067-3.2l3.067 3.067c-1.867 0.667-3.6 1.6-5.2 2.8-0.533 0.533-0.667 1.333-0.133 1.867 0.267 0.267 0.667 0.533 1.067 0.533 0.267 0 0.667-0.133 0.8-0.267 1.6-1.333 3.6-2.267 5.6-2.8l3.733 3.733c-2.133-0.133-4.4 0.4-6.133 1.733-0.667 0.4-0.8 1.2-0.267 1.867 0.4 0.533 1.2 0.8 1.867 0.267 2.267-1.6 5.467-1.6 7.733 0 0.267 0.133 0.533 0.267 0.8 0.267 0.133 0 0.133 0 0.267 0l8.8 8.8c0.267 0.267 0.667 0.4 0.933 0.4s0.667-0.133 0.933-0.4c0.4-0.533 0.4-1.333-0.133-1.867zM21.067 14.8c-0.267 0.667 0 1.467 0.667 1.733 0.933 0.533 1.867 1.067 2.8 1.867 0.267 0.267 0.533 0.267 0.8 0.267 0.4 0 0.8-0.133 1.067-0.533 0.533-0.533 0.4-1.467-0.133-1.867-1.067-0.8-2.133-1.6-3.333-2.133-0.667-0.267-1.467 0-1.867 0.667zM14.4 8.667c5.333-0.4 10.8 1.333 14.8 4.933 0.267 0.267 0.533 0.267 0.933 0.267s0.8-0.133 1.067-0.4c0.533-0.533 0.4-1.333-0.133-1.867-4.533-4-10.667-6.133-16.8-5.6-0.8 0-1.333 0.667-1.2 1.467 0 0.8 0.533 1.333 1.333 1.2zM15.067 26.4c-0.267 0.267-0.4 0.533-0.4 0.933s0.133 0.667 0.4 0.933c0.267 0.267 0.533 0.4 0.933 0.4s0.667-0.133 0.933-0.4c0.267-0.267 0.4-0.667 0.4-0.933s-0.133-0.667-0.4-0.933c-0.533-0.533-1.333-0.533-1.867 0z"></path>
</svg>
