<!-- Generated by IcoMoon.io -->
<svg version="1.1" xmlns="http://www.w3.org/2000/svg" width="32" height="32" viewBox="0 0 32 32">
<title>wind</title>
<path d="M18.667 20.667c0 0 0 0 0 0h-16c-0.8 0-1.333 0.533-1.333 1.333s0.533 1.333 1.333 1.333h16c0 0 0 0 0 0 0.4 0 0.667 0.133 0.933 0.4s0.4 0.533 0.4 0.933c0 0.4-0.133 0.667-0.4 0.933s-0.533 0.4-0.933 0.4c0 0 0 0 0 0-0.4 0-0.667-0.133-0.933-0.4-0.533-0.533-1.333-0.533-1.867 0s-0.533 1.333 0 1.867c0.8 0.8 1.733 1.2 2.8 1.2 0 0 0 0 0 0 1.067 0 2-0.4 2.8-1.2s1.2-1.733 1.2-2.8c0-1.067-0.4-2.133-1.2-2.8-0.667-0.8-1.733-1.2-2.8-1.2zM2.667 12.667h12c0 0 0 0 0 0 1.067 0 2.133-0.4 2.8-1.2 1.6-1.6 1.6-4.133 0-5.6-0.667-0.8-1.733-1.2-2.8-1.2s-2.133 0.4-2.8 1.2c-0.533 0.533-0.533 1.333 0 1.867s1.333 0.533 1.867 0c0.267-0.267 0.533-0.4 0.933-0.4 0 0 0 0 0 0 0.4 0 0.667 0.133 0.933 0.4 0.533 0.533 0.533 1.333 0 1.867-0.267 0.267-0.533 0.4-0.933 0.4 0 0 0 0 0 0h-12c-0.8 0-1.333 0.533-1.333 1.333s0.533 1.333 1.333 1.333zM29.333 10c-1.867-1.867-4.8-1.867-6.533 0-0.533 0.533-0.533 1.333 0 1.867s1.333 0.533 1.867 0c0.8-0.8 2-0.8 2.8 0s0.8 2 0 2.8c-0.4 0.4-0.933 0.533-1.467 0.533h-23.333c-0.8 0-1.333 0.533-1.333 1.333s0.533 1.333 1.333 1.333h23.333c1.2 0 2.4-0.533 3.333-1.333 1.733-1.733 1.733-4.667 0-6.533z"></path>
</svg>
