<!-- Generated by IcoMoon.io -->
<svg version="1.1" xmlns="http://www.w3.org/2000/svg" width="32" height="32" viewBox="0 0 32 32">
<title>zap-off</title>
<path d="M15.067 8.133l0.267-0.4-0.267 1.867c-0.133 0.667 0.4 1.333 1.2 1.467 0 0 0.133 0 0.133 0 0.667 0 1.2-0.533 1.333-1.2l0.933-6.4c0.133-0.533-0.267-1.2-0.8-1.333-0.533-0.267-1.2-0.133-1.6 0.4l-3.2 3.867c-0.533 0.533-0.4 1.333 0.133 1.867 0.667 0.4 1.467 0.4 1.867-0.133zM20.933 15.333h4.267l-1.467 1.733c-0.533 0.533-0.4 1.467 0.133 1.867 0.267 0.267 0.533 0.267 0.8 0.267 0.4 0 0.8-0.133 1.067-0.533l3.2-3.867c0.267-0.4 0.4-0.933 0.133-1.467-0.133-0.4-0.533-0.667-1.067-0.667h-7.067c-0.8 0-1.333 0.533-1.333 1.333s0.533 1.333 1.333 1.333zM31.6 30.4l-29.333-29.333c-0.533-0.533-1.333-0.533-1.867 0s-0.533 1.333 0 1.867l8.533 8.533-5.867 7.067c-0.267 0.4-0.4 0.933-0.133 1.467 0.133 0.4 0.533 0.667 1.067 0.667h10.533l-1.2 9.2c-0.133 0.533 0.267 1.2 0.8 1.333 0.133 0.133 0.4 0.133 0.533 0.133 0.4 0 0.8-0.133 1.067-0.533l5.733-6.933 8.267 8.267c0.267 0.267 0.667 0.4 0.933 0.4s0.667-0.133 0.933-0.4c0.533-0.4 0.533-1.2 0-1.733zM6.8 18l3.867-4.667 4.667 4.667h-8.533zM16.533 25.6l0.667-5.867 2.267 2.267-2.933 3.6z"></path>
</svg>
