<!-- Generated by IcoMoon.io -->
<svg version="1.1" xmlns="http://www.w3.org/2000/svg" width="32" height="32" viewBox="0 0 32 32">
<title>zoom-in</title>
<path d="M28.933 27.733l-4.933-4.933c1.6-2 2.667-4.667 2.667-7.467 0-6.667-5.333-12-12-12s-12 5.333-12 12c0 6.667 5.333 12 12 12 2.8 0 5.467-0.933 7.467-2.667l4.933 4.933c0.267 0.267 0.667 0.4 0.933 0.4s0.667-0.133 0.933-0.4c0.533-0.533 0.533-1.333 0-1.867zM5.333 15.333c0-5.2 4.133-9.333 9.333-9.333s9.333 4.133 9.333 9.333c0 2.533-1.067 4.933-2.667 6.533 0 0 0 0 0 0s0 0 0 0c-1.733 1.733-4 2.667-6.533 2.667-5.333 0.133-9.467-4-9.467-9.2zM18.667 14h-2.667v-2.667c0-0.8-0.533-1.333-1.333-1.333s-1.333 0.533-1.333 1.333v2.667h-2.667c-0.8 0-1.333 0.533-1.333 1.333s0.533 1.333 1.333 1.333h2.667v2.667c0 0.8 0.533 1.333 1.333 1.333s1.333-0.533 1.333-1.333v-2.667h2.667c0.8 0 1.333-0.533 1.333-1.333s-0.533-1.333-1.333-1.333z"></path>
</svg>
